<svg xmlns="http://www.w3.org/2000/svg" xmlns:xlink="http://www.w3.org/1999/xlink" width="40" zoomAndPan="magnify" viewBox="0 0 30 30.000001" height="40" preserveAspectRatio="xMidYMid meet" version="1.0"><defs><clipPath id="5567779591"><path d="M 0.484375 0 L 29.515625 0 L 29.515625 29 L 0.484375 29 Z M 0.484375 0 " clip-rule="nonzero"/></clipPath><clipPath id="30a095c45c"><path d="M 0.484375 11 L 2 11 L 2 14 L 0.484375 14 Z M 0.484375 11 " clip-rule="nonzero"/></clipPath><clipPath id="56e7e42f7f"><path d="M 0.625 1.789062 L 29.40625 1.789062 L 29.40625 28.988281 L 0.625 28.988281 Z M 0.625 1.789062 " clip-rule="nonzero"/></clipPath><clipPath id="0471712ec4"><path d="M 3.191406 20.859375 L 27.070312 20.859375 L 27.070312 28.988281 L 3.191406 28.988281 Z M 3.191406 20.859375 " clip-rule="nonzero"/></clipPath><clipPath id="a3fc26a7c1"><path d="M 0.484375 15 L 5 15 L 5 21 L 0.484375 21 Z M 0.484375 15 " clip-rule="nonzero"/></clipPath></defs><g clip-path="url(#5567779591)"><path fill="#68a92b" d="M 15.878906 1.417969 C 15.71875 1.34375 15.667969 1.140625 15.601562 0.972656 C 15.375 0.390625 14.738281 0 14.121094 0.0664062 C 13.503906 0.132812 12.964844 0.648438 12.863281 1.265625 C 12.234375 1.554688 11.671875 0.746094 11.011719 0.546875 C 10.203125 0.304688 9.339844 1.3125 9.695312 2.085938 C 8.847656 1.753906 8.136719 3.257812 7.257812 3.023438 C 7.027344 2.964844 6.847656 2.792969 6.660156 2.640625 C 6.363281 2.402344 6.015625 2.203125 5.636719 2.191406 C 5.261719 2.175781 4.855469 2.386719 4.742188 2.75 C 4.550781 3.34375 5.101562 4.1875 4.578125 4.519531 C 4.320312 4.6875 3.914062 4.585938 3.742188 4.839844 C 3.484375 5.214844 4.117188 5.644531 4.074219 6.097656 C 4.019531 6.636719 3.058594 6.9375 3.320312 7.410156 C 3.429688 7.597656 3.722656 7.695312 3.699219 7.914062 C 3.679688 8.085938 3.472656 8.15625 3.304688 8.171875 C 2.808594 8.21875 2.296875 8.140625 1.816406 8.285156 C 1.339844 8.429688 0.898438 8.917969 1.050781 9.398438 C 1.109375 9.585938 1.25 9.746094 1.273438 9.941406 C 1.34375 10.492188 0.492188 10.996094 0.808594 11.449219 C 1.039062 11.59375 1.371094 11.542969 1.546875 11.335938 C 1.703125 11.375 1.714844 11.613281 1.605469 11.734375 C 1.5 11.855469 1.335938 11.898438 1.195312 11.976562 C 0.671875 12.269531 0.667969 13.210938 1.230469 13.414062 C 0.949219 13.519531 0.945312 13.9375 1.09375 14.199219 C 1.242188 14.464844 1.492188 14.671875 1.574219 14.964844 C 1.644531 15.191406 1.59375 15.453125 1.449219 15.640625 C 1.191406 15.96875 0.671875 16.066406 0.625 16.550781 C 0.605469 16.78125 0.71875 17.003906 0.894531 17.152344 C 1.265625 17.460938 1.746094 17.4375 2.199219 17.414062 C 1.992188 17.90625 2.316406 18.550781 2.832031 18.667969 C 2.542969 19.003906 2.242188 19.367188 2.261719 19.839844 C 2.273438 20.074219 2.398438 20.304688 2.609375 20.40625 C 2.9375 20.5625 3.234375 20.347656 3.527344 20.210938 C 3.773438 20.097656 4.117188 20.0625 4.261719 20.296875 C 4.429688 20.558594 4.171875 20.890625 3.90625 21.046875 C 3.636719 21.199219 3.304688 21.324219 3.203125 21.621094 C 3.082031 21.976562 3.503906 22.378906 3.847656 22.238281 C 3.800781 22.777344 3.894531 23.507812 4.421875 23.570312 C 4.710938 23.605469 4.964844 23.398438 5.230469 23.28125 C 5.496094 23.164062 5.902344 23.203125 5.957031 23.492188 C 6.003906 23.738281 5.746094 23.972656 5.8125 24.214844 C 5.914062 24.601562 6.574219 24.398438 6.84375 24.691406 C 7.152344 25.019531 6.691406 25.582031 6.863281 26 C 7.042969 26.453125 7.710938 26.332031 8.140625 26.109375 C 8.570312 25.882812 9.183594 25.671875 9.464844 26.070312 C 9.734375 26.457031 9.367188 26.984375 9.414062 27.457031 C 9.46875 27.960938 10.019531 28.289062 10.523438 28.269531 C 11.027344 28.253906 11.484375 27.992188 11.917969 27.734375 C 11.914062 28.199219 12.210938 28.648438 12.640625 28.820312 C 13.066406 28.992188 13.589844 28.875 13.902344 28.535156 C 13.855469 28.835938 14.265625 29.03125 14.546875 28.917969 C 14.828125 28.808594 15.003906 28.53125 15.195312 28.292969 C 15.386719 28.058594 15.660156 27.832031 15.957031 27.882812 C 16.171875 27.921875 16.332031 28.097656 16.492188 28.25 C 16.824219 28.566406 17.238281 28.820312 17.695312 28.863281 C 18.148438 28.90625 18.644531 28.695312 18.851562 28.28125 C 19.054688 27.878906 19.007812 27.289062 19.414062 27.09375 C 20.046875 26.785156 20.851562 27.925781 21.363281 27.4375 C 21.515625 27.292969 21.546875 27.054688 21.683594 26.902344 C 22.175781 26.355469 23.386719 27.226562 23.691406 26.558594 C 23.894531 26.105469 23.332031 25.394531 23.765625 25.160156 C 23.863281 25.105469 23.980469 25.113281 24.09375 25.101562 C 24.917969 25.03125 25.425781 23.882812 24.921875 23.214844 C 25.347656 22.566406 26.679688 23.492188 26.984375 22.660156 C 27.066406 22.441406 27.023438 22.191406 26.90625 21.988281 C 26.507812 21.285156 26.746094 20.328125 27.382812 19.863281 C 27.6875 19.640625 28.0625 19.53125 28.382812 19.328125 C 28.703125 19.125 28.988281 18.773438 28.921875 18.394531 C 28.820312 17.777344 27.90625 17.550781 27.835938 16.925781 C 27.808594 16.667969 27.933594 16.460938 28.128906 16.300781 C 28.480469 16.007812 28.707031 15.589844 28.722656 15.128906 C 28.726562 14.976562 28.765625 14.828125 28.847656 14.699219 C 29.066406 14.355469 29.507812 14.183594 29.328125 13.546875 C 29.277344 13.359375 29.175781 13.179688 29.011719 13.078125 C 28.75 12.910156 28.417969 12.914062 28.121094 12.828125 C 27.734375 12.71875 27.332031 12.320312 27.722656 11.898438 C 27.878906 11.722656 28.125 11.675781 28.351562 11.714844 C 28.359375 11.714844 28.363281 11.71875 28.367188 11.71875 C 28.898438 11.800781 29.171875 11.101562 28.753906 10.757812 C 28.445312 10.5 28.222656 10.183594 28.285156 9.800781 C 28.351562 9.378906 28.769531 9.046875 27.863281 8.378906 C 27.835938 8.363281 27.800781 8.351562 27.769531 8.335938 C 27.433594 8.273438 27.097656 8.425781 26.753906 8.421875 C 26.414062 8.417969 26.015625 8.109375 26.152344 7.792969 C 26.214844 7.648438 26.359375 7.566406 26.46875 7.457031 C 26.914062 7 26.386719 6.0625 25.773438 6.214844 C 26.285156 5.300781 25.644531 3.960938 24.621094 3.796875 C 24.109375 3.714844 23.445312 3.808594 23.21875 3.339844 C 23.136719 3.164062 23.152344 2.957031 23.121094 2.765625 C 23.019531 2.121094 22.324219 1.636719 21.691406 1.78125 C 21.386719 1.847656 21.074219 2.035156 20.789062 1.914062 C 20.566406 1.820312 20.453125 1.578125 20.296875 1.394531 C 19.902344 0.9375 19.132812 0.882812 18.679688 1.28125 C 18.445312 0.449219 17.160156 0.195312 16.636719 0.878906 C 16.429688 1.148438 16.183594 1.566406 15.878906 1.417969 " fill-opacity="1" fill-rule="nonzero"/></g><path fill="#61981d" d="M 15.082031 16.078125 C 15.199219 16.152344 15.253906 15.917969 15.199219 15.789062 C 15.691406 15.742188 15.988281 16.464844 15.699219 16.871094 C 15.410156 17.277344 14.800781 17.328125 14.355469 17.113281 C 14.257812 17.066406 14.160156 17 14.125 16.902344 C 14.285156 17.300781 13.992188 17.8125 13.570312 17.867188 C 13.148438 17.925781 12.730469 17.511719 12.777344 17.085938 C 12.546875 17.492188 12.152344 17.871094 11.6875 17.84375 C 11.226562 17.8125 10.882812 17.136719 11.246094 16.847656 C 10.894531 17.003906 10.449219 16.75 10.339844 16.375 C 10.234375 16.003906 10.421875 15.582031 10.738281 15.363281 C 10.917969 15.234375 11.175781 15.058594 11.078125 14.855469 C 10.976562 14.648438 10.671875 14.761719 10.445312 14.800781 C 9.988281 14.875 9.554688 14.417969 9.546875 13.945312 C 9.535156 13.476562 9.859375 13.046875 10.261719 12.808594 C 10.0625 12.367188 9.238281 12.464844 9.144531 11.992188 C 9.082031 11.671875 9.445312 11.429688 9.765625 11.394531 C 10.085938 11.363281 10.429688 11.425781 10.714844 11.269531 C 10.667969 11.011719 10.410156 10.863281 10.238281 10.667969 C 9.839844 10.226562 9.941406 9.433594 10.433594 9.105469 C 10.925781 8.777344 11.6875 9 11.929688 9.542969 C 11.710938 9.277344 11.5 9.214844 11.210938 9.394531 C 10.921875 9.578125 10.796875 9.984375 10.933594 10.300781 C 11.15625 10.535156 11.4375 10.707031 11.746094 10.792969 C 11.363281 10.691406 10.992188 11.140625 11.070312 11.535156 C 11.144531 11.929688 11.53125 12.203125 11.921875 12.265625 C 12.074219 12.289062 12.226562 12.292969 12.378906 12.292969 C 11.902344 12.253906 11.394531 12.429688 11.109375 12.820312 C 10.824219 13.210938 10.824219 13.8125 11.171875 14.148438 C 11.519531 14.484375 12.183594 14.410156 12.394531 13.972656 C 11.992188 14.398438 11.863281 15.066406 12.078125 15.617188 C 12.226562 15.992188 12.566406 16.300781 12.96875 16.320312 C 13.34375 16.339844 13.203125 16.273438 13.539062 15.488281 C 13.445312 16.171875 14.140625 16.84375 14.8125 16.710938 C 15.011719 16.453125 15.101562 16.105469 15.050781 15.78125 C 15.101562 15.832031 15.019531 16.039062 15.082031 16.078125 " fill-opacity="1" fill-rule="nonzero"/><path fill="#61981d" d="M 21.40625 12.542969 C 21.21875 12.253906 20.832031 12.1875 20.488281 12.164062 C 20.753906 12.214844 21.039062 12.132812 21.234375 11.941406 C 21.382812 11.589844 21.023438 11.132812 20.648438 11.207031 C 21.023438 11.230469 21.382812 10.878906 21.367188 10.5 C 21.359375 10.179688 21.089844 9.902344 20.78125 9.847656 C 21.050781 9.792969 21.25 9.417969 21.128906 9.136719 C 20.984375 8.792969 20.574219 8.644531 20.207031 8.648438 C 19.789062 8.652344 19.375 8.804688 19.050781 9.074219 C 19.078125 9.058594 19.105469 9.035156 19.128906 9.011719 C 19.511719 8.644531 19.089844 7.988281 18.589844 8.15625 C 18.511719 8.183594 18.433594 8.214844 18.359375 8.246094 C 18.714844 8.144531 18.839844 7.636719 18.636719 7.324219 C 18.433594 7.015625 18.015625 6.902344 17.652344 6.972656 C 17.445312 7.015625 17.253906 7.109375 17.074219 7.222656 C 17.285156 7.285156 17.464844 7.4375 17.542969 7.644531 C 17.65625 7.960938 17.46875 8.363281 17.148438 8.449219 C 17.601562 8.480469 18.089844 8.550781 18.40625 8.875 C 18.621094 9.09375 18.730469 9.425781 18.644531 9.71875 C 18.554688 10.011719 18.25 10.238281 17.949219 10.1875 C 18.5 10.207031 19.046875 10.390625 19.496094 10.714844 C 19.738281 10.886719 19.96875 11.132812 19.976562 11.433594 C 19.984375 11.660156 19.789062 11.882812 19.585938 11.910156 C 19.820312 12.015625 19.972656 12.324219 20.023438 12.601562 C 20.050781 12.75 20.066406 12.90625 20.003906 13.042969 C 19.933594 13.199219 19.757812 13.273438 19.589844 13.261719 C 19.707031 13.445312 19.75 13.726562 19.742188 13.960938 C 19.445312 14.050781 19.230469 13.753906 18.988281 13.515625 C 18.976562 13.746094 18.980469 13.980469 19.054688 14.199219 C 19.152344 14.503906 19.414062 14.777344 19.726562 14.785156 C 20.035156 14.792969 20.320312 14.515625 20.324219 14.203125 C 20.585938 14.339844 20.9375 14.25 21.105469 14.003906 C 21.269531 13.757812 21.222656 13.394531 21.003906 13.199219 C 21.3125 13.347656 21.597656 12.835938 21.40625 12.542969 " fill-opacity="1" fill-rule="nonzero"/><path fill="#61981d" d="M 16.800781 7.191406 C 16.800781 7.304688 16.765625 7.414062 16.691406 7.503906 C 16.8125 7.402344 16.941406 7.308594 17.074219 7.222656 C 16.988281 7.195312 16.894531 7.1875 16.800781 7.191406 " fill-opacity="1" fill-rule="nonzero"/><path fill="#61981d" d="M 16.210938 6.484375 C 15.757812 6.4375 15.34375 6.859375 15.292969 7.320312 C 15.171875 7.136719 15.027344 6.9375 14.8125 6.890625 C 14.601562 6.84375 14.339844 7.0625 14.4375 7.261719 C 14.253906 6.992188 13.980469 6.742188 13.660156 6.753906 C 13.335938 6.765625 13.0625 7.195312 13.28125 7.433594 C 13.378906 7.160156 13.667969 7.179688 13.949219 7.234375 C 14.101562 7.617188 14.199219 8.023438 14.238281 8.429688 C 14.324219 8.082031 14.671875 7.820312 15.027344 7.839844 C 15.382812 7.859375 15.707031 8.160156 15.753906 8.515625 C 15.976562 8.410156 15.984375 8.101562 16.046875 7.863281 C 16.136719 7.539062 16.40625 7.257812 16.734375 7.199219 C 16.757812 7.195312 16.777344 7.195312 16.800781 7.191406 C 16.808594 6.867188 16.546875 6.519531 16.210938 6.484375 " fill-opacity="1" fill-rule="nonzero"/><path fill="#61981d" d="M 19.585938 11.910156 C 19.523438 11.882812 19.460938 11.863281 19.390625 11.867188 C 19.453125 11.90625 19.519531 11.917969 19.585938 11.910156 " fill-opacity="1" fill-rule="nonzero"/><path fill="#61981d" d="M 11.1875 21.859375 C 11.191406 21.855469 11.195312 21.855469 11.195312 21.851562 C 11.226562 21.800781 11.253906 21.75 11.273438 21.695312 C 11.289062 21.652344 11.285156 21.605469 11.265625 21.566406 C 11.246094 21.527344 11.210938 21.5 11.167969 21.488281 C 11.109375 21.472656 11.042969 21.488281 10.992188 21.523438 C 10.890625 21.429688 10.785156 21.355469 10.660156 21.351562 L 10.652344 20.839844 C 10.652344 20.792969 10.632812 20.753906 10.597656 20.722656 C 10.566406 20.695312 10.523438 20.679688 10.480469 20.683594 C 10 20.734375 9.507812 20.464844 9.292969 20.039062 C 9.109375 19.679688 9.125 19.214844 9.335938 18.855469 C 9.394531 18.785156 9.441406 18.722656 9.472656 18.65625 C 9.511719 18.585938 9.492188 18.5 9.425781 18.453125 C 9.363281 18.40625 9.273438 18.417969 9.21875 18.476562 C 9.171875 18.535156 9.125 18.597656 9.082031 18.671875 C 8.867188 18.917969 8.546875 19.03125 8.316406 18.929688 C 8.171875 18.867188 8.101562 18.691406 8.09375 18.550781 C 8.089844 18.441406 8.117188 18.308594 8.214844 18.25 C 8.246094 18.238281 8.273438 18.226562 8.304688 18.214844 C 8.375 18.179688 8.414062 18.09375 8.386719 18.019531 C 8.359375 17.941406 8.28125 17.894531 8.199219 17.917969 C 8.160156 17.925781 8.125 17.941406 8.089844 17.957031 C 8.019531 17.980469 7.945312 17.992188 7.867188 17.992188 C 7.519531 17.992188 7.195312 17.78125 7.074219 17.484375 C 6.9375 17.15625 7.066406 16.722656 7.363281 16.492188 C 7.453125 16.453125 7.527344 16.410156 7.589844 16.359375 C 7.648438 16.308594 7.664062 16.222656 7.625 16.15625 C 7.585938 16.089844 7.503906 16.0625 7.433594 16.089844 C 7.359375 16.117188 7.289062 16.160156 7.210938 16.214844 C 6.894531 16.332031 6.460938 16.175781 6.308594 15.882812 C 6.28125 15.832031 6.265625 15.78125 6.25 15.726562 C 6.328125 15.722656 6.402344 15.722656 6.476562 15.734375 L 6.519531 15.746094 C 6.53125 15.75 6.546875 15.75 6.558594 15.75 C 6.628906 15.75 6.691406 15.703125 6.710938 15.632812 C 6.730469 15.546875 6.683594 15.460938 6.597656 15.441406 C 6.578125 15.433594 6.558594 15.429688 6.539062 15.425781 C 6.441406 15.40625 6.339844 15.402344 6.242188 15.410156 C 6.289062 15.136719 6.457031 14.886719 6.691406 14.773438 C 6.765625 14.734375 6.800781 14.648438 6.769531 14.570312 C 6.742188 14.496094 6.65625 14.453125 6.578125 14.476562 C 6.515625 14.496094 6.449219 14.507812 6.382812 14.507812 C 6.019531 14.507812 5.675781 14.242188 5.59375 13.90625 C 5.546875 13.710938 5.589844 13.492188 5.710938 13.300781 C 5.832031 13.109375 6.015625 12.980469 6.210938 12.945312 C 6.269531 12.933594 6.3125 12.894531 6.332031 12.839844 C 6.351562 12.785156 6.339844 12.726562 6.300781 12.683594 C 6.175781 12.542969 6.132812 12.378906 6.125 12.238281 C 6.167969 12.210938 6.199219 12.167969 6.203125 12.113281 C 6.207031 12.058594 6.183594 12.007812 6.144531 11.976562 C 6.230469 11.574219 6.558594 11.179688 6.984375 11.179688 L 6.988281 11.179688 C 7.074219 11.183594 7.148438 11.113281 7.148438 11.023438 C 7.148438 10.941406 7.085938 10.875 7.011719 10.867188 C 6.835938 10.8125 6.734375 10.59375 6.730469 10.410156 C 6.726562 10.332031 6.734375 10.148438 6.886719 10.097656 C 6.9375 10.082031 6.972656 10.039062 6.988281 9.988281 C 7 9.9375 6.988281 9.882812 6.953125 9.84375 C 6.714844 9.570312 6.355469 9.40625 5.992188 9.40625 L 5.960938 9.40625 C 5.914062 9.40625 5.867188 9.429688 5.839844 9.46875 C 5.6875 9.671875 5.640625 9.945312 5.703125 10.214844 C 5.730469 10.320312 5.769531 10.414062 5.820312 10.5 C 5.460938 10.582031 5.160156 10.886719 5.113281 11.25 C 5.085938 11.453125 5.140625 11.660156 5.257812 11.835938 C 5.203125 11.835938 5.148438 11.839844 5.097656 11.847656 C 4.691406 11.910156 4.359375 12.160156 4.25 12.488281 C 4.179688 12.691406 4.214844 12.9375 4.339844 13.128906 C 4.441406 13.28125 4.585938 13.382812 4.75 13.40625 C 4.691406 13.457031 4.640625 13.519531 4.59375 13.589844 C 4.4375 13.828125 4.402344 14.113281 4.5 14.351562 C 4.617188 14.632812 4.886719 14.835938 5.214844 14.894531 C 5.128906 15.035156 5.128906 15.167969 5.140625 15.253906 C 5.179688 15.464844 5.335938 15.605469 5.523438 15.679688 C 5.191406 15.90625 4.910156 16.226562 4.703125 16.488281 C 4.675781 16.527344 4.664062 16.578125 4.675781 16.625 C 4.703125 16.730469 4.773438 16.816406 4.867188 16.867188 C 4.789062 17.082031 4.78125 17.332031 4.851562 17.574219 C 4.945312 17.898438 5.15625 18.160156 5.4375 18.285156 C 5.699219 18.402344 6.023438 18.394531 6.292969 18.277344 C 6.25 18.371094 6.210938 18.472656 6.195312 18.578125 C 6.160156 18.796875 6.222656 19.027344 6.367188 19.214844 C 6.507812 19.402344 6.714844 19.519531 6.929688 19.539062 C 7.003906 19.542969 7.078125 19.539062 7.148438 19.523438 C 7.117188 19.828125 7.191406 20.101562 7.359375 20.3125 C 7.5 20.488281 7.722656 20.589844 7.972656 20.589844 C 8.085938 20.589844 8.1875 20.570312 8.285156 20.535156 C 8.3125 20.882812 8.5 21.210938 8.789062 21.375 C 8.988281 21.492188 9.246094 21.527344 9.488281 21.480469 C 9.472656 21.75 9.5625 22.035156 9.800781 22.210938 C 9.945312 22.3125 10.117188 22.367188 10.300781 22.367188 C 10.644531 22.367188 10.988281 22.179688 11.179688 21.886719 C 11.183594 21.878906 11.183594 21.871094 11.1875 21.859375 " fill-opacity="1" fill-rule="nonzero"/><path fill="#61981d" d="M 17.796875 20.066406 C 17.796875 20.058594 17.796875 20.054688 17.792969 20.046875 C 17.789062 20.039062 17.785156 20.027344 17.777344 20.015625 C 17.738281 19.957031 17.664062 19.929688 17.59375 19.953125 C 17.542969 19.972656 17.507812 20.019531 17.496094 20.074219 C 17.378906 20.433594 17.042969 20.671875 16.65625 20.640625 L 15.929688 20.578125 C 15.859375 20.570312 15.796875 20.609375 15.769531 20.671875 C 15.746094 20.734375 15.761719 20.808594 15.808594 20.851562 C 15.851562 20.890625 15.839844 20.953125 15.828125 20.984375 C 15.800781 21.070312 15.730469 21.136719 15.636719 21.144531 C 15.46875 21.144531 15.320312 20.976562 15.273438 20.808594 C 15.265625 20.789062 15.265625 20.765625 15.257812 20.714844 C 15.246094 20.636719 15.179688 20.582031 15.101562 20.582031 C 15.027344 20.582031 14.960938 20.636719 14.949219 20.714844 C 14.90625 20.964844 14.84375 21.203125 14.753906 21.417969 C 14.726562 21.367188 14.675781 21.335938 14.613281 21.339844 C 14.550781 21.34375 14.496094 21.382812 14.472656 21.4375 C 14.269531 21.933594 13.640625 22.261719 13.113281 22.140625 C 12.984375 22.109375 12.855469 22.050781 12.730469 21.96875 L 12.730469 21.960938 C 12.71875 21.890625 12.660156 21.839844 12.59375 21.832031 C 12.582031 21.832031 12.570312 21.832031 12.558594 21.832031 C 12.425781 21.707031 12.3125 21.558594 12.234375 21.390625 C 12.203125 21.324219 12.128906 21.289062 12.058594 21.304688 C 11.988281 21.320312 11.9375 21.382812 11.9375 21.457031 C 11.9375 21.503906 11.933594 21.5625 11.921875 21.617188 C 11.871094 21.835938 11.632812 22.019531 11.464844 21.945312 C 11.441406 21.9375 11.414062 21.921875 11.382812 21.898438 C 11.335938 21.867188 11.273438 21.859375 11.222656 21.890625 C 11.167969 21.917969 11.136719 21.972656 11.136719 22.03125 C 11.144531 22.449219 11.429688 22.816406 11.804688 22.882812 C 12.03125 22.925781 12.265625 22.851562 12.441406 22.695312 C 12.5625 22.980469 12.796875 23.207031 13.078125 23.285156 C 13.398438 23.371094 13.761719 23.261719 14.007812 23.027344 C 14.070312 23.25 14.203125 23.449219 14.386719 23.578125 C 14.53125 23.683594 14.71875 23.742188 14.910156 23.742188 C 15.199219 23.742188 15.464844 23.613281 15.613281 23.394531 C 15.734375 23.214844 15.769531 22.984375 15.714844 22.765625 C 15.929688 22.746094 16.128906 22.644531 16.257812 22.488281 C 16.40625 22.304688 16.480469 22.0625 16.472656 21.800781 C 16.808594 21.945312 17.28125 21.875 17.546875 21.617188 C 17.910156 21.257812 18.007812 20.652344 17.796875 20.066406 " fill-opacity="1" fill-rule="nonzero"/><path fill="#61981d" d="M 20.792969 15.484375 C 21.050781 15.441406 21.328125 15.53125 21.507812 15.722656 C 21.6875 15.917969 21.765625 16.203125 21.707031 16.460938 C 21.648438 16.71875 21.371094 16.957031 21.140625 16.832031 C 21.421875 17.09375 21.5625 17.53125 21.402344 17.882812 C 21.238281 18.230469 20.726562 18.386719 20.445312 18.125 C 20.40625 18.089844 20.414062 17.992188 20.460938 18.019531 C 20.710938 18.265625 20.691406 18.730469 20.421875 18.953125 C 20.152344 19.175781 19.695312 19.101562 19.511719 18.800781 C 19.644531 19.039062 19.601562 19.367188 19.40625 19.558594 C 19.207031 19.746094 18.875 19.769531 18.65625 19.605469 C 18.441406 19.441406 18.371094 19.105469 18.511719 18.871094 C 18.601562 19 18.5625 19.148438 18.707031 19.097656 C 18.746094 18.777344 18.785156 18.460938 18.824219 18.140625 C 19.015625 18.421875 19.460938 18.480469 19.714844 18.253906 C 19.972656 18.03125 19.976562 17.574219 19.726562 17.34375 C 20.039062 17.410156 20.429688 17.449219 20.613281 17.1875 C 20.832031 16.875 20.558594 16.460938 20.300781 16.183594 C 20.503906 16.492188 21.027344 16.492188 21.238281 16.1875 C 21.449219 15.882812 21.265625 15.390625 20.910156 15.300781 C 20.902344 15.21875 20.714844 15.464844 20.792969 15.484375 " fill-opacity="1" fill-rule="nonzero"/><path fill="#61981d" d="M 13.015625 25.015625 C 12.992188 24.867188 12.925781 24.726562 12.804688 24.628906 C 12.824219 24.785156 12.90625 24.914062 13.015625 25.015625 " fill-opacity="1" fill-rule="nonzero"/><path fill="#61981d" d="M 16.183594 23.859375 C 16.207031 24.015625 16.226562 24.175781 16.25 24.335938 C 16.320312 24.171875 16.3125 23.992188 16.183594 23.859375 " fill-opacity="1" fill-rule="nonzero"/><path fill="#61981d" d="M 10.175781 24.019531 C 10.117188 24.066406 10.066406 24.121094 10.023438 24.179688 C 10.078125 24.132812 10.132812 24.082031 10.175781 24.019531 " fill-opacity="1" fill-rule="nonzero"/><path fill="#61981d" d="M 8.609375 23.152344 C 8.703125 23.054688 8.777344 22.941406 8.824219 22.820312 C 8.726562 22.910156 8.65625 23.027344 8.609375 23.152344 " fill-opacity="1" fill-rule="nonzero"/><path fill="#61981d" d="M 22.003906 21.277344 C 22.070312 21.285156 22.132812 21.285156 22.199219 21.277344 C 22.136719 21.261719 22.070312 21.257812 22.003906 21.277344 " fill-opacity="1" fill-rule="nonzero"/><g clip-path="url(#30a095c45c)"><path fill="#61981d" d="M 1.226562 12.015625 C 0.710938 12.304688 0.703125 13.234375 1.253906 13.449219 C 1.167969 13.339844 1.097656 13.21875 1.054688 13.085938 C 0.941406 12.714844 1.035156 12.292969 1.277344 11.992188 C 1.261719 12 1.242188 12.007812 1.226562 12.015625 " fill-opacity="1" fill-rule="nonzero"/></g><path fill="#61981d" d="M 20.601562 1.777344 C 20.503906 1.671875 20.421875 1.542969 20.328125 1.433594 C 20.191406 1.273438 20.003906 1.167969 19.804688 1.105469 C 19.808594 1.292969 19.8125 1.480469 19.816406 1.667969 C 20.082031 1.617188 20.355469 1.664062 20.601562 1.777344 " fill-opacity="1" fill-rule="nonzero"/><g clip-path="url(#56e7e42f7f)"><path fill="#61981d" d="M 28.957031 18.433594 C 28.855469 17.816406 27.9375 17.589844 27.871094 16.964844 C 27.84375 16.707031 27.964844 16.5 28.160156 16.339844 C 28.515625 16.046875 28.738281 15.628906 28.753906 15.164062 C 28.761719 15.015625 28.800781 14.867188 28.882812 14.738281 C 29.101562 14.394531 29.542969 14.222656 29.363281 13.585938 C 29.308594 13.394531 29.210938 13.21875 29.046875 13.117188 C 28.78125 12.949219 28.453125 12.953125 28.152344 12.867188 C 27.769531 12.757812 27.363281 12.359375 27.753906 11.933594 C 27.914062 11.761719 28.15625 11.714844 28.386719 11.753906 C 28.390625 11.753906 28.398438 11.753906 28.402344 11.757812 C 28.933594 11.839844 29.210938 11.140625 28.792969 10.796875 C 28.480469 10.542969 28.257812 10.222656 28.316406 9.839844 C 28.382812 9.417969 28.804688 9.085938 27.902344 8.417969 C 27.867188 8.402344 27.835938 8.390625 27.804688 8.375 C 27.46875 8.3125 27.128906 8.460938 26.789062 8.460938 C 26.445312 8.457031 26.050781 8.148438 26.1875 7.832031 C 26.25 7.6875 26.394531 7.605469 26.503906 7.496094 C 26.949219 7.039062 26.421875 6.101562 25.808594 6.253906 C 26.316406 5.339844 25.679688 4 24.652344 3.835938 C 24.144531 3.753906 23.476562 3.84375 23.253906 3.375 C 23.167969 3.203125 23.183594 2.996094 23.15625 2.804688 C 23.054688 2.160156 22.355469 1.675781 21.726562 1.816406 C 21.457031 1.878906 21.183594 2.03125 20.925781 1.980469 C 21.125 2.148438 21.277344 2.367188 21.351562 2.617188 C 21.855469 2.613281 22.195312 3.316406 21.886719 3.714844 C 22.394531 3.503906 23.03125 3.671875 23.375 4.101562 C 23.71875 4.535156 23.742188 5.199219 23.433594 5.65625 C 24.335938 5.722656 24.859375 7.027344 24.253906 7.710938 C 24.621094 7.480469 25.097656 8.125 24.777344 8.414062 C 25.167969 8.433594 25.59375 8.597656 25.761719 8.957031 C 25.925781 9.316406 25.648438 9.847656 25.261719 9.785156 C 25.757812 9.820312 26.109375 10.34375 26.136719 10.847656 C 26.167969 11.351562 25.957031 11.835938 25.75 12.296875 C 25.464844 12.296875 25.175781 12.300781 24.890625 12.300781 C 25.582031 12.769531 26.105469 13.628906 25.867188 14.433594 C 25.628906 15.238281 24.375 15.59375 23.941406 14.878906 C 24.171875 15.269531 24.40625 15.691406 24.394531 16.148438 C 24.378906 16.605469 23.996094 17.078125 23.550781 17.007812 C 23.863281 17.058594 24.109375 17.359375 24.105469 17.675781 C 24.097656 17.996094 23.839844 18.289062 23.527344 18.328125 C 23.691406 18.636719 23.628906 19.046875 23.386719 19.289062 C 23.128906 19.210938 22.871094 19.128906 22.617188 19.050781 C 23.109375 19.28125 23.390625 19.898438 23.246094 20.425781 C 23.117188 20.894531 22.671875 21.242188 22.199219 21.277344 C 22.453125 21.347656 22.644531 21.6875 22.582031 21.972656 C 22.503906 22.332031 22.199219 22.585938 21.914062 22.804688 C 21.488281 23.132812 21.015625 23.472656 20.480469 23.460938 C 20.035156 23.449219 19.59375 23.054688 19.589844 22.636719 C 19.378906 23.25 18.464844 23.566406 17.976562 23.101562 C 18.226562 23.480469 17.980469 24.03125 17.589844 24.257812 C 17.195312 24.484375 16.71875 24.480469 16.269531 24.472656 C 16.261719 24.425781 16.257812 24.378906 16.25 24.335938 C 16.144531 24.585938 15.863281 24.800781 15.578125 24.773438 C 15.109375 24.726562 14.773438 24.304688 14.519531 23.902344 C 14.597656 24.394531 14.394531 24.957031 13.949219 25.175781 C 13.644531 25.324219 13.253906 25.242188 13.015625 25.015625 C 13.058594 25.316406 12.929688 25.652344 12.652344 25.789062 C 12.242188 25.996094 11.683594 25.714844 11.558594 25.269531 C 11.269531 25.746094 10.535156 25.855469 10.125 25.484375 C 9.769531 25.164062 9.742188 24.558594 10.023438 24.179688 C 9.691406 24.449219 9.164062 24.464844 8.839844 24.179688 C 8.5625 23.929688 8.484375 23.5 8.609375 23.152344 C 8.207031 23.578125 7.460938 23.710938 7.183594 23.203125 C 7.0625 22.976562 7.074219 22.707031 7.089844 22.453125 C 7.121094 21.902344 7.152344 21.351562 7.183594 20.800781 C 7.011719 21.324219 6.363281 21.625 5.855469 21.421875 C 5.351562 21.214844 5.085938 20.546875 5.316406 20.046875 C 5.035156 19.96875 4.75 19.894531 4.46875 19.816406 C 4.441406 19.464844 4.542969 19.101562 4.75 18.8125 C 4.414062 19.078125 3.863281 18.824219 3.738281 18.410156 C 3.613281 18 3.820312 17.546875 4.132812 17.253906 C 3.835938 17.53125 3.320312 17.511719 3.042969 17.210938 C 2.769531 16.914062 2.785156 16.390625 3.078125 16.109375 C 2.804688 16.363281 2.308594 16.121094 2.238281 15.753906 C 2.164062 15.386719 2.402344 15.019531 2.710938 14.816406 C 2.507812 14.742188 2.304688 14.667969 2.101562 14.59375 C 2.152344 14.359375 2.207031 14.128906 2.261719 13.894531 C 1.882812 13.929688 1.5 13.75 1.261719 13.457031 C 0.984375 13.5625 0.980469 13.976562 1.128906 14.238281 C 1.277344 14.503906 1.523438 14.710938 1.609375 15 C 1.675781 15.230469 1.628906 15.492188 1.480469 15.675781 C 1.222656 16.007812 0.707031 16.105469 0.660156 16.589844 C 0.636719 16.820312 0.75 17.042969 0.929688 17.191406 C 1.300781 17.496094 1.78125 17.476562 2.230469 17.453125 C 2.027344 17.945312 2.351562 18.589844 2.867188 18.707031 C 2.578125 19.042969 2.273438 19.402344 2.296875 19.875 C 2.308594 20.113281 2.433594 20.34375 2.644531 20.445312 C 2.972656 20.601562 3.269531 20.382812 3.5625 20.25 C 3.804688 20.132812 4.152344 20.101562 4.296875 20.335938 C 4.460938 20.597656 4.207031 20.929688 3.9375 21.085938 C 3.671875 21.238281 3.339844 21.363281 3.238281 21.65625 C 3.117188 22.015625 3.539062 22.417969 3.882812 22.277344 C 3.832031 22.816406 3.929688 23.546875 4.457031 23.609375 C 4.746094 23.640625 5 23.4375 5.265625 23.320312 C 5.53125 23.203125 5.9375 23.242188 5.992188 23.53125 C 6.039062 23.777344 5.78125 24.011719 5.84375 24.253906 C 5.949219 24.640625 6.605469 24.4375 6.878906 24.730469 C 7.183594 25.058594 6.726562 25.617188 6.894531 26.039062 C 7.078125 26.492188 7.746094 26.371094 8.175781 26.148438 C 8.605469 25.921875 9.21875 25.710938 9.496094 26.109375 C 9.769531 26.496094 9.398438 27.023438 9.449219 27.492188 C 9.503906 28 10.054688 28.324219 10.558594 28.308594 C 11.058594 28.292969 11.515625 28.03125 11.949219 27.773438 C 11.945312 28.238281 12.246094 28.6875 12.671875 28.859375 C 13.097656 29.03125 13.625 28.914062 13.9375 28.574219 C 13.890625 28.875 14.300781 29.070312 14.582031 28.957031 C 14.863281 28.847656 15.039062 28.570312 15.230469 28.332031 C 15.421875 28.097656 15.695312 27.871094 15.992188 27.921875 C 16.207031 27.960938 16.367188 28.136719 16.527344 28.289062 C 16.859375 28.601562 17.273438 28.859375 17.726562 28.902344 C 18.183594 28.941406 18.679688 28.734375 18.886719 28.320312 C 19.085938 27.917969 19.042969 27.328125 19.449219 27.132812 C 20.082031 26.824219 20.886719 27.964844 21.398438 27.472656 C 21.546875 27.332031 21.578125 27.09375 21.71875 26.941406 C 22.207031 26.394531 23.417969 27.265625 23.722656 26.597656 C 23.929688 26.144531 23.363281 25.433594 23.800781 25.199219 C 23.898438 25.144531 24.015625 25.152344 24.128906 25.140625 C 24.953125 25.070312 25.457031 23.921875 24.957031 23.253906 C 25.378906 22.605469 26.714844 23.527344 27.019531 22.699219 C 27.097656 22.476562 27.058594 22.230469 26.941406 22.023438 C 26.542969 21.324219 26.78125 20.367188 27.414062 19.902344 C 27.722656 19.679688 28.09375 19.570312 28.417969 19.367188 C 28.738281 19.164062 29.019531 18.8125 28.957031 18.433594 " fill-opacity="1" fill-rule="nonzero"/></g><path fill="#61981d" d="M 19.589844 22.636719 C 19.613281 22.558594 19.632812 22.476562 19.632812 22.390625 C 19.597656 22.472656 19.585938 22.554688 19.589844 22.636719 " fill-opacity="1" fill-rule="nonzero"/><path fill="#528221" d="M 20.601562 1.777344 C 20.503906 1.671875 20.421875 1.542969 20.328125 1.433594 C 20.191406 1.273438 20.003906 1.167969 19.804688 1.105469 C 19.808594 1.292969 19.8125 1.480469 19.816406 1.667969 C 20.082031 1.617188 20.355469 1.664062 20.601562 1.777344 " fill-opacity="1" fill-rule="nonzero"/><path fill="#528221" d="M 22.632812 19.058594 L 22.636719 19.058594 C 22.628906 19.054688 22.625 19.054688 22.617188 19.050781 C 22.621094 19.054688 22.625 19.058594 22.632812 19.058594 " fill-opacity="1" fill-rule="nonzero"/><path fill="#528221" d="M 7.183594 20.800781 C 7.167969 20.851562 7.144531 20.898438 7.117188 20.945312 C 7.128906 20.988281 7.148438 21.03125 7.167969 21.074219 C 7.175781 20.984375 7.179688 20.890625 7.183594 20.800781 " fill-opacity="1" fill-rule="nonzero"/><path fill="#528221" d="M 21.351562 2.617188 C 21.855469 2.613281 22.195312 3.316406 21.886719 3.714844 C 22.394531 3.503906 23.03125 3.671875 23.375 4.101562 C 23.71875 4.535156 23.742188 5.199219 23.433594 5.65625 C 24.335938 5.722656 24.859375 7.027344 24.253906 7.710938 C 24.621094 7.480469 25.097656 8.125 24.777344 8.414062 C 25.167969 8.433594 25.59375 8.597656 25.761719 8.957031 C 25.925781 9.316406 25.648438 9.847656 25.261719 9.785156 C 25.476562 9.800781 25.664062 9.910156 25.808594 10.070312 C 25.996094 9.652344 26.164062 9.210938 26.136719 8.757812 C 26.109375 8.253906 25.757812 7.726562 25.261719 7.691406 C 25.648438 7.753906 25.925781 7.222656 25.761719 6.863281 C 25.59375 6.503906 25.167969 6.34375 24.777344 6.324219 C 25.097656 6.03125 24.621094 5.386719 24.253906 5.617188 C 24.726562 5.082031 24.507812 4.171875 23.960938 3.765625 C 23.65625 3.726562 23.382812 3.644531 23.253906 3.375 C 23.167969 3.203125 23.183594 2.996094 23.15625 2.804688 C 23.054688 2.160156 22.355469 1.675781 21.726562 1.816406 C 21.457031 1.878906 21.183594 2.03125 20.925781 1.980469 C 21.125 2.148438 21.277344 2.367188 21.351562 2.617188 " fill-opacity="1" fill-rule="nonzero"/><g clip-path="url(#0471712ec4)"><path fill="#528221" d="M 26.792969 20.890625 C 26.296875 21.175781 25.308594 20.621094 24.957031 21.160156 C 25.457031 21.832031 24.953125 22.976562 24.128906 23.050781 C 24.015625 23.058594 23.898438 23.054688 23.800781 23.105469 C 23.363281 23.339844 23.929688 24.050781 23.722656 24.503906 C 23.417969 25.171875 22.207031 24.304688 21.71875 24.847656 C 21.578125 25.003906 21.546875 25.238281 21.398438 25.382812 C 20.886719 25.871094 20.082031 24.730469 19.449219 25.039062 C 19.042969 25.234375 19.085938 25.824219 18.886719 26.230469 C 18.679688 26.640625 18.183594 26.851562 17.726562 26.808594 C 17.273438 26.765625 16.859375 26.511719 16.527344 26.195312 C 16.367188 26.042969 16.207031 25.871094 15.992188 25.832031 C 15.695312 25.777344 15.421875 26.003906 15.230469 26.242188 C 15.039062 26.476562 14.863281 26.753906 14.582031 26.867188 C 14.300781 26.976562 13.890625 26.785156 13.9375 26.480469 C 13.625 26.820312 13.097656 26.941406 12.671875 26.769531 C 12.265625 26.605469 11.980469 26.1875 11.957031 25.746094 C 11.933594 25.738281 11.917969 25.726562 11.898438 25.710938 C 11.480469 25.957031 11.039062 26.203125 10.558594 26.21875 C 10.054688 26.234375 9.503906 25.90625 9.449219 25.402344 C 9.414062 25.0625 9.59375 24.695312 9.59375 24.371094 C 9.328125 24.417969 9.042969 24.359375 8.839844 24.179688 C 8.746094 24.09375 8.671875 23.984375 8.625 23.867188 C 8.46875 23.914062 8.3125 23.984375 8.175781 24.054688 C 7.746094 24.277344 7.078125 24.398438 6.894531 23.945312 C 6.726562 23.527344 7.183594 22.96875 6.878906 22.636719 C 6.605469 22.34375 5.949219 22.550781 5.84375 22.160156 C 5.78125 21.925781 6.023438 21.695312 5.992188 21.457031 C 5.949219 21.445312 5.902344 21.4375 5.855469 21.421875 C 5.722656 21.367188 5.605469 21.277344 5.511719 21.167969 C 5.425781 21.175781 5.339844 21.195312 5.265625 21.226562 C 5 21.34375 4.746094 21.550781 4.457031 21.515625 C 4.207031 21.484375 4.054688 21.304688 3.96875 21.066406 C 3.957031 21.070312 3.949219 21.078125 3.9375 21.085938 C 3.671875 21.238281 3.339844 21.363281 3.238281 21.65625 C 3.117188 22.015625 3.539062 22.417969 3.882812 22.277344 C 3.832031 22.816406 3.929688 23.546875 4.457031 23.609375 C 4.746094 23.640625 5 23.4375 5.265625 23.320312 C 5.53125 23.203125 5.9375 23.242188 5.992188 23.53125 C 6.039062 23.777344 5.78125 24.011719 5.84375 24.253906 C 5.949219 24.640625 6.605469 24.4375 6.878906 24.730469 C 7.183594 25.058594 6.726562 25.617188 6.894531 26.039062 C 7.078125 26.492188 7.746094 26.371094 8.175781 26.148438 C 8.605469 25.921875 9.21875 25.710938 9.496094 26.109375 C 9.769531 26.496094 9.398438 27.023438 9.449219 27.492188 C 9.503906 28 10.054688 28.324219 10.558594 28.308594 C 11.058594 28.292969 11.515625 28.03125 11.949219 27.773438 C 11.945312 28.238281 12.246094 28.6875 12.671875 28.859375 C 13.097656 29.03125 13.625 28.914062 13.9375 28.574219 C 13.890625 28.875 14.300781 29.070312 14.582031 28.957031 C 14.863281 28.847656 15.039062 28.570312 15.230469 28.332031 C 15.421875 28.097656 15.695312 27.871094 15.992188 27.921875 C 16.207031 27.960938 16.367188 28.136719 16.527344 28.289062 C 16.859375 28.601562 17.273438 28.859375 17.726562 28.902344 C 18.183594 28.941406 18.679688 28.734375 18.886719 28.320312 C 19.085938 27.917969 19.042969 27.328125 19.449219 27.132812 C 20.082031 26.824219 20.886719 27.964844 21.398438 27.472656 C 21.546875 27.332031 21.578125 27.09375 21.71875 26.941406 C 22.207031 26.394531 23.417969 27.265625 23.722656 26.597656 C 23.929688 26.144531 23.363281 25.433594 23.800781 25.199219 C 23.898438 25.144531 24.015625 25.152344 24.128906 25.140625 C 24.953125 25.070312 25.457031 23.921875 24.957031 23.253906 C 25.359375 22.640625 26.582031 23.441406 26.964844 22.8125 C 27.160156 22.492188 26.929688 22.097656 26.816406 21.742188 C 26.730469 21.464844 26.726562 21.171875 26.792969 20.890625 " fill-opacity="1" fill-rule="nonzero"/></g><path fill="#528221" d="M 28.113281 17.4375 C 27.875 17.554688 27.628906 17.65625 27.414062 17.8125 C 26.863281 18.214844 26.609375 18.992188 26.816406 19.648438 C 26.886719 19.867188 26.996094 20.097656 27.03125 20.320312 C 27.132812 20.160156 27.261719 20.015625 27.414062 19.902344 C 27.722656 19.679688 28.09375 19.570312 28.417969 19.367188 C 28.738281 19.164062 29.019531 18.8125 28.957031 18.433594 C 28.886719 18 28.414062 17.757812 28.113281 17.4375 " fill-opacity="1" fill-rule="nonzero"/><g clip-path="url(#a3fc26a7c1)"><path fill="#528221" d="M 3.675781 20.207031 C 3.394531 20.164062 3.140625 19.851562 3.238281 19.566406 C 3.339844 19.269531 3.671875 19.148438 3.9375 18.992188 C 4.007812 18.953125 4.070312 18.90625 4.132812 18.847656 C 3.953125 18.761719 3.796875 18.605469 3.738281 18.410156 C 3.707031 18.3125 3.699219 18.207031 3.703125 18.105469 C 3.652344 18.121094 3.605469 18.136719 3.5625 18.15625 C 3.316406 18.269531 3.066406 18.441406 2.800781 18.402344 C 2.441406 18.34375 2.246094 17.90625 2.3125 17.546875 C 2.378906 17.195312 2.617188 16.90625 2.851562 16.636719 C 2.851562 16.628906 2.851562 16.621094 2.851562 16.613281 C 2.34375 16.484375 2.027344 15.847656 2.230469 15.359375 C 2.03125 15.371094 1.824219 15.378906 1.625 15.359375 C 1.601562 15.476562 1.554688 15.585938 1.480469 15.675781 C 1.261719 15.960938 0.851562 16.070312 0.707031 16.398438 C 0.558594 16.742188 0.800781 17.160156 1.136719 17.324219 C 1.46875 17.492188 1.859375 17.472656 2.230469 17.453125 C 2.027344 17.945312 2.351562 18.589844 2.867188 18.707031 C 2.628906 18.984375 2.378906 19.277344 2.3125 19.640625 C 2.246094 20 2.441406 20.4375 2.800781 20.492188 C 3.066406 20.535156 3.316406 20.363281 3.5625 20.25 C 3.597656 20.230469 3.636719 20.21875 3.675781 20.207031 " fill-opacity="1" fill-rule="nonzero"/></g><path fill="#7aba3b" d="M 16.550781 12.140625 C 16.445312 12.132812 16.339844 12.128906 16.238281 12.121094 C 16.519531 12.136719 16.761719 11.878906 16.816406 11.597656 C 16.875 11.316406 16.792969 11.027344 16.691406 10.761719 C 16.53125 10.328125 16.316406 9.902344 15.984375 9.582031 C 15.652344 9.261719 15.1875 9.058594 14.734375 9.128906 C 14.84375 9.003906 14.972656 8.894531 15.121094 8.820312 C 15.398438 8.683594 15.753906 8.695312 15.992188 8.890625 C 16.230469 9.085938 16.308594 9.480469 16.117188 9.726562 C 16.183594 9.332031 16.78125 9.265625 17.066406 9.542969 C 17.351562 9.820312 17.398438 10.257812 17.429688 10.65625 C 17.449219 10.894531 17.398438 11.21875 17.164062 11.234375 C 17.125 11.09375 17.269531 10.953125 17.414062 10.957031 C 17.558594 10.960938 17.679688 11.070312 17.757812 11.195312 C 17.964844 11.539062 17.875 12.035156 17.558594 12.28125 C 17.484375 12.316406 17.390625 12.300781 17.332031 12.246094 C 17.578125 12.308594 17.5625 12.710938 17.355469 12.855469 C 17.144531 12.996094 16.867188 12.960938 16.617188 12.917969 C 16.414062 12.882812 16.207031 12.847656 16 12.8125 C 16.289062 12.71875 16.511719 12.445312 16.550781 12.140625 " fill-opacity="1" fill-rule="nonzero"/><path fill="#7aba3b" d="M 11.773438 5.664062 C 11.628906 5.851562 11.558594 6.101562 11.589844 6.335938 C 11.433594 6.28125 11.277344 6.226562 11.121094 6.175781 C 10.894531 6.484375 10.722656 6.832031 10.613281 7.203125 C 10.507812 6.863281 10.644531 6.503906 10.777344 6.175781 C 10.847656 6 10.921875 5.820312 11.058594 5.695312 C 11.199219 5.570312 11.417969 5.515625 11.570312 5.621094 C 11.621094 5.691406 11.671875 5.761719 11.722656 5.832031 C 11.6875 5.367188 12.269531 4.992188 12.671875 5.21875 C 12.722656 5.3125 12.773438 5.40625 12.828125 5.5 C 12.9375 5.109375 13.25 4.757812 13.644531 4.695312 C 14.042969 4.632812 14.488281 4.929688 14.507812 5.335938 C 14.65625 4.910156 15.054688 4.582031 15.5 4.527344 C 15.640625 4.796875 15.695312 5.113281 15.660156 5.414062 C 15.636719 5.042969 15.953125 4.6875 16.316406 4.664062 C 16.683594 4.644531 17.035156 4.964844 17.054688 5.335938 C 17.074219 5.078125 17.4375 4.957031 17.648438 5.105469 C 17.859375 5.25 17.914062 5.554688 17.851562 5.804688 C 17.894531 5.523438 18.339844 5.496094 18.515625 5.71875 C 18.695312 5.941406 18.667969 6.261719 18.613281 6.542969 C 18.597656 6.617188 18.546875 6.710938 18.480469 6.679688 C 18.480469 6.570312 18.449219 6.460938 18.390625 6.371094 C 18.417969 6.59375 18.179688 6.808594 17.960938 6.753906 C 18.03125 6.289062 17.746094 5.796875 17.3125 5.632812 C 17.28125 5.71875 17.246094 5.808594 17.210938 5.894531 C 17.105469 5.625 16.894531 5.367188 16.613281 5.320312 C 16.328125 5.269531 16 5.519531 16.050781 5.808594 C 16.039062 5.710938 16.027344 5.617188 16.015625 5.519531 C 15.832031 5.300781 15.574219 5.117188 15.289062 5.132812 C 15.007812 5.152344 14.742188 5.449219 14.839844 5.71875 C 14.503906 5.21875 13.8125 4.992188 13.25 5.203125 C 13.050781 5.371094 12.964844 5.664062 13.042969 5.914062 C 12.765625 5.523438 12.175781 5.410156 11.773438 5.664062 " fill-opacity="1" fill-rule="nonzero"/><path fill="#7aba3b" d="M 11.160156 2.472656 C 10.816406 2.554688 10.566406 2.835938 10.332031 3.105469 C 10.28125 2.832031 9.917969 2.730469 9.671875 2.84375 C 9.421875 2.957031 9.265625 3.207031 9.125 3.441406 C 9.066406 3.125 8.613281 3.027344 8.351562 3.214844 C 8.089844 3.398438 7.996094 3.746094 7.976562 4.070312 C 7.738281 3.792969 7.25 3.882812 7.035156 4.179688 C 6.816406 4.472656 6.824219 4.882812 6.925781 5.234375 C 6.625 5.175781 6.355469 5.472656 6.3125 5.78125 C 6.273438 6.085938 6.394531 6.386719 6.515625 6.671875 C 6.359375 6.679688 6.203125 6.6875 6.046875 6.695312 C 5.804688 6.871094 5.703125 7.214844 5.804688 7.496094 C 5.886719 7.714844 6.089844 7.878906 6.320312 7.925781 C 6.308594 7.5 6.578125 7.074219 6.976562 6.921875 C 6.71875 6.65625 6.65625 6.21875 6.828125 5.886719 C 6.996094 5.804688 7.199219 5.808594 7.363281 5.898438 C 7.242188 5.550781 7.199219 5.128906 7.425781 4.835938 C 7.65625 4.546875 8.222656 4.574219 8.300781 4.9375 C 8.296875 4.566406 8.355469 4.191406 8.46875 3.835938 C 8.742188 3.632812 9.1875 3.753906 9.324219 4.066406 C 9.226562 3.671875 9.480469 3.226562 9.863281 3.113281 C 10.246094 2.996094 10.699219 3.226562 10.832031 3.605469 C 10.867188 3.238281 11.175781 2.917969 11.539062 2.875 C 11.667969 2.863281 11.796875 2.886719 11.917969 2.933594 C 11.898438 2.601562 11.488281 2.390625 11.160156 2.472656 " fill-opacity="1" fill-rule="nonzero"/><path fill="#7aba3b" d="M 14.886719 2.269531 C 14.453125 2.128906 13.929688 2.359375 13.730469 2.773438 C 13.347656 2.125 12.203125 2.242188 11.9375 2.941406 C 12.144531 3.03125 12.316406 3.210938 12.390625 3.429688 C 12.304688 3.097656 12.675781 2.792969 13.015625 2.8125 C 13.355469 2.828125 13.644531 3.054688 13.910156 3.269531 C 13.804688 2.980469 14.195312 2.722656 14.492188 2.796875 C 14.789062 2.875 15 3.128906 15.242188 3.316406 C 15.25 3.175781 15.257812 3.035156 15.265625 2.894531 C 15.359375 2.925781 15.449219 2.960938 15.539062 3 C 15.460938 2.664062 15.214844 2.371094 14.886719 2.269531 " fill-opacity="1" fill-rule="nonzero"/><path fill="#528221" d="M 17.8125 16.796875 C 18.148438 17.050781 18.667969 17.070312 18.980469 16.78125 C 19.292969 16.496094 19.296875 15.910156 18.949219 15.664062 C 19.046875 15.878906 19.355469 15.925781 19.550781 15.796875 C 19.742188 15.667969 19.828125 15.417969 19.816406 15.179688 C 19.808594 14.945312 19.71875 14.722656 19.632812 14.507812 C 19.472656 15.105469 19.0625 15.628906 18.523438 15.917969 C 18.277344 16.050781 17.898438 16.089844 17.792969 15.832031 C 17.824219 16.164062 17.765625 16.539062 17.511719 16.753906 C 17.261719 16.96875 16.785156 16.902344 16.695312 16.578125 C 16.78125 16.910156 16.683594 17.3125 16.390625 17.480469 C 16.097656 17.652344 15.640625 17.449219 15.640625 17.109375 C 15.726562 17.453125 15.289062 17.738281 14.949219 17.648438 C 14.609375 17.558594 14.375 17.25 14.171875 16.960938 C 14.226562 17.265625 13.960938 17.554688 13.660156 17.613281 C 13.359375 17.667969 13.054688 17.539062 12.804688 17.363281 C 12.6875 17.75 13.171875 18.160156 13.527344 17.976562 C 13.328125 18.277344 13.625 18.71875 13.980469 18.75 C 14.335938 18.78125 14.660156 18.515625 14.839844 18.203125 C 15.023438 18.554688 15.371094 18.847656 15.765625 18.839844 C 16.160156 18.835938 16.535156 18.4375 16.429688 18.054688 C 16.445312 18.21875 16.671875 18.25 16.832031 18.222656 C 17.183594 18.164062 17.546875 18.046875 17.78125 17.777344 C 18.015625 17.503906 18.066406 17.046875 17.8125 16.796875 " fill-opacity="1" fill-rule="nonzero"/></svg>