<svg xmlns="http://www.w3.org/2000/svg" xmlns:xlink="http://www.w3.org/1999/xlink" width="40" zoomAndPan="magnify" viewBox="0 0 30 30.000001" height="40" preserveAspectRatio="xMidYMid meet" version="1.0"><defs><clipPath id="986e6bf1d7"><path d="M 0.585938 0.429688 L 29.515625 0.429688 L 29.515625 28.472656 L 0.585938 28.472656 Z M 0.585938 0.429688 " clip-rule="nonzero"/></clipPath><clipPath id="20eea64a92"><path d="M 0.585938 1.542969 L 29.515625 1.542969 L 29.515625 28.472656 L 0.585938 28.472656 Z M 0.585938 1.542969 " clip-rule="nonzero"/></clipPath><clipPath id="8bcd478cc0"><path d="M 0.484375 16 L 4 16 L 4 21 L 0.484375 21 Z M 0.484375 16 " clip-rule="nonzero"/></clipPath><clipPath id="267b0e91b0"><path d="M 14.167969 27.324219 L 16.402344 27.324219 L 16.402344 28.472656 L 14.167969 28.472656 Z M 14.167969 27.324219 " clip-rule="nonzero"/></clipPath><clipPath id="3bdf2486b1"><path d="M 11 26 L 14 26 L 14 28.597656 L 11 28.597656 Z M 11 26 " clip-rule="nonzero"/></clipPath><clipPath id="9f2b969b89"><path d="M 1 0.289062 L 12 0.289062 L 12 11 L 1 11 Z M 1 0.289062 " clip-rule="nonzero"/></clipPath><clipPath id="95bd2b5f5e"><path d="M 11 0.289062 L 23 0.289062 L 23 7 L 11 7 Z M 11 0.289062 " clip-rule="nonzero"/></clipPath></defs><g clip-path="url(#986e6bf1d7)"><path fill="#68a92b" d="M 7.519531 20.847656 C 7.625 21.179688 8.054688 21.363281 8.367188 21.210938 C 8.679688 21.058594 8.796875 20.609375 8.597656 20.324219 C 8.457031 20.660156 8.6875 21.097656 9.046875 21.171875 C 9.40625 21.246094 9.792969 20.9375 9.796875 20.570312 C 9.503906 20.945312 9.515625 21.519531 9.820312 21.878906 C 10.125 22.242188 10.691406 22.351562 11.109375 22.128906 C 10.566406 22.046875 9.988281 22.320312 9.707031 22.792969 C 9.425781 23.265625 9.460938 23.902344 9.792969 24.339844 C 9.222656 24.714844 9.070312 25.585938 9.476562 26.132812 C 9.882812 26.679688 10.769531 26.785156 11.292969 26.347656 C 10.960938 27.054688 11.300781 27.992188 12.007812 28.328125 C 12.714844 28.664062 13.660156 28.332031 14 27.628906 C 14.199219 28.238281 14.933594 28.613281 15.542969 28.421875 C 16.15625 28.230469 16.539062 27.503906 16.351562 26.890625 C 16.851562 27.238281 17.617188 27.128906 18 26.65625 C 18.386719 26.183594 18.335938 25.417969 17.890625 25 C 18.46875 24.769531 18.863281 24.148438 18.832031 23.527344 C 18.796875 22.910156 18.339844 22.332031 17.738281 22.160156 C 18.285156 22.136719 18.753906 21.621094 18.730469 21.082031 C 18.941406 21.144531 19.148438 21.207031 19.359375 21.269531 C 18.878906 21.519531 18.695312 22.207031 18.984375 22.660156 C 19.273438 23.113281 19.976562 23.242188 20.40625 22.917969 C 20.839844 22.59375 20.910156 21.886719 20.546875 21.488281 C 20.785156 21.589844 21.023438 21.695312 21.261719 21.796875 C 20.472656 21.953125 20.085938 23.066406 20.605469 23.675781 C 21.125 24.28125 22.289062 24.078125 22.570312 23.332031 C 22.082031 24.113281 22.730469 25.316406 23.65625 25.347656 C 24.582031 25.378906 25.308594 24.222656 24.875 23.410156 C 25.351562 23.707031 26.042969 23.589844 26.394531 23.15625 C 26.746094 22.71875 26.710938 22.019531 26.316406 21.621094 C 26.917969 21.808594 27.628906 21.5625 27.984375 21.042969 C 28.339844 20.523438 28.308594 19.773438 27.914062 19.285156 C 28.726562 18.542969 29.480469 17.609375 29.515625 16.515625 C 29.554688 15.421875 28.523438 14.273438 27.464844 14.574219 C 27.855469 14.050781 27.582031 13.183594 26.960938 12.976562 C 26.34375 12.765625 25.597656 13.292969 25.589844 13.941406 C 25.835938 13.457031 25.625 12.792969 25.140625 12.535156 C 24.660156 12.277344 23.988281 12.472656 23.71875 12.949219 C 24.066406 12.140625 23.332031 11.09375 22.449219 11.140625 C 23.089844 11.800781 24.425781 11.417969 24.617188 10.519531 C 24.882812 10.804688 25.382812 10.824219 25.667969 10.5625 C 25.957031 10.300781 25.984375 9.804688 25.722656 9.511719 C 26.445312 9.5 27.074219 8.789062 27 8.074219 C 26.925781 7.359375 26.167969 6.792969 25.457031 6.925781 C 25.914062 6.917969 26.324219 6.503906 26.320312 6.046875 C 26.320312 5.59375 25.90625 5.179688 25.449219 5.175781 C 25.789062 4.824219 25.828125 4.222656 25.539062 3.824219 C 25.253906 3.425781 24.667969 3.273438 24.222656 3.484375 C 24.457031 3.117188 24.144531 2.546875 23.707031 2.542969 C 23.273438 2.542969 22.953125 3.109375 23.1875 3.476562 C 23.199219 2.835938 22.164062 2.515625 21.8125 3.050781 C 22.28125 2.796875 22.34375 2.03125 21.921875 1.703125 C 21.496094 1.371094 20.765625 1.617188 20.628906 2.132812 C 21.117188 1.613281 20.804688 0.609375 20.109375 0.449219 C 19.414062 0.292969 18.695312 1.0625 18.90625 1.742188 C 18.792969 1.070312 17.980469 0.613281 17.347656 0.867188 C 16.710938 1.117188 16.433594 2.003906 16.816406 2.566406 C 16.398438 2.398438 15.886719 2.503906 15.570312 2.824219 C 15.253906 3.144531 15.15625 3.65625 15.332031 4.066406 C 15.109375 4.246094 14.890625 4.421875 14.667969 4.601562 C 14.820312 4.234375 14.710938 3.773438 14.40625 3.515625 C 14.097656 3.257812 13.625 3.222656 13.285156 3.433594 C 12.714844 3.785156 12.539062 4.703125 11.875 4.789062 C 11.277344 4.863281 10.878906 4.148438 10.882812 3.550781 C 10.882812 2.949219 11.101562 2.34375 10.953125 1.761719 C 10.796875 1.132812 10.171875 0.652344 9.519531 0.65625 C 8.867188 0.660156 8.25 1.148438 8.097656 1.78125 C 7.625 1.421875 6.84375 1.59375 6.566406 2.113281 C 6.289062 2.636719 6.585938 3.375 7.148438 3.5625 C 6.753906 3.152344 6.09375 3.019531 5.566406 3.242188 C 5.042969 3.46875 4.6875 4.035156 4.714844 4.605469 C 4.589844 4.671875 4.464844 4.738281 4.335938 4.804688 C 4.25 5.109375 4.445312 5.460938 4.746094 5.550781 C 4.386719 5.332031 3.851562 5.488281 3.671875 5.871094 C 3.496094 6.25 3.714844 6.761719 4.117188 6.894531 C 3.808594 6.671875 3.3125 6.785156 3.132812 7.117188 C 2.953125 7.453125 3.136719 7.925781 3.492188 8.058594 C 2.972656 7.640625 2.082031 7.835938 1.785156 8.433594 C 1.488281 9.03125 1.875 9.855469 2.527344 10.011719 C 3.175781 10.167969 3.898438 9.613281 3.910156 8.945312 C 4.144531 9.609375 4.855469 10.074219 5.558594 10.019531 C 6.261719 9.964844 6.894531 9.398438 7.019531 8.707031 C 6.917969 9.375 7.761719 9.976562 8.367188 9.660156 C 7.648438 10.136719 7.910156 11.476562 8.757812 11.648438 C 8.398438 11.75 8.042969 11.855469 7.683594 11.957031 C 7.609375 11.453125 7.164062 11.03125 6.65625 10.980469 C 6.152344 10.925781 5.628906 11.25 5.453125 11.726562 C 4.714844 10.960938 3.277344 11.058594 2.652344 11.917969 C 2.023438 12.777344 2.378906 14.167969 3.34375 14.628906 C 2.71875 14.425781 1.96875 14.796875 1.757812 15.414062 C 1.542969 16.03125 1.90625 16.78125 2.519531 17.003906 C 1.679688 16.527344 0.453125 17.367188 0.597656 18.316406 C 0.742188 19.269531 2.164062 19.707031 2.824219 19.003906 C 2.289062 18.945312 1.789062 19.515625 1.917969 20.035156 C 2.042969 20.554688 2.75 20.832031 3.199219 20.539062 C 2.566406 20.941406 2.570312 22.023438 3.207031 22.421875 C 3.84375 22.816406 4.824219 22.351562 4.914062 21.609375 C 4.957031 22.441406 5.894531 23.101562 6.699219 22.867188 C 7.503906 22.632812 7.933594 21.574219 7.519531 20.847656 " fill-opacity="1" fill-rule="nonzero"/></g><path fill="#528221" d="M 8.359375 16.28125 C 8.34375 16.265625 8.324219 16.257812 8.308594 16.246094 C 8.324219 16.269531 8.34375 16.28125 8.359375 16.28125 " fill-opacity="1" fill-rule="nonzero"/><path fill="#528221" d="M 14.066406 18.914062 C 13.667969 18.722656 13.390625 18.351562 13.132812 17.996094 C 12.964844 17.765625 12.796875 17.535156 12.628906 17.308594 C 12.382812 16.972656 12.125 16.597656 12.144531 16.183594 C 11.925781 16.507812 11.507812 16.691406 11.117188 16.632812 C 10.730469 16.574219 10.386719 16.277344 10.273438 15.902344 C 9.976562 16.488281 9.164062 16.703125 8.585938 16.425781 C 8.597656 16.777344 8.769531 17.125 9.066406 17.316406 C 9.492188 17.59375 10.117188 17.511719 10.460938 17.140625 C 10.433594 17.476562 10.660156 17.816406 10.980469 17.925781 C 11.304688 18.035156 11.695312 17.898438 11.878906 17.613281 C 11.738281 17.878906 11.796875 18.230469 12.011719 18.4375 C 12.230469 18.644531 12.585938 18.683594 12.84375 18.535156 C 12.972656 19.054688 13.464844 19.460938 14 19.488281 C 14.535156 19.515625 15.070312 19.164062 15.25 18.660156 C 15.023438 19.042969 14.464844 19.101562 14.066406 18.914062 " fill-opacity="1" fill-rule="nonzero"/><path fill="#528221" d="M 22.5 12.082031 C 22.71875 12.804688 22.386719 13.65625 21.734375 14.042969 C 21.726562 14.644531 21.320312 15.226562 20.757812 15.449219 C 20.671875 15.824219 20.316406 16.121094 19.929688 16.140625 C 19.964844 16.460938 19.832031 16.792969 19.582031 17 C 19.152344 17.359375 18.226562 16.960938 18.777344 17.671875 C 19.222656 18.246094 20.496094 17.636719 20.292969 17.402344 C 20.601562 17.757812 21.199219 17.8125 21.566406 17.515625 C 21.929688 17.222656 22.003906 16.625 21.714844 16.253906 C 22.03125 16.394531 22.433594 16.253906 22.625 15.964844 C 22.816406 15.679688 22.804688 15.285156 22.636719 14.984375 C 22.898438 15.066406 23.222656 14.972656 23.363281 14.734375 C 23.503906 14.496094 23.398438 14.136719 23.136719 14.050781 C 23.65625 13.921875 24.023438 13.359375 23.9375 12.835938 C 23.847656 12.308594 23.316406 11.898438 22.785156 11.945312 C 23.03125 11.902344 23.277344 11.863281 23.527344 11.824219 L 22.5 12.082031 " fill-opacity="1" fill-rule="nonzero"/><path fill="#61981d" d="M 11.875 17.808594 C 11.886719 17.734375 11.886719 17.660156 11.878906 17.582031 C 11.886719 17.660156 11.886719 17.734375 11.875 17.808594 " fill-opacity="1" fill-rule="nonzero"/><path fill="#61981d" d="M 5.453125 19.273438 C 5.445312 19.21875 5.429688 19.167969 5.402344 19.117188 C 5.414062 19.171875 5.433594 19.222656 5.453125 19.273438 " fill-opacity="1" fill-rule="nonzero"/><path fill="#61981d" d="M 11.863281 17.878906 C 11.867188 17.855469 11.875 17.832031 11.875 17.808594 C 11.875 17.832031 11.867188 17.855469 11.863281 17.878906 " fill-opacity="1" fill-rule="nonzero"/><path fill="#61981d" d="M 11.828125 18.035156 C 11.84375 17.984375 11.855469 17.933594 11.863281 17.878906 C 11.855469 17.929688 11.84375 17.984375 11.828125 18.035156 " fill-opacity="1" fill-rule="nonzero"/><path fill="#61981d" d="M 23.777344 12.75 C 23.730469 12.800781 23.683594 12.847656 23.636719 12.902344 C 23.675781 12.886719 23.710938 12.875 23.746094 12.867188 C 23.761719 12.828125 23.769531 12.789062 23.777344 12.75 " fill-opacity="1" fill-rule="nonzero"/><g clip-path="url(#20eea64a92)"><path fill="#61981d" d="M 17.765625 22.171875 C 17.757812 22.167969 17.75 22.164062 17.738281 22.160156 C 17.753906 22.160156 17.765625 22.15625 17.777344 22.15625 C 17.773438 22.160156 17.769531 22.167969 17.765625 22.171875 Z M 21.914062 11.609375 C 21.914062 11.617188 21.914062 11.625 21.910156 11.628906 C 21.90625 11.632812 21.898438 11.628906 21.894531 11.628906 C 21.902344 11.625 21.90625 11.617188 21.914062 11.609375 Z M 29.515625 16.515625 C 29.554688 15.421875 28.519531 14.273438 27.464844 14.574219 C 27.855469 14.050781 27.582031 13.183594 26.960938 12.976562 C 26.476562 12.8125 25.914062 13.101562 25.691406 13.546875 C 25.710938 13.144531 25.5 12.726562 25.140625 12.535156 C 24.691406 12.296875 24.082031 12.453125 23.78125 12.859375 C 24.351562 12.761719 24.953125 13.464844 24.675781 14 C 24.992188 13.707031 25.527344 13.683594 25.871094 13.949219 C 26.210938 14.214844 26.320312 14.738281 26.109375 15.117188 C 26.679688 15.117188 27.222656 15.542969 27.359375 16.09375 C 27.496094 16.644531 27.21875 17.273438 26.714844 17.539062 C 27.359375 17.917969 27.5625 18.878906 27.128906 19.484375 C 26.691406 20.089844 25.710938 20.203125 25.144531 19.714844 C 25.199219 20.304688 24.863281 20.914062 24.335938 21.1875 C 23.804688 21.457031 23.113281 21.382812 22.660156 20.996094 C 22.585938 21.199219 22.457031 21.367188 22.296875 21.507812 C 21.984375 21.574219 21.671875 21.597656 21.363281 21.535156 C 20.898438 21.445312 20.453125 21.132812 20.316406 20.683594 C 20.179688 20.230469 20.445312 19.664062 20.910156 19.570312 C 20.480469 19.679688 19.992188 19.480469 19.765625 19.101562 C 19.539062 18.722656 19.59375 18.199219 19.898438 17.875 C 19.625 18.199219 19.160156 18.347656 18.75 18.234375 C 18.585938 18.191406 18.4375 18.105469 18.308594 17.992188 C 18.59375 18 18.875 17.914062 19.058594 17.707031 C 19.179688 17.566406 19.226562 17.367188 19.203125 17.183594 C 19.578125 17.476562 20.148438 17.542969 20.535156 17.25 C 21.007812 16.890625 21.039062 16.117188 20.664062 15.679688 C 21.0625 15.949219 21.660156 15.917969 21.996094 15.566406 C 22.398438 15.148438 22.332031 14.382812 21.863281 14.042969 C 22.550781 14.148438 23.261719 13.546875 23.269531 12.855469 C 23.273438 12.539062 23.128906 12.242188 22.90625 12.015625 C 22.957031 11.984375 23.011719 11.953125 23.066406 11.933594 C 23.246094 11.871094 23.4375 11.863281 23.628906 11.863281 C 23.550781 11.714844 23.441406 11.582031 23.320312 11.46875 C 23.898438 11.457031 24.492188 11.097656 24.617188 10.519531 C 24.882812 10.804688 25.382812 10.824219 25.667969 10.5625 C 25.957031 10.300781 25.984375 9.804688 25.722656 9.511719 C 26.445312 9.5 27.074219 8.789062 27 8.074219 C 26.925781 7.359375 26.167969 6.792969 25.457031 6.925781 C 25.914062 6.917969 26.324219 6.503906 26.320312 6.046875 C 26.320312 5.59375 25.90625 5.179688 25.449219 5.175781 C 25.789062 4.824219 25.828125 4.222656 25.539062 3.824219 C 25.253906 3.425781 24.667969 3.273438 24.222656 3.484375 C 24.457031 3.117188 24.144531 2.546875 23.707031 2.542969 C 23.378906 2.542969 23.117188 2.863281 23.109375 3.179688 C 22.910156 2.832031 22.375 2.671875 22.023438 2.863281 C 22.28125 2.527344 22.265625 1.972656 21.921875 1.703125 C 21.679688 1.515625 21.34375 1.515625 21.070312 1.644531 C 21.320312 1.679688 21.558594 1.816406 21.699219 2.023438 C 21.929688 2.363281 21.886719 2.863281 21.597656 3.15625 C 21.992188 2.902344 22.554688 2.949219 22.898438 3.265625 C 23.242188 3.582031 23.328125 4.140625 23.101562 4.546875 C 23.648438 4.355469 24.320312 4.726562 24.445312 5.289062 C 24.570312 5.851562 24.109375 6.46875 23.535156 6.519531 C 24.109375 6.8125 24.367188 7.601562 24.074219 8.171875 C 23.777344 8.746094 22.984375 8.996094 22.410156 8.699219 C 22.75 9.003906 22.800781 9.574219 22.519531 9.9375 C 22.242188 10.296875 21.671875 10.390625 21.292969 10.140625 C 21.351562 10.179688 21.410156 10.226562 21.460938 10.273438 C 21.308594 10.253906 21.152344 10.273438 21.015625 10.347656 C 20.824219 9.769531 20.183594 9.375 19.578125 9.460938 C 19.203125 9.515625 18.867188 9.75 18.664062 10.0625 C 18.484375 9.582031 18.035156 9.207031 17.527344 9.121094 C 17.882812 9.414062 18.066406 9.898438 17.992188 10.347656 C 17.921875 10.800781 17.597656 11.207031 17.171875 11.375 C 17.714844 11.5625 18.078125 12.160156 17.992188 12.726562 C 17.910156 13.289062 17.382812 13.757812 16.8125 13.777344 C 17.238281 14.125 17.222656 14.878906 16.78125 15.210938 C 16.339844 15.542969 15.605469 15.351562 15.386719 14.847656 C 15.484375 15.296875 15.066406 15.78125 14.601562 15.753906 C 14.140625 15.726562 13.785156 15.195312 13.933594 14.761719 C 13.84375 15.257812 13.429688 15.679688 12.9375 15.785156 C 12.734375 15.828125 12.527344 15.820312 12.328125 15.765625 C 12.339844 15.644531 12.355469 15.523438 12.375 15.402344 C 12.355469 15.523438 12.304688 15.636719 12.238281 15.738281 C 11.980469 15.648438 11.753906 15.488281 11.597656 15.269531 C 11.53125 15.550781 11.609375 15.847656 11.777344 16.082031 C 11.683594 16.113281 11.585938 16.128906 11.488281 16.125 C 11.070312 16.101562 10.703125 15.726562 10.6875 15.3125 C 10.410156 15.882812 9.671875 16.1875 9.070312 15.976562 C 9.015625 15.8125 8.960938 15.648438 8.90625 15.484375 C 8.542969 15.492188 8.214844 15.140625 8.253906 14.78125 C 8.289062 14.421875 8.679688 14.140625 9.035156 14.222656 C 8.75 14.011719 8.632812 13.597656 8.773438 13.273438 C 8.914062 12.949219 9.292969 12.746094 9.644531 12.808594 C 9.371094 12.058594 9.914062 11.128906 10.707031 10.996094 C 10.328125 10.78125 10.152344 10.269531 10.324219 9.871094 C 10.496094 9.472656 10.988281 9.242188 11.40625 9.371094 C 11.179688 8.777344 10.511719 8.375 9.882812 8.480469 C 9.257812 8.585938 8.75 9.207031 8.808594 9.839844 C 8.859375 10.367188 9.316406 10.820312 9.835938 10.902344 C 9.511719 10.949219 9.210938 11.160156 9.085938 11.464844 C 8.984375 11.714844 9.015625 12.011719 9.144531 12.25 C 8.859375 12.050781 8.484375 11.980469 8.15625 12.097656 C 8.085938 12.121094 8.019531 12.164062 7.964844 12.207031 C 7.066406 12.929688 7.488281 13.824219 8.144531 14.085938 C 7.378906 14.089844 6.605469 14.855469 7.261719 15.882812 C 7.324219 15.984375 7.402344 16.074219 7.5 16.136719 C 7.957031 16.4375 8.628906 16.34375 8.984375 15.929688 C 8.621094 16.429688 8.984375 17.261719 9.597656 17.339844 C 10.03125 17.398438 10.433594 17.066406 10.5625 16.660156 C 10.660156 16.929688 10.890625 17.15625 11.179688 17.195312 C 11.445312 17.234375 11.714844 17.105469 11.886719 16.898438 C 11.875 17.121094 11.929688 17.351562 12.058594 17.53125 C 12.300781 17.875 12.777344 18.039062 13.179688 17.914062 C 13.078125 18.589844 13.660156 19.285156 14.347656 19.3125 C 15.035156 19.339844 15.667969 18.6875 15.621094 18.007812 C 15.398438 18.503906 14.710938 18.730469 14.234375 18.464844 C 13.796875 18.21875 13.628906 17.613281 13.84375 17.167969 C 13.660156 17.425781 13.265625 17.515625 12.964844 17.386719 C 12.621094 17.238281 12.410156 16.878906 12.339844 16.511719 C 12.339844 16.503906 12.339844 16.492188 12.335938 16.484375 C 12.390625 16.496094 12.441406 16.511719 12.496094 16.519531 C 13 16.566406 13.492188 16.167969 13.59375 15.679688 C 13.59375 16.027344 13.753906 16.375 14.023438 16.589844 C 14.355469 16.855469 14.835938 16.917969 15.222656 16.75 C 15.269531 16.523438 15.3125 16.300781 15.359375 16.074219 C 15.527344 16.542969 16.070312 16.84375 16.558594 16.738281 C 17.046875 16.628906 17.417969 16.132812 17.375 15.636719 C 17.835938 15.859375 18.464844 15.625 18.664062 15.15625 C 18.867188 14.683594 18.597656 14.070312 18.113281 13.894531 C 18.636719 13.808594 19.074219 13.34375 19.128906 12.816406 C 19.183594 12.292969 18.851562 11.75 18.359375 11.554688 C 18.640625 11.253906 18.777344 10.832031 18.742188 10.421875 C 19.046875 10.226562 19.46875 10.199219 19.78125 10.394531 C 20.207031 10.667969 20.335938 11.316406 20.046875 11.730469 C 20.355469 11.136719 21.335938 11.074219 21.71875 11.625 C 21.773438 11.703125 21.808594 11.789062 21.835938 11.878906 C 21.828125 11.890625 21.828125 11.902344 21.824219 11.914062 C 21.828125 11.910156 21.835938 11.914062 21.84375 11.914062 C 21.960938 12.441406 21.589844 13.078125 21.035156 13.148438 C 21.402344 13.445312 21.496094 14.027344 21.242188 14.425781 C 20.984375 14.824219 20.414062 14.984375 19.984375 14.777344 C 20.363281 15.152344 20.335938 15.84375 19.933594 16.191406 C 19.53125 16.535156 18.839844 16.460938 18.523438 16.035156 C 18.644531 16.445312 18.496094 16.921875 18.160156 17.1875 C 17.828125 17.453125 17.328125 17.492188 16.957031 17.28125 C 17.257812 17.539062 17.570312 17.804688 17.949219 17.929688 C 17.953125 17.933594 17.960938 17.933594 17.964844 17.933594 C 17.929688 18.1875 17.847656 18.4375 17.707031 18.652344 C 18.03125 18.921875 18.375 19.226562 18.464844 19.636719 C 18.542969 19.992188 18.3125 20.417969 17.984375 20.484375 C 17.882812 20.40625 17.792969 20.3125 17.71875 20.199219 C 17.773438 20.289062 17.8125 20.390625 17.84375 20.488281 C 17.832031 20.488281 17.824219 20.492188 17.8125 20.488281 C 17.839844 20.539062 17.859375 20.59375 17.882812 20.648438 C 18.007812 21.335938 17.660156 22.117188 17.015625 22.425781 C 17.617188 22.363281 18.117188 23.128906 17.816406 23.648438 C 17.515625 24.167969 16.597656 24.121094 16.351562 23.570312 C 16.6875 24.042969 16.375 24.820312 15.804688 24.929688 C 15.234375 25.042969 14.652344 24.441406 14.785156 23.878906 C 14.730469 24.496094 14.113281 25.011719 13.492188 24.957031 C 12.867188 24.898438 12.355469 24.285156 12.414062 23.664062 C 12.375 23.773438 12.335938 23.882812 12.296875 23.992188 C 12.050781 24.695312 11.011719 24.714844 10.800781 24 C 10.800781 23.996094 10.796875 23.988281 10.796875 23.984375 C 10.71875 23.707031 10.789062 23.410156 10.945312 23.171875 C 10.953125 23.21875 10.960938 23.265625 10.980469 23.3125 C 10.980469 23.25 10.976562 23.191406 10.972656 23.128906 C 11.109375 22.945312 11.546875 22.082031 11.933594 22.140625 C 11.449219 21.996094 11.101562 21.488281 11.144531 20.988281 C 11.183594 20.484375 11.609375 20.039062 12.113281 19.976562 C 11.800781 20.070312 11.476562 19.773438 11.425781 19.453125 C 11.371094 19.132812 11.503906 18.8125 11.636719 18.515625 C 11.710938 18.359375 11.78125 18.199219 11.828125 18.035156 C 11.710938 18.425781 11.410156 18.761719 11.019531 18.890625 C 10.484375 19.070312 9.84375 18.839844 9.542969 18.367188 C 9.542969 18.738281 9.160156 19.066406 8.789062 19.007812 C 8.417969 18.949219 8.15625 18.519531 8.273438 18.164062 C 7.992188 18.773438 7.648438 19.414062 7.046875 19.714844 C 6.492188 19.992188 5.6875 19.8125 5.453125 19.273438 C 5.507812 19.546875 5.382812 19.839844 5.167969 20.019531 C 4.746094 20.035156 4.3125 19.847656 4.082031 19.492188 C 3.859375 19.140625 3.867188 18.683594 4.046875 18.3125 C 3.679688 18.484375 3.195312 18.460938 2.875 18.195312 C 2.515625 17.902344 2.378906 17.421875 2.425781 16.960938 C 1.589844 16.589844 0.457031 17.402344 0.597656 18.316406 C 0.699219 18.988281 1.4375 19.402344 2.09375 19.339844 C 1.941406 19.539062 1.859375 19.789062 1.917969 20.035156 C 2.042969 20.554688 2.75 20.832031 3.199219 20.539062 C 2.566406 20.941406 2.570312 22.023438 3.207031 22.421875 C 3.84375 22.816406 4.824219 22.351562 4.914062 21.609375 C 4.957031 22.441406 5.894531 23.101562 6.699219 22.867188 C 7.414062 22.660156 7.824219 21.808594 7.621094 21.113281 C 7.640625 21.101562 7.660156 21.097656 7.679688 21.085938 C 7.859375 21.253906 8.140625 21.320312 8.367188 21.210938 C 8.5 21.148438 8.589844 21.027344 8.644531 20.894531 C 8.652344 20.894531 8.660156 20.894531 8.667969 20.894531 C 8.753906 21.03125 8.886719 21.136719 9.046875 21.171875 C 9.210938 21.207031 9.378906 21.15625 9.511719 21.0625 C 9.554688 21.082031 9.558594 21.085938 9.597656 21.105469 C 9.570312 21.382812 9.640625 21.667969 9.820312 21.878906 C 9.960938 22.050781 10.160156 22.160156 10.378906 22.210938 C 10.34375 22.15625 9.859375 22.535156 9.707031 22.792969 C 9.425781 23.265625 9.460938 23.902344 9.792969 24.339844 C 9.222656 24.714844 9.070312 25.585938 9.476562 26.132812 C 9.882812 26.679688 10.769531 26.785156 11.292969 26.347656 C 10.960938 27.054688 11.300781 27.992188 12.007812 28.328125 C 12.714844 28.664062 13.660156 28.332031 14 27.628906 C 14.199219 28.238281 14.933594 28.613281 15.542969 28.421875 C 16.15625 28.230469 16.539062 27.503906 16.351562 26.890625 C 16.851562 27.238281 17.617188 27.128906 18 26.65625 C 18.386719 26.183594 18.335938 25.417969 17.890625 25 C 18.46875 24.769531 18.863281 24.148438 18.832031 23.527344 C 18.800781 22.941406 18.382812 22.398438 17.832031 22.195312 C 17.835938 22.167969 17.832031 22.175781 17.835938 22.148438 C 18.335938 22.070312 18.753906 21.589844 18.730469 21.082031 C 18.941406 21.144531 19.148438 21.207031 19.359375 21.269531 C 18.878906 21.519531 18.695312 22.207031 18.984375 22.660156 C 19.269531 23.105469 19.9375 23.230469 20.371094 22.9375 C 20.359375 23.203125 20.429688 23.46875 20.605469 23.675781 C 21.085938 24.234375 22.113281 24.105469 22.488281 23.492188 C 22.171875 24.269531 22.792969 25.320312 23.65625 25.347656 C 24.582031 25.378906 25.308594 24.222656 24.875 23.410156 C 25.351562 23.707031 26.042969 23.589844 26.394531 23.15625 C 26.746094 22.71875 26.710938 22.019531 26.316406 21.621094 C 26.917969 21.808594 27.628906 21.5625 27.984375 21.042969 C 28.339844 20.523438 28.308594 19.773438 27.914062 19.285156 C 28.726562 18.542969 29.480469 17.609375 29.515625 16.515625 " fill-opacity="1" fill-rule="nonzero"/></g><path fill="#61981d" d="M 2.425781 16.960938 C 2.445312 16.765625 2.496094 16.570312 2.582031 16.398438 C 2.871094 15.808594 3.449219 15.402344 4.054688 15.152344 C 3.324219 14.84375 2.992188 13.84375 3.394531 13.160156 C 3.796875 12.480469 4.835938 12.28125 5.464844 12.765625 C 5.496094 11.808594 6.738281 11.140625 7.570312 11.613281 C 7.390625 11.273438 7.042969 11.019531 6.65625 10.980469 C 6.152344 10.925781 5.628906 11.25 5.453125 11.726562 C 4.714844 10.960938 3.277344 11.058594 2.652344 11.917969 C 2.023438 12.777344 2.378906 14.167969 3.34375 14.628906 C 2.71875 14.425781 1.96875 14.796875 1.757812 15.414062 C 1.554688 15.996094 1.871094 16.695312 2.425781 16.960938 " fill-opacity="1" fill-rule="nonzero"/><path fill="#61981d" d="M 20.855469 1.371094 C 20.773438 1.480469 20.6875 1.585938 20.605469 1.695312 C 20.683594 1.664062 20.769531 1.644531 20.855469 1.636719 C 20.867188 1.550781 20.867188 1.460938 20.855469 1.371094 " fill-opacity="1" fill-rule="nonzero"/><path fill="#528221" d="M 8.367188 21.210938 C 8.496094 21.148438 8.589844 21.035156 8.644531 20.902344 C 8.25 21.019531 7.785156 20.925781 7.523438 20.605469 C 7.730469 21.152344 7.40625 21.835938 6.851562 22.027344 C 6.300781 22.21875 5.621094 21.882812 5.441406 21.328125 C 5.355469 21.53125 5.144531 21.671875 4.925781 21.703125 C 5.03125 22.492188 5.925781 23.09375 6.699219 22.867188 C 7.457031 22.644531 7.882812 21.691406 7.582031 20.976562 C 7.742188 21.222656 8.097656 21.339844 8.367188 21.210938 " fill-opacity="1" fill-rule="nonzero"/><path fill="#528221" d="M 9.585938 21.207031 C 9.585938 21.453125 9.664062 21.695312 9.820312 21.878906 C 9.964844 22.050781 10.167969 22.164062 10.386719 22.214844 C 10.492188 22.039062 10.625 21.878906 10.789062 21.75 C 10.335938 21.746094 9.894531 21.535156 9.585938 21.207031 " fill-opacity="1" fill-rule="nonzero"/><path fill="#528221" d="M 18.050781 24.921875 C 18.539062 24.644531 18.859375 24.089844 18.832031 23.527344 C 18.828125 23.484375 18.820312 23.441406 18.8125 23.394531 C 18.699219 23.160156 18.570312 22.929688 18.421875 22.714844 C 18.707031 23.445312 18.546875 24.316406 18.050781 24.921875 " fill-opacity="1" fill-rule="nonzero"/><path fill="#528221" d="M 3.207031 22.421875 C 3.816406 22.800781 4.738281 22.390625 4.894531 21.703125 C 4.78125 21.714844 4.667969 21.703125 4.566406 21.652344 C 4.25 21.496094 4.117188 21.0625 4.289062 20.761719 C 3.90625 20.949219 3.421875 20.894531 3.070312 20.648438 C 2.578125 21.109375 2.621094 22.054688 3.207031 22.421875 " fill-opacity="1" fill-rule="nonzero"/><g clip-path="url(#8bcd478cc0)"><path fill="#528221" d="M 1.917969 20.035156 C 2.027344 20.492188 2.589844 20.761719 3.027344 20.621094 C 2.972656 20.578125 2.921875 20.53125 2.875 20.480469 C 2.535156 20.09375 2.492188 19.476562 2.773438 19.046875 C 2.277344 19.058594 1.789062 18.734375 1.609375 18.273438 C 1.429688 17.808594 1.570312 17.242188 1.945312 16.917969 C 1.9375 16.902344 1.933594 16.886719 1.925781 16.871094 C 1.203125 16.90625 0.484375 17.574219 0.597656 18.316406 C 0.699219 18.988281 1.4375 19.402344 2.09375 19.339844 C 1.941406 19.539062 1.859375 19.789062 1.917969 20.035156 " fill-opacity="1" fill-rule="nonzero"/></g><path fill="#528221" d="M 18 26.65625 C 18.371094 26.203125 18.332031 25.476562 17.933594 25.050781 C 17.917969 25.066406 17.90625 25.085938 17.886719 25.101562 C 18.210938 25.742188 17.65625 26.632812 16.9375 26.628906 C 16.863281 26.773438 16.769531 26.910156 16.667969 27.035156 C 17.132812 27.175781 17.691406 27.039062 18 26.65625 " fill-opacity="1" fill-rule="nonzero"/><g clip-path="url(#267b0e91b0)"><path fill="#528221" d="M 15.542969 28.421875 C 16.015625 28.273438 16.347656 27.808594 16.390625 27.324219 C 16.234375 27.460938 16.066406 27.585938 15.878906 27.675781 C 15.363281 27.929688 14.78125 27.980469 14.199219 27.984375 C 14.511719 28.371094 15.0625 28.574219 15.542969 28.421875 " fill-opacity="1" fill-rule="nonzero"/></g><g clip-path="url(#3bdf2486b1)"><path fill="#528221" d="M 13.683594 27.976562 C 13.175781 27.964844 12.65625 27.949219 12.195312 27.738281 C 11.71875 27.519531 11.367188 27.078125 11.214844 26.582031 C 11.042969 27.246094 11.375 28.03125 12.007812 28.328125 C 12.582031 28.601562 13.308594 28.425781 13.746094 27.980469 C 13.726562 27.976562 13.703125 27.976562 13.683594 27.976562 " fill-opacity="1" fill-rule="nonzero"/></g><path fill="#528221" d="M 9.046875 21.171875 C 9.199219 21.203125 9.355469 21.164062 9.484375 21.082031 C 9.351562 20.914062 9.246094 20.722656 9.191406 20.515625 C 9.070312 20.703125 8.878906 20.828125 8.667969 20.894531 C 8.753906 21.03125 8.886719 21.136719 9.046875 21.171875 " fill-opacity="1" fill-rule="nonzero"/><path fill="#528221" d="M 11.175781 26.425781 C 11.128906 26.210938 11.117188 25.984375 11.152344 25.765625 C 10.753906 25.863281 10.296875 25.667969 10.097656 25.308594 C 9.894531 24.949219 9.960938 24.464844 10.25 24.171875 C 9.957031 23.5625 10.019531 22.804688 10.375 22.230469 C 10.097656 22.34375 9.859375 22.539062 9.707031 22.792969 C 9.425781 23.265625 9.460938 23.902344 9.792969 24.339844 C 9.222656 24.714844 9.070312 25.585938 9.476562 26.132812 C 9.855469 26.640625 10.644531 26.761719 11.175781 26.425781 " fill-opacity="1" fill-rule="nonzero"/><path fill="#528221" d="M 25.886719 21.019531 C 26.152344 21.546875 26.144531 22.203125 25.863281 22.722656 C 25.683594 23.058594 25.394531 23.328125 25.050781 23.496094 C 25.511719 23.675781 26.085938 23.539062 26.394531 23.15625 C 26.632812 22.859375 26.691406 22.445312 26.582031 22.085938 C 26.535156 22.015625 26.484375 21.949219 26.417969 21.894531 C 26.449219 21.902344 26.480469 21.902344 26.511719 21.90625 C 26.460938 21.800781 26.398438 21.703125 26.316406 21.621094 C 26.917969 21.808594 27.628906 21.5625 27.984375 21.042969 C 28.28125 20.609375 28.304688 20.019531 28.078125 19.546875 C 27.789062 20.445312 26.839844 21.132812 25.886719 21.019531 " fill-opacity="1" fill-rule="nonzero"/><path fill="#528221" d="M 24.9375 23.546875 C 24.78125 23.613281 24.617188 23.660156 24.449219 23.675781 C 24.351562 24.195312 23.800781 24.585938 23.277344 24.507812 C 22.863281 24.449219 22.527344 24.101562 22.429688 23.703125 C 22.285156 24.445312 22.867188 25.320312 23.65625 25.347656 C 24.53125 25.378906 25.226562 24.347656 24.9375 23.546875 " fill-opacity="1" fill-rule="nonzero"/><path fill="#528221" d="M 19.113281 21.195312 C 19.136719 21.203125 19.160156 21.210938 19.1875 21.21875 C 19.210938 21.167969 19.238281 21.121094 19.273438 21.078125 C 19.214844 21.113281 19.160156 21.152344 19.113281 21.195312 " fill-opacity="1" fill-rule="nonzero"/><path fill="#528221" d="M 22.410156 23.605469 C 22.398438 23.527344 22.394531 23.453125 22.402344 23.375 C 22.089844 23.753906 21.507812 23.882812 21.058594 23.675781 C 20.613281 23.46875 20.339844 22.941406 20.425781 22.457031 C 20.058594 22.648438 19.5625 22.546875 19.296875 22.226562 C 19.125 22.023438 19.0625 21.742188 19.101562 21.480469 C 18.910156 21.703125 18.816406 22.015625 18.859375 22.304688 C 18.871094 22.339844 18.882812 22.375 18.902344 22.40625 C 19.148438 22.851562 19.773438 23.039062 20.226562 22.804688 C 20.210938 22.878906 20.203125 22.953125 20.199219 23.027344 C 20.261719 23.003906 20.316406 22.972656 20.371094 22.9375 C 20.359375 23.203125 20.429688 23.46875 20.605469 23.675781 C 21.054688 24.199219 21.984375 24.117188 22.410156 23.605469 " fill-opacity="1" fill-rule="nonzero"/><path fill="#528221" d="M 28.164062 19.046875 C 28.171875 19.039062 28.179688 19.03125 28.1875 19.023438 C 28.179688 19.011719 28.175781 19 28.167969 18.992188 C 28.167969 19.011719 28.164062 19.027344 28.164062 19.046875 " fill-opacity="1" fill-rule="nonzero"/><g clip-path="url(#9f2b969b89)"><path fill="#7aba3b" d="M 9.355469 3.917969 C 9.769531 3.582031 10.425781 3.59375 10.828125 3.945312 C 10.898438 4.003906 10.953125 4.078125 11.007812 4.152344 C 10.925781 3.960938 10.878906 3.75 10.882812 3.550781 C 10.882812 2.949219 11.101562 2.34375 10.953125 1.761719 C 10.796875 1.132812 10.171875 0.652344 9.519531 0.65625 C 8.867188 0.660156 8.25 1.148438 8.097656 1.78125 C 7.625 1.421875 6.84375 1.59375 6.566406 2.113281 C 6.371094 2.484375 6.464844 2.960938 6.738281 3.273438 C 6.375 3.105469 5.9375 3.085938 5.566406 3.242188 C 5.042969 3.46875 4.6875 4.035156 4.714844 4.605469 C 4.589844 4.671875 4.464844 4.738281 4.335938 4.804688 C 4.261719 5.0625 4.390625 5.355469 4.617188 5.492188 C 4.269531 5.371094 3.832031 5.53125 3.671875 5.871094 C 3.519531 6.199219 3.664062 6.621094 3.960938 6.816406 C 3.660156 6.714844 3.285156 6.835938 3.132812 7.117188 C 2.988281 7.390625 3.082031 7.753906 3.316406 7.949219 C 2.789062 7.6875 2.050781 7.898438 1.785156 8.433594 C 1.488281 9.03125 1.875 9.855469 2.527344 10.011719 C 3.175781 10.167969 3.898438 9.613281 3.910156 8.945312 C 4.144531 9.609375 4.855469 10.074219 5.558594 10.019531 C 5.734375 10.003906 5.902344 9.957031 6.0625 9.886719 C 6.078125 9.871094 6.097656 9.851562 6.113281 9.832031 C 5.605469 9.84375 5.113281 9.480469 4.972656 8.996094 C 4.835938 8.507812 5.066406 7.941406 5.503906 7.6875 C 4.953125 7.644531 4.496094 7.097656 4.554688 6.550781 C 4.613281 6.007812 5.175781 5.566406 5.722656 5.640625 C 5.398438 5.222656 5.515625 4.542969 5.957031 4.253906 C 6.398438 3.964844 7.070312 4.128906 7.324219 4.589844 C 7.167969 4.066406 7.492188 3.445312 8.011719 3.273438 C 8.535156 3.101562 9.164062 3.40625 9.355469 3.917969 " fill-opacity="1" fill-rule="nonzero"/></g><g clip-path="url(#95bd2b5f5e)"><path fill="#7aba3b" d="M 22.789062 2.886719 C 22.550781 2.761719 22.25 2.742188 22.023438 2.863281 C 22.28125 2.527344 22.265625 1.972656 21.921875 1.703125 C 21.59375 1.449219 21.09375 1.535156 20.8125 1.824219 C 20.996094 1.289062 20.683594 0.582031 20.109375 0.449219 C 19.414062 0.292969 18.695312 1.0625 18.90625 1.742188 C 18.792969 1.070312 17.980469 0.613281 17.347656 0.867188 C 16.710938 1.117188 16.433594 2.003906 16.816406 2.566406 C 16.398438 2.398438 15.886719 2.503906 15.570312 2.824219 C 15.253906 3.144531 15.15625 3.65625 15.332031 4.066406 C 15.109375 4.246094 14.890625 4.421875 14.667969 4.601562 C 14.820312 4.234375 14.710938 3.773438 14.40625 3.515625 C 14.097656 3.257812 13.625 3.222656 13.285156 3.433594 C 12.714844 3.785156 12.539062 4.703125 11.875 4.789062 C 11.558594 4.828125 11.296875 4.640625 11.121094 4.371094 C 11.25 4.699219 11.238281 5.089844 11.050781 5.394531 C 11.480469 5.066406 12.097656 5.007812 12.582031 5.25 C 13.066406 5.492188 13.386719 6.019531 13.375 6.558594 C 13.96875 5.675781 15.40625 5.535156 16.164062 6.285156 C 15.785156 5.78125 15.777344 5.03125 16.140625 4.515625 C 16.503906 4 17.210938 3.75 17.816406 3.929688 C 17.726562 3.292969 18.285156 2.640625 18.933594 2.628906 C 19.578125 2.617188 20.160156 3.25 20.089844 3.890625 C 20.5625 3.609375 21.195312 3.621094 21.65625 3.921875 C 21.867188 4.058594 22.039062 4.257812 22.152344 4.484375 C 22.160156 3.898438 22.390625 3.3125 22.789062 2.886719 " fill-opacity="1" fill-rule="nonzero"/></g><path fill="#7aba3b" d="M 11.703125 13.296875 C 11.078125 13.304688 10.503906 12.753906 10.488281 12.132812 C 10.472656 11.515625 11.015625 10.933594 11.636719 10.90625 C 11.15625 10.503906 11.046875 9.730469 11.398438 9.210938 C 11.75 8.695312 12.515625 8.507812 13.070312 8.800781 C 13.128906 8.335938 13.53125 7.941406 14 7.882812 C 14.464844 7.828125 14.949219 8.117188 15.121094 8.550781 C 15.417969 8.101562 16.035156 7.886719 16.550781 8.050781 C 17.066406 8.21875 17.441406 8.75 17.417969 9.289062 C 17.246094 8.824219 16.757812 8.5 16.257812 8.519531 C 15.761719 8.539062 15.300781 8.902344 15.167969 9.378906 C 15.050781 8.871094 14.480469 8.515625 13.96875 8.632812 C 13.457031 8.746094 13.097656 9.308594 13.207031 9.820312 C 12.976562 9.375 12.273438 9.273438 11.925781 9.636719 C 11.574219 10 11.707031 10.691406 12.160156 10.902344 C 11.617188 10.886719 11.082031 11.25 10.902344 11.761719 C 10.722656 12.273438 10.914062 12.890625 11.347656 13.214844 C 11.453125 13.199219 11.558594 13.1875 11.660156 13.175781 C 11.773438 13.554688 12.097656 13.292969 11.703125 13.296875 " fill-opacity="1" fill-rule="nonzero"/><path fill="#7aba3b" d="M 12.726562 7.679688 C 12.890625 7.269531 12.640625 6.746094 12.21875 6.609375 C 11.796875 6.472656 11.289062 6.746094 11.171875 7.171875 C 10.914062 6.605469 10.246094 6.257812 9.628906 6.371094 C 9.015625 6.480469 8.511719 7.039062 8.46875 7.660156 C 8.15625 7.785156 7.914062 8.082031 7.867188 8.417969 C 7.820312 8.75 7.964844 9.105469 8.230469 9.3125 C 7.660156 9.363281 7.105469 8.855469 7.109375 8.285156 C 7.113281 7.71875 7.675781 7.21875 8.246094 7.277344 C 8.3125 6.632812 8.875 6.074219 9.523438 6.007812 C 10.167969 5.9375 10.835938 6.367188 11.035156 6.984375 C 10.980469 6.367188 11.742188 5.886719 12.332031 6.085938 C 12.921875 6.289062 13.246094 6.976562 13.175781 7.59375 C 13.398438 7.371094 13.804688 7.367188 14.03125 7.589844 C 14.253906 7.808594 14.261719 8.210938 14.042969 8.4375 C 13.914062 7.886719 13.269531 7.515625 12.726562 7.679688 " fill-opacity="1" fill-rule="nonzero"/><path fill="#7aba3b" d="M 12.753906 21.984375 C 12.628906 21.769531 12.507812 21.542969 12.484375 21.292969 C 12.460938 21.042969 12.566406 20.769531 12.789062 20.65625 C 13.015625 20.546875 13.347656 20.6875 13.363281 20.9375 C 13.304688 20.558594 13.519531 20.15625 13.867188 19.992188 C 14.214844 19.828125 14.664062 19.914062 14.921875 20.199219 C 15.296875 19.886719 15.824219 19.769531 16.296875 19.894531 C 16.378906 19.972656 16.457031 20.054688 16.535156 20.132812 C 16.652344 20.519531 16.566406 20.960938 16.3125 21.277344 C 16.480469 20.9375 16.261719 20.46875 15.890625 20.382812 C 15.519531 20.296875 15.113281 20.617188 15.109375 20.992188 C 15.089844 20.574219 14.640625 20.226562 14.222656 20.3125 C 13.808594 20.402344 13.539062 20.902344 13.691406 21.292969 C 13.460938 21.121094 13.113281 21.125 12.886719 21.304688 C 12.660156 21.488281 12.578125 21.824219 12.699219 22.085938 C 12.773438 22.425781 13.023438 21.769531 12.753906 21.984375 " fill-opacity="1" fill-rule="nonzero"/><path fill="#7aba3b" d="M 5.6875 16.742188 C 5.976562 16.402344 6.28125 16.027344 6.292969 15.582031 C 6.304688 15.136719 5.847656 14.671875 5.441406 14.851562 C 5.773438 14.273438 5.351562 13.421875 4.6875 13.332031 C 4.023438 13.242188 3.386719 13.949219 3.550781 14.597656 C 3.261719 14.136719 3.328125 13.488281 3.703125 13.097656 C 4.082031 12.707031 4.730469 12.613281 5.203125 12.882812 C 5.671875 13.152344 5.921875 13.757812 5.773438 14.277344 C 6.210938 14.285156 6.621094 14.605469 6.742188 15.023438 C 6.859375 15.441406 6.675781 15.925781 6.308594 16.160156 C 6.78125 15.921875 7.4375 16.148438 7.660156 16.628906 C 7.882812 17.109375 7.632812 17.753906 7.140625 17.957031 C 7.445312 17.875 7.722656 18.253906 7.625 18.550781 C 7.53125 18.84375 7.191406 19.003906 6.878906 18.996094 C 6.566406 18.988281 6.277344 18.847656 5.996094 18.710938 C 6.414062 18.636719 6.722656 18.183594 6.636719 17.773438 C 6.886719 17.519531 6.894531 17.070312 6.652344 16.808594 C 6.414062 16.546875 5.964844 16.515625 5.6875 16.742188 " fill-opacity="1" fill-rule="nonzero"/><path fill="#7aba3b" d="M 22.925781 5.625 L 22.492188 5.625 C 22.625 4.992188 22.164062 4.296875 21.53125 4.164062 C 20.894531 4.035156 20.195312 4.488281 20.0625 5.121094 C 19.890625 4.777344 19.492188 4.566406 19.109375 4.613281 C 18.726562 4.660156 18.390625 4.964844 18.308594 5.339844 C 17.84375 5.128906 17.222656 5.382812 17.042969 5.859375 C 16.882812 6.265625 17.078125 6.761719 17.441406 6.992188 C 16.984375 6.820312 16.429688 6.914062 16.066406 7.242188 C 16.011719 7.453125 16.027344 7.679688 16.097656 7.886719 C 16.1875 7.726562 16.308594 7.582031 16.464844 7.476562 C 16.890625 7.179688 17.507812 7.195312 17.921875 7.511719 C 17.664062 7.128906 17.617188 6.574219 17.917969 6.226562 C 18.148438 5.960938 18.597656 5.921875 18.871094 6.105469 C 18.792969 5.902344 18.832031 5.636719 18.996094 5.480469 C 19.234375 5.246094 19.636719 5.234375 19.933594 5.394531 C 20.160156 5.515625 20.332031 5.722656 20.457031 5.949219 C 20.339844 5.550781 20.609375 5.042969 21.039062 4.988281 C 21.550781 4.925781 22.003906 5.535156 21.796875 6.003906 C 21.953125 5.851562 22.214844 5.828125 22.394531 5.949219 C 22.363281 6.3125 22.332031 6.675781 22.304688 7.039062 C 22.820312 6.808594 23.105469 6.160156 22.925781 5.625 " fill-opacity="1" fill-rule="nonzero"/></svg>