<svg xmlns="http://www.w3.org/2000/svg" xmlns:xlink="http://www.w3.org/1999/xlink" width="40" zoomAndPan="magnify" viewBox="0 0 30 30.000001" height="40" preserveAspectRatio="xMidYMid meet" version="1.0"><defs><clipPath id="45c2d6dd2f"><path d="M 15.378906 0.382812 L 22.125 0.382812 L 22.125 7.5625 L 15.378906 7.5625 Z M 15.378906 0.382812 " clip-rule="nonzero"/></clipPath><clipPath id="383a7a4466"><path d="M 1.507812 14 L 10 14 L 10 23 L 1.507812 23 Z M 1.507812 14 " clip-rule="nonzero"/></clipPath><clipPath id="2b671d207a"><path d="M 1.507812 15 L 9 15 L 9 23 L 1.507812 23 Z M 1.507812 15 " clip-rule="nonzero"/></clipPath><clipPath id="e004d41657"><path d="M 1.507812 9 L 8 9 L 8 16 L 1.507812 16 Z M 1.507812 9 " clip-rule="nonzero"/></clipPath><clipPath id="54a44ee525"><path d="M 1.507812 9 L 6 9 L 6 16 L 1.507812 16 Z M 1.507812 9 " clip-rule="nonzero"/></clipPath><clipPath id="9d78796674"><path d="M 12 18 L 22 18 L 22 28.675781 L 12 28.675781 Z M 12 18 " clip-rule="nonzero"/></clipPath><clipPath id="a7510ecb61"><path d="M 12 18 L 19 18 L 19 28.675781 L 12 28.675781 Z M 12 18 " clip-rule="nonzero"/></clipPath><clipPath id="95d86f37cf"><path d="M 13 18 L 22 18 L 22 28.675781 L 13 28.675781 Z M 13 18 " clip-rule="nonzero"/></clipPath><clipPath id="cfc22b0cfe"><path d="M 15.710938 0.382812 L 22.125 0.382812 L 22.125 7.0625 L 15.710938 7.0625 Z M 15.710938 0.382812 " clip-rule="nonzero"/></clipPath><clipPath id="3c6537c11b"><path d="M 16.210938 0.382812 L 22.125 0.382812 L 22.125 6.996094 L 16.210938 6.996094 Z M 16.210938 0.382812 " clip-rule="nonzero"/></clipPath><clipPath id="5aa1e31a6e"><path d="M 24 13.664062 L 28.363281 13.664062 L 28.363281 18.46875 L 24 18.46875 Z M 24 13.664062 " clip-rule="nonzero"/></clipPath></defs><g clip-path="url(#45c2d6dd2f)"><path fill="#61981d" d="M 17.941406 7.28125 C 18.640625 7.554688 19.433594 7.632812 20.132812 7.375 C 21.070312 7.027344 21.71875 6.117188 21.96875 5.152344 C 22.296875 3.886719 21.996094 2.453125 21.117188 1.492188 C 20.234375 0.53125 18.773438 0.117188 17.546875 0.558594 C 16.1875 1.054688 15.300781 2.5625 15.421875 4.007812 C 15.542969 5.457031 16.589844 6.757812 17.941406 7.28125 " fill-opacity="1" fill-rule="nonzero"/></g><path fill="#61981d" d="M 7.929688 15.144531 C 8.628906 15.417969 9.421875 15.496094 10.121094 15.238281 C 11.058594 14.890625 11.707031 13.980469 11.957031 13.015625 C 12.285156 11.75 11.984375 10.316406 11.105469 9.355469 C 10.222656 8.394531 8.761719 7.976562 7.535156 8.421875 C 6.175781 8.917969 5.289062 10.425781 5.410156 11.871094 C 5.53125 13.320312 6.582031 14.621094 7.929688 15.144531 " fill-opacity="1" fill-rule="nonzero"/><path fill="#528221" d="M 17.085938 18.546875 C 17.785156 18.820312 18.578125 18.898438 19.28125 18.636719 C 20.214844 18.292969 20.863281 17.382812 21.113281 16.417969 C 21.445312 15.152344 21.144531 13.71875 20.261719 12.753906 C 19.378906 11.792969 17.917969 11.378906 16.695312 11.824219 C 15.332031 12.320312 14.449219 13.828125 14.566406 15.273438 C 14.6875 16.722656 15.738281 18.023438 17.085938 18.546875 " fill-opacity="1" fill-rule="nonzero"/><path fill="#528221" d="M 21.402344 19.394531 C 22.101562 19.664062 22.894531 19.742188 23.597656 19.484375 C 24.53125 19.136719 25.179688 18.230469 25.429688 17.261719 C 25.757812 15.996094 25.460938 14.5625 24.578125 13.601562 C 23.695312 12.640625 22.234375 12.226562 21.011719 12.671875 C 19.648438 13.164062 18.761719 14.671875 18.882812 16.121094 C 19.003906 17.566406 20.054688 18.867188 21.402344 19.394531 " fill-opacity="1" fill-rule="nonzero"/><g clip-path="url(#383a7a4466)"><path fill="#68a92b" d="M 4.960938 14.855469 C 3.484375 15.050781 2.1875 16.230469 1.847656 17.6875 C 1.507812 19.140625 2.148438 20.777344 3.382812 21.613281 C 4.617188 22.449219 6.367188 22.425781 7.582031 21.5625 C 8.800781 20.699219 9.402344 19.050781 9.027344 17.605469 C 8.582031 15.867188 6.734375 14.621094 4.960938 14.855469 " fill-opacity="1" fill-rule="nonzero"/></g><g clip-path="url(#2b671d207a)"><path fill="#7aba3b" d="M 8.023438 21.121094 C 6.808594 21.984375 5.058594 22.003906 3.824219 21.167969 C 2.589844 20.332031 1.949219 18.699219 2.289062 17.242188 C 2.421875 16.683594 2.695312 16.164062 3.066406 15.726562 C 2.472656 16.234375 2.027344 16.921875 1.847656 17.6875 C 1.507812 19.140625 2.148438 20.777344 3.382812 21.613281 C 4.617188 22.449219 6.367188 22.425781 7.582031 21.5625 C 7.828125 21.390625 8.042969 21.1875 8.234375 20.957031 C 8.167969 21.015625 8.097656 21.070312 8.023438 21.121094 " fill-opacity="1" fill-rule="nonzero"/></g><path fill="#61981d" d="M 8.632812 18 C 8.1875 16.265625 6.339844 15.015625 4.566406 15.25 C 3.859375 15.34375 3.191406 15.667969 2.652344 16.140625 C 2.4375 16.386719 2.253906 16.664062 2.109375 16.957031 C 2.457031 16.785156 2.828125 16.664062 3.210938 16.613281 C 4.984375 16.375 6.832031 17.625 7.277344 19.359375 C 7.496094 20.203125 7.378906 21.109375 7.007812 21.890625 C 7.210938 21.800781 7.402344 21.691406 7.582031 21.5625 C 7.667969 21.503906 7.746094 21.441406 7.824219 21.375 C 8.601562 20.464844 8.933594 19.167969 8.632812 18 " fill-opacity="1" fill-rule="nonzero"/><path fill="#528221" d="M 4.960938 14.855469 C 4.078125 14.972656 3.265625 15.445312 2.675781 16.117188 C 3.210938 15.65625 3.871094 15.34375 4.566406 15.25 C 6.339844 15.015625 8.1875 16.265625 8.632812 18 C 8.933594 19.167969 8.601562 20.464844 7.824219 21.375 C 8.875 20.472656 9.375 18.953125 9.027344 17.605469 C 8.582031 15.867188 6.734375 14.621094 4.960938 14.855469 " fill-opacity="1" fill-rule="nonzero"/><g clip-path="url(#e004d41657)"><path fill="#68a92b" d="M 4.898438 15.148438 C 5.320312 15.066406 5.714844 14.867188 6.054688 14.605469 C 6.878906 13.960938 7.378906 12.878906 7.234375 11.835938 C 7.089844 10.796875 6.257812 9.859375 5.222656 9.691406 C 4.703125 9.609375 4.164062 9.707031 3.6875 9.929688 C 2.507812 10.480469 1.742188 11.863281 2.007812 13.140625 C 2.273438 14.417969 3.621094 15.398438 4.898438 15.148438 " fill-opacity="1" fill-rule="nonzero"/></g><g clip-path="url(#54a44ee525)"><path fill="#7aba3b" d="M 2.515625 13.003906 C 2.25 11.726562 3.015625 10.34375 4.195312 9.792969 C 4.269531 9.757812 4.34375 9.726562 4.421875 9.699219 C 4.167969 9.742188 3.917969 9.820312 3.6875 9.929688 C 2.507812 10.480469 1.742188 11.863281 2.007812 13.140625 C 2.273438 14.417969 3.621094 15.398438 4.898438 15.148438 C 5.039062 15.121094 5.175781 15.078125 5.3125 15.023438 C 4.0625 15.207031 2.773438 14.246094 2.515625 13.003906 " fill-opacity="1" fill-rule="nonzero"/></g><path fill="#68a92b" d="M 9.390625 4.113281 C 8.960938 3.625 8.339844 3.328125 7.699219 3.234375 C 6.78125 3.101562 5.8125 3.386719 5.109375 3.988281 C 4.363281 4.632812 3.929688 5.640625 4.003906 6.628906 C 4.082031 7.613281 4.675781 8.554688 5.546875 9.019531 C 6.511719 9.535156 7.757812 9.429688 8.65625 8.804688 C 9.554688 8.179688 10.085938 7.074219 10.066406 5.976562 C 10.054688 5.304688 9.835938 4.621094 9.390625 4.113281 " fill-opacity="1" fill-rule="nonzero"/><path fill="#7aba3b" d="M 8.90625 8.554688 C 8.007812 9.179688 6.761719 9.28125 5.796875 8.769531 C 4.925781 8.304688 4.332031 7.363281 4.253906 6.378906 C 4.1875 5.53125 4.5 4.671875 5.0625 4.035156 C 4.34375 4.683594 3.929688 5.664062 4.003906 6.628906 C 4.082031 7.613281 4.675781 8.554688 5.546875 9.019531 C 6.511719 9.535156 7.757812 9.429688 8.65625 8.804688 C 8.851562 8.667969 9.027344 8.507812 9.183594 8.332031 C 9.09375 8.410156 9.003906 8.484375 8.90625 8.554688 " fill-opacity="1" fill-rule="nonzero"/><path fill="#528221" d="M 5.109375 3.988281 C 4.886719 4.183594 4.695312 4.410156 4.53125 4.660156 C 5.148438 4.320312 5.875 4.179688 6.574219 4.28125 C 7.214844 4.375 7.835938 4.671875 8.265625 5.160156 C 8.710938 5.664062 8.929688 6.347656 8.941406 7.023438 C 8.953125 7.707031 8.75 8.398438 8.375 8.972656 C 8.472656 8.921875 8.566406 8.867188 8.65625 8.804688 C 9.554688 8.179688 10.085938 7.074219 10.066406 5.976562 C 10.054688 5.304688 9.835938 4.621094 9.390625 4.113281 C 8.960938 3.625 8.339844 3.328125 7.699219 3.234375 C 6.78125 3.101562 5.8125 3.386719 5.109375 3.988281 " fill-opacity="1" fill-rule="nonzero"/><path fill="#61981d" d="M 4.554688 4.628906 C 4.546875 4.640625 4.539062 4.648438 4.53125 4.660156 C 5.148438 4.320312 5.875 4.179688 6.574219 4.28125 C 7.214844 4.375 7.835938 4.671875 8.265625 5.160156 C 8.710938 5.664062 8.929688 6.347656 8.941406 7.023438 C 8.953125 7.707031 8.75 8.398438 8.375 8.972656 C 8.472656 8.921875 8.566406 8.867188 8.65625 8.804688 C 8.832031 8.683594 8.988281 8.539062 9.136719 8.382812 C 9.511719 7.808594 9.714844 7.117188 9.703125 6.429688 C 9.6875 5.757812 9.472656 5.074219 9.027344 4.566406 C 8.597656 4.078125 7.976562 3.78125 7.335938 3.6875 C 6.417969 3.554688 5.449219 3.835938 4.746094 4.441406 C 4.679688 4.5 4.617188 4.566406 4.554688 4.628906 " fill-opacity="1" fill-rule="nonzero"/><path fill="#68a92b" d="M 8.425781 20.195312 C 7.921875 21.105469 8.105469 22.257812 8.558594 23.195312 C 8.917969 23.9375 9.496094 24.640625 10.292969 24.835938 C 10.851562 24.972656 11.460938 24.835938 11.941406 24.515625 C 12.421875 24.195312 12.777344 23.707031 12.992188 23.171875 C 13.332031 22.320312 13.316406 21.320312 12.894531 20.503906 C 12.476562 19.6875 11.644531 19.089844 10.734375 19.007812 C 9.820312 18.925781 8.871094 19.394531 8.425781 20.195312 " fill-opacity="1" fill-rule="nonzero"/><path fill="#68a92b" d="M 8.398438 22.90625 C 7.886719 22.398438 7.058594 22.242188 6.402344 22.535156 C 5.746094 22.828125 5.304688 23.550781 5.339844 24.273438 C 5.347656 24.441406 5.382812 24.609375 5.433594 24.773438 C 5.609375 25.328125 6.011719 25.804688 6.53125 26.066406 C 7.046875 26.328125 7.667969 26.371094 8.21875 26.1875 C 8.582031 26.0625 8.925781 25.824219 9.082031 25.472656 C 9.242188 25.109375 9.179688 24.6875 9.085938 24.300781 C 8.957031 23.792969 8.765625 23.277344 8.398438 22.90625 " fill-opacity="1" fill-rule="nonzero"/><path fill="#7aba3b" d="M 7.054688 25.984375 C 6.535156 25.722656 6.132812 25.246094 5.957031 24.691406 C 5.902344 24.527344 5.871094 24.359375 5.863281 24.191406 C 5.828125 23.46875 6.269531 22.746094 6.925781 22.453125 C 6.980469 22.429688 7.039062 22.414062 7.097656 22.394531 C 6.859375 22.394531 6.621094 22.4375 6.402344 22.535156 C 5.746094 22.828125 5.304688 23.550781 5.339844 24.273438 C 5.347656 24.441406 5.382812 24.609375 5.433594 24.773438 C 5.609375 25.328125 6.011719 25.804688 6.53125 26.066406 C 7.015625 26.3125 7.589844 26.363281 8.113281 26.214844 C 7.746094 26.226562 7.378906 26.148438 7.054688 25.984375 " fill-opacity="1" fill-rule="nonzero"/><path fill="#61981d" d="M 6.402344 22.535156 C 6.132812 22.65625 5.902344 22.851562 5.722656 23.085938 C 5.726562 23.085938 5.730469 23.082031 5.734375 23.082031 C 6.390625 22.789062 7.21875 22.941406 7.726562 23.453125 C 8.097656 23.824219 8.289062 24.335938 8.414062 24.84375 C 8.511719 25.230469 8.574219 25.652344 8.414062 26.019531 C 8.394531 26.058594 8.371094 26.097656 8.351562 26.136719 C 8.664062 26.003906 8.945312 25.78125 9.082031 25.472656 C 9.242188 25.109375 9.179688 24.6875 9.085938 24.300781 C 8.957031 23.792969 8.765625 23.277344 8.398438 22.90625 C 7.886719 22.398438 7.058594 22.242188 6.402344 22.535156 " fill-opacity="1" fill-rule="nonzero"/><path fill="#68a92b" d="M 8.058594 15.445312 C 7.382812 16.996094 7.992188 18.996094 9.414062 19.902344 C 10.839844 20.808594 12.902344 20.511719 14.011719 19.242188 C 15.125 17.96875 15.148438 15.875 14.066406 14.578125 C 13.289062 13.648438 12.019531 13.160156 10.820312 13.332031 C 9.625 13.503906 8.539062 14.332031 8.058594 15.445312 " fill-opacity="1" fill-rule="nonzero"/><path fill="#7aba3b" d="M 9.871094 19.445312 C 8.449219 18.539062 7.839844 16.539062 8.511719 14.988281 C 8.644531 14.6875 8.820312 14.414062 9.023438 14.160156 C 8.613281 14.511719 8.273438 14.949219 8.058594 15.445312 C 7.382812 16.996094 7.992188 18.996094 9.414062 19.902344 C 10.839844 20.808594 12.902344 20.511719 14.011719 19.242188 C 14.039062 19.210938 14.058594 19.183594 14.082031 19.152344 C 12.925781 20.101562 11.144531 20.257812 9.871094 19.445312 " fill-opacity="1" fill-rule="nonzero"/><path fill="#61981d" d="M 10.820312 13.332031 C 9.625 13.503906 8.539062 14.332031 8.058594 15.445312 C 8.039062 15.484375 8.027344 15.527344 8.011719 15.566406 C 8.378906 15.363281 8.78125 15.21875 9.199219 15.15625 C 10.398438 14.984375 11.667969 15.472656 12.445312 16.402344 C 13.265625 17.386719 13.449219 18.824219 13.007812 20.015625 C 13.386719 19.824219 13.730469 19.5625 14.011719 19.242188 C 15.125 17.96875 15.148438 15.875 14.066406 14.578125 C 13.289062 13.648438 12.019531 13.160156 10.820312 13.332031 " fill-opacity="1" fill-rule="nonzero"/><path fill="#528221" d="M 10.820312 13.332031 C 10.089844 13.4375 9.402344 13.789062 8.867188 14.300781 C 9.09375 14.214844 9.324219 14.148438 9.566406 14.113281 C 9.609375 14.105469 9.652344 14.109375 9.699219 14.105469 C 9.847656 14.058594 9.996094 14.023438 10.152344 14.003906 C 11.347656 13.832031 12.621094 14.320312 13.398438 15.25 C 14.417969 16.472656 14.453125 18.402344 13.523438 19.6875 C 13.699219 19.554688 13.867188 19.410156 14.011719 19.242188 C 15.125 17.96875 15.148438 15.875 14.066406 14.578125 C 13.289062 13.648438 12.019531 13.160156 10.820312 13.332031 " fill-opacity="1" fill-rule="nonzero"/><g clip-path="url(#9d78796674)"><path fill="#68a92b" d="M 17.074219 18.417969 C 15.621094 18.183594 14.085938 18.863281 13.191406 20.035156 C 12.296875 21.207031 12.035156 22.8125 12.402344 24.242188 C 12.769531 25.671875 13.730469 26.917969 14.953125 27.734375 C 15.792969 28.292969 16.789062 28.667969 17.792969 28.597656 C 19.476562 28.484375 20.914062 27.078125 21.332031 25.4375 C 21.75 23.796875 21.257812 22.011719 20.28125 20.632812 C 19.511719 19.539062 18.390625 18.632812 17.074219 18.417969 " fill-opacity="1" fill-rule="nonzero"/></g><g clip-path="url(#a7510ecb61)"><path fill="#7aba3b" d="M 18.539062 28.433594 C 17.535156 28.503906 16.539062 28.128906 15.699219 27.570312 C 14.472656 26.753906 13.511719 25.507812 13.148438 24.078125 C 12.78125 22.644531 13.042969 21.042969 13.9375 19.871094 C 14.460938 19.179688 15.207031 18.664062 16.027344 18.402344 C 14.925781 18.535156 13.871094 19.140625 13.191406 20.035156 C 12.296875 21.207031 12.035156 22.8125 12.402344 24.242188 C 12.769531 25.671875 13.730469 26.917969 14.953125 27.734375 C 15.792969 28.292969 16.789062 28.667969 17.792969 28.597656 C 18.09375 28.578125 18.386719 28.515625 18.664062 28.417969 C 18.621094 28.425781 18.582031 28.429688 18.539062 28.433594 " fill-opacity="1" fill-rule="nonzero"/></g><g clip-path="url(#95d86f37cf)"><path fill="#61981d" d="M 13.324219 19.871094 C 13.796875 19.765625 14.289062 19.742188 14.769531 19.820312 C 16.085938 20.035156 17.207031 20.941406 17.976562 22.03125 C 18.953125 23.414062 19.445312 25.199219 19.027344 26.839844 C 18.867188 27.464844 18.558594 28.054688 18.148438 28.554688 C 19.675781 28.28125 20.945312 26.964844 21.332031 25.4375 C 21.75 23.796875 21.257812 22.011719 20.28125 20.632812 C 19.511719 19.539062 18.390625 18.632812 17.074219 18.417969 C 15.691406 18.195312 14.230469 18.800781 13.324219 19.871094 " fill-opacity="1" fill-rule="nonzero"/><path fill="#528221" d="M 13.730469 19.453125 C 14.335938 19.242188 14.988281 19.171875 15.625 19.273438 C 16.9375 19.488281 18.0625 20.394531 18.832031 21.484375 C 19.808594 22.867188 20.300781 24.652344 19.882812 26.292969 C 19.671875 27.113281 19.210938 27.871094 18.589844 28.441406 C 19.917969 28.019531 20.984375 26.8125 21.332031 25.4375 C 21.75 23.796875 21.257812 22.011719 20.28125 20.632812 C 19.511719 19.539062 18.390625 18.632812 17.074219 18.417969 C 15.882812 18.226562 14.636719 18.648438 13.730469 19.453125 " fill-opacity="1" fill-rule="nonzero"/></g><path fill="#68a92b" d="M 14.742188 2.816406 C 14.53125 2.15625 14.070312 1.566406 13.445312 1.273438 C 12.820312 0.980469 12.035156 1.019531 11.480469 1.425781 C 10.832031 1.894531 10.582031 2.753906 10.550781 3.558594 C 10.523438 4.152344 10.605469 4.777344 10.9375 5.273438 C 11.34375 5.875 12.109375 6.203125 12.828125 6.121094 C 13.550781 6.039062 14.207031 5.570312 14.558594 4.929688 C 14.910156 4.292969 14.960938 3.507812 14.742188 2.816406 " fill-opacity="1" fill-rule="nonzero"/><path fill="#68a92b" d="M 22.335938 17.039062 C 22.652344 16.371094 22.714844 15.585938 22.511719 14.875 C 22.121094 13.507812 20.679688 12.523438 19.269531 12.664062 C 17.859375 12.804688 16.636719 14.050781 16.523438 15.46875 C 16.40625 16.886719 17.40625 18.316406 18.777344 18.6875 C 20.144531 19.058594 21.726562 18.324219 22.335938 17.039062 " fill-opacity="1" fill-rule="nonzero"/><path fill="#7aba3b" d="M 19.777344 18.210938 C 18.402344 17.871094 17.367188 16.464844 17.449219 15.046875 C 17.503906 14.160156 17.984375 13.332031 18.679688 12.792969 C 17.535156 13.167969 16.621094 14.253906 16.523438 15.46875 C 16.40625 16.886719 17.40625 18.316406 18.777344 18.6875 C 19.6875 18.933594 20.695312 18.6875 21.445312 18.117188 C 20.910156 18.300781 20.328125 18.34375 19.777344 18.210938 " fill-opacity="1" fill-rule="nonzero"/><path fill="#528221" d="M 19.269531 12.664062 C 18.289062 12.761719 17.398438 13.394531 16.910156 14.25 C 17.289062 14.011719 17.71875 13.855469 18.167969 13.808594 C 19.578125 13.671875 21.019531 14.652344 21.410156 16.019531 C 21.613281 16.730469 21.550781 17.515625 21.234375 18.183594 C 21.214844 18.226562 21.191406 18.265625 21.167969 18.304688 C 21.667969 18.003906 22.082031 17.570312 22.335938 17.039062 C 22.652344 16.371094 22.714844 15.585938 22.511719 14.875 C 22.121094 13.507812 20.679688 12.523438 19.269531 12.664062 " fill-opacity="1" fill-rule="nonzero"/><path fill="#61981d" d="M 21.386719 18.152344 C 21.605469 17.925781 21.789062 17.671875 21.921875 17.390625 C 22.238281 16.71875 22.304688 15.9375 22.101562 15.222656 C 21.707031 13.855469 20.269531 12.875 18.859375 13.015625 C 18.351562 13.066406 17.871094 13.261719 17.453125 13.554688 C 17.242188 13.761719 17.058594 13.992188 16.910156 14.25 C 17.289062 14.011719 17.71875 13.855469 18.167969 13.808594 C 19.578125 13.671875 21.019531 14.652344 21.410156 16.019531 C 21.613281 16.730469 21.550781 17.515625 21.234375 18.183594 C 21.214844 18.226562 21.191406 18.265625 21.167969 18.304688 C 21.246094 18.257812 21.316406 18.203125 21.386719 18.152344 " fill-opacity="1" fill-rule="nonzero"/><g clip-path="url(#cfc22b0cfe)"><path fill="#61981d" d="M 17.546875 0.558594 C 16.726562 0.859375 16.082031 1.523438 15.722656 2.324219 C 15.964844 2.140625 16.226562 1.988281 16.515625 1.882812 C 17.738281 1.4375 19.199219 1.855469 20.082031 2.816406 C 20.964844 3.777344 21.261719 5.210938 20.933594 6.476562 C 20.882812 6.671875 20.8125 6.863281 20.730469 7.050781 C 21.34375 6.605469 21.773438 5.898438 21.96875 5.152344 C 22.296875 3.886719 21.996094 2.453125 21.117188 1.492188 C 20.234375 0.53125 18.773438 0.117188 17.546875 0.558594 " fill-opacity="1" fill-rule="nonzero"/></g><g clip-path="url(#3c6537c11b)"><path fill="#528221" d="M 17.546875 0.558594 C 17.023438 0.75 16.570312 1.09375 16.21875 1.523438 C 16.476562 1.316406 16.765625 1.144531 17.078125 1.03125 C 18.304688 0.585938 19.765625 1 20.648438 1.960938 C 21.53125 2.921875 21.828125 4.355469 21.5 5.621094 C 21.375 6.105469 21.144531 6.574219 20.835938 6.964844 C 21.390625 6.519531 21.785156 5.851562 21.96875 5.152344 C 22.296875 3.886719 21.996094 2.453125 21.117188 1.492188 C 20.234375 0.53125 18.773438 0.117188 17.546875 0.558594 " fill-opacity="1" fill-rule="nonzero"/></g><path fill="#61981d" d="M 19.652344 10.363281 C 19.714844 11.097656 19.976562 11.8125 20.402344 12.410156 C 21.542969 14.003906 23.90625 14.5625 25.632812 13.640625 C 27.363281 12.722656 28.230469 10.445312 27.554688 8.601562 C 26.878906 6.761719 24.746094 5.59375 22.835938 6.019531 C 20.929688 6.445312 19.488281 8.40625 19.652344 10.363281 " fill-opacity="1" fill-rule="nonzero"/><path fill="#68a92b" d="M 26.40625 12.980469 C 24.679688 13.898438 22.3125 13.34375 21.175781 11.746094 C 20.746094 11.148438 20.484375 10.433594 20.421875 9.703125 C 20.328125 8.558594 20.785156 7.410156 21.558594 6.570312 C 20.332031 7.386719 19.527344 8.878906 19.652344 10.363281 C 19.714844 11.097656 19.976562 11.8125 20.402344 12.410156 C 21.542969 14.003906 23.90625 14.5625 25.632812 13.640625 C 26.027344 13.433594 26.371094 13.152344 26.667969 12.824219 C 26.582031 12.878906 26.496094 12.933594 26.40625 12.980469 " fill-opacity="1" fill-rule="nonzero"/><path fill="#61981d" d="M 22.835938 6.019531 C 21.902344 6.226562 21.082031 6.804688 20.503906 7.570312 C 20.734375 7.46875 20.976562 7.382812 21.222656 7.328125 C 23.132812 6.902344 25.265625 8.070312 25.941406 9.914062 C 26.410156 11.191406 26.132812 12.679688 25.34375 13.777344 C 25.441406 13.734375 25.539062 13.691406 25.632812 13.640625 C 27.363281 12.722656 28.230469 10.445312 27.554688 8.601562 C 26.878906 6.761719 24.746094 5.59375 22.835938 6.019531 " fill-opacity="1" fill-rule="nonzero"/><path fill="#528221" d="M 22.835938 6.019531 C 21.988281 6.207031 21.234375 6.703125 20.671875 7.367188 C 21.15625 6.953125 21.726562 6.644531 22.351562 6.503906 C 24.261719 6.078125 26.394531 7.25 27.070312 9.089844 C 27.574219 10.464844 27.21875 12.082031 26.285156 13.195312 C 27.566406 12.113281 28.136719 10.195312 27.554688 8.601562 C 26.878906 6.761719 24.746094 5.59375 22.835938 6.019531 " fill-opacity="1" fill-rule="nonzero"/><path fill="#68a92b" d="M 24.847656 17.765625 C 23.613281 17.414062 22.1875 17.855469 21.367188 18.847656 C 20.546875 19.835938 20.371094 21.320312 20.9375 22.476562 C 21.355469 23.332031 22.152344 23.988281 23.066406 24.234375 C 24.1875 24.539062 25.460938 24.199219 26.289062 23.378906 C 27.113281 22.558594 27.464844 21.289062 27.175781 20.15625 C 26.886719 19.027344 25.964844 18.082031 24.847656 17.765625 " fill-opacity="1" fill-rule="nonzero"/><g clip-path="url(#5aa1e31a6e)"><path fill="#61981d" d="M 25.558594 13.863281 C 24.703125 14.21875 24.066406 15.078125 24.007812 16.007812 C 23.949219 16.9375 24.496094 17.882812 25.34375 18.261719 C 26.1875 18.640625 27.277344 18.40625 27.867188 17.6875 C 28.445312 16.976562 28.484375 15.933594 28.152344 15.078125 C 27.9375 14.535156 27.554688 14.023438 27.015625 13.808594 C 26.550781 13.621094 26.019531 13.675781 25.558594 13.863281 " fill-opacity="1" fill-rule="nonzero"/></g><path fill="#61981d" d="M 5.222656 9.691406 C 4.703125 9.609375 4.164062 9.707031 3.6875 9.929688 C 3.425781 10.050781 3.183594 10.21875 2.96875 10.414062 C 4.078125 10.226562 5.300781 10.765625 5.863281 11.75 C 6.421875 12.730469 6.269531 14.046875 5.5625 14.914062 C 5.734375 14.824219 5.902344 14.722656 6.054688 14.605469 C 6.878906 13.960938 7.378906 12.878906 7.234375 11.835938 C 7.089844 10.796875 6.257812 9.863281 5.222656 9.691406 " fill-opacity="1" fill-rule="nonzero"/><path fill="#528221" d="M 3.6875 9.929688 C 3.425781 10.050781 3.183594 10.21875 2.96875 10.414062 C 3.039062 10.371094 3.105469 10.328125 3.179688 10.292969 C 3.65625 10.070312 4.195312 9.972656 4.714844 10.054688 C 5.75 10.226562 6.582031 11.160156 6.726562 12.199219 C 6.863281 13.179688 6.425781 14.191406 5.683594 14.84375 C 5.8125 14.773438 5.9375 14.695312 6.054688 14.605469 C 6.878906 13.960938 7.378906 12.878906 7.234375 11.835938 C 7.089844 10.796875 6.257812 9.863281 5.222656 9.691406 C 4.703125 9.609375 4.164062 9.707031 3.6875 9.929688 " fill-opacity="1" fill-rule="nonzero"/><path fill="#68a92b" d="M 9.839844 11.878906 C 10.570312 13.449219 12.402344 14.238281 14.132812 14.3125 C 15.191406 14.355469 16.277344 14.171875 17.207031 13.660156 C 18.136719 13.148438 18.894531 12.285156 19.160156 11.253906 C 19.394531 10.324219 19.21875 9.324219 18.800781 8.460938 C 18.382812 7.601562 17.738281 6.871094 17.023438 6.238281 C 16.292969 5.597656 15.453125 5.03125 14.496094 4.871094 C 13.375 4.683594 12.199219 5.105469 11.34375 5.859375 C 10.492188 6.609375 9.941406 7.671875 9.667969 8.78125 C 9.414062 9.804688 9.394531 10.921875 9.839844 11.878906 " fill-opacity="1" fill-rule="nonzero"/><path fill="#61981d" d="M 11.34375 5.859375 C 10.648438 6.472656 10.15625 7.292969 9.847656 8.175781 C 9.984375 8.023438 10.125 7.871094 10.28125 7.734375 C 11.136719 6.976562 12.320312 6.554688 13.453125 6.746094 C 14.414062 6.90625 15.261719 7.484375 15.996094 8.132812 C 16.71875 8.773438 17.371094 9.511719 17.792969 10.378906 C 18.167969 11.152344 18.347656 12.039062 18.21875 12.886719 C 18.660156 12.425781 19 11.871094 19.160156 11.253906 C 19.394531 10.324219 19.21875 9.324219 18.800781 8.460938 C 18.382812 7.601562 17.738281 6.871094 17.023438 6.238281 C 16.292969 5.597656 15.453125 5.03125 14.496094 4.871094 C 13.375 4.683594 12.199219 5.105469 11.34375 5.859375 " fill-opacity="1" fill-rule="nonzero"/><path fill="#528221" d="M 11.34375 5.859375 C 11.109375 6.066406 10.898438 6.296875 10.710938 6.546875 C 11.5625 5.816406 12.714844 5.414062 13.820312 5.59375 C 14.773438 5.753906 15.617188 6.320312 16.34375 6.964844 C 17.058594 7.597656 17.707031 8.328125 18.125 9.1875 C 18.542969 10.046875 18.714844 11.050781 18.480469 11.976562 C 18.425781 12.1875 18.34375 12.390625 18.25 12.585938 C 18.242188 12.6875 18.234375 12.785156 18.21875 12.886719 C 18.660156 12.425781 19 11.871094 19.160156 11.253906 C 19.394531 10.324219 19.21875 9.324219 18.800781 8.460938 C 18.382812 7.601562 17.738281 6.871094 17.023438 6.238281 C 16.292969 5.597656 15.453125 5.03125 14.496094 4.871094 C 13.375 4.683594 12.199219 5.105469 11.34375 5.859375 " fill-opacity="1" fill-rule="nonzero"/><path fill="#7aba3b" d="M 9.839844 11.878906 C 10.570312 13.449219 12.402344 14.238281 14.132812 14.3125 C 14.980469 14.34375 15.847656 14.230469 16.636719 13.921875 C 15.007812 14.234375 13.246094 13.890625 11.894531 12.914062 C 10.714844 12.054688 9.890625 10.746094 9.558594 9.324219 C 9.425781 10.191406 9.472656 11.089844 9.839844 11.878906 " fill-opacity="1" fill-rule="nonzero"/><path fill="#61981d" d="M 24.925781 20.191406 C 25.621094 21.5625 25.125 23.425781 23.839844 24.265625 C 23.9375 24.292969 24.035156 24.3125 24.132812 24.328125 C 24.933594 24.277344 25.71875 23.945312 26.289062 23.378906 C 27.113281 22.558594 27.464844 21.289062 27.175781 20.15625 C 26.886719 19.027344 25.964844 18.082031 24.847656 17.765625 C 23.761719 17.457031 22.53125 17.761719 21.691406 18.511719 C 22.964844 18.359375 24.335938 19.03125 24.925781 20.191406 " fill-opacity="1" fill-rule="nonzero"/><path fill="#528221" d="M 25.824219 19.386719 C 26.769531 20.648438 26.742188 22.542969 25.777344 23.78125 C 25.957031 23.664062 26.132812 23.535156 26.289062 23.378906 C 27.113281 22.558594 27.464844 21.289062 27.175781 20.15625 C 26.886719 19.027344 25.964844 18.082031 24.847656 17.765625 C 24.0625 17.542969 23.203125 17.640625 22.472656 17.992188 C 23.722656 17.847656 25.0625 18.367188 25.824219 19.386719 " fill-opacity="1" fill-rule="nonzero"/></svg>