<svg xmlns="http://www.w3.org/2000/svg" xmlns:xlink="http://www.w3.org/1999/xlink" width="40" zoomAndPan="magnify" viewBox="0 0 30 30.000001" height="40" preserveAspectRatio="xMidYMid meet" version="1.0"><defs><clipPath id="b9a02e3ac0"><path d="M 1.320312 15 L 9 15 L 9 23 L 1.320312 23 Z M 1.320312 15 " clip-rule="nonzero"/></clipPath><clipPath id="cbb6258548"><path d="M 4.929688 20.777344 L 18.902344 20.777344 L 18.902344 29.023438 L 4.929688 29.023438 Z M 4.929688 20.777344 " clip-rule="nonzero"/></clipPath><clipPath id="7f858f5ef1"><path d="M 15.160156 10.933594 L 28.898438 10.933594 L 28.898438 22.871094 L 15.160156 22.871094 Z M 15.160156 10.933594 " clip-rule="nonzero"/></clipPath><clipPath id="9d568e7e40"><path d="M 15.671875 10.933594 L 28.898438 10.933594 L 28.898438 22.871094 L 15.671875 22.871094 Z M 15.671875 10.933594 " clip-rule="nonzero"/></clipPath><clipPath id="07695f8f15"><path d="M 20.839844 14.203125 L 28.898438 14.203125 L 28.898438 22.871094 L 20.839844 22.871094 Z M 20.839844 14.203125 " clip-rule="nonzero"/></clipPath><clipPath id="682cd71fba"><path d="M 4.929688 22.464844 L 18.902344 22.464844 L 18.902344 29.023438 L 4.929688 29.023438 Z M 4.929688 22.464844 " clip-rule="nonzero"/></clipPath><clipPath id="1c13ac0d84"><path d="M 12.203125 25.53125 L 18.902344 25.53125 L 18.902344 29.023438 L 12.203125 29.023438 Z M 12.203125 25.53125 " clip-rule="nonzero"/></clipPath><clipPath id="7a95b5c15c"><path d="M 4.929688 23.78125 L 12.136719 23.78125 L 12.136719 29.023438 L 4.929688 29.023438 Z M 4.929688 23.78125 " clip-rule="nonzero"/></clipPath></defs><path fill="#af663a" d="M 7.738281 10.679688 C 7.136719 10.832031 6.53125 10.988281 5.925781 11.144531 C 6.113281 11.160156 6.300781 11.179688 6.488281 11.199219 C 6.472656 11.328125 6.457031 11.457031 6.441406 11.585938 C 7.441406 11.382812 8.488281 11.40625 9.476562 11.65625 C 10.105469 11.8125 10.804688 12.171875 10.886719 12.8125 C 10.933594 13.199219 10.722656 13.585938 10.425781 13.847656 C 10.128906 14.109375 9.757812 14.269531 9.394531 14.421875 C 8.109375 14.964844 6.824219 15.511719 5.539062 16.054688 C 5.636719 16.226562 5.734375 16.398438 5.832031 16.566406 C 6.230469 16.382812 6.625 16.199219 7.019531 16.015625 C 6.628906 16.371094 6.382812 16.878906 6.339844 17.402344 C 6.515625 17.523438 6.695312 17.648438 6.875 17.773438 C 7.222656 17.222656 7.578125 16.664062 8.054688 16.21875 C 8.535156 15.773438 9.15625 15.445312 9.8125 15.449219 C 10.46875 15.457031 11.140625 15.859375 11.324219 16.484375 C 11.472656 16.976562 11.308594 17.503906 11.148438 17.988281 C 10.738281 19.222656 10.332031 20.457031 9.921875 21.691406 C 10.144531 21.71875 10.363281 21.746094 10.585938 21.777344 C 10.914062 21.214844 11.242188 20.652344 11.574219 20.09375 C 11.523438 20.761719 11.472656 21.429688 11.421875 22.09375 C 11.863281 21.164062 12.304688 20.230469 12.746094 19.296875 C 13.503906 20.234375 14.019531 21.355469 14.234375 22.535156 C 14.726562 22.328125 14.925781 22.5625 15.417969 22.355469 C 14.777344 21.75 14.535156 20.59375 14.132812 19.816406 C 14.007812 19.574219 13.894531 19.316406 13.910156 19.050781 C 13.945312 18.472656 14.585938 18.082031 15.171875 18.105469 C 15.753906 18.125 16.28125 18.441406 16.777344 18.746094 C 16.34375 18.433594 16.144531 17.835938 16.308594 17.332031 C 16.472656 16.824219 16.984375 16.453125 17.519531 16.453125 C 16.507812 16.617188 15.441406 16.765625 14.484375 16.410156 C 13.523438 16.058594 12.734375 15.027344 13.023438 14.054688 C 13.324219 13.054688 14.554688 12.628906 15.597656 12.722656 C 16.644531 12.8125 17.625 13.265625 18.667969 13.382812 C 19.621094 13.492188 20.605469 13.3125 21.457031 12.875 C 21.328125 12.777344 21.277344 12.597656 21.332031 12.449219 C 20.542969 12.683594 19.707031 12.921875 18.902344 12.742188 C 18.097656 12.566406 17.355469 11.8125 17.507812 11.003906 C 17.636719 10.316406 18.3125 9.894531 18.863281 9.460938 C 19.992188 8.570312 20.804688 7.296875 21.136719 5.90625 C 20.921875 5.871094 20.703125 5.835938 20.484375 5.796875 C 20.058594 7.277344 19.136719 8.613281 17.898438 9.539062 C 16.660156 10.464844 15.113281 10.976562 13.5625 10.972656 C 14.136719 8.847656 14.316406 6.617188 14.09375 4.429688 C 13.953125 4.472656 13.8125 4.519531 13.675781 4.5625 C 14.082031 5.792969 14.015625 7.171875 13.496094 8.355469 C 13.34375 8.699219 13.09375 9.070312 12.714844 9.089844 C 12.339844 9.105469 12.054688 8.769531 11.863281 8.449219 C 11.195312 7.328125 10.898438 5.992188 11.035156 4.699219 C 10.863281 4.769531 10.695312 4.839844 10.527344 4.90625 C 10.253906 6.226562 10.535156 7.652344 11.285156 8.773438 C 11.667969 9.347656 12.195312 10.011719 11.910156 10.640625 C 11.722656 11.058594 11.210938 11.257812 10.753906 11.210938 C 10.296875 11.160156 9.886719 10.910156 9.523438 10.632812 C 8.652344 9.960938 7.949219 9.078125 7.5 8.078125 C 7.304688 8.199219 7.109375 8.320312 6.914062 8.4375 C 7.308594 8.402344 7.6875 8.730469 7.730469 9.121094 C 7.773438 9.507812 7.5 9.898438 7.128906 10.023438 C 6.753906 10.152344 6.316406 10.019531 6.050781 9.730469 C 6.613281 10.046875 7.175781 10.363281 7.738281 10.679688 " fill-opacity="1" fill-rule="nonzero"/><path fill="#976333" d="M 17.183594 16.503906 C 17.296875 16.488281 17.40625 16.46875 17.519531 16.453125 C 17.40625 16.453125 17.292969 16.472656 17.183594 16.503906 " fill-opacity="1" fill-rule="nonzero"/><path fill="#976333" d="M 17.183594 16.503906 C 16.273438 16.640625 15.335938 16.726562 14.484375 16.410156 C 13.605469 16.089844 12.875 15.203125 12.976562 14.308594 C 12.914062 14.246094 12.859375 14.179688 12.808594 14.109375 C 12.9375 15.074219 13.070312 16.042969 13.199219 17.007812 C 13.257812 17.425781 13.3125 17.859375 13.199219 18.269531 C 13.09375 18.652344 12.847656 18.980469 12.605469 19.296875 C 12.332031 19.65625 12.058594 20.015625 11.785156 20.375 C 11.738281 20.050781 11.695312 19.726562 11.648438 19.402344 C 11.296875 19.847656 10.941406 20.296875 10.589844 20.742188 C 11.074219 19.710938 11.378906 18.597656 11.476562 17.460938 C 11.519531 16.945312 11.515625 16.394531 11.242188 15.957031 C 10.996094 15.570312 10.480469 15.328125 10.0625 15.472656 C 10.632812 15.5625 11.164062 15.941406 11.324219 16.484375 C 11.472656 16.976562 11.308594 17.503906 11.148438 17.988281 C 10.738281 19.222656 10.332031 20.457031 9.921875 21.691406 C 10.144531 21.71875 10.363281 21.746094 10.585938 21.777344 C 10.914062 21.214844 11.242188 20.652344 11.574219 20.09375 C 11.523438 20.761719 11.472656 21.429688 11.421875 22.09375 C 11.863281 21.164062 12.304688 20.230469 12.746094 19.296875 C 13.503906 20.234375 14.019531 21.355469 14.234375 22.535156 C 14.726562 22.328125 14.6875 22.675781 15.179688 22.464844 C 14.539062 21.863281 14.535156 20.59375 14.132812 19.816406 C 14.007812 19.574219 13.894531 19.316406 13.910156 19.050781 C 13.945312 18.472656 14.585938 18.082031 15.171875 18.105469 C 15.753906 18.125 16.28125 18.441406 16.777344 18.746094 C 16.34375 18.433594 16.144531 17.835938 16.308594 17.332031 C 16.4375 16.933594 16.78125 16.621094 17.183594 16.503906 " fill-opacity="1" fill-rule="nonzero"/><path fill="#68a92b" d="M 27.238281 9.886719 C 27.613281 9.910156 27.964844 9.5625 27.941406 9.191406 C 27.917969 8.824219 27.53125 8.519531 27.164062 8.582031 C 27.417969 8.425781 27.542969 8.089844 27.457031 7.800781 C 27.371094 7.515625 27.078125 7.304688 26.777344 7.308594 C 27.007812 6.902344 26.800781 6.316406 26.363281 6.144531 C 25.925781 5.96875 25.367188 6.257812 25.253906 6.710938 C 25.183594 6.394531 24.898438 6.136719 24.574219 6.097656 C 24.253906 6.058594 23.914062 6.242188 23.769531 6.53125 C 23.78125 6.117188 23.316406 5.765625 22.914062 5.886719 C 22.511719 6.007812 22.324219 6.558594 22.566406 6.894531 C 22.378906 6.859375 22.191406 6.820312 22.003906 6.78125 C 21.929688 7.03125 21.855469 7.28125 21.78125 7.53125 C 21.609375 7.378906 21.308594 7.414062 21.179688 7.601562 C 21.054688 7.789062 21.128906 8.078125 21.335938 8.179688 C 21 8.148438 20.675781 8.441406 20.667969 8.769531 C 20.664062 9.101562 20.980469 9.402344 21.316406 9.382812 C 20.996094 9.261719 20.59375 9.414062 20.441406 9.71875 C 20.285156 10.019531 20.394531 10.429688 20.683594 10.617188 C 20.453125 10.484375 20.140625 10.53125 19.960938 10.722656 C 19.78125 10.914062 19.761719 11.230469 19.910156 11.445312 C 19.558594 11.472656 19.273438 11.832031 19.328125 12.175781 C 19.382812 12.519531 19.765625 12.777344 20.109375 12.695312 C 20.449219 12.613281 20.675781 12.214844 20.566406 11.882812 C 20.839844 12.085938 21.265625 12.042969 21.488281 11.785156 C 21.710938 11.53125 21.695312 11.105469 21.453125 10.867188 C 21.570312 11.15625 22.074219 11.144531 22.175781 10.851562 C 22.175781 11.207031 22.457031 11.539062 22.808594 11.601562 C 23.160156 11.664062 23.539062 11.449219 23.664062 11.117188 C 23.460938 11.402344 23.570312 11.851562 23.882812 12.011719 C 24.191406 12.175781 24.628906 12.007812 24.75 11.683594 C 24.902344 12.125 25.574219 12.273438 25.902344 11.941406 C 26.230469 11.605469 26.058594 10.945312 25.609375 10.804688 C 25.863281 10.949219 26.21875 10.886719 26.40625 10.664062 C 26.597656 10.441406 26.597656 10.085938 26.410156 9.859375 C 26.617188 10.089844 27.019531 10.101562 27.238281 9.886719 " fill-opacity="1" fill-rule="nonzero"/><g clip-path="url(#b9a02e3ac0)"><path fill="#68a92b" d="M 3.113281 20.753906 C 2.859375 20.785156 2.824219 20.378906 2.964844 20.164062 C 3.109375 19.953125 3.324219 19.703125 3.199219 19.480469 C 3.085938 19.285156 2.792969 19.292969 2.589844 19.390625 C 2.382812 19.488281 2.199219 19.648438 1.972656 19.671875 C 1.632812 19.703125 1.320312 19.339844 1.410156 19.011719 C 1.496094 18.683594 1.953125 18.519531 2.230469 18.71875 C 2.121094 18.625 2.023438 18.519531 1.9375 18.402344 C 1.648438 18.003906 1.917969 17.445312 2.414062 17.410156 L 2.421875 17.410156 C 2.082031 17.355469 1.84375 16.960938 1.953125 16.636719 C 2.0625 16.316406 2.496094 16.148438 2.800781 16.308594 C 2.746094 15.859375 3.253906 15.441406 3.691406 15.574219 C 4.128906 15.707031 4.3125 16.335938 4.015625 16.679688 C 4.136719 16.484375 4.257812 16.289062 4.378906 16.09375 C 4.507812 15.882812 4.667969 15.652344 4.914062 15.613281 C 5.160156 15.574219 5.421875 15.898438 5.234375 16.066406 C 5.371094 15.753906 5.695312 15.527344 6.039062 15.507812 C 6.023438 15.589844 6.003906 15.671875 5.988281 15.75 C 6.070312 15.183594 6.914062 14.910156 7.316406 15.320312 C 7.722656 15.726562 7.425781 16.558594 6.851562 16.625 C 7.265625 16.460938 7.789062 16.785156 7.824219 17.226562 C 7.855469 17.664062 7.382812 18.0625 6.953125 17.960938 C 7.296875 17.910156 7.675781 17.984375 7.929688 18.222656 C 8.183594 18.460938 8.269531 18.882812 8.070312 19.167969 C 7.871094 19.449219 7.375 19.488281 7.179688 19.199219 C 7.378906 19.457031 7.335938 19.871094 7.085938 20.078125 C 6.832031 20.289062 6.417969 20.261719 6.195312 20.023438 C 6.453125 20.195312 6.570312 20.546875 6.464844 20.835938 C 6.363281 21.125 6.046875 21.324219 5.738281 21.296875 C 5.636719 21.128906 5.53125 20.960938 5.425781 20.792969 C 5.660156 21.136719 5.546875 21.660156 5.191406 21.875 C 4.835938 22.089844 4.3125 21.953125 4.113281 21.589844 C 3.988281 22.054688 3.320312 22.265625 2.945312 21.957031 C 2.574219 21.648438 2.671875 20.953125 3.113281 20.753906 " fill-opacity="1" fill-rule="nonzero"/></g><g clip-path="url(#cbb6258548)"><path fill="#68a92b" d="M 6.558594 24.242188 C 6.175781 23.808594 5.488281 23.667969 4.960938 23.914062 C 4.878906 24.246094 5.007812 24.621094 5.277344 24.832031 C 5.550781 25.039062 5.949219 25.074219 6.253906 24.910156 C 5.988281 25.402344 6.277344 26.097656 6.8125 26.269531 C 7.347656 26.4375 7.988281 26.027344 8.058594 25.476562 C 7.769531 25.84375 7.851562 26.4375 8.226562 26.714844 C 8.601562 26.992188 9.199219 26.902344 9.472656 26.523438 C 9.324219 26.957031 9.261719 27.472656 9.535156 27.839844 C 9.808594 28.203125 10.519531 28.203125 10.640625 27.761719 C 10.359375 28.183594 10.597656 28.839844 11.082031 28.992188 C 11.566406 29.140625 12.136719 28.734375 12.148438 28.230469 C 12.273438 28.78125 12.929688 29.144531 13.46875 28.960938 C 14.003906 28.78125 14.300781 28.09375 14.0625 27.582031 C 13.996094 28.050781 14.417969 28.523438 14.894531 28.515625 C 15.367188 28.507812 15.773438 28.023438 15.695312 27.558594 C 15.945312 27.558594 16.199219 27.5625 16.449219 27.566406 C 16.378906 28.003906 16.851562 28.433594 17.285156 28.324219 C 17.722656 28.21875 17.9375 27.621094 17.667969 27.265625 C 18.007812 27.460938 18.492188 27.390625 18.730469 27.082031 C 18.96875 26.773438 18.894531 26.261719 18.554688 26.066406 C 18.214844 25.871094 17.703125 26.09375 17.648438 26.480469 C 17.71875 26.101562 17.484375 25.691406 17.121094 25.5625 C 16.761719 25.429688 16.3125 25.59375 16.125 25.925781 C 16.402344 25.765625 16.691406 25.59375 16.882812 25.335938 C 17.074219 25.074219 17.144531 24.699219 16.964844 24.433594 C 16.785156 24.164062 16.316406 24.121094 16.152344 24.402344 C 16.632812 24.28125 16.921875 23.691406 16.726562 23.246094 C 16.527344 22.796875 15.894531 22.609375 15.480469 22.875 C 15.6875 22.480469 15.640625 21.957031 15.339844 21.628906 C 15.035156 21.300781 14.480469 21.222656 14.121094 21.484375 C 13.757812 21.75 13.683594 22.335938 13.996094 22.65625 C 13.902344 22.363281 13.460938 22.441406 13.203125 22.609375 C 12.941406 22.777344 12.578125 22.964844 12.363281 22.746094 C 12.226562 22.605469 12.253906 22.382812 12.207031 22.195312 C 12.164062 22.003906 11.921875 21.828125 11.789062 21.972656 C 11.765625 21.554688 11.417969 21.175781 11 21.113281 C 10.582031 21.050781 10.136719 21.308594 9.988281 21.703125 C 10.035156 21.269531 9.671875 20.835938 9.234375 20.804688 C 8.796875 20.773438 8.375 21.152344 8.359375 21.585938 C 8.347656 21.96875 8.605469 22.300781 8.847656 22.601562 C 8.292969 22.230469 7.402344 22.699219 7.398438 23.363281 C 7.183594 23.074219 6.699219 23.046875 6.449219 23.304688 C 6.199219 23.566406 6.253906 24.046875 6.558594 24.242188 " fill-opacity="1" fill-rule="nonzero"/></g><g clip-path="url(#7f858f5ef1)"><path fill="#68a92b" d="M 25.054688 20.355469 C 25.132812 20.285156 25.238281 20.273438 25.320312 20.335938 C 25.613281 20.570312 26.050781 20.628906 26.386719 20.453125 C 26.75 20.265625 26.957031 19.832031 26.890625 19.4375 C 26.878906 19.367188 26.90625 19.300781 26.957031 19.253906 C 27.21875 19.03125 27.320312 18.640625 27.234375 18.308594 C 27.199219 18.171875 27.320312 18.042969 27.460938 18.058594 C 27.980469 18.117188 28.546875 17.855469 28.78125 17.386719 C 29.0625 16.824219 28.820312 16.074219 28.289062 15.746094 C 28.207031 15.699219 28.175781 15.597656 28.210938 15.507812 C 28.339844 15.171875 28.273438 14.765625 28.03125 14.496094 C 27.75 14.183594 27.253906 14.082031 26.871094 14.257812 L 26.902344 14.015625 C 26.917969 13.921875 26.859375 13.828125 26.765625 13.796875 L 26.320312 13.644531 C 26.667969 13.878906 27.207031 13.757812 27.417969 13.394531 C 27.628906 13.03125 27.46875 12.503906 27.085938 12.324219 C 27.390625 11.730469 26.835938 10.902344 26.164062 10.957031 C 25.621094 11 25.246094 11.605469 25.335938 12.117188 C 25.355469 12.242188 25.273438 12.363281 25.144531 12.363281 C 24.941406 12.359375 24.734375 12.441406 24.601562 12.589844 C 24.390625 12.828125 24.375 13.21875 24.570312 13.46875 C 24.550781 13.179688 24.328125 12.914062 24.042969 12.84375 C 23.910156 12.8125 23.769531 12.820312 23.640625 12.867188 C 23.519531 12.910156 23.375 12.851562 23.347656 12.726562 C 23.304688 12.523438 23.164062 12.339844 22.964844 12.277344 C 22.757812 12.214844 22.523438 12.296875 22.375 12.449219 C 22.285156 12.539062 22.144531 12.53125 22.058594 12.4375 C 21.929688 12.289062 21.726562 12.199219 21.53125 12.226562 C 21.3125 12.261719 21.132812 12.433594 21.0625 12.640625 C 21.015625 12.773438 20.851562 12.824219 20.738281 12.734375 L 20.730469 12.730469 C 20.632812 12.652344 20.492188 12.679688 20.425781 12.785156 C 20.3125 12.972656 20.101562 13.105469 19.878906 13.128906 C 19.753906 13.144531 19.636719 13.03125 19.652344 12.902344 C 19.6875 12.636719 19.558594 12.34375 19.324219 12.207031 C 19.089844 12.066406 18.777344 12.09375 18.558594 12.246094 C 18.472656 12.304688 18.359375 12.277344 18.292969 12.203125 C 18.117188 12.007812 17.804688 11.925781 17.566406 12.050781 C 17.386719 12.144531 17.28125 12.339844 17.265625 12.539062 C 17.257812 12.65625 17.136719 12.738281 17.023438 12.710938 C 16.867188 12.675781 16.703125 12.695312 16.570312 12.773438 C 16.394531 12.875 16.285156 13.066406 16.265625 13.261719 C 16.253906 13.378906 16.15625 13.457031 16.042969 13.441406 C 15.652344 13.378906 15.199219 13.671875 15.183594 14.078125 C 15.167969 14.40625 15.445312 14.679688 15.761719 14.757812 C 15.890625 14.792969 15.972656 14.925781 15.914062 15.042969 C 15.808594 15.257812 15.789062 15.511719 15.886719 15.730469 C 16.039062 16.0625 16.449219 16.253906 16.808594 16.175781 C 16.914062 16.148438 17.035156 16.195312 17.0625 16.300781 C 17.101562 16.453125 17.027344 16.660156 16.886719 16.765625 C 16.683594 16.921875 16.40625 16.972656 16.222656 17.15625 C 16.039062 17.34375 16 17.65625 16.136719 17.882812 C 16.269531 18.109375 16.566406 18.226562 16.820312 18.15625 C 16.476562 18.019531 16.039062 18.246094 15.957031 18.601562 C 15.90625 18.8125 15.988281 19.035156 16.136719 19.1875 C 16.234375 19.285156 16.214844 19.4375 16.097656 19.511719 C 15.890625 19.640625 15.734375 19.855469 15.699219 20.097656 C 15.652344 20.398438 15.796875 20.714844 16.039062 20.902344 C 16.125 20.964844 16.144531 21.085938 16.082031 21.175781 C 15.984375 21.308594 15.964844 21.507812 16.03125 21.664062 C 16.136719 21.902344 16.386719 22.050781 16.636719 22.117188 C 17.171875 22.257812 17.78125 22.09375 18.167969 21.703125 C 18.519531 21.347656 18.679688 20.824219 18.597656 20.335938 C 18.578125 20.242188 18.621094 20.144531 18.710938 20.105469 C 18.863281 20.039062 19.015625 19.972656 19.167969 19.902344 C 18.949219 20.140625 19.011719 20.570312 19.289062 20.734375 C 19.566406 20.902344 19.976562 20.757812 20.089844 20.457031 C 19.839844 20.683594 19.839844 21.125 20.085938 21.355469 C 20.222656 21.480469 20.421875 21.527344 20.609375 21.5 C 20.738281 21.480469 20.847656 21.585938 20.84375 21.714844 C 20.835938 21.964844 20.945312 22.222656 21.152344 22.367188 C 21.410156 22.546875 21.78125 22.53125 22.039062 22.355469 C 22.140625 22.289062 22.273438 22.3125 22.335938 22.414062 C 22.480469 22.652344 22.738281 22.820312 23.015625 22.839844 C 23.328125 22.863281 23.640625 22.703125 23.8125 22.449219 C 23.863281 22.367188 23.960938 22.339844 24.054688 22.367188 C 24.296875 22.433594 24.59375 22.308594 24.730469 22.089844 C 24.902344 21.820312 24.867188 21.460938 24.730469 21.171875 C 24.675781 21.0625 24.609375 20.960938 24.535156 20.867188 C 24.441406 20.742188 24.511719 20.5625 24.667969 20.535156 C 24.8125 20.511719 24.949219 20.449219 25.054688 20.355469 " fill-opacity="1" fill-rule="nonzero"/></g><path fill="#61981d" d="M 19.972656 19.382812 C 19.917969 19.453125 19.882812 19.535156 19.859375 19.621094 C 19.898438 19.542969 19.9375 19.460938 19.972656 19.382812 " fill-opacity="1" fill-rule="nonzero"/><path fill="#61981d" d="M 18.996094 19.421875 C 18.992188 19.328125 18.972656 19.238281 18.921875 19.15625 C 18.945312 19.246094 18.972656 19.332031 18.996094 19.421875 " fill-opacity="1" fill-rule="nonzero"/><path fill="#61981d" d="M 17.722656 19.480469 C 17.757812 19.351562 17.796875 19.226562 17.832031 19.101562 C 17.746094 19.210938 17.714844 19.34375 17.722656 19.480469 " fill-opacity="1" fill-rule="nonzero"/><path fill="#61981d" d="M 16.84375 18.828125 C 16.53125 18.882812 16.210938 18.773438 15.96875 18.574219 C 15.964844 18.582031 15.957031 18.59375 15.957031 18.601562 C 15.875 18.953125 16.15625 19.335938 16.511719 19.375 C 16.535156 19.15625 16.652344 18.941406 16.84375 18.828125 " fill-opacity="1" fill-rule="nonzero"/><path fill="#61981d" d="M 22.457031 19.0625 C 22.5 19.152344 22.566406 19.226562 22.640625 19.285156 C 22.597656 19.199219 22.535156 19.121094 22.457031 19.0625 " fill-opacity="1" fill-rule="nonzero"/><g clip-path="url(#9d568e7e40)"><path fill="#61981d" d="M 28.78125 17.386719 C 29.089844 16.773438 28.769531 15.929688 28.132812 15.667969 C 28.355469 15.3125 28.3125 14.8125 28.03125 14.496094 C 27.75 14.183594 27.253906 14.082031 26.871094 14.257812 C 26.890625 14.121094 26.90625 13.984375 26.925781 13.851562 C 26.835938 13.820312 26.746094 13.789062 26.652344 13.757812 C 26.949219 13.785156 27.269531 13.652344 27.417969 13.394531 C 27.628906 13.03125 27.46875 12.503906 27.085938 12.324219 C 27.390625 11.730469 26.835938 10.902344 26.164062 10.957031 C 25.496094 11.011719 25.078125 11.914062 25.476562 12.449219 C 25.199219 12.289062 24.8125 12.351562 24.601562 12.589844 C 24.488281 12.71875 24.433594 12.882812 24.433594 13.050781 C 24.449219 13.082031 24.460938 13.117188 24.480469 13.148438 C 24.511719 13.253906 24.542969 13.359375 24.578125 13.460938 C 24.761719 13.179688 24.8125 12.714844 25.136719 12.609375 C 25.601562 12.453125 25.726562 12.5 25.980469 12.917969 C 26.042969 13.023438 26.015625 13.261719 25.96875 13.484375 C 25.910156 13.753906 25.664062 13.941406 25.386719 13.925781 L 25.382812 13.925781 C 25.648438 14.0625 25.800781 14.386719 25.730469 14.675781 C 25.660156 14.964844 25.375 15.1875 25.074219 15.183594 C 25.488281 15.652344 25.160156 16.527344 24.539062 16.613281 C 25.121094 16.773438 25.414062 17.558594 25.078125 18.054688 C 24.789062 18.488281 24.109375 18.566406 23.695312 18.269531 C 23.925781 18.566406 23.917969 19.042969 23.628906 19.296875 C 23.359375 19.535156 22.917969 19.507812 22.640625 19.285156 C 22.804688 19.585938 22.765625 20 22.503906 20.230469 C 22.171875 20.53125 21.574219 20.445312 21.335938 20.066406 C 21.214844 20.503906 20.644531 20.75 20.238281 20.546875 C 19.910156 20.382812 19.761719 19.964844 19.859375 19.621094 C 19.59375 19.742188 19.261719 19.707031 19.027344 19.535156 C 19.019531 19.496094 19.007812 19.460938 18.996094 19.421875 C 19.015625 19.789062 18.707031 20.183594 18.320312 20.164062 C 17.980469 20.144531 17.734375 19.808594 17.722656 19.480469 C 17.664062 19.667969 17.609375 19.855469 17.554688 20.042969 C 17.234375 20.21875 16.78125 20.097656 16.597656 19.78125 C 16.523438 19.660156 16.5 19.523438 16.511719 19.382812 C 16.121094 19.398438 15.757812 19.710938 15.699219 20.097656 C 15.636719 20.492188 15.902344 20.910156 16.285156 21.027344 C 16.035156 21.097656 15.929688 21.429688 16.03125 21.664062 C 16.136719 21.902344 16.386719 22.050781 16.636719 22.117188 C 17.171875 22.257812 17.78125 22.09375 18.167969 21.703125 C 18.558594 21.308594 18.710938 20.703125 18.558594 20.175781 C 18.761719 20.085938 18.964844 19.992188 19.167969 19.902344 C 18.949219 20.140625 19.011719 20.570312 19.289062 20.734375 C 19.496094 20.859375 19.777344 20.808594 19.953125 20.652344 C 19.855469 20.882812 19.898438 21.179688 20.085938 21.355469 C 20.332031 21.582031 20.777344 21.550781 20.988281 21.289062 C 20.738281 21.613281 20.820312 22.132812 21.152344 22.367188 C 21.488281 22.601562 22.011719 22.5 22.234375 22.160156 C 22.308594 22.519531 22.644531 22.8125 23.015625 22.839844 C 23.386719 22.867188 23.761719 22.632812 23.894531 22.285156 C 24.148438 22.484375 24.558594 22.363281 24.730469 22.089844 C 24.902344 21.820312 24.867188 21.460938 24.730469 21.171875 C 24.589844 20.882812 24.359375 20.652344 24.128906 20.421875 C 24.457031 20.660156 24.980469 20.546875 25.179688 20.199219 C 25.460938 20.546875 25.992188 20.65625 26.386719 20.453125 C 26.78125 20.246094 26.996094 19.746094 26.863281 19.324219 C 27.328125 19.035156 27.402344 18.292969 27.007812 17.914062 C 27.605469 18.257812 28.472656 18 28.78125 17.386719 " fill-opacity="1" fill-rule="nonzero"/></g><path fill="#61981d" d="M 23.53125 18.113281 C 23.578125 18.175781 23.632812 18.226562 23.695312 18.269531 C 23.648438 18.210938 23.597656 18.15625 23.53125 18.113281 " fill-opacity="1" fill-rule="nonzero"/><path fill="#528221" d="M 19.972656 19.382812 C 19.917969 19.453125 19.882812 19.535156 19.859375 19.621094 C 19.898438 19.542969 19.9375 19.460938 19.972656 19.382812 " fill-opacity="1" fill-rule="nonzero"/><path fill="#528221" d="M 19.53125 19.847656 C 19.628906 19.894531 19.730469 19.917969 19.835938 19.917969 C 19.824219 19.820312 19.832031 19.71875 19.859375 19.621094 C 19.6875 19.699219 19.488281 19.707031 19.304688 19.65625 C 19.363281 19.734375 19.441406 19.804688 19.53125 19.847656 " fill-opacity="1" fill-rule="nonzero"/><path fill="#528221" d="M 26.382812 11.625 C 26.765625 11.808594 26.925781 12.332031 26.714844 12.695312 C 26.574219 12.9375 26.292969 13.0625 26.011719 13.058594 C 26.015625 13.066406 26.011719 13.074219 26.015625 13.082031 C 26.082031 13.105469 26.152344 13.128906 26.222656 13.152344 C 26.203125 13.289062 26.1875 13.425781 26.167969 13.558594 C 26.480469 13.414062 26.863281 13.457031 27.148438 13.648438 C 27.257812 13.585938 27.355469 13.503906 27.417969 13.394531 C 27.628906 13.03125 27.46875 12.503906 27.085938 12.324219 C 27.351562 11.808594 26.964844 11.117188 26.421875 10.980469 C 26.488281 11.191406 26.488281 11.421875 26.382812 11.625 " fill-opacity="1" fill-rule="nonzero"/><path fill="#528221" d="M 25.308594 12.386719 C 25.058594 12.324219 24.773438 12.398438 24.601562 12.589844 C 24.488281 12.71875 24.433594 12.882812 24.433594 13.050781 C 24.449219 13.082031 24.460938 13.117188 24.480469 13.148438 C 24.511719 13.253906 24.542969 13.359375 24.578125 13.460938 C 24.621094 13.394531 24.65625 13.316406 24.691406 13.238281 C 24.6875 13.234375 24.683594 13.230469 24.675781 13.230469 L 24.683594 13.230469 C 24.6875 13.230469 24.691406 13.230469 24.695312 13.230469 C 24.804688 12.972656 24.890625 12.6875 25.136719 12.609375 C 25.195312 12.589844 25.25 12.570312 25.300781 12.558594 C 25.308594 12.496094 25.3125 12.4375 25.308594 12.386719 " fill-opacity="1" fill-rule="nonzero"/><path fill="#528221" d="M 17.726562 19.457031 C 17.761719 19.339844 17.796875 19.21875 17.832031 19.101562 C 17.753906 19.203125 17.722656 19.328125 17.722656 19.457031 L 17.726562 19.457031 " fill-opacity="1" fill-rule="nonzero"/><path fill="#528221" d="M 18.742188 20.09375 C 18.710938 20.089844 18.6875 20.074219 18.660156 20.066406 C 18.5625 20.128906 18.445312 20.171875 18.320312 20.164062 C 18.15625 20.15625 18.015625 20.070312 17.910156 19.949219 C 17.894531 20.339844 17.742188 20.726562 17.464844 21.003906 C 17.089844 21.378906 16.515625 21.542969 15.996094 21.429688 C 15.988281 21.511719 16 21.59375 16.03125 21.664062 C 16.136719 21.902344 16.386719 22.050781 16.636719 22.117188 C 17.171875 22.257812 17.78125 22.09375 18.167969 21.703125 C 18.558594 21.308594 18.710938 20.703125 18.558594 20.175781 C 18.621094 20.148438 18.679688 20.121094 18.742188 20.09375 " fill-opacity="1" fill-rule="nonzero"/><g clip-path="url(#07695f8f15)"><path fill="#528221" d="M 28.132812 15.667969 C 28.355469 15.3125 28.3125 14.8125 28.03125 14.496094 C 27.902344 14.351562 27.726562 14.253906 27.539062 14.207031 C 27.601562 14.464844 27.570312 14.746094 27.425781 14.96875 C 28.066406 15.234375 28.382812 16.074219 28.078125 16.6875 C 27.769531 17.300781 26.902344 17.5625 26.304688 17.214844 C 26.699219 17.59375 26.625 18.335938 26.160156 18.625 C 26.289062 19.050781 26.078125 19.550781 25.683594 19.753906 C 25.289062 19.960938 24.753906 19.847656 24.476562 19.503906 C 24.277344 19.847656 23.753906 19.960938 23.425781 19.726562 C 23.652344 19.953125 23.886719 20.183594 24.023438 20.472656 C 24.164062 20.761719 24.199219 21.121094 24.027344 21.394531 C 23.855469 21.664062 23.445312 21.785156 23.191406 21.589844 C 23.058594 21.933594 22.683594 22.171875 22.3125 22.140625 C 21.941406 22.113281 21.605469 21.824219 21.53125 21.460938 C 21.386719 21.683594 21.113281 21.800781 20.847656 21.792969 C 20.863281 22.019531 20.96875 22.238281 21.152344 22.367188 C 21.488281 22.601562 22.011719 22.5 22.234375 22.160156 C 22.308594 22.519531 22.644531 22.8125 23.015625 22.839844 C 23.386719 22.867188 23.761719 22.632812 23.894531 22.285156 C 24.148438 22.484375 24.558594 22.363281 24.730469 22.089844 C 24.902344 21.820312 24.867188 21.460938 24.730469 21.171875 C 24.589844 20.882812 24.359375 20.652344 24.128906 20.421875 C 24.457031 20.660156 24.980469 20.546875 25.179688 20.199219 C 25.460938 20.546875 25.992188 20.65625 26.386719 20.453125 C 26.78125 20.246094 26.996094 19.746094 26.863281 19.324219 C 27.328125 19.035156 27.402344 18.292969 27.007812 17.914062 C 27.605469 18.257812 28.472656 18 28.78125 17.386719 C 29.089844 16.773438 28.769531 15.929688 28.132812 15.667969 " fill-opacity="1" fill-rule="nonzero"/></g><path fill="#528221" d="M 20.285156 20.59375 C 20.195312 20.703125 20.058594 20.773438 19.914062 20.796875 C 19.882812 20.996094 19.933594 21.214844 20.085938 21.355469 C 20.136719 21.398438 20.191406 21.433594 20.253906 21.457031 C 20.097656 21.195312 20.09375 20.835938 20.285156 20.59375 " fill-opacity="1" fill-rule="nonzero"/><path fill="#528221" d="M 16.359375 19.40625 C 16.410156 19.417969 16.460938 19.421875 16.511719 19.421875 C 16.515625 19.410156 16.511719 19.398438 16.511719 19.382812 C 16.460938 19.386719 16.40625 19.394531 16.359375 19.40625 " fill-opacity="1" fill-rule="nonzero"/><path fill="#528221" d="M 15.957031 18.601562 C 15.875 18.953125 16.15625 19.335938 16.511719 19.375 C 16.535156 19.15625 16.652344 18.941406 16.84375 18.828125 C 16.53125 18.882812 16.210938 18.773438 15.96875 18.574219 C 15.964844 18.582031 15.957031 18.59375 15.957031 18.601562 " fill-opacity="1" fill-rule="nonzero"/><path fill="#528221" d="M 19.382812 20.65625 C 19.195312 20.480469 19.152344 20.1875 19.25 19.953125 C 19.199219 20 19.140625 20.03125 19.078125 20.058594 C 18.984375 20.296875 19.066406 20.601562 19.289062 20.734375 C 19.398438 20.800781 19.53125 20.816406 19.65625 20.792969 C 19.554688 20.769531 19.457031 20.726562 19.382812 20.65625 " fill-opacity="1" fill-rule="nonzero"/><path fill="#7aba3b" d="M 22.476562 14.578125 C 22.382812 14.171875 21.976562 13.863281 21.558594 13.878906 C 21.140625 13.898438 20.757812 14.238281 20.699219 14.648438 C 20.613281 14.285156 20.21875 14.019531 19.84375 14.074219 C 19.472656 14.128906 19.171875 14.496094 19.191406 14.871094 C 18.988281 14.773438 18.714844 14.855469 18.597656 15.046875 C 18.480469 15.238281 18.53125 15.515625 18.710938 15.652344 C 18.453125 15.515625 18.089844 15.652344 17.988281 15.921875 C 17.886719 16.191406 18.074219 16.53125 18.359375 16.589844 C 18.019531 16.5625 17.683594 16.820312 17.625 17.148438 C 17.566406 17.480469 17.796875 17.835938 18.125 17.921875 C 17.925781 18.136719 17.957031 18.523438 18.191406 18.703125 C 18.425781 18.882812 18.8125 18.820312 18.972656 18.574219 C 18.832031 18.96875 18.335938 19.195312 17.941406 19.050781 C 17.546875 18.902344 17.324219 18.410156 17.476562 18.019531 C 17.195312 17.808594 17.082031 17.402344 17.214844 17.074219 C 17.34375 16.75 17.710938 16.535156 18.0625 16.574219 C 17.703125 16.578125 17.394531 16.207031 17.464844 15.859375 C 17.539062 15.511719 17.972656 15.289062 18.300781 15.429688 C 17.992188 15.292969 17.875 14.855469 18.074219 14.589844 C 18.273438 14.320312 18.726562 14.296875 18.953125 14.542969 C 18.925781 14.144531 19.226562 13.753906 19.617188 13.675781 C 20.011719 13.59375 20.445312 13.835938 20.578125 14.210938 C 20.503906 13.585938 21.050781 13.335938 21.574219 13.441406 C 22.027344 13.535156 22.433594 13.898438 22.441406 14.355469 C 22.695312 13.902344 23.449219 13.855469 23.753906 14.273438 C 24.0625 14.695312 23.785156 15.390625 23.269531 15.488281 C 23.464844 15.269531 23.464844 14.90625 23.273438 14.6875 C 23.082031 14.46875 22.71875 14.417969 22.476562 14.578125 " fill-opacity="1" fill-rule="nonzero"/><path fill="#7aba3b" d="M 19.972656 17.347656 C 19.742188 17.136719 19.71875 16.734375 19.929688 16.5 C 20.136719 16.261719 20.539062 16.230469 20.785156 16.429688 C 20.65625 16.09375 20.871094 15.671875 21.21875 15.578125 C 21.570312 15.484375 21.96875 15.742188 22.027344 16.09375 C 22.078125 15.835938 22.28125 15.613281 22.535156 15.535156 C 22.789062 15.460938 23.082031 15.53125 23.269531 15.71875 C 23.605469 15.707031 23.929688 15.9375 24.027344 16.253906 C 24.121094 16.574219 23.972656 16.945312 23.6875 17.113281 C 23.894531 17.304688 23.941406 17.640625 23.792969 17.878906 C 23.644531 18.117188 23.320312 18.226562 23.058594 18.128906 C 23.398438 18.0625 23.570312 17.585938 23.347656 17.320312 C 23.402344 17.304688 23.453125 17.292969 23.507812 17.277344 C 23.691406 17.152344 23.738281 16.867188 23.605469 16.6875 C 23.472656 16.511719 23.1875 16.46875 23.011719 16.605469 C 23.058594 16.355469 22.855469 16.085938 22.597656 16.066406 C 22.339844 16.046875 22.09375 16.277344 22.101562 16.53125 C 22.140625 16.175781 21.757812 15.84375 21.410156 15.929688 C 21.058594 16.015625 20.878906 16.492188 21.082031 16.785156 C 20.886719 16.59375 20.566406 16.546875 20.324219 16.671875 C 20.082031 16.796875 19.933594 17.082031 19.972656 17.347656 " fill-opacity="1" fill-rule="nonzero"/><path fill="#61981d" d="M 9.617188 25.054688 C 9.660156 24.988281 9.699219 24.921875 9.71875 24.84375 C 9.675781 24.90625 9.640625 24.980469 9.617188 25.054688 " fill-opacity="1" fill-rule="nonzero"/><path fill="#61981d" d="M 12.933594 26.109375 C 12.925781 26.003906 12.90625 25.894531 12.855469 25.796875 C 12.851562 25.90625 12.882812 26.011719 12.933594 26.109375 " fill-opacity="1" fill-rule="nonzero"/><g clip-path="url(#682cd71fba)"><path fill="#61981d" d="M 18.554688 26.066406 C 18.214844 25.871094 17.703125 26.09375 17.648438 26.480469 C 17.71875 26.101562 17.484375 25.691406 17.121094 25.5625 C 16.988281 25.511719 16.84375 25.503906 16.703125 25.53125 C 16.769531 25.472656 16.828125 25.40625 16.882812 25.335938 C 17.074219 25.074219 17.144531 24.699219 16.964844 24.433594 C 16.863281 24.28125 16.667969 24.207031 16.488281 24.214844 C 16.6875 24.035156 16.800781 23.757812 16.78125 23.492188 C 16.730469 24.027344 15.773438 24.765625 15.277344 24.585938 C 15.480469 24.839844 15.421875 25.257812 15.160156 25.449219 C 14.898438 25.640625 14.484375 25.570312 14.296875 25.304688 C 14.617188 25.707031 14.414062 26.398438 13.925781 26.5625 C 13.542969 26.695312 13.105469 26.460938 12.933594 26.109375 C 12.957031 26.550781 12.644531 27.019531 12.191406 27.089844 C 11.632812 27.179688 11.070312 26.625 11.15625 26.070312 C 10.816406 26.390625 10.230469 26.402344 9.878906 26.101562 C 9.582031 25.851562 9.488281 25.414062 9.617188 25.054688 C 9.351562 25.429688 8.746094 25.566406 8.375 25.273438 C 7.941406 24.929688 8.007812 24.144531 8.492188 23.875 C 8.101562 23.535156 8.042969 22.882812 8.359375 22.472656 C 7.882812 22.496094 7.402344 22.875 7.398438 23.363281 C 7.183594 23.074219 6.699219 23.046875 6.449219 23.304688 C 6.242188 23.523438 6.25 23.894531 6.433594 24.125 C 6.035156 23.785156 5.4375 23.691406 4.960938 23.914062 C 4.878906 24.246094 5.007812 24.621094 5.277344 24.832031 C 5.550781 25.039062 5.949219 25.074219 6.253906 24.910156 C 5.988281 25.402344 6.277344 26.097656 6.8125 26.269531 C 7.210938 26.390625 7.660156 26.199219 7.898438 25.867188 C 7.855469 26.183594 7.96875 26.523438 8.226562 26.714844 C 8.601562 26.992188 9.199219 26.902344 9.472656 26.523438 C 9.324219 26.957031 9.261719 27.472656 9.535156 27.839844 C 9.808594 28.203125 10.519531 28.203125 10.640625 27.761719 C 10.359375 28.183594 10.597656 28.839844 11.082031 28.992188 C 11.566406 29.140625 12.136719 28.734375 12.148438 28.230469 C 12.273438 28.78125 12.929688 29.144531 13.46875 28.960938 C 13.859375 28.828125 14.121094 28.425781 14.140625 28.019531 C 14.28125 28.304688 14.574219 28.519531 14.894531 28.515625 C 15.367188 28.507812 15.773438 28.023438 15.695312 27.558594 C 15.945312 27.558594 16.199219 27.5625 16.449219 27.566406 C 16.378906 28.003906 16.851562 28.433594 17.285156 28.324219 C 17.722656 28.21875 17.9375 27.621094 17.667969 27.265625 C 18.007812 27.460938 18.492188 27.390625 18.730469 27.082031 C 18.96875 26.773438 18.894531 26.261719 18.554688 26.066406 " fill-opacity="1" fill-rule="nonzero"/></g><g clip-path="url(#1c13ac0d84)"><path fill="#528221" d="M 18.554688 26.066406 C 18.214844 25.871094 17.703125 26.09375 17.648438 26.480469 C 17.71875 26.101562 17.484375 25.691406 17.121094 25.5625 C 17.09375 25.550781 17.0625 25.550781 17.03125 25.542969 C 16.921875 26.042969 16.566406 26.496094 16.058594 26.613281 C 15.996094 27.121094 15.246094 27.378906 14.878906 27.015625 C 14.972656 27.726562 14.007812 28.3125 13.414062 27.910156 C 13.152344 28.28125 12.675781 28.488281 12.222656 28.429688 C 12.441406 28.863281 13 29.121094 13.46875 28.960938 C 13.859375 28.828125 14.121094 28.425781 14.140625 28.019531 C 14.28125 28.304688 14.574219 28.519531 14.894531 28.515625 C 15.367188 28.507812 15.773438 28.023438 15.695312 27.558594 C 15.945312 27.558594 16.199219 27.5625 16.449219 27.566406 C 16.378906 28.003906 16.851562 28.433594 17.285156 28.324219 C 17.722656 28.21875 17.9375 27.621094 17.667969 27.265625 C 18.007812 27.460938 18.492188 27.390625 18.730469 27.082031 C 18.96875 26.773438 18.894531 26.261719 18.554688 26.066406 " fill-opacity="1" fill-rule="nonzero"/></g><g clip-path="url(#7a95b5c15c)"><path fill="#528221" d="M 5.277344 24.832031 C 5.550781 25.039062 5.949219 25.074219 6.253906 24.910156 C 5.988281 25.402344 6.277344 26.097656 6.8125 26.269531 C 7.210938 26.390625 7.660156 26.199219 7.898438 25.867188 C 7.855469 26.183594 7.96875 26.523438 8.226562 26.714844 C 8.601562 26.992188 9.199219 26.902344 9.472656 26.523438 C 9.324219 26.957031 9.261719 27.472656 9.535156 27.839844 C 9.808594 28.203125 10.519531 28.203125 10.640625 27.761719 C 10.359375 28.183594 10.597656 28.839844 11.082031 28.992188 C 11.503906 29.125 11.996094 28.824219 12.121094 28.410156 C 11.6875 28.316406 11.316406 27.976562 11.191406 27.554688 C 10.773438 27.773438 10.207031 27.65625 9.910156 27.289062 C 9.644531 26.953125 9.632812 26.449219 9.867188 26.09375 C 9.859375 26.082031 9.847656 26.074219 9.839844 26.0625 C 9.171875 26.480469 8.101562 26.011719 8.019531 25.214844 C 7.890625 25.601562 7.332031 25.765625 7.011719 25.511719 C 6.691406 25.253906 6.734375 24.679688 7.089844 24.472656 C 6.859375 24.359375 6.625 24.246094 6.394531 24.132812 C 6.394531 24.117188 6.390625 24.105469 6.390625 24.09375 C 5.996094 23.78125 5.421875 23.699219 4.960938 23.914062 C 4.878906 24.246094 5.007812 24.621094 5.277344 24.832031 " fill-opacity="1" fill-rule="nonzero"/></g><path fill="#528221" d="M 6.292969 23.695312 C 6.292969 23.824219 6.324219 23.949219 6.386719 24.058594 C 6.378906 23.929688 6.347656 23.8125 6.292969 23.695312 " fill-opacity="1" fill-rule="nonzero"/><path fill="#528221" d="M 17.046875 24.96875 C 17.089844 24.78125 17.070312 24.589844 16.964844 24.433594 C 16.953125 24.410156 16.929688 24.394531 16.914062 24.375 C 16.867188 24.378906 16.824219 24.382812 16.777344 24.390625 C 16.925781 24.554688 17.011719 24.753906 17.046875 24.96875 " fill-opacity="1" fill-rule="nonzero"/><path fill="#7aba3b" d="M 9.078125 23.59375 C 8.8125 23.28125 8.792969 22.789062 9.03125 22.453125 C 9.269531 22.121094 9.746094 21.980469 10.128906 22.125 C 10.015625 21.804688 10.242188 21.410156 10.578125 21.347656 C 10.910156 21.285156 11.269531 21.5625 11.28125 21.902344 C 11.519531 21.746094 11.875 21.8125 12.035156 22.042969 C 12.195312 22.273438 12.136719 22.628906 11.910156 22.792969 C 12.375 22.601562 12.972656 23.039062 12.925781 23.539062 C 12.628906 23.328125 12.386719 23.035156 12.046875 22.894531 C 11.710938 22.753906 11.226562 22.859375 11.140625 23.214844 C 11.378906 22.960938 11.179688 22.464844 10.832031 22.441406 C 10.484375 22.417969 10.222656 22.886719 10.421875 23.167969 C 10.308594 22.816406 9.886719 22.601562 9.535156 22.714844 C 9.183594 22.824219 8.964844 23.242188 9.078125 23.59375 " fill-opacity="1" fill-rule="nonzero"/><path fill="#7aba3b" d="M 15.160156 24.675781 C 15.300781 24.363281 15.230469 23.972656 14.988281 23.730469 C 14.746094 23.488281 14.347656 23.417969 14.035156 23.5625 C 13.992188 23.707031 13.949219 23.851562 13.902344 23.996094 C 13.828125 23.65625 13.464844 23.402344 13.117188 23.453125 C 12.765625 23.5 12.488281 23.839844 12.507812 24.1875 C 12.261719 24.085938 11.957031 24.140625 11.761719 24.320312 C 11.566406 24.503906 11.496094 24.804688 11.585938 25.054688 C 11.261719 24.808594 11.179688 24.300781 11.40625 23.964844 C 11.636719 23.628906 12.140625 23.519531 12.492188 23.726562 C 12.445312 23.363281 12.746094 22.988281 13.117188 22.957031 C 13.484375 22.925781 13.851562 23.238281 13.871094 23.605469 C 14.128906 23.199219 14.761719 23.101562 15.132812 23.40625 C 15.503906 23.714844 15.515625 24.351562 15.160156 24.675781 " fill-opacity="1" fill-rule="nonzero"/><path fill="#61981d" d="M 27.941406 9.191406 C 27.917969 8.824219 27.53125 8.519531 27.164062 8.582031 C 27.417969 8.425781 27.542969 8.089844 27.457031 7.800781 C 27.371094 7.515625 27.078125 7.304688 26.777344 7.308594 C 27.007812 6.902344 26.800781 6.316406 26.363281 6.144531 C 26.035156 6.015625 25.644531 6.140625 25.417969 6.398438 C 25.46875 6.53125 25.515625 6.660156 25.566406 6.792969 C 25.433594 6.867188 25.304688 6.945312 25.171875 7.023438 C 25.589844 7.015625 25.964844 7.425781 25.917969 7.839844 C 25.71875 7.871094 25.523438 7.902344 25.328125 7.933594 C 25.742188 7.867188 26.164062 8.273438 26.105469 8.6875 C 26.050781 9.097656 25.535156 9.378906 25.152344 9.203125 C 25.667969 9.339844 25.851562 10.113281 25.453125 10.464844 C 25.054688 10.8125 24.300781 10.539062 24.226562 10.019531 C 24.078125 10.390625 23.65625 10.636719 23.257812 10.578125 C 22.855469 10.523438 22.519531 10.171875 22.480469 9.773438 C 22.609375 10.355469 21.78125 10.875 21.304688 10.511719 C 21.386719 10.777344 21.238281 11.09375 20.980469 11.207031 C 20.722656 11.316406 20.390625 11.210938 20.246094 10.96875 C 20.269531 10.828125 20.289062 10.6875 20.308594 10.550781 C 20.175781 10.566406 20.050781 10.625 19.960938 10.722656 C 19.78125 10.914062 19.761719 11.230469 19.910156 11.445312 C 19.558594 11.472656 19.273438 11.832031 19.328125 12.175781 C 19.382812 12.519531 19.773438 12.582031 20.109375 12.695312 C 20.480469 12.820312 20.695312 12.339844 20.566406 11.882812 C 20.839844 12.085938 21.265625 12.042969 21.488281 11.785156 C 21.679688 11.570312 21.691406 11.226562 21.542969 10.984375 C 21.730469 11.140625 22.089844 11.09375 22.175781 10.851562 C 22.175781 11.207031 22.457031 11.539062 22.808594 11.601562 C 23.109375 11.65625 23.433594 11.503906 23.597656 11.246094 C 23.496094 11.523438 23.613281 11.875 23.882812 12.011719 C 24.191406 12.175781 24.628906 12.007812 24.75 11.683594 C 24.902344 12.125 25.574219 12.273438 25.902344 11.941406 C 26.230469 11.605469 26.058594 10.945312 25.609375 10.804688 C 25.863281 10.949219 26.21875 10.886719 26.40625 10.664062 C 26.597656 10.441406 26.597656 10.085938 26.410156 9.859375 C 26.617188 10.089844 27.019531 10.101562 27.238281 9.886719 C 27.613281 9.910156 27.964844 9.5625 27.941406 9.191406 " fill-opacity="1" fill-rule="nonzero"/><path fill="#528221" d="M 26.363281 6.144531 C 26.320312 6.125 26.273438 6.113281 26.230469 6.105469 C 26.414062 6.429688 26.492188 6.816406 26.40625 7.179688 C 26.535156 7.214844 26.660156 7.25 26.789062 7.285156 C 27 6.878906 26.792969 6.3125 26.363281 6.144531 " fill-opacity="1" fill-rule="nonzero"/><path fill="#528221" d="M 25.902344 11.941406 C 26.144531 11.691406 26.113281 11.265625 25.898438 11.003906 C 25.691406 11.003906 25.484375 10.921875 25.339844 10.777344 C 25.347656 11.125 25.085938 11.460938 24.746094 11.542969 C 24.40625 11.628906 24.015625 11.449219 23.859375 11.136719 C 23.3125 11.113281 22.761719 11.089844 22.214844 11.070312 C 22.296875 11.332031 22.53125 11.554688 22.808594 11.601562 C 23.109375 11.65625 23.433594 11.503906 23.597656 11.246094 C 23.496094 11.523438 23.613281 11.875 23.882812 12.011719 C 24.191406 12.175781 24.628906 12.007812 24.75 11.683594 C 24.902344 12.125 25.574219 12.273438 25.902344 11.941406 " fill-opacity="1" fill-rule="nonzero"/><path fill="#528221" d="M 27.164062 8.582031 C 27.417969 8.425781 27.542969 8.089844 27.457031 7.800781 C 27.410156 7.644531 27.300781 7.515625 27.164062 7.425781 C 27.144531 7.585938 27.121094 7.742188 27.101562 7.902344 C 26.972656 7.90625 26.84375 7.910156 26.714844 7.910156 C 27.070312 8.183594 27.207031 8.707031 27.023438 9.117188 C 26.84375 9.523438 26.367188 9.78125 25.921875 9.707031 C 26.195312 10 26.292969 10.441406 26.183594 10.824219 C 26.269531 10.789062 26.347656 10.734375 26.40625 10.664062 C 26.597656 10.441406 26.597656 10.085938 26.410156 9.859375 C 26.617188 10.089844 27.019531 10.101562 27.238281 9.886719 C 27.613281 9.910156 27.964844 9.5625 27.941406 9.191406 C 27.917969 8.824219 27.53125 8.519531 27.164062 8.582031 " fill-opacity="1" fill-rule="nonzero"/><path fill="#528221" d="M 21.804688 11.050781 C 21.8125 11.058594 21.820312 11.066406 21.824219 11.074219 C 21.863281 11.074219 21.902344 11.066406 21.9375 11.054688 C 21.894531 11.054688 21.851562 11.054688 21.804688 11.050781 " fill-opacity="1" fill-rule="nonzero"/><path fill="#7aba3b" d="M 25.277344 7.511719 C 25.109375 7.113281 24.554688 6.933594 24.179688 7.15625 C 24.164062 7.113281 24.152344 7.074219 24.136719 7.03125 C 24.007812 6.992188 23.859375 6.988281 23.738281 7.054688 C 23.621094 7.121094 23.550781 7.28125 23.613281 7.398438 C 23.453125 7.171875 23.125 7.074219 22.863281 7.179688 C 22.605469 7.289062 22.441406 7.585938 22.488281 7.859375 C 21.953125 8.4375 21.652344 9.222656 21.65625 10.007812 C 21.351562 9.9375 21.152344 9.582031 21.25 9.289062 C 21.34375 8.996094 21.714844 8.824219 22 8.941406 C 21.679688 8.777344 21.515625 8.359375 21.640625 8.023438 C 21.765625 7.6875 22.160156 7.472656 22.515625 7.554688 C 22.386719 7.308594 22.488281 6.96875 22.730469 6.828125 C 22.976562 6.6875 23.324219 6.769531 23.476562 7.003906 C 23.507812 6.753906 23.761719 6.550781 24.015625 6.574219 C 24.269531 6.597656 24.480469 6.84375 24.460938 7.097656 C 24.449219 6.96875 24.4375 6.84375 24.425781 6.714844 C 24.648438 6.5625 24.976562 6.589844 25.175781 6.773438 C 25.371094 6.957031 25.417969 7.285156 25.277344 7.511719 " fill-opacity="1" fill-rule="nonzero"/><path fill="#7aba3b" d="M 4.765625 16.488281 C 4.59375 16.316406 4.378906 16.179688 4.136719 16.15625 C 3.894531 16.132812 3.628906 16.246094 3.527344 16.464844 C 3.425781 16.683594 3.542969 16.992188 3.78125 17.046875 C 3.425781 16.828125 2.902344 16.972656 2.710938 17.335938 C 2.519531 17.703125 2.703125 18.210938 3.085938 18.371094 C 2.878906 18.222656 2.550781 18.285156 2.410156 18.496094 C 2.265625 18.710938 2.332031 19.027344 2.542969 19.175781 C 2.75 19.324219 3.066406 19.285156 3.242188 19.101562 C 3.027344 19.039062 2.894531 18.773438 2.980469 18.5625 C 3.0625 18.355469 3.34375 18.253906 3.542969 18.355469 C 3.238281 18.296875 3.050781 17.90625 3.199219 17.632812 C 3.347656 17.359375 3.777344 17.304688 3.996094 17.527344 C 3.78125 17.25 3.90625 16.78125 4.234375 16.652344 C 4.5625 16.523438 4.980469 16.773438 5.015625 17.121094 C 4.847656 16.75 5.144531 16.257812 5.550781 16.230469 C 5.535156 15.972656 5.238281 15.777344 4.992188 15.855469 C 4.742188 15.9375 4.625 16.273438 4.765625 16.488281 " fill-opacity="1" fill-rule="nonzero"/><path fill="#af8344" d="M 17.855469 10.304688 C 17.878906 10.285156 17.902344 10.265625 17.925781 10.246094 C 18.125 10.03125 18.367188 9.839844 18.609375 9.65625 C 19.457031 8.84375 20.144531 7.859375 20.8125 6.890625 C 20.816406 6.878906 20.820312 6.871094 20.824219 6.859375 C 20.632812 6.734375 20.4375 6.609375 20.242188 6.480469 C 19.757812 7.683594 18.941406 8.757812 17.898438 9.539062 C 17.089844 10.144531 16.148438 10.566406 15.160156 10.792969 C 14.636719 10.992188 14.09375 11.136719 13.539062 11.210938 C 14.984375 11.714844 16.628906 11.21875 17.855469 10.304688 " fill-opacity="1" fill-rule="nonzero"/><path fill="#af8344" d="M 7.5 8.078125 C 7.414062 8.132812 7.328125 8.183594 7.246094 8.234375 C 7.277344 8.339844 7.3125 8.445312 7.355469 8.550781 C 7.554688 8.675781 7.703125 8.886719 7.730469 9.121094 C 7.738281 9.183594 7.734375 9.246094 7.722656 9.308594 C 8.328125 10.324219 9.289062 11.132812 10.410156 11.527344 C 10.679688 11.621094 10.96875 11.695312 11.257812 11.671875 C 11.335938 11.664062 11.410156 11.648438 11.484375 11.625 C 11.492188 11.625 11.496094 11.625 11.5 11.625 C 11.871094 11.589844 12.21875 11.367188 12.398438 11.042969 C 12.617188 10.664062 12.59375 10.191406 12.46875 9.769531 C 12.226562 8.980469 11.664062 8.332031 11.21875 7.632812 C 10.777344 6.929688 10.449219 6.058594 10.746094 5.285156 C 10.652344 5.269531 10.558594 5.277344 10.46875 5.296875 C 10.320312 6.503906 10.605469 7.761719 11.285156 8.773438 C 11.667969 9.347656 12.195312 10.011719 11.910156 10.640625 C 11.722656 11.058594 11.210938 11.257812 10.753906 11.210938 C 10.296875 11.160156 9.886719 10.910156 9.523438 10.632812 C 8.652344 9.960938 7.949219 9.078125 7.5 8.078125 " fill-opacity="1" fill-rule="nonzero"/><path fill="#af8344" d="M 9.972656 14.707031 C 10.5 14.507812 11.003906 14.121094 11.144531 13.578125 C 11.203125 13.363281 11.195312 13.125 11.085938 12.929688 C 11.035156 12.835938 10.953125 12.753906 10.859375 12.699219 C 10.867188 12.738281 10.882812 12.773438 10.886719 12.8125 C 10.933594 13.199219 10.722656 13.585938 10.425781 13.847656 C 10.128906 14.109375 9.757812 14.269531 9.394531 14.421875 C 8.296875 14.886719 7.203125 15.351562 6.105469 15.8125 C 6.121094 15.914062 6.148438 16.015625 6.203125 16.109375 C 6.832031 15.636719 7.558594 15.292969 8.324219 15.101562 C 8.875 14.96875 9.445312 14.910156 9.972656 14.707031 " fill-opacity="1" fill-rule="nonzero"/><path fill="#68a92b" d="M 18.09375 4.679688 C 17.6875 4.617188 17.359375 4.21875 17.378906 3.808594 C 17.398438 3.398438 17.761719 3.035156 18.175781 3.011719 C 18.277344 2.6875 18.65625 2.480469 18.984375 2.566406 C 19.3125 2.65625 19.539062 3.023438 19.464844 3.351562 C 19.441406 3.050781 19.835938 2.8125 20.09375 2.972656 C 20.09375 2.898438 20.097656 2.820312 20.097656 2.746094 C 20.101562 2.121094 20.9375 1.839844 21.277344 2.363281 C 21.335938 2.449219 21.371094 2.542969 21.386719 2.644531 C 21.667969 2.453125 22.121094 2.648438 22.175781 2.984375 C 22.226562 3.316406 21.851562 3.640625 21.523438 3.539062 C 21.722656 3.554688 21.921875 3.566406 22.121094 3.582031 C 22.445312 3.835938 22.367188 4.429688 21.988281 4.597656 C 22.238281 4.371094 22.679688 4.402344 22.890625 4.664062 C 23.101562 4.925781 23.039062 5.359375 22.765625 5.550781 C 22.492188 5.746094 22.058594 5.65625 21.878906 5.375 C 22.15625 5.613281 22.191406 6.078125 21.949219 6.355469 C 21.710938 6.628906 21.238281 6.660156 20.960938 6.421875 C 21.414062 6.363281 21.800781 6.933594 21.578125 7.328125 C 21.359375 7.71875 20.667969 7.691406 20.476562 7.28125 C 20.40625 7.542969 20.113281 7.722656 19.847656 7.667969 C 19.582031 7.613281 19.386719 7.328125 19.429688 7.0625 C 19.453125 7.390625 19.144531 7.699219 18.816406 7.679688 C 18.488281 7.660156 18.222656 7.316406 18.285156 6.996094 C 18.328125 7.328125 17.933594 7.628906 17.617188 7.507812 C 17.582031 7.445312 17.550781 7.382812 17.515625 7.320312 C 17.238281 7.421875 16.898438 7.269531 16.792969 6.996094 C 16.683594 6.726562 16.832031 6.386719 17.101562 6.273438 C 16.796875 6.164062 16.621094 5.789062 16.738281 5.488281 C 16.851562 5.1875 17.234375 5.023438 17.535156 5.144531 C 17.523438 5.039062 17.511719 4.933594 17.496094 4.828125 C 17.695312 4.777344 17.894531 4.726562 18.09375 4.679688 " fill-opacity="1" fill-rule="nonzero"/><path fill="#61981d" d="M 17.054688 6.179688 C 17.027344 6.1875 17.003906 6.199219 16.980469 6.210938 C 17.011719 6.230469 17.050781 6.25 17.089844 6.265625 C 17.078125 6.238281 17.0625 6.207031 17.054688 6.179688 " fill-opacity="1" fill-rule="nonzero"/><path fill="#61981d" d="M 22.765625 5.550781 C 23.039062 5.359375 23.101562 4.925781 22.890625 4.664062 C 22.710938 4.445312 22.371094 4.390625 22.121094 4.511719 C 22.378906 4.28125 22.402344 3.804688 22.121094 3.582031 C 21.980469 3.570312 21.839844 3.5625 21.695312 3.550781 C 21.96875 3.523438 22.21875 3.261719 22.175781 2.984375 C 22.128906 2.699219 21.792969 2.515625 21.523438 2.585938 C 21.410156 2.839844 21.175781 3.042969 20.898438 3.082031 C 21.160156 3.101562 21.421875 3.117188 21.6875 3.132812 C 21.570312 3.429688 21.34375 3.679688 21.070312 3.84375 C 21.328125 3.84375 21.59375 3.980469 21.683594 4.21875 C 21.835938 4.609375 21.464844 5.09375 21.046875 5.058594 C 21.269531 5.484375 21.007812 6.085938 20.539062 6.214844 C 20.179688 6.316406 19.78125 6.117188 19.597656 5.800781 C 19.605469 6.03125 19.484375 6.269531 19.269531 6.371094 C 18.953125 6.515625 18.527344 6.308594 18.449219 5.972656 C 18.46875 6.316406 18.191406 6.652344 17.847656 6.703125 C 17.539062 6.75 17.214844 6.558594 17.09375 6.277344 C 16.828125 6.394531 16.6875 6.730469 16.792969 6.996094 C 16.898438 7.269531 17.238281 7.421875 17.515625 7.320312 C 17.550781 7.382812 17.582031 7.445312 17.617188 7.507812 C 17.890625 7.613281 18.21875 7.402344 18.277344 7.128906 C 18.296875 7.402344 18.535156 7.660156 18.816406 7.679688 C 19.113281 7.695312 19.386719 7.449219 19.425781 7.164062 C 19.4375 7.398438 19.617188 7.617188 19.847656 7.667969 C 20.113281 7.722656 20.40625 7.542969 20.476562 7.28125 C 20.667969 7.691406 21.359375 7.71875 21.578125 7.328125 C 21.71875 7.082031 21.617188 6.765625 21.414062 6.578125 C 21.613281 6.578125 21.816406 6.503906 21.949219 6.355469 C 22.15625 6.117188 22.160156 5.746094 21.984375 5.492188 C 22.191406 5.675781 22.535156 5.714844 22.765625 5.550781 " fill-opacity="1" fill-rule="nonzero"/><path fill="#7aba3b" d="M 18.265625 5.859375 C 18.363281 5.882812 18.460938 5.902344 18.558594 5.925781 C 18.289062 6.160156 17.792969 5.996094 17.714844 5.648438 C 17.640625 5.304688 18.027344 4.949219 18.367188 5.050781 C 18.066406 4.964844 17.835938 4.675781 17.824219 4.367188 C 17.808594 4.054688 18.015625 3.746094 18.308594 3.636719 C 18.238281 3.367188 18.453125 3.0625 18.730469 3.035156 C 19.011719 3.007812 19.285156 3.257812 19.273438 3.535156 C 19.421875 3.242188 19.796875 3.078125 20.113281 3.175781 C 20.429688 3.269531 20.652344 3.609375 20.609375 3.933594 C 20.519531 3.675781 20.257812 3.480469 19.980469 3.472656 C 19.703125 3.464844 19.429688 3.640625 19.320312 3.894531 C 19.359375 3.636719 19.03125 3.414062 18.800781 3.535156 C 18.574219 3.65625 18.582031 4.050781 18.816406 4.164062 C 18.566406 4.128906 18.320312 4.355469 18.328125 4.601562 C 18.339844 4.851562 18.605469 5.054688 18.851562 5 C 18.492188 5.113281 18.238281 5.488281 18.265625 5.859375 " fill-opacity="1" fill-rule="nonzero"/><path fill="#528221" d="M 22.765625 5.550781 C 23.039062 5.359375 23.101562 4.925781 22.890625 4.664062 C 22.710938 4.445312 22.371094 4.390625 22.121094 4.511719 C 22.371094 4.289062 22.398438 3.839844 22.148438 3.609375 C 22.132812 3.609375 22.121094 3.605469 22.105469 3.609375 C 22.265625 3.90625 22.175781 4.3125 21.90625 4.519531 C 22.097656 4.65625 22.160156 4.941406 22.042969 5.144531 C 21.925781 5.347656 21.644531 5.441406 21.429688 5.347656 C 21.679688 5.738281 21.277344 6.339844 20.816406 6.269531 C 20.945312 6.484375 20.898438 6.785156 20.714844 6.953125 C 20.53125 7.125 20.226562 7.148438 20.019531 7.011719 C 20 6.914062 19.980469 6.816406 19.960938 6.71875 C 19.628906 7.039062 19 6.953125 18.765625 6.554688 C 18.808594 6.734375 18.710938 6.9375 18.542969 7.015625 C 18.375 7.09375 18.15625 7.039062 18.046875 6.890625 C 17.871094 7.089844 17.550781 7.148438 17.316406 7.027344 C 17.078125 6.902344 16.945312 6.609375 17.011719 6.351562 C 16.84375 6.519531 16.777344 6.75 16.789062 6.980469 C 16.789062 6.988281 16.789062 6.992188 16.792969 6.996094 C 16.898438 7.269531 17.238281 7.421875 17.515625 7.320312 C 17.550781 7.382812 17.582031 7.445312 17.617188 7.507812 C 17.890625 7.613281 18.21875 7.402344 18.277344 7.128906 C 18.296875 7.402344 18.535156 7.660156 18.816406 7.679688 C 19.113281 7.695312 19.386719 7.449219 19.425781 7.164062 C 19.4375 7.398438 19.617188 7.617188 19.847656 7.667969 C 20.113281 7.722656 20.40625 7.542969 20.476562 7.28125 C 20.667969 7.691406 21.359375 7.71875 21.578125 7.328125 C 21.71875 7.082031 21.617188 6.765625 21.414062 6.578125 C 21.613281 6.578125 21.816406 6.503906 21.949219 6.355469 C 22.15625 6.117188 22.160156 5.746094 21.984375 5.492188 C 22.191406 5.675781 22.535156 5.714844 22.765625 5.550781 " fill-opacity="1" fill-rule="nonzero"/><path fill="#68a92b" d="M 10.226562 5.34375 C 10.113281 5.570312 9.992188 5.808594 9.988281 6.066406 C 9.984375 6.320312 10.132812 6.597656 10.382812 6.65625 C 10.636719 6.714844 10.921875 6.441406 10.808594 6.210938 C 10.777344 6.582031 11.167969 6.929688 11.539062 6.851562 C 11.90625 6.773438 12.125 6.296875 11.941406 5.972656 C 11.996094 6.335938 12.125 6.710938 12.402344 6.953125 C 12.683594 7.199219 13.144531 7.261719 13.425781 7.015625 C 13.703125 6.769531 13.621094 6.214844 13.257812 6.132812 C 13.535156 6.179688 13.835938 6.027344 13.960938 5.78125 C 14.089844 5.53125 14.035156 5.203125 13.832031 5.007812 C 14.121094 5.371094 14.792969 5.292969 14.988281 4.875 C 15.183594 4.457031 14.804688 3.894531 14.339844 3.914062 C 14.761719 3.921875 15.121094 3.464844 15.011719 3.058594 C 14.90625 2.65625 14.367188 2.433594 14.003906 2.644531 C 14.265625 2.621094 14.246094 2.1875 14.015625 2.0625 C 13.785156 1.941406 13.507812 2.015625 13.246094 2.054688 C 12.988281 2.09375 12.667969 2.0625 12.550781 1.828125 C 12.460938 1.648438 12.535156 1.4375 12.601562 1.25 C 12.671875 1.0625 12.726562 0.839844 12.605469 0.679688 C 12.488281 0.519531 12.144531 0.597656 12.191406 0.792969 C 12.28125 0.417969 11.925781 0.0078125 11.539062 0.046875 C 11.152344 0.0820312 10.878906 0.550781 11.039062 0.902344 C 10.792969 0.765625 10.433594 0.945312 10.402344 1.222656 C 10.195312 0.992188 9.816406 0.941406 9.558594 1.105469 C 9.296875 1.273438 9.191406 1.640625 9.320312 1.917969 L 8.859375 1.847656 C 8.371094 1.773438 8.03125 2.386719 8.402344 2.714844 C 8.425781 2.734375 8.453125 2.753906 8.480469 2.769531 C 8.117188 2.804688 7.863281 3.246094 8.015625 3.574219 C 8.171875 3.902344 8.675781 3.996094 8.9375 3.746094 C 8.503906 3.847656 8.425781 4.558594 8.820312 4.757812 C 9.21875 4.953125 9.742188 4.464844 9.570312 4.058594 C 9.304688 4.375 9.46875 4.941406 9.863281 5.066406 C 10.257812 5.195312 10.722656 4.832031 10.695312 4.421875 C 10.539062 4.726562 10.382812 5.035156 10.226562 5.34375 " fill-opacity="1" fill-rule="nonzero"/><path fill="#7aba3b" d="M 13.71875 2.542969 C 13.882812 2.542969 14.042969 2.5 14.191406 2.429688 C 14.203125 2.292969 14.144531 2.132812 14.015625 2.0625 C 13.785156 1.941406 13.507812 2.015625 13.246094 2.054688 C 12.988281 2.09375 12.667969 2.0625 12.550781 1.828125 C 12.460938 1.648438 12.535156 1.4375 12.601562 1.25 C 12.671875 1.0625 12.726562 0.839844 12.605469 0.679688 C 12.507812 0.542969 12.253906 0.578125 12.203125 0.707031 C 12.222656 0.359375 11.894531 0.0117188 11.539062 0.046875 C 11.152344 0.0820312 10.878906 0.550781 11.039062 0.902344 C 10.792969 0.765625 10.433594 0.945312 10.402344 1.222656 C 10.195312 0.992188 9.816406 0.941406 9.558594 1.105469 C 9.296875 1.273438 9.191406 1.640625 9.320312 1.917969 C 9.167969 1.894531 9.011719 1.871094 8.859375 1.847656 C 8.371094 1.773438 8.03125 2.386719 8.402344 2.714844 C 8.425781 2.734375 8.453125 2.753906 8.480469 2.769531 C 8.117188 2.804688 7.863281 3.246094 8.015625 3.574219 C 8.136719 3.835938 8.480469 3.945312 8.746094 3.855469 C 8.496094 4.085938 8.496094 4.59375 8.820312 4.757812 C 9.042969 4.867188 9.300781 4.761719 9.457031 4.578125 C 9.503906 4.796875 9.644531 4.996094 9.863281 5.066406 C 10.054688 5.128906 10.265625 5.074219 10.425781 4.953125 C 10.417969 4.964844 10.414062 4.976562 10.40625 4.988281 C 10.4375 4.972656 10.472656 4.960938 10.5 4.945312 C 9.988281 4.953125 9.511719 4.515625 9.480469 4.011719 C 9.449219 3.503906 9.875 3.011719 10.382812 2.964844 C 10.246094 2.695312 10.332031 2.335938 10.574219 2.160156 C 10.816406 1.980469 11.1875 2.003906 11.40625 2.214844 C 11.574219 1.945312 12.007812 1.902344 12.226562 2.128906 C 12.363281 2.277344 12.386719 2.5 12.3125 2.683594 C 12.6875 2.355469 13.289062 2.273438 13.71875 2.542969 " fill-opacity="1" fill-rule="nonzero"/><path fill="#7aba3b" d="M 12.089844 2.9375 C 12.195312 2.882812 12.269531 2.789062 12.3125 2.683594 C 12.226562 2.757812 12.148438 2.839844 12.089844 2.9375 " fill-opacity="1" fill-rule="nonzero"/><path fill="#61981d" d="M 13.425781 7.015625 C 13.703125 6.769531 13.621094 6.214844 13.257812 6.132812 C 13.535156 6.179688 13.835938 6.027344 13.960938 5.78125 C 14.089844 5.53125 14.035156 5.203125 13.832031 5.007812 C 14.121094 5.371094 14.792969 5.292969 14.988281 4.875 C 15.183594 4.457031 14.804688 3.894531 14.339844 3.914062 C 14.761719 3.921875 15.121094 3.464844 15.011719 3.058594 C 14.914062 2.691406 14.460938 2.480469 14.101562 2.605469 C 14.195312 2.53125 14.214844 2.378906 14.164062 2.246094 C 14.074219 2.292969 13.996094 2.363281 13.953125 2.457031 C 14.140625 2.734375 14.121094 3.132812 13.902344 3.386719 C 13.683594 3.636719 13.289062 3.722656 12.984375 3.582031 C 13.351562 3.933594 13.558594 4.445312 13.535156 4.953125 C 13.433594 4.925781 13.332031 4.894531 13.234375 4.867188 C 13.519531 5.152344 13.472656 5.691406 13.136719 5.917969 C 12.804688 6.148438 12.277344 5.996094 12.113281 5.628906 C 12.164062 5.882812 11.933594 6.15625 11.671875 6.148438 C 11.410156 6.144531 11.191406 5.863281 11.253906 5.613281 C 11.214844 5.953125 10.8125 6.199219 10.488281 6.082031 C 10.273438 6.003906 10.136719 5.785156 10.121094 5.5625 C 10.050781 5.722656 9.992188 5.890625 9.988281 6.066406 C 9.984375 6.320312 10.132812 6.597656 10.382812 6.65625 C 10.574219 6.703125 10.785156 6.554688 10.824219 6.382812 C 10.902344 6.679688 11.226562 6.917969 11.539062 6.851562 C 11.804688 6.792969 11.988281 6.53125 12.003906 6.265625 C 12.078125 6.527344 12.199219 6.777344 12.402344 6.953125 C 12.683594 7.199219 13.144531 7.261719 13.425781 7.015625 " fill-opacity="1" fill-rule="nonzero"/><path fill="#68a92b" d="M 4.488281 7.199219 C 4.433594 6.84375 3.984375 6.613281 3.660156 6.773438 C 3.335938 6.933594 3.253906 7.429688 3.507812 7.6875 C 3.171875 8.066406 3.429688 8.777344 3.933594 8.859375 C 3.722656 8.726562 3.410156 8.785156 3.269531 8.988281 C 3.125 9.191406 3.175781 9.503906 3.375 9.652344 C 3.371094 9.652344 3.371094 9.648438 3.363281 9.648438 C 2.765625 9.464844 2.304688 10.238281 2.742188 10.6875 C 2.847656 10.792969 2.972656 10.882812 3.117188 10.9375 C 2.808594 10.71875 2.308594 10.863281 2.167969 11.214844 C 2.027344 11.5625 2.285156 12.007812 2.660156 12.0625 C 2.308594 12.039062 2.03125 12.5 2.222656 12.796875 C 2.472656 13.078125 3.027344 12.949219 3.125 12.585938 C 3.035156 12.792969 3.195312 13.042969 3.410156 13.125 C 3.621094 13.210938 3.859375 13.175781 4.082031 13.132812 C 3.71875 13.039062 3.304688 13.34375 3.285156 13.71875 C 3.265625 14.089844 3.644531 14.433594 4.019531 14.378906 C 4.046875 14.683594 4.359375 14.933594 4.667969 14.890625 C 4.972656 14.851562 5.210938 14.527344 5.15625 14.226562 C 5.335938 14.410156 5.582031 14.542969 5.835938 14.527344 C 6.09375 14.511719 6.34375 14.304688 6.347656 14.050781 C 6.351562 13.796875 6.046875 13.574219 5.824219 13.699219 C 6.339844 13.417969 6.300781 12.515625 5.757812 12.28125 C 6.113281 12.378906 6.527344 12.207031 6.703125 11.882812 C 6.878906 11.5625 6.800781 11.125 6.527344 10.882812 C 6.722656 11.117188 7.136719 10.84375 7.144531 10.542969 C 7.148438 10.238281 6.929688 9.988281 6.761719 9.734375 C 6.59375 9.480469 6.472656 9.132812 6.65625 8.890625 C 6.785156 8.722656 7.015625 8.675781 7.222656 8.640625 C 7.433594 8.601562 7.664062 8.550781 7.785156 8.382812 C 7.910156 8.210938 7.808594 7.894531 7.597656 7.914062 C 7.914062 8.296875 8.671875 8.054688 8.699219 7.5625 C 9.066406 7.578125 9.382812 7.160156 9.261719 6.8125 C 9.140625 6.46875 8.632812 6.332031 8.351562 6.570312 C 8.867188 6.433594 9.070312 5.679688 8.691406 5.304688 C 8.316406 4.933594 7.554688 5.140625 7.421875 5.648438 C 7.480469 5.378906 7.101562 5.128906 6.875 5.292969 C 6.871094 5.050781 6.65625 4.832031 6.410156 4.820312 C 6.339844 4.976562 6.269531 5.132812 6.195312 5.289062 C 6.113281 5.027344 5.828125 4.84375 5.554688 4.875 C 5.28125 4.90625 5.046875 5.144531 5.023438 5.417969 C 4.769531 5.242188 4.367188 5.347656 4.238281 5.628906 C 4.109375 5.910156 4.296875 6.28125 4.597656 6.351562 C 4.269531 6.476562 4.203125 6.996094 4.488281 7.199219 " fill-opacity="1" fill-rule="nonzero"/><path fill="#7aba3b" d="M 7.972656 5.148438 C 7.714844 5.214844 7.488281 5.394531 7.421875 5.648438 C 7.480469 5.378906 7.101562 5.128906 6.875 5.292969 C 6.871094 5.050781 6.65625 4.832031 6.410156 4.820312 C 6.339844 4.976562 6.269531 5.132812 6.195312 5.289062 C 6.113281 5.027344 5.828125 4.84375 5.554688 4.875 C 5.28125 4.90625 5.046875 5.144531 5.023438 5.417969 C 4.769531 5.242188 4.367188 5.347656 4.238281 5.628906 C 4.109375 5.910156 4.296875 6.28125 4.597656 6.351562 C 4.386719 6.433594 4.285156 6.675781 4.3125 6.890625 C 4.140625 6.734375 3.875 6.667969 3.660156 6.773438 C 3.335938 6.933594 3.253906 7.429688 3.507812 7.6875 C 3.21875 8.015625 3.371094 8.589844 3.746094 8.792969 C 3.566406 8.769531 3.371094 8.839844 3.269531 8.988281 C 3.125 9.191406 3.175781 9.503906 3.375 9.652344 C 3.371094 9.652344 3.367188 9.648438 3.363281 9.648438 C 2.757812 9.460938 2.304688 10.25 2.753906 10.695312 C 2.820312 10.761719 2.894531 10.820312 2.976562 10.871094 C 2.675781 10.765625 2.289062 10.910156 2.167969 11.214844 C 2.027344 11.5625 2.285156 12.007812 2.660156 12.0625 C 2.308594 12.039062 2.03125 12.5 2.222656 12.796875 C 2.472656 13.078125 3.027344 12.949219 3.125 12.585938 C 3.035156 12.792969 3.195312 13.042969 3.410156 13.125 C 3.441406 13.140625 3.472656 13.144531 3.507812 13.152344 C 3.40625 12.648438 3.496094 12.105469 3.765625 11.664062 C 3.511719 11.453125 3.421875 11.070312 3.554688 10.769531 C 3.691406 10.46875 4.039062 10.277344 4.367188 10.324219 C 3.894531 10.28125 3.515625 9.792969 3.59375 9.328125 C 3.667969 8.863281 4.1875 8.523438 4.648438 8.628906 C 4.277344 8.625 3.949219 8.28125 3.964844 7.914062 C 3.980469 7.550781 4.335938 7.234375 4.703125 7.257812 C 4.640625 6.90625 4.90625 6.53125 5.261719 6.46875 C 5.617188 6.410156 5.996094 6.675781 6.054688 7.03125 C 6.042969 6.636719 6.289062 6.25 6.652344 6.089844 C 7.011719 5.929688 7.46875 6.007812 7.753906 6.28125 C 7.554688 5.914062 7.667969 5.429688 7.972656 5.148438 " fill-opacity="1" fill-rule="nonzero"/><path fill="#7aba3b" d="M 3.292969 13.664062 C 3.40625 13.636719 3.515625 13.59375 3.621094 13.53125 C 3.585938 13.445312 3.554688 13.355469 3.53125 13.269531 C 3.40625 13.367188 3.316406 13.507812 3.292969 13.664062 " fill-opacity="1" fill-rule="nonzero"/></svg>