<svg xmlns="http://www.w3.org/2000/svg" xmlns:xlink="http://www.w3.org/1999/xlink" width="40" zoomAndPan="magnify" viewBox="0 0 30 30.000001" height="40" preserveAspectRatio="xMidYMid meet" version="1.0"><defs><clipPath id="a17a3db4cb"><path d="M 1.011719 10 L 8 10 L 8 18 L 1.011719 18 Z M 1.011719 10 " clip-rule="nonzero"/></clipPath><clipPath id="895138f70a"><path d="M 1.011719 16 L 5 16 L 5 22 L 1.011719 22 Z M 1.011719 16 " clip-rule="nonzero"/></clipPath><clipPath id="e5388b68fc"><path d="M 1.011719 17 L 5 17 L 5 22 L 1.011719 22 Z M 1.011719 17 " clip-rule="nonzero"/></clipPath><clipPath id="1497e324e1"><path d="M 9.777344 25.402344 L 14.402344 25.402344 L 14.402344 29.03125 L 9.777344 29.03125 Z M 9.777344 25.402344 " clip-rule="nonzero"/></clipPath><clipPath id="218cca3c1a"><path d="M 9.777344 26.339844 L 13.949219 26.339844 L 13.949219 29.03125 L 9.777344 29.03125 Z M 9.777344 26.339844 " clip-rule="nonzero"/></clipPath><clipPath id="fa79cfef18"><path d="M 25.894531 13.769531 L 29.3125 13.769531 L 29.3125 16.917969 L 25.894531 16.917969 Z M 25.894531 13.769531 " clip-rule="nonzero"/></clipPath><clipPath id="73966ba830"><path d="M 25.894531 15.394531 L 29.3125 15.394531 L 29.3125 16.917969 L 25.894531 16.917969 Z M 25.894531 15.394531 " clip-rule="nonzero"/></clipPath><clipPath id="dc59b35b5f"><path d="M 1.011719 16 L 4 16 L 4 21 L 1.011719 21 Z M 1.011719 16 " clip-rule="nonzero"/></clipPath></defs><g clip-path="url(#a17a3db4cb)"><path fill="#68a92b" d="M 3.304688 11.273438 C 3.261719 10.917969 3.679688 10.59375 4.019531 10.71875 C 4.359375 10.84375 4.457031 11.359375 4.1875 11.601562 C 4.164062 11.359375 4.253906 11.117188 4.410156 10.929688 C 4.625 10.675781 5.042969 10.765625 5.148438 11.078125 L 5.152344 11.082031 C 5 10.65625 5.410156 10.140625 5.867188 10.183594 C 6.324219 10.226562 6.625 10.8125 6.394531 11.203125 C 6.5 10.742188 7.027344 10.421875 7.492188 10.53125 C 7.832031 10.964844 7.753906 11.660156 7.328125 12.011719 C 7.527344 12.144531 7.6875 12.332031 7.792969 12.542969 C 8.070312 13.101562 7.675781 13.761719 7.054688 13.835938 L 7.046875 13.839844 C 7.460938 14.085938 7.644531 14.648438 7.457031 15.085938 C 7.167969 15.324219 6.667969 15.214844 6.503906 14.882812 C 6.90625 15.113281 7.09375 15.648438 6.925781 16.074219 C 6.753906 16.5 6.242188 16.765625 5.792969 16.660156 C 5.757812 17.222656 5.257812 17.726562 4.6875 17.765625 C 4.117188 17.808594 3.546875 17.386719 3.433594 16.832031 C 2.96875 17 2.390625 16.660156 2.324219 16.175781 C 2.253906 15.691406 2.71875 15.207031 3.210938 15.246094 C 2.726562 15.351562 2.195312 15.210938 1.832031 14.878906 C 1.628906 14.691406 1.480469 14.449219 1.40625 14.1875 C 1.304688 13.847656 1.5 13.488281 1.828125 13.34375 L 1.832031 13.34375 C 1.253906 13 1.074219 12.136719 1.472656 11.597656 C 1.871094 11.0625 2.757812 10.96875 3.261719 11.410156 C 3.28125 11.480469 3.296875 11.554688 3.316406 11.625 C 3.8125 11.597656 2.8125 11.304688 3.304688 11.273438 " fill-opacity="1" fill-rule="nonzero"/></g><path fill="#61981d" d="M 6.445312 10.917969 C 6.453125 10.925781 6.460938 10.929688 6.46875 10.9375 C 6.46875 10.921875 6.472656 10.90625 6.472656 10.890625 C 6.464844 10.902344 6.457031 10.910156 6.445312 10.917969 " fill-opacity="1" fill-rule="nonzero"/><path fill="#61981d" d="M 7.792969 12.542969 C 7.6875 12.332031 7.527344 12.144531 7.328125 12.011719 C 7.753906 11.660156 7.832031 10.964844 7.492188 10.53125 C 7.113281 10.441406 6.703125 10.636719 6.5 10.960938 C 6.675781 11.089844 6.816406 11.257812 6.910156 11.453125 C 7.1875 12.007812 6.796875 12.667969 6.175781 12.746094 L 6.167969 12.746094 C 6.578125 12.992188 6.765625 13.554688 6.578125 13.996094 C 6.394531 14.144531 6.128906 14.15625 5.914062 14.058594 C 6.101562 14.324219 6.164062 14.679688 6.042969 14.984375 C 5.871094 15.410156 5.363281 15.671875 4.910156 15.566406 C 4.878906 16.128906 4.378906 16.632812 3.808594 16.675781 C 3.238281 16.714844 2.667969 16.292969 2.550781 15.738281 C 2.496094 15.757812 2.441406 15.769531 2.386719 15.777344 C 2.332031 15.902344 2.304688 16.039062 2.324219 16.175781 C 2.390625 16.660156 2.96875 17 3.433594 16.832031 C 3.546875 17.386719 4.117188 17.808594 4.6875 17.765625 C 5.257812 17.726562 5.757812 17.222656 5.792969 16.660156 C 6.242188 16.765625 6.753906 16.5 6.925781 16.074219 C 7.046875 15.773438 6.984375 15.417969 6.792969 15.152344 C 7.007812 15.246094 7.273438 15.238281 7.457031 15.085938 C 7.644531 14.648438 7.460938 14.085938 7.046875 13.839844 L 7.054688 13.835938 C 7.675781 13.761719 8.070312 13.101562 7.792969 12.542969 " fill-opacity="1" fill-rule="nonzero"/><path fill="#68a92b" d="M 21.945312 8.199219 C 22.433594 8.609375 22.5 9.421875 22.085938 9.90625 C 21.671875 10.386719 20.847656 10.453125 20.359375 10.042969 C 20.6875 10.164062 20.902344 10.453125 20.984375 10.785156 C 21.148438 11.425781 20.382812 11.902344 19.867188 11.476562 L 19.859375 11.472656 C 20.035156 12.195312 19.417969 13 18.667969 13.023438 C 17.914062 13.046875 17.242188 12.285156 17.371094 11.554688 C 17.542969 12.097656 17.1875 12.742188 16.632812 12.894531 C 16.078125 13.042969 15.4375 12.667969 15.304688 12.117188 C 14.835938 12.429688 14.15625 12.398438 13.71875 12.039062 C 13.28125 11.683594 13.125 11.027344 13.351562 10.515625 C 12.851562 10.890625 12.003906 10.605469 11.835938 10.007812 C 11.667969 9.410156 12.246094 8.738281 12.871094 8.800781 C 12.308594 8.570312 11.972656 7.90625 12.121094 7.324219 C 12.269531 6.742188 12.882812 6.3125 13.484375 6.367188 C 13.789062 6.320312 14.09375 6.273438 14.398438 6.226562 C 12.644531 6.5 12.984375 3.789062 14.5 4.300781 C 14.527344 3.800781 15.046875 3.378906 15.550781 3.453125 C 16.054688 3.523438 16.433594 4.070312 16.316406 4.5625 C 16.066406 3.9375 16.394531 3.148438 17.015625 2.878906 C 17.636719 2.609375 18.449219 2.910156 18.742188 3.515625 C 18.878906 3.007812 19.59375 2.765625 20.019531 3.078125 C 20.449219 3.390625 20.417969 4.136719 19.96875 4.414062 C 20.628906 3.933594 21.726562 4.273438 21.992188 5.042969 C 22.257812 5.8125 21.601562 6.742188 20.777344 6.761719 C 21.164062 6.558594 21.691406 6.664062 21.96875 7 C 22.242188 7.339844 22.230469 7.871094 21.945312 8.199219 " fill-opacity="1" fill-rule="nonzero"/><path fill="#61981d" d="M 12.261719 8.203125 C 12.269531 8.214844 12.277344 8.226562 12.285156 8.238281 C 12.292969 8.21875 12.296875 8.199219 12.304688 8.179688 C 12.292969 8.191406 12.277344 8.195312 12.261719 8.203125 Z M 21.945312 8.15625 C 22.230469 7.828125 22.242188 7.296875 21.96875 6.957031 C 21.804688 6.757812 21.550781 6.640625 21.292969 6.621094 C 21.339844 6.957031 21.261719 7.3125 21.039062 7.570312 C 20.691406 7.972656 20.058594 8.082031 19.578125 7.867188 C 19.753906 8.015625 19.878906 8.222656 19.9375 8.449219 C 20.101562 9.09375 19.332031 9.566406 18.816406 9.144531 L 18.8125 9.136719 C 18.988281 9.859375 18.371094 10.664062 17.621094 10.6875 C 17.03125 10.707031 16.492188 10.242188 16.347656 9.6875 C 16.277344 10.085938 15.984375 10.453125 15.585938 10.558594 C 15.03125 10.710938 14.390625 10.332031 14.257812 9.78125 C 13.785156 10.097656 13.109375 10.0625 12.671875 9.707031 C 12.441406 9.515625 12.289062 9.242188 12.230469 8.949219 C 11.921875 9.183594 11.730469 9.589844 11.835938 9.964844 C 12.003906 10.5625 12.851562 10.847656 13.351562 10.472656 C 13.125 10.984375 13.28125 11.640625 13.71875 11.996094 C 14.15625 12.355469 14.835938 12.386719 15.304688 12.074219 C 15.4375 12.625 16.078125 13 16.632812 12.851562 C 17.03125 12.742188 17.324219 12.378906 17.394531 11.980469 C 17.539062 12.535156 18.078125 13 18.667969 12.980469 C 19.417969 12.957031 20.035156 12.152344 19.859375 11.429688 L 19.867188 11.433594 C 20.382812 11.859375 21.148438 11.382812 20.984375 10.742188 C 20.925781 10.511719 20.800781 10.304688 20.625 10.15625 C 21.105469 10.371094 21.738281 10.265625 22.085938 9.863281 C 22.5 9.378906 22.433594 8.566406 21.945312 8.15625 Z M 21.992188 5 C 22.199219 5.601562 21.84375 6.296875 21.289062 6.582031 C 21.242188 6.308594 21.113281 6.046875 20.898438 5.867188 C 21.183594 5.539062 21.195312 5.003906 20.917969 4.667969 C 20.742188 4.449219 20.457031 4.328125 20.175781 4.324219 C 20.265625 4.285156 20.351562 4.234375 20.429688 4.175781 C 21.054688 4.054688 21.78125 4.390625 21.992188 5 " fill-opacity="1" fill-rule="nonzero"/><path fill="#528221" d="M 21.945312 7.019531 C 22 7.0625 22.046875 7.117188 22.089844 7.167969 C 22.058594 7.101562 22.023438 7.035156 21.976562 6.972656 C 21.964844 6.988281 21.957031 7.003906 21.945312 7.019531 " fill-opacity="1" fill-rule="nonzero"/><path fill="#528221" d="M 20.757812 10.292969 C 20.519531 10.488281 20.152344 10.535156 19.867188 10.296875 L 19.859375 10.292969 C 20.035156 11.011719 19.417969 11.816406 18.667969 11.84375 C 18.078125 11.863281 17.539062 11.398438 17.394531 10.839844 C 17.324219 11.238281 17.03125 11.605469 16.632812 11.714844 C 16.078125 11.863281 15.4375 11.488281 15.304688 10.933594 C 14.835938 11.25 14.15625 11.21875 13.71875 10.859375 C 13.453125 10.640625 13.292969 10.3125 13.257812 9.972656 C 13.042969 9.933594 12.839844 9.84375 12.671875 9.707031 C 12.574219 9.625 12.496094 9.53125 12.429688 9.425781 C 12.273438 9.367188 12.132812 9.273438 12.023438 9.152344 C 11.84375 9.382812 11.757812 9.683594 11.835938 9.964844 C 12.003906 10.5625 12.851562 10.847656 13.351562 10.472656 C 13.125 10.984375 13.28125 11.640625 13.71875 11.996094 C 14.15625 12.355469 14.835938 12.386719 15.304688 12.074219 C 15.4375 12.625 16.078125 13 16.632812 12.851562 C 17.03125 12.742188 17.324219 12.378906 17.394531 11.980469 C 17.539062 12.535156 18.078125 13 18.667969 12.980469 C 19.417969 12.957031 20.035156 12.152344 19.859375 11.429688 L 19.867188 11.433594 C 20.382812 11.859375 21.148438 11.382812 20.984375 10.742188 C 20.941406 10.574219 20.863281 10.421875 20.757812 10.292969 " fill-opacity="1" fill-rule="nonzero"/><path fill="#528221" d="M 22.085938 8.722656 C 21.738281 9.128906 21.105469 9.234375 20.625 9.019531 C 20.800781 9.167969 20.925781 9.375 20.984375 9.605469 C 21.046875 9.851562 20.972656 10.070312 20.828125 10.226562 C 21.273438 10.335938 21.785156 10.210938 22.085938 9.863281 C 22.398438 9.496094 22.4375 8.941406 22.222656 8.515625 C 22.1875 8.589844 22.140625 8.660156 22.085938 8.722656 " fill-opacity="1" fill-rule="nonzero"/><path fill="#68a92b" d="M 9.378906 16.597656 C 8.855469 17.011719 7.996094 16.917969 7.578125 16.402344 C 7.15625 15.886719 7.246094 15.039062 7.765625 14.621094 C 7.261719 14.199219 7.234375 13.335938 7.710938 12.882812 C 8.191406 12.433594 9.0625 12.5 9.464844 13.019531 C 9.027344 12.832031 8.796875 12.273438 8.972656 11.835938 C 9.152344 11.398438 9.710938 11.15625 10.15625 11.320312 C 10.183594 10.800781 10.652344 10.339844 11.179688 10.316406 C 11.707031 10.296875 12.210938 10.71875 12.28125 11.234375 C 12.675781 10.886719 13.34375 10.910156 13.714844 11.28125 C 14.082031 11.65625 14.09375 12.316406 13.734375 12.699219 C 13.9375 12.269531 14.523438 12.0625 14.953125 12.269531 C 15.386719 12.476562 15.585938 13.054688 15.371094 13.480469 C 15.4375 13.027344 15.910156 12.671875 16.367188 12.730469 C 16.828125 12.785156 17.195312 13.242188 17.152344 13.695312 C 17.289062 13.214844 18.019531 13.03125 18.371094 13.398438 C 18.722656 13.761719 18.503906 14.472656 18.007812 14.585938 C 18.640625 14.445312 19.328125 15.019531 19.292969 15.660156 C 19.257812 16.300781 18.511719 16.800781 17.898438 16.59375 C 18.378906 16.746094 18.585938 17.417969 18.277344 17.808594 C 17.964844 18.199219 17.253906 18.15625 16.996094 17.730469 C 16.996094 17.730469 17.84375 18.742188 17.472656 19.34375 C 17.136719 19.890625 17.011719 19.929688 16.417969 19.675781 C 15.875 19.441406 15.394531 18.714844 15.394531 18.714844 C 15.71875 19.328125 15.109375 20.171875 14.410156 20.125 C 13.710938 20.082031 13.207031 19.261719 13.433594 18.605469 C 13.304688 19.167969 12.757812 19.613281 12.171875 19.628906 C 11.585938 19.644531 11.015625 19.226562 10.859375 18.671875 C 10.367188 18.90625 9.726562 18.796875 9.339844 18.414062 C 8.957031 18.027344 8.855469 17.390625 9.105469 16.90625 C 9.195312 16.804688 9.289062 16.703125 9.378906 16.597656 " fill-opacity="1" fill-rule="nonzero"/><path fill="#61981d" d="M 8.378906 16.582031 C 7.996094 16.195312 7.894531 15.5625 8.144531 15.078125 C 8.234375 14.976562 8.324219 14.871094 8.417969 14.769531 C 8.148438 14.980469 7.792969 15.058594 7.453125 15.015625 C 7.234375 15.453125 7.265625 16.019531 7.578125 16.402344 C 7.855469 16.746094 8.328125 16.898438 8.765625 16.84375 C 8.621094 16.777344 8.488281 16.695312 8.378906 16.582031 " fill-opacity="1" fill-rule="nonzero"/><path fill="#61981d" d="M 19.292969 15.660156 C 19.328125 15.019531 18.640625 14.445312 18.007812 14.585938 C 18.503906 14.472656 18.722656 13.761719 18.371094 13.398438 C 18.3125 13.335938 18.246094 13.296875 18.171875 13.265625 C 18.28125 13.433594 18.339844 13.628906 18.328125 13.832031 C 18.292969 14.472656 17.550781 14.96875 16.9375 14.765625 C 17.414062 14.914062 17.625 15.589844 17.3125 15.980469 C 17.003906 16.371094 16.292969 16.328125 16.03125 15.902344 C 16.03125 15.902344 16.878906 16.914062 16.507812 17.515625 C 16.171875 18.058594 16.050781 18.097656 15.457031 17.84375 C 14.910156 17.609375 14.429688 16.886719 14.429688 16.886719 C 14.757812 17.5 14.148438 18.34375 13.449219 18.296875 C 12.746094 18.253906 12.246094 17.433594 12.46875 16.773438 C 12.339844 17.339844 11.796875 17.785156 11.210938 17.800781 C 10.625 17.8125 10.054688 17.398438 9.898438 16.839844 C 9.648438 16.960938 9.363281 16.992188 9.089844 16.945312 C 8.863281 17.421875 8.964844 18.035156 9.339844 18.414062 C 9.726562 18.796875 10.367188 18.90625 10.859375 18.671875 C 11.015625 19.226562 11.585938 19.644531 12.171875 19.628906 C 12.757812 19.613281 13.304688 19.167969 13.433594 18.605469 C 13.207031 19.261719 13.710938 20.082031 14.410156 20.125 C 15.109375 20.171875 15.71875 19.328125 15.394531 18.714844 C 15.394531 18.714844 15.875 19.441406 16.417969 19.675781 C 17.011719 19.929688 17.136719 19.890625 17.472656 19.34375 C 17.84375 18.742188 16.996094 17.730469 16.996094 17.730469 C 17.253906 18.15625 17.964844 18.199219 18.277344 17.808594 C 18.585938 17.417969 18.378906 16.746094 17.898438 16.59375 C 18.511719 16.800781 19.257812 16.300781 19.292969 15.660156 " fill-opacity="1" fill-rule="nonzero"/><path fill="#528221" d="M 18.277344 13.320312 C 18.242188 13.300781 18.207031 13.28125 18.171875 13.265625 C 18.199219 13.308594 18.222656 13.355469 18.246094 13.402344 C 18.257812 13.375 18.265625 13.347656 18.277344 13.320312 " fill-opacity="1" fill-rule="nonzero"/><path fill="#528221" d="M 18.277344 17.046875 C 17.964844 17.4375 17.253906 17.394531 16.996094 16.96875 C 16.996094 16.96875 17.464844 17.53125 17.550781 18.066406 C 17.820312 18.101562 18.105469 18.019531 18.277344 17.808594 C 18.464844 17.570312 18.460938 17.234375 18.320312 16.96875 C 18.308594 16.996094 18.296875 17.023438 18.277344 17.046875 " fill-opacity="1" fill-rule="nonzero"/><path fill="#528221" d="M 17.898438 15.832031 C 18.226562 15.9375 18.421875 16.28125 18.417969 16.613281 C 18.867188 16.511719 19.265625 16.125 19.292969 15.660156 C 19.300781 15.511719 19.265625 15.367188 19.207031 15.230469 C 18.988281 15.699219 18.402344 16 17.898438 15.832031 " fill-opacity="1" fill-rule="nonzero"/><path fill="#528221" d="M 14.410156 19.363281 C 13.863281 19.332031 13.4375 18.824219 13.386719 18.289062 C 13.339844 18.28125 13.292969 18.273438 13.246094 18.261719 C 13.007812 18.613281 12.601562 18.855469 12.171875 18.867188 C 11.585938 18.882812 11.015625 18.464844 10.859375 17.910156 C 10.367188 18.144531 9.726562 18.035156 9.339844 17.648438 C 9.191406 17.5 9.085938 17.3125 9.027344 17.109375 C 8.890625 17.554688 9.007812 18.078125 9.339844 18.414062 C 9.726562 18.796875 10.367188 18.90625 10.859375 18.671875 C 11.015625 19.226562 11.585938 19.644531 12.171875 19.628906 C 12.757812 19.613281 13.304688 19.167969 13.433594 18.605469 C 13.207031 19.261719 13.710938 20.082031 14.410156 20.125 C 15.109375 20.171875 15.71875 19.328125 15.394531 18.714844 C 15.222656 19.09375 14.835938 19.390625 14.410156 19.363281 " fill-opacity="1" fill-rule="nonzero"/><path fill="#528221" d="M 17.472656 18.582031 C 17.136719 19.128906 17.011719 19.167969 16.417969 18.914062 C 15.875 18.679688 15.394531 17.953125 15.394531 17.953125 C 15.519531 18.195312 15.503906 18.46875 15.394531 18.714844 C 15.402344 18.726562 15.878906 19.441406 16.417969 19.675781 C 17.011719 19.929688 17.136719 19.890625 17.472656 19.34375 C 17.613281 19.117188 17.578125 18.832031 17.480469 18.5625 C 17.476562 18.570312 17.476562 18.574219 17.472656 18.582031 " fill-opacity="1" fill-rule="nonzero"/><path fill="#528221" d="M 8.050781 15.984375 C 7.867188 15.910156 7.703125 15.796875 7.578125 15.640625 C 7.480469 15.519531 7.414062 15.382812 7.367188 15.238281 C 7.253906 15.632812 7.3125 16.082031 7.578125 16.402344 C 7.855469 16.746094 8.328125 16.898438 8.765625 16.84375 C 8.621094 16.777344 8.488281 16.695312 8.378906 16.582031 C 8.214844 16.417969 8.105469 16.207031 8.050781 15.984375 " fill-opacity="1" fill-rule="nonzero"/><path fill="#68a92b" d="M 15.1875 1.703125 C 15.496094 1.425781 16.054688 1.5 16.277344 1.851562 C 16.5 2.203125 16.324219 2.730469 15.933594 2.886719 C 15.550781 3.175781 14.96875 3.183594 14.574219 2.902344 C 14.972656 3.339844 14.683594 4.167969 14.097656 4.269531 C 13.511719 4.371094 12.953125 3.691406 13.171875 3.148438 C 12.894531 3.476562 12.410156 3.644531 12.003906 3.5 C 11.59375 3.351562 11.320312 2.871094 11.460938 2.464844 C 11.601562 2.058594 12.167969 1.847656 12.519531 2.101562 C 12.152344 1.742188 12.203125 1.058594 12.621094 0.757812 C 13.039062 0.457031 13.714844 0.621094 13.945312 1.078125 C 13.886719 0.496094 14.621094 0 15.148438 0.269531 C 15.671875 0.535156 15.699219 1.410156 15.1875 1.703125 " fill-opacity="1" fill-rule="nonzero"/><path fill="#61981d" d="M 12.484375 2.464844 C 12.238281 2.761719 11.824219 2.925781 11.445312 2.851562 C 11.507812 3.136719 11.71875 3.398438 12.003906 3.5 C 12.265625 3.59375 12.558594 3.554688 12.8125 3.429688 C 12.515625 3.207031 12.34375 2.8125 12.484375 2.464844 " fill-opacity="1" fill-rule="nonzero"/><path fill="#61981d" d="M 14.5 1.023438 C 14.789062 0.761719 15.300781 0.816406 15.542969 1.117188 C 15.585938 0.785156 15.453125 0.421875 15.148438 0.269531 C 15.054688 0.21875 14.953125 0.199219 14.855469 0.195312 C 14.894531 0.515625 14.785156 0.859375 14.5 1.023438 " fill-opacity="1" fill-rule="nonzero"/><path fill="#61981d" d="M 16.277344 1.851562 C 16.152344 1.652344 15.917969 1.546875 15.683594 1.539062 C 15.675781 1.816406 15.511719 2.097656 15.246094 2.203125 C 14.859375 2.496094 14.277344 2.503906 13.886719 2.222656 C 14.28125 2.65625 13.992188 3.488281 13.410156 3.589844 C 13.320312 3.605469 13.230469 3.601562 13.148438 3.582031 C 13.246094 3.992188 13.664062 4.347656 14.097656 4.269531 C 14.683594 4.167969 14.972656 3.339844 14.574219 2.902344 C 14.96875 3.183594 15.550781 3.175781 15.933594 2.886719 C 16.324219 2.730469 16.5 2.203125 16.277344 1.851562 " fill-opacity="1" fill-rule="nonzero"/><path fill="#68a92b" d="M 24.5 4.644531 C 24.484375 4.25 24.132812 3.898438 23.738281 3.875 C 23.324219 3.851562 22.96875 4.132812 22.652344 4.398438 C 22.355469 4.648438 22.042969 4.925781 21.949219 5.300781 C 21.855469 5.675781 22.105469 6.152344 22.496094 6.136719 C 22.160156 6.105469 21.863281 6.457031 21.90625 6.789062 C 21.945312 7.121094 22.257812 7.378906 22.59375 7.421875 C 22.933594 7.460938 23.269531 7.316406 23.519531 7.089844 C 23.492188 7.59375 23.972656 8.070312 24.484375 8.042969 C 24.996094 8.019531 25.421875 7.5 25.34375 7 C 25.9375 6.726562 26.285156 6.015625 26.132812 5.386719 C 26.019531 4.917969 25.640625 4.535156 25.1875 4.375 C 24.925781 4.285156 24.636719 4.398438 24.5 4.640625 L 24.5 4.644531 " fill-opacity="1" fill-rule="nonzero"/><path fill="#61981d" d="M 23.652344 4.050781 L 23.65625 4.046875 C 23.691406 3.984375 23.738281 3.929688 23.789062 3.882812 C 23.773438 3.882812 23.753906 3.878906 23.738281 3.875 C 23.699219 3.875 23.660156 3.875 23.621094 3.878906 C 23.640625 3.933594 23.652344 3.992188 23.652344 4.050781 " fill-opacity="1" fill-rule="nonzero"/><path fill="#61981d" d="M 26.132812 5.386719 C 26.019531 4.917969 25.640625 4.535156 25.1875 4.375 C 25.152344 4.363281 25.117188 4.355469 25.082031 4.351562 C 25.175781 4.484375 25.246094 4.632812 25.285156 4.792969 C 25.4375 5.421875 25.089844 6.132812 24.496094 6.40625 C 24.578125 6.90625 24.148438 7.425781 23.636719 7.453125 C 23.621094 7.453125 23.601562 7.449219 23.585938 7.449219 C 23.730469 7.796875 24.097656 8.0625 24.484375 8.042969 C 24.996094 8.019531 25.421875 7.5 25.34375 7 C 25.9375 6.726562 26.285156 6.015625 26.132812 5.386719 " fill-opacity="1" fill-rule="nonzero"/><path fill="#61981d" d="M 22.675781 6.496094 C 22.464844 6.6875 22.195312 6.816406 21.914062 6.832031 C 21.976562 7.144531 22.273438 7.382812 22.59375 7.421875 C 22.789062 7.445312 22.980469 7.40625 23.160156 7.324219 C 22.867188 7.15625 22.65625 6.835938 22.675781 6.496094 " fill-opacity="1" fill-rule="nonzero"/><path fill="#68a92b" d="M 10.746094 3.644531 C 10.910156 3.378906 10.8125 2.988281 10.539062 2.832031 C 10.269531 2.675781 9.875 2.78125 9.722656 3.054688 C 9.492188 2.175781 8.390625 1.632812 7.539062 1.984375 C 6.6875 2.332031 6.300781 3.488281 6.769531 4.269531 L 6.238281 4.523438 C 5.808594 4.273438 5.199219 4.390625 4.898438 4.785156 C 4.59375 5.175781 4.640625 5.785156 4.996094 6.132812 C 4.570312 6.144531 4.1875 6.519531 4.171875 6.941406 C 4.160156 7.363281 4.515625 7.761719 4.941406 7.800781 C 4.402344 7.894531 4.0625 8.5625 4.304688 9.042969 C 4.546875 9.527344 5.292969 9.65625 5.691406 9.289062 C 5.648438 9.417969 5.605469 9.550781 5.5625 9.679688 C 5.636719 10.097656 5.992188 10.453125 6.417969 10.527344 C 6.839844 10.597656 7.300781 10.382812 7.507812 10.011719 C 7.710938 10.511719 8.308594 10.824219 8.839844 10.707031 C 9.375 10.589844 9.78125 10.058594 9.75 9.519531 C 10.230469 9.820312 10.945312 9.671875 11.265625 9.203125 C 11.582031 8.734375 11.449219 8.023438 10.984375 7.699219 C 11.558594 7.925781 12.289062 7.640625 12.550781 7.085938 C 12.8125 6.53125 12.5625 5.792969 12.015625 5.507812 L 12.019531 5.507812 C 12.34375 5.542969 12.652344 5.324219 12.695312 5.007812 C 12.75 4.550781 12.683594 4.085938 12.410156 3.726562 C 12.015625 3.214844 11.105469 3.109375 10.746094 3.644531 " fill-opacity="1" fill-rule="nonzero"/><path fill="#61981d" d="M 12.695312 5.007812 C 12.75 4.550781 12.683594 4.085938 12.410156 3.726562 C 12.167969 3.414062 11.730469 3.253906 11.347656 3.300781 C 11.347656 3.417969 11.34375 3.539062 11.328125 3.65625 C 11.285156 3.976562 10.980469 4.195312 10.65625 4.15625 L 10.652344 4.15625 C 11.199219 4.445312 11.449219 5.179688 11.1875 5.734375 C 10.925781 6.292969 10.195312 6.578125 9.617188 6.347656 C 10.085938 6.675781 10.214844 7.382812 9.898438 7.851562 C 9.582031 8.320312 8.867188 8.46875 8.382812 8.167969 C 8.417969 8.707031 8.011719 9.242188 7.476562 9.359375 C 6.941406 9.476562 6.34375 9.164062 6.144531 8.660156 C 5.933594 9.03125 5.476562 9.25 5.050781 9.175781 C 4.691406 9.117188 4.378906 8.847656 4.25 8.511719 C 4.210938 8.691406 4.222656 8.878906 4.304688 9.042969 C 4.546875 9.527344 5.292969 9.65625 5.691406 9.289062 C 5.648438 9.417969 5.605469 9.550781 5.5625 9.679688 C 5.636719 10.097656 5.992188 10.453125 6.417969 10.527344 C 6.839844 10.597656 7.300781 10.382812 7.507812 10.011719 C 7.710938 10.511719 8.308594 10.824219 8.839844 10.707031 C 9.375 10.589844 9.78125 10.058594 9.75 9.519531 C 10.230469 9.820312 10.945312 9.671875 11.265625 9.203125 C 11.582031 8.734375 11.449219 8.023438 10.984375 7.699219 C 11.558594 7.925781 12.289062 7.640625 12.550781 7.085938 C 12.8125 6.53125 12.5625 5.792969 12.015625 5.507812 L 12.019531 5.507812 C 12.34375 5.542969 12.652344 5.324219 12.695312 5.007812 " fill-opacity="1" fill-rule="nonzero"/><path fill="#528221" d="M 4.320312 8.65625 C 4.292969 8.609375 4.269531 8.5625 4.25 8.511719 C 4.242188 8.542969 4.238281 8.574219 4.234375 8.605469 C 4.261719 8.625 4.292969 8.640625 4.320312 8.65625 " fill-opacity="1" fill-rule="nonzero"/><path fill="#528221" d="M 5.160156 9.28125 C 5.167969 9.25 5.179688 9.21875 5.191406 9.1875 C 5.144531 9.1875 5.097656 9.183594 5.050781 9.175781 C 4.960938 9.160156 4.875 9.132812 4.792969 9.09375 C 4.621094 9.109375 4.445312 9.078125 4.289062 9.003906 C 4.292969 9.015625 4.296875 9.03125 4.304688 9.042969 C 4.46875 9.371094 4.863281 9.53125 5.222656 9.488281 C 5.195312 9.421875 5.171875 9.351562 5.160156 9.28125 " fill-opacity="1" fill-rule="nonzero"/><path fill="#528221" d="M 10.671875 4.15625 C 10.667969 4.15625 10.660156 4.15625 10.65625 4.15625 L 10.652344 4.15625 C 10.664062 4.164062 10.675781 4.175781 10.6875 4.183594 C 10.683594 4.175781 10.675781 4.167969 10.671875 4.15625 " fill-opacity="1" fill-rule="nonzero"/><path fill="#528221" d="M 6.214844 8.800781 C 6.1875 8.757812 6.164062 8.710938 6.144531 8.660156 C 6.128906 8.683594 6.113281 8.703125 6.097656 8.726562 C 6.136719 8.753906 6.175781 8.777344 6.214844 8.800781 " fill-opacity="1" fill-rule="nonzero"/><path fill="#528221" d="M 7.105469 9.613281 C 6.894531 9.984375 6.4375 10.199219 6.015625 10.128906 C 5.898438 10.109375 5.789062 10.066406 5.683594 10.007812 C 5.839844 10.273438 6.109375 10.472656 6.417969 10.527344 C 6.816406 10.59375 7.242188 10.40625 7.464844 10.074219 C 7.308594 9.953125 7.179688 9.796875 7.105469 9.613281 " fill-opacity="1" fill-rule="nonzero"/><path fill="#528221" d="M 12.410156 3.726562 C 12.324219 3.617188 12.214844 3.527344 12.089844 3.457031 C 12.292969 3.792969 12.339844 4.203125 12.289062 4.605469 C 12.25 4.925781 11.941406 5.144531 11.617188 5.109375 L 11.613281 5.109375 C 11.789062 5.199219 11.929688 5.34375 12.039062 5.507812 C 12.355469 5.535156 12.652344 5.320312 12.695312 5.007812 C 12.75 4.550781 12.683594 4.085938 12.410156 3.726562 " fill-opacity="1" fill-rule="nonzero"/><path fill="#528221" d="M 12.054688 5.53125 C 12.265625 5.875 12.320312 6.320312 12.148438 6.6875 C 11.886719 7.242188 11.15625 7.527344 10.582031 7.296875 C 11.046875 7.625 11.179688 8.335938 10.859375 8.804688 C 10.542969 9.273438 9.828125 9.421875 9.34375 9.117188 C 9.378906 9.660156 8.972656 10.191406 8.4375 10.308594 C 8.144531 10.371094 7.835938 10.304688 7.582031 10.152344 C 7.832031 10.570312 8.359375 10.8125 8.839844 10.707031 C 9.375 10.589844 9.78125 10.058594 9.75 9.519531 C 10.230469 9.820312 10.945312 9.671875 11.265625 9.203125 C 11.582031 8.734375 11.449219 8.023438 10.984375 7.699219 C 11.558594 7.925781 12.289062 7.640625 12.550781 7.085938 C 12.808594 6.542969 12.574219 5.832031 12.054688 5.53125 " fill-opacity="1" fill-rule="nonzero"/><path fill="#68a92b" d="M 10.34375 23.097656 C 10.539062 23.742188 10.925781 24.339844 10.957031 25.011719 C 10.984375 25.683594 10.390625 26.449219 9.742188 26.238281 C 9.632812 26.800781 9.078125 27.242188 8.5 27.226562 C 7.921875 27.210938 7.390625 26.742188 7.308594 26.175781 C 7.164062 26.433594 6.78125 26.527344 6.535156 26.363281 C 5.996094 25.945312 5.921875 25.054688 6.390625 24.5625 C 6.019531 24.984375 5.296875 25.050781 4.855469 24.695312 C 4.410156 24.34375 4.320312 23.632812 4.660156 23.183594 C 4.246094 23.335938 3.730469 23.113281 3.5625 22.710938 C 3.394531 22.304688 3.597656 21.789062 4 21.605469 L 3.976562 21.527344 C 3.851562 21.03125 4.410156 20.605469 4.839844 20.890625 C 4.84375 20.890625 4.847656 20.894531 4.847656 20.898438 C 4.515625 20.382812 4.984375 19.578125 5.605469 19.609375 C 5.265625 19.460938 5.175781 18.945312 5.445312 18.699219 C 5.71875 18.449219 6.230469 18.574219 6.351562 18.921875 C 6.046875 18.605469 6.21875 17.988281 6.640625 17.863281 C 7.066406 17.742188 7.542969 18.171875 7.457031 18.601562 C 7.316406 18.09375 7.816406 17.519531 8.347656 17.585938 C 8.878906 17.652344 9.222656 18.332031 8.953125 18.789062 C 8.980469 18.714844 9.015625 18.648438 9.058594 18.585938 C 9.441406 18.054688 10.304688 18.359375 10.324219 19.011719 L 10.347656 19.714844 C 10.382812 19.058594 11.203125 18.585938 11.796875 18.878906 C 12.390625 19.171875 12.503906 20.101562 11.996094 20.523438 C 12.757812 20.507812 13.339844 21.46875 12.964844 22.125 C 12.59375 22.777344 11.460938 22.785156 11.082031 22.128906 L 11.277344 22.613281 C 11.515625 23.191406 10.6875 23.640625 10.351562 23.113281 C 10.351562 23.109375 10.347656 23.105469 10.34375 23.097656 " fill-opacity="1" fill-rule="nonzero"/><path fill="#61981d" d="M 9.742188 24.386719 C 9.632812 24.945312 9.078125 25.386719 8.5 25.371094 C 7.921875 25.355469 7.390625 24.886719 7.308594 24.324219 C 7.164062 24.582031 6.78125 24.671875 6.535156 24.507812 C 5.996094 24.09375 5.921875 23.203125 6.390625 22.707031 C 6.019531 23.132812 5.296875 23.195312 4.855469 22.84375 C 4.410156 22.492188 4.320312 21.78125 4.660156 21.328125 C 4.4375 21.410156 4.183594 21.382812 3.972656 21.273438 C 3.957031 21.355469 3.957031 21.441406 3.976562 21.527344 L 4 21.605469 C 3.597656 21.789062 3.394531 22.304688 3.5625 22.710938 C 3.730469 23.113281 4.246094 23.335938 4.660156 23.183594 C 4.320312 23.632812 4.410156 24.34375 4.855469 24.695312 C 5.296875 25.050781 6.019531 24.984375 6.390625 24.5625 C 5.921875 25.054688 5.996094 25.945312 6.535156 26.363281 C 6.78125 26.527344 7.164062 26.433594 7.308594 26.175781 C 7.390625 26.742188 7.921875 27.210938 8.5 27.226562 C 9.078125 27.242188 9.632812 26.800781 9.742188 26.238281 C 10.390625 26.449219 10.984375 25.683594 10.957031 25.011719 C 10.941406 24.65625 10.824219 24.324219 10.691406 23.992188 C 10.460938 24.308594 10.113281 24.503906 9.742188 24.386719 " fill-opacity="1" fill-rule="nonzero"/><path fill="#61981d" d="M 12.503906 20.664062 C 12.015625 20.875 11.355469 20.746094 11.082031 20.277344 L 11.277344 20.761719 C 11.515625 21.339844 10.6875 21.785156 10.351562 21.257812 C 10.351562 21.253906 10.347656 21.25 10.34375 21.246094 C 10.539062 21.890625 10.925781 22.488281 10.957031 23.160156 C 10.957031 23.210938 10.957031 23.261719 10.949219 23.3125 C 11.210938 23.21875 11.410156 22.9375 11.277344 22.613281 L 11.082031 22.128906 C 11.460938 22.785156 12.59375 22.777344 12.964844 22.125 C 13.25 21.625 12.984375 20.953125 12.503906 20.664062 " fill-opacity="1" fill-rule="nonzero"/><path fill="#528221" d="M 4.660156 22.695312 C 4.246094 22.847656 3.730469 22.625 3.5625 22.222656 C 3.554688 22.199219 3.550781 22.179688 3.542969 22.15625 C 3.488281 22.339844 3.488281 22.535156 3.5625 22.710938 C 3.703125 23.050781 4.09375 23.257812 4.464844 23.222656 C 4.480469 23.035156 4.542969 22.847656 4.660156 22.695312 " fill-opacity="1" fill-rule="nonzero"/><path fill="#528221" d="M 12.964844 21.636719 C 12.59375 22.292969 11.460938 22.296875 11.082031 21.644531 L 11.277344 22.125 C 11.316406 22.21875 11.324219 22.308594 11.316406 22.390625 C 11.800781 22.761719 12.652344 22.675781 12.964844 22.125 C 13.089844 21.910156 13.105469 21.664062 13.050781 21.429688 C 13.03125 21.5 13.003906 21.570312 12.964844 21.636719 " fill-opacity="1" fill-rule="nonzero"/><path fill="#528221" d="M 6.28125 24.21875 C 6.277344 24.210938 6.269531 24.203125 6.265625 24.191406 C 5.871094 24.503906 5.25 24.523438 4.855469 24.207031 C 4.65625 24.050781 4.53125 23.820312 4.484375 23.574219 C 4.390625 23.976562 4.527344 24.433594 4.855469 24.695312 C 5.195312 24.96875 5.703125 24.992188 6.089844 24.792969 C 6.105469 24.585938 6.167969 24.390625 6.28125 24.21875 " fill-opacity="1" fill-rule="nonzero"/><path fill="#528221" d="M 9.742188 25.75 C 9.632812 26.3125 9.078125 26.753906 8.5 26.738281 C 7.921875 26.722656 7.390625 26.253906 7.308594 25.6875 C 7.164062 25.945312 6.78125 26.039062 6.535156 25.875 C 6.300781 25.695312 6.164062 25.425781 6.109375 25.140625 C 6.023438 25.585938 6.171875 26.082031 6.535156 26.363281 C 6.78125 26.527344 7.164062 26.433594 7.308594 26.175781 C 7.390625 26.742188 7.921875 27.210938 8.5 27.226562 C 9.078125 27.242188 9.632812 26.800781 9.742188 26.238281 C 10.390625 26.449219 10.984375 25.683594 10.957031 25.011719 C 10.953125 24.941406 10.941406 24.871094 10.933594 24.800781 C 10.820312 25.386719 10.300781 25.933594 9.742188 25.75 " fill-opacity="1" fill-rule="nonzero"/><g clip-path="url(#895138f70a)"><path fill="#68a92b" d="M 2.269531 17.722656 C 2.140625 17.390625 2.28125 16.976562 2.585938 16.792969 C 2.890625 16.605469 3.328125 16.667969 3.570312 16.929688 C 3.625 17.257812 3.527344 17.609375 3.304688 17.855469 C 3.519531 17.519531 4.082031 17.488281 4.335938 17.796875 C 4.589844 18.105469 4.441406 18.640625 4.066406 18.78125 C 4.472656 18.671875 4.933594 19.027344 4.929688 19.445312 C 4.925781 19.863281 4.453125 20.207031 4.050781 20.089844 C 4.449219 20.433594 4.398438 21.160156 3.953125 21.449219 C 3.507812 21.738281 2.8125 21.496094 2.652344 20.996094 C 2.625 21.402344 2.089844 21.679688 1.738281 21.46875 C 1.382812 21.261719 1.375 20.664062 1.722656 20.449219 C 1.386719 20.53125 1.011719 20.234375 1.019531 19.890625 C 1.027344 19.546875 1.417969 19.265625 1.75 19.363281 C 1.367188 19.058594 1.136719 18.578125 1.132812 18.09375 C 1.132812 17.75 1.277344 17.371094 1.597656 17.238281 C 1.917969 17.105469 2.367188 17.394531 2.269531 17.722656 " fill-opacity="1" fill-rule="nonzero"/></g><path fill="#61981d" d="M 2.644531 16.765625 C 2.625 16.773438 2.605469 16.78125 2.585938 16.792969 C 2.574219 16.800781 2.5625 16.8125 2.546875 16.820312 C 2.523438 16.855469 2.5 16.894531 2.472656 16.929688 C 2.515625 16.859375 2.578125 16.808594 2.644531 16.765625 " fill-opacity="1" fill-rule="nonzero"/><path fill="#61981d" d="M 3.234375 17.851562 C 3.261719 17.84375 3.289062 17.84375 3.316406 17.84375 C 3.332031 17.824219 3.339844 17.804688 3.351562 17.789062 C 3.316406 17.816406 3.277344 17.835938 3.234375 17.851562 " fill-opacity="1" fill-rule="nonzero"/><path fill="#61981d" d="M 3.570312 16.976562 C 3.570312 16.960938 3.574219 16.945312 3.570312 16.929688 C 3.550781 16.910156 3.53125 16.894531 3.511719 16.878906 C 3.535156 16.910156 3.554688 16.941406 3.570312 16.976562 " fill-opacity="1" fill-rule="nonzero"/><g clip-path="url(#e5388b68fc)"><path fill="#61981d" d="M 4.929688 19.445312 C 4.933594 19.027344 4.472656 18.671875 4.066406 18.78125 C 4.441406 18.640625 4.589844 18.105469 4.335938 17.796875 C 4.117188 17.53125 3.671875 17.519531 3.414062 17.734375 C 3.40625 17.746094 3.394531 17.753906 3.382812 17.765625 C 3.359375 17.789062 3.335938 17.8125 3.316406 17.84375 C 3.699219 17.796875 4.101562 18.128906 4.097656 18.515625 C 4.09375 18.933594 3.621094 19.277344 3.21875 19.160156 C 3.617188 19.507812 3.566406 20.230469 3.121094 20.519531 C 2.675781 20.808594 1.980469 20.566406 1.820312 20.066406 C 1.808594 20.226562 1.71875 20.363281 1.59375 20.460938 C 1.636719 20.460938 1.679688 20.457031 1.722656 20.449219 C 1.375 20.664062 1.382812 21.261719 1.738281 21.46875 C 2.089844 21.679688 2.625 21.402344 2.652344 20.996094 C 2.8125 21.496094 3.507812 21.738281 3.953125 21.449219 C 4.398438 21.160156 4.449219 20.433594 4.050781 20.089844 C 4.453125 20.207031 4.925781 19.863281 4.929688 19.445312 " fill-opacity="1" fill-rule="nonzero"/></g><path fill="#68a92b" d="M 25.191406 8.511719 C 25.511719 8.121094 26.238281 8.1875 26.476562 8.628906 C 26.714844 9.070312 26.371094 9.707031 25.863281 9.75 C 26.277344 9.597656 26.796875 9.859375 26.910156 10.285156 C 27.027344 10.707031 26.707031 11.191406 26.269531 11.261719 C 26.589844 11.125 27.003906 11.273438 27.164062 11.582031 C 27.320312 11.886719 27.203125 12.304688 26.90625 12.484375 C 26.769531 12.480469 26.632812 12.476562 26.496094 12.472656 C 27.144531 12.582031 27.472656 13.492188 27.042969 13.984375 C 26.613281 14.476562 25.65625 14.285156 25.449219 13.667969 C 25.957031 14.03125 25.851562 14.949219 25.273438 15.1875 C 24.695312 15.425781 23.957031 14.855469 24.054688 14.242188 C 24.207031 14.949219 23.558594 15.710938 22.828125 15.683594 C 22.097656 15.660156 21.503906 14.859375 21.703125 14.160156 C 21.320312 14.324219 20.925781 14.488281 20.511719 14.484375 C 20.097656 14.476562 19.65625 14.25 19.539062 13.855469 C 19.425781 13.460938 19.800781 12.972656 20.203125 13.082031 C 19.816406 12.824219 19.730469 12.226562 20.019531 11.867188 C 20.3125 11.511719 20.921875 11.472656 21.261719 11.789062 C 20.933594 11.765625 20.703125 11.390625 20.777344 11.074219 C 20.851562 10.757812 21.15625 10.527344 21.480469 10.472656 C 21.804688 10.414062 22.136719 10.503906 22.433594 10.640625 C 22.03125 10.382812 21.871094 9.808594 22.085938 9.382812 C 22.304688 8.957031 22.863281 8.734375 23.316406 8.898438 C 23.292969 8.445312 23.636719 8.003906 24.085938 7.910156 C 24.535156 7.816406 25.03125 8.085938 25.191406 8.511719 " fill-opacity="1" fill-rule="nonzero"/><path fill="#61981d" d="M 21.34375 14.21875 C 20.746094 14.199219 20.242188 13.660156 20.1875 13.082031 C 19.792969 12.988281 19.425781 13.464844 19.539062 13.855469 C 19.65625 14.25 20.097656 14.476562 20.511719 14.484375 C 20.914062 14.488281 21.292969 14.335938 21.664062 14.179688 C 21.558594 14.207031 21.453125 14.222656 21.34375 14.21875 " fill-opacity="1" fill-rule="nonzero"/><path fill="#61981d" d="M 26.496094 12.472656 C 26.632812 12.476562 26.769531 12.480469 26.90625 12.484375 C 27.203125 12.304688 27.320312 11.886719 27.164062 11.582031 C 27.023438 11.316406 26.699219 11.171875 26.40625 11.222656 C 26.769531 11.085938 27.011719 10.660156 26.910156 10.285156 C 26.8125 9.914062 26.40625 9.667969 26.027344 9.710938 C 26.441406 9.5625 26.6875 9.023438 26.476562 8.628906 C 26.242188 8.199219 25.550781 8.125 25.222656 8.484375 C 25.316406 8.578125 25.394531 8.6875 25.429688 8.816406 C 25.53125 9.195312 25.285156 9.621094 24.921875 9.757812 C 25.214844 9.707031 25.542969 9.851562 25.679688 10.113281 C 25.839844 10.421875 25.722656 10.839844 25.425781 11.019531 C 25.285156 11.015625 25.148438 11.007812 25.011719 11.003906 C 25.660156 11.113281 25.992188 12.027344 25.5625 12.519531 C 25.238281 12.886719 24.617188 12.871094 24.238281 12.578125 C 24.382812 13 24.214844 13.546875 23.789062 13.722656 C 23.304688 13.921875 22.714844 13.554688 22.589844 13.070312 C 22.550781 13.5625 22.175781 14.019531 21.699219 14.167969 C 21.507812 14.863281 22.097656 15.660156 22.828125 15.683594 C 23.457031 15.707031 24.023438 15.144531 24.074219 14.535156 C 24.199219 15.019531 24.789062 15.386719 25.273438 15.1875 C 25.699219 15.011719 25.867188 14.464844 25.722656 14.046875 C 26.097656 14.339844 26.722656 14.355469 27.042969 13.984375 C 27.472656 13.492188 27.144531 12.582031 26.496094 12.472656 " fill-opacity="1" fill-rule="nonzero"/><path fill="#528221" d="M 25.011719 11.003906 C 25.0625 11.011719 25.109375 11.027344 25.15625 11.046875 C 25.148438 11.035156 25.144531 11.019531 25.140625 11.007812 C 25.097656 11.007812 25.054688 11.007812 25.011719 11.003906 " fill-opacity="1" fill-rule="nonzero"/><path fill="#528221" d="M 25.167969 9.605469 C 25.097656 9.671875 25.011719 9.722656 24.921875 9.757812 C 25.023438 9.738281 25.128906 9.746094 25.230469 9.773438 C 25.214844 9.71875 25.199219 9.664062 25.175781 9.617188 C 25.171875 9.613281 25.171875 9.609375 25.167969 9.605469 " fill-opacity="1" fill-rule="nonzero"/><path fill="#528221" d="M 26.40625 9.785156 C 26.507812 10.164062 26.265625 10.585938 25.902344 10.722656 C 26.191406 10.671875 26.511719 10.8125 26.652344 11.070312 C 26.871094 10.875 26.988281 10.566406 26.910156 10.285156 C 26.84375 10.035156 26.640625 9.847656 26.398438 9.757812 C 26.398438 9.769531 26.40625 9.777344 26.40625 9.785156 " fill-opacity="1" fill-rule="nonzero"/><path fill="#528221" d="M 26.402344 11.984375 C 26.265625 11.980469 26.128906 11.976562 25.988281 11.972656 C 26.273438 12.019531 26.496094 12.222656 26.621094 12.476562 C 26.71875 12.476562 26.8125 12.480469 26.90625 12.484375 C 27.203125 12.304688 27.320312 11.886719 27.164062 11.582031 C 27.074219 11.40625 26.902344 11.285156 26.710938 11.238281 C 26.773438 11.515625 26.652344 11.835938 26.402344 11.984375 " fill-opacity="1" fill-rule="nonzero"/><path fill="#528221" d="M 25.523438 9.214844 C 25.8125 9.179688 26.117188 9.316406 26.289062 9.546875 C 26.53125 9.3125 26.636719 8.929688 26.476562 8.628906 C 26.382812 8.457031 26.21875 8.347656 26.03125 8.292969 C 26.113281 8.660156 25.882812 9.082031 25.523438 9.214844 " fill-opacity="1" fill-rule="nonzero"/><path fill="#528221" d="M 26.636719 12.511719 C 26.78125 12.828125 26.773438 13.21875 26.539062 13.484375 C 26.21875 13.855469 25.59375 13.839844 25.21875 13.546875 C 25.363281 13.96875 25.195312 14.511719 24.765625 14.6875 C 24.554688 14.777344 24.324219 14.75 24.121094 14.65625 C 24.304688 15.078125 24.832031 15.367188 25.273438 15.1875 C 25.699219 15.011719 25.867188 14.464844 25.722656 14.046875 C 26.097656 14.339844 26.722656 14.355469 27.042969 13.984375 C 27.441406 13.53125 27.1875 12.71875 26.636719 12.511719 " fill-opacity="1" fill-rule="nonzero"/><path fill="#528221" d="M 23.570312 14.039062 C 23.519531 14.644531 22.953125 15.207031 22.324219 15.183594 C 22.148438 15.179688 21.984375 15.128906 21.832031 15.046875 C 22.039062 15.402344 22.410156 15.667969 22.828125 15.683594 C 23.425781 15.703125 23.960938 15.199219 24.054688 14.628906 C 23.820312 14.503906 23.632812 14.285156 23.570312 14.039062 " fill-opacity="1" fill-rule="nonzero"/><path fill="#528221" d="M 22.636719 13.191406 C 22.621094 13.152344 22.601562 13.113281 22.589844 13.070312 C 22.585938 13.101562 22.578125 13.132812 22.574219 13.164062 C 22.59375 13.175781 22.617188 13.183594 22.636719 13.191406 " fill-opacity="1" fill-rule="nonzero"/><path fill="#528221" d="M 21.1875 14.195312 C 20.96875 14.15625 20.765625 14.046875 20.601562 13.890625 C 20.40625 13.949219 20.210938 13.988281 20.007812 13.984375 C 19.855469 13.984375 19.699219 13.949219 19.554688 13.890625 C 19.6875 14.261719 20.109375 14.476562 20.511719 14.484375 C 20.757812 14.488281 21 14.425781 21.234375 14.34375 C 21.214844 14.296875 21.199219 14.246094 21.1875 14.195312 " fill-opacity="1" fill-rule="nonzero"/><path fill="#68a92b" d="M 20.371094 21.945312 L 20.246094 21.976562 C 19.730469 22.097656 19.238281 21.628906 19.394531 21.128906 C 19.398438 21.125 19.398438 21.121094 19.398438 21.117188 C 19.515625 20.765625 19.878906 20.511719 20.253906 20.519531 C 19.871094 20.875 19.285156 21.007812 18.78125 20.847656 C 18.28125 20.691406 17.882812 20.246094 17.785156 19.734375 C 17.734375 19.472656 17.761719 19.183594 17.921875 18.96875 C 18.082031 18.753906 18.394531 18.640625 18.636719 18.757812 C 18.277344 18.734375 17.964844 18.410156 17.957031 18.054688 C 17.949219 17.699219 18.242188 17.359375 18.601562 17.320312 C 18.613281 17.066406 18.832031 16.835938 19.085938 16.808594 C 18.6875 16.496094 18.683594 15.808594 19.078125 15.492188 C 19.476562 15.175781 20.15625 15.320312 20.378906 15.773438 C 20.183594 15.242188 20.648438 14.589844 21.21875 14.585938 C 21.792969 14.582031 22.257812 15.234375 22.066406 15.765625 C 22.007812 15.246094 22.511719 14.730469 23.042969 14.78125 C 23.574219 14.828125 23.976562 15.421875 23.816406 15.925781 C 23.871094 15.234375 24.878906 14.84375 25.394531 15.316406 C 25.910156 15.785156 25.597656 16.808594 24.90625 16.917969 C 25.261719 16.527344 26.027344 16.6875 26.195312 17.183594 C 26.367188 17.683594 25.847656 18.265625 25.324219 18.164062 C 25.878906 18.382812 26.144531 19.125 25.851562 19.636719 C 25.558594 20.152344 24.785156 20.316406 24.304688 19.964844 C 24.816406 20.132812 25.042969 20.839844 24.726562 21.269531 C 24.410156 21.699219 23.660156 21.699219 23.339844 21.273438 C 23.886719 21.550781 24.035156 22.386719 23.617188 22.832031 C 23.195312 23.28125 22.347656 23.195312 22.023438 22.675781 L 22.023438 22.683594 C 22.164062 23.363281 21.484375 23.960938 20.835938 23.699219 C 20.734375 23.660156 20.640625 23.605469 20.554688 23.539062 C 20.09375 23.164062 20.007812 22.414062 20.371094 21.945312 " fill-opacity="1" fill-rule="nonzero"/><path fill="#61981d" d="M 19.699219 20.351562 L 19.574219 20.382812 C 19.058594 20.503906 18.570312 20.035156 18.726562 19.535156 C 18.726562 19.53125 18.726562 19.527344 18.726562 19.523438 C 18.757812 19.441406 18.796875 19.363281 18.851562 19.289062 C 18.605469 19.339844 18.347656 19.332031 18.109375 19.253906 C 18.011719 19.226562 17.921875 19.179688 17.832031 19.128906 C 17.753906 19.316406 17.746094 19.53125 17.785156 19.734375 C 17.882812 20.246094 18.28125 20.691406 18.78125 20.847656 C 19.011719 20.921875 19.253906 20.929688 19.488281 20.890625 C 19.511719 20.695312 19.578125 20.507812 19.699219 20.351562 " fill-opacity="1" fill-rule="nonzero"/><path fill="#61981d" d="M 26.195312 17.183594 C 26.078125 16.835938 25.671875 16.660156 25.316406 16.714844 C 25.695312 16.367188 25.792969 15.679688 25.394531 15.316406 C 25.230469 15.164062 25.015625 15.101562 24.796875 15.109375 C 25.109375 15.121094 25.425781 15.292969 25.527344 15.589844 C 25.695312 16.089844 25.175781 16.671875 24.65625 16.570312 C 25.207031 16.789062 25.472656 17.53125 25.179688 18.042969 C 24.929688 18.488281 24.3125 18.671875 23.839844 18.480469 C 24.195312 18.746094 24.324219 19.3125 24.054688 19.675781 C 23.804688 20.011719 23.292969 20.082031 22.925781 19.890625 C 23.246094 20.257812 23.289062 20.875 22.945312 21.238281 C 22.523438 21.6875 21.675781 21.601562 21.351562 21.082031 L 21.355469 21.089844 C 21.484375 21.738281 20.875 22.308594 20.253906 22.136719 C 20.035156 22.597656 20.152344 23.210938 20.554688 23.539062 C 20.640625 23.605469 20.734375 23.660156 20.835938 23.699219 C 21.484375 23.960938 22.164062 23.363281 22.023438 22.683594 L 22.023438 22.675781 C 22.347656 23.195312 23.195312 23.28125 23.617188 22.832031 C 23.957031 22.46875 23.917969 21.851562 23.597656 21.484375 C 23.960938 21.675781 24.476562 21.605469 24.726562 21.269531 C 24.996094 20.902344 24.867188 20.339844 24.511719 20.074219 C 24.984375 20.265625 25.597656 20.082031 25.851562 19.636719 C 26.144531 19.125 25.878906 18.382812 25.324219 18.164062 C 25.847656 18.265625 26.367188 17.683594 26.195312 17.183594 " fill-opacity="1" fill-rule="nonzero"/><path fill="#61981d" d="M 19.886719 21.945312 C 19.59375 21.707031 19.453125 21.320312 19.480469 20.953125 C 19.449219 21.003906 19.417969 21.058594 19.398438 21.117188 C 19.398438 21.121094 19.398438 21.125 19.394531 21.128906 C 19.273438 21.519531 19.550781 21.890625 19.925781 21.972656 C 19.914062 21.964844 19.898438 21.953125 19.886719 21.945312 " fill-opacity="1" fill-rule="nonzero"/><path fill="#68a92b" d="M 13.230469 24.046875 L 13.226562 24.046875 C 12.84375 24.101562 12.496094 23.824219 12.46875 23.441406 C 12.460938 23.308594 12.464844 23.175781 12.484375 23.042969 C 12.542969 22.601562 13.035156 22.332031 13.429688 22.546875 C 13.558594 22.613281 13.667969 22.714844 13.742188 22.84375 C 13.484375 22.519531 13.425781 22.050781 13.597656 21.671875 C 13.65625 21.546875 13.742188 21.429688 13.84375 21.332031 C 14.148438 21.042969 14.648438 21.113281 14.867188 21.472656 L 14.902344 21.53125 C 14.789062 21.007812 15.308594 20.449219 15.847656 20.515625 C 16.386719 20.582031 16.75 21.25 16.507812 21.730469 C 16.464844 21.210938 17.125 20.78125 17.589844 21.019531 C 18.058594 21.257812 18.082031 22.039062 17.628906 22.304688 C 17.878906 21.71875 18.753906 21.519531 19.238281 21.933594 C 19.515625 22.171875 19.609375 22.5625 19.539062 22.914062 C 19.480469 23.191406 19.640625 23.46875 19.890625 23.605469 C 20.035156 23.683594 20.15625 23.796875 20.230469 23.941406 C 20.433594 24.324219 20.28125 24.855469 19.90625 25.074219 C 19.527344 25.296875 18.984375 25.175781 18.742188 24.8125 C 18.984375 25.113281 19.144531 25.496094 19.09375 25.875 C 19.042969 26.257812 18.742188 26.613281 18.359375 26.65625 C 17.972656 26.695312 17.574219 26.339844 17.640625 25.960938 C 18.09375 26.457031 17.84375 27.386719 17.203125 27.597656 C 16.789062 27.730469 16.328125 27.53125 16.070312 27.195312 C 15.894531 26.964844 15.597656 26.839844 15.324219 26.925781 C 15.105469 26.996094 14.867188 27 14.652344 26.925781 C 14.382812 26.832031 14.160156 26.621094 14.039062 26.363281 C 13.925781 26.121094 13.992188 25.832031 14.179688 25.640625 C 14.203125 25.621094 14.222656 25.601562 14.242188 25.582031 C 13.835938 25.847656 13.21875 25.722656 12.953125 25.320312 C 12.6875 24.914062 12.820312 24.304688 13.230469 24.046875 " fill-opacity="1" fill-rule="nonzero"/><path fill="#61981d" d="M 18.359375 25.109375 C 18.179688 25.128906 18.003906 25.0625 17.867188 24.949219 C 17.910156 25.40625 17.652344 25.90625 17.203125 26.054688 C 16.789062 26.1875 16.328125 25.988281 16.070312 25.648438 C 15.894531 25.421875 15.597656 25.292969 15.324219 25.382812 C 15.105469 25.453125 14.867188 25.457031 14.652344 25.382812 C 14.382812 25.289062 14.160156 25.078125 14.039062 24.820312 C 13.925781 24.578125 13.992188 24.289062 14.179688 24.097656 C 14.203125 24.078125 14.222656 24.058594 14.242188 24.039062 C 13.835938 24.304688 13.21875 24.179688 12.953125 23.773438 C 12.6875 23.371094 12.820312 22.761719 13.230469 22.503906 L 13.226562 22.503906 C 13.144531 22.515625 13.0625 22.507812 12.984375 22.492188 C 12.734375 22.554688 12.519531 22.761719 12.484375 23.042969 C 12.464844 23.175781 12.460938 23.308594 12.46875 23.441406 C 12.496094 23.824219 12.84375 24.101562 13.226562 24.046875 L 13.230469 24.046875 C 12.820312 24.304688 12.6875 24.914062 12.953125 25.320312 C 13.21875 25.722656 13.835938 25.847656 14.242188 25.582031 C 14.222656 25.601562 14.203125 25.621094 14.179688 25.640625 C 13.992188 25.832031 13.925781 26.121094 14.039062 26.363281 C 14.160156 26.621094 14.382812 26.832031 14.652344 26.925781 C 14.867188 27 15.105469 26.996094 15.324219 26.925781 C 15.597656 26.839844 15.894531 26.964844 16.070312 27.195312 C 16.328125 27.53125 16.789062 27.730469 17.203125 27.597656 C 17.652344 27.449219 17.910156 26.949219 17.867188 26.496094 C 18.003906 26.605469 18.179688 26.671875 18.359375 26.65625 C 18.742188 26.613281 19.042969 26.257812 19.09375 25.875 C 19.140625 25.53125 19.011719 25.179688 18.800781 24.894531 C 18.679688 25.011719 18.527344 25.09375 18.359375 25.109375 " fill-opacity="1" fill-rule="nonzero"/><path fill="#61981d" d="M 19.890625 23.605469 C 19.867188 23.59375 19.847656 23.578125 19.828125 23.566406 C 19.457031 23.730469 18.96875 23.609375 18.742188 23.269531 C 18.984375 23.570312 19.144531 23.953125 19.09375 24.332031 C 19.066406 24.542969 18.960938 24.742188 18.808594 24.890625 C 19.070312 25.1875 19.558594 25.28125 19.90625 25.074219 C 20.28125 24.855469 20.433594 24.324219 20.230469 23.941406 C 20.15625 23.796875 20.035156 23.683594 19.890625 23.605469 " fill-opacity="1" fill-rule="nonzero"/><g clip-path="url(#1497e324e1)"><path fill="#68a92b" d="M 11.078125 27.660156 C 11.089844 27.953125 11.105469 28.246094 11.117188 28.539062 C 11.273438 28.867188 11.664062 29.0625 12.019531 28.992188 C 12.375 28.921875 12.660156 28.59375 12.675781 28.234375 C 12.585938 28.5625 12.816406 28.941406 13.152344 29.019531 C 13.488281 29.097656 13.863281 28.855469 13.925781 28.523438 C 13.992188 28.1875 13.734375 27.824219 13.394531 27.773438 C 13.679688 28.003906 14.171875 27.894531 14.332031 27.566406 C 14.488281 27.238281 14.261719 26.789062 13.902344 26.71875 C 14.234375 26.339844 14.070312 25.660156 13.601562 25.46875 C 13.136719 25.277344 12.535156 25.648438 12.5 26.144531 C 12.222656 25.871094 11.90625 25.582031 11.515625 25.5625 C 11.125 25.539062 10.722656 25.980469 10.933594 26.304688 C 10.65625 26.019531 10.113281 26.066406 9.886719 26.390625 C 9.660156 26.71875 9.8125 27.234375 10.183594 27.390625 C 9.902344 27.644531 10.027344 28.1875 10.390625 28.296875 C 10.753906 28.40625 11.164062 28.027344 11.078125 27.660156 " fill-opacity="1" fill-rule="nonzero"/></g><path fill="#61981d" d="M 13.902344 25.882812 C 13.941406 25.890625 13.980469 25.90625 14.015625 25.921875 C 14 25.878906 13.980469 25.835938 13.957031 25.796875 C 13.9375 25.824219 13.925781 25.855469 13.902344 25.882812 " fill-opacity="1" fill-rule="nonzero"/><g clip-path="url(#218cca3c1a)"><path fill="#61981d" d="M 13.152344 28.183594 C 12.859375 28.117188 12.648438 27.824219 12.65625 27.53125 C 12.585938 27.835938 12.328125 28.09375 12.019531 28.15625 C 11.664062 28.226562 11.273438 28.03125 11.117188 27.707031 C 11.105469 27.460938 11.097656 27.21875 11.085938 26.976562 C 11.050781 27.285156 10.703125 27.554688 10.390625 27.460938 C 10.027344 27.351562 9.902344 26.808594 10.183594 26.554688 C 10.078125 26.511719 9.992188 26.4375 9.925781 26.347656 C 9.914062 26.363281 9.898438 26.375 9.886719 26.390625 C 9.660156 26.71875 9.8125 27.234375 10.183594 27.390625 C 9.902344 27.644531 10.027344 28.1875 10.390625 28.296875 C 10.703125 28.390625 11.050781 28.121094 11.085938 27.8125 C 11.097656 28.054688 11.105469 28.296875 11.117188 28.539062 C 11.273438 28.867188 11.664062 29.0625 12.019531 28.992188 C 12.328125 28.929688 12.585938 28.671875 12.65625 28.367188 C 12.648438 28.660156 12.859375 28.953125 13.152344 29.019531 C 13.488281 29.097656 13.863281 28.855469 13.925781 28.523438 C 13.964844 28.332031 13.894531 28.132812 13.765625 27.984375 C 13.609375 28.148438 13.371094 28.234375 13.152344 28.183594 " fill-opacity="1" fill-rule="nonzero"/></g><path fill="#61981d" d="M 13.65625 27.050781 C 13.851562 27.195312 13.972656 27.445312 13.925781 27.6875 C 13.914062 27.757812 13.882812 27.828125 13.84375 27.886719 C 14.046875 27.863281 14.242188 27.75 14.332031 27.566406 C 14.4375 27.34375 14.367188 27.074219 14.199219 26.894531 C 14.054688 27.023438 13.847656 27.082031 13.65625 27.050781 " fill-opacity="1" fill-rule="nonzero"/><g clip-path="url(#fa79cfef18)"><path fill="#68a92b" d="M 26.523438 15.339844 C 26.289062 15.125 26.230469 14.75 26.394531 14.476562 C 26.554688 14.207031 26.917969 14.074219 27.21875 14.175781 C 27.425781 13.785156 28.003906 13.644531 28.371094 13.898438 C 28.734375 14.15625 28.792969 14.742188 28.488281 15.0625 C 28.417969 15.09375 28.347656 15.121094 28.277344 15.148438 C 28.648438 14.988281 29.136719 15.199219 29.273438 15.578125 C 29.410156 15.957031 29.167969 16.421875 28.777344 16.535156 C 28.386719 16.644531 27.929688 16.378906 27.84375 15.984375 C 28.035156 16.300781 27.863281 16.769531 27.511719 16.886719 C 27.15625 17.003906 26.730469 16.734375 26.691406 16.367188 C 26.351562 16.367188 25.980469 16.175781 25.910156 15.847656 C 25.835938 15.519531 26.234375 15.15625 26.523438 15.339844 " fill-opacity="1" fill-rule="nonzero"/></g><g clip-path="url(#73966ba830)"><path fill="#61981d" d="M 29.21875 15.464844 C 29.125 15.636719 28.96875 15.777344 28.777344 15.832031 C 28.445312 15.925781 28.0625 15.742188 27.90625 15.445312 C 27.972656 15.738281 27.804688 16.085938 27.511719 16.183594 C 27.15625 16.300781 26.730469 16.03125 26.691406 15.667969 C 26.460938 15.667969 26.222656 15.578125 26.066406 15.417969 C 25.949219 15.527344 25.875 15.691406 25.910156 15.847656 C 25.980469 16.175781 26.351562 16.367188 26.691406 16.367188 C 26.730469 16.734375 27.15625 17.003906 27.511719 16.886719 C 27.804688 16.789062 27.972656 16.441406 27.90625 16.144531 C 28.0625 16.445312 28.445312 16.628906 28.777344 16.535156 C 29.167969 16.421875 29.410156 15.957031 29.273438 15.578125 C 29.257812 15.539062 29.238281 15.5 29.21875 15.464844 " fill-opacity="1" fill-rule="nonzero"/></g><path fill="#68a92b" d="M 20.265625 25.886719 C 19.804688 25.738281 19.605469 25.09375 19.894531 24.710938 C 20.1875 24.328125 20.867188 24.34375 21.140625 24.738281 C 20.890625 24.308594 21.308594 23.675781 21.808594 23.734375 C 22.308594 23.789062 22.570312 24.5 22.226562 24.863281 C 22.570312 24.613281 23.144531 24.84375 23.214844 25.257812 C 23.285156 25.671875 22.820312 26.078125 22.414062 25.953125 C 22.890625 26.042969 23.117188 26.730469 22.78125 27.078125 C 22.445312 27.429688 21.738281 27.242188 21.625 26.773438 C 21.597656 27.4375 20.710938 27.886719 20.148438 27.523438 C 19.589844 27.15625 19.660156 26.171875 20.265625 25.886719 " fill-opacity="1" fill-rule="nonzero"/><path fill="#61981d" d="M 23.214844 25.257812 C 23.164062 24.960938 22.851562 24.757812 22.550781 24.761719 C 22.5 25.113281 22.101562 25.402344 21.746094 25.296875 C 22.226562 25.382812 22.453125 26.074219 22.117188 26.421875 C 21.78125 26.773438 21.074219 26.585938 20.960938 26.117188 C 20.9375 26.664062 20.328125 27.066406 19.800781 26.980469 C 19.847656 27.199219 19.957031 27.398438 20.148438 27.523438 C 20.710938 27.886719 21.597656 27.4375 21.625 26.773438 C 21.738281 27.242188 22.445312 27.429688 22.78125 27.078125 C 23.117188 26.730469 22.890625 26.042969 22.414062 25.953125 C 22.820312 26.078125 23.285156 25.671875 23.214844 25.257812 " fill-opacity="1" fill-rule="nonzero"/><path fill="#7aba3b" d="M 9.304688 13.609375 C 9.140625 13.277344 9.265625 12.832031 9.574219 12.628906 C 9.886719 12.421875 10.347656 12.480469 10.597656 12.757812 C 10.257812 12.332031 10.53125 11.589844 11.070312 11.480469 C 11.605469 11.375 12.152344 11.953125 12.007812 12.476562 C 12.1875 12.019531 12.757812 11.753906 13.230469 11.910156 C 13.699219 12.070312 13.988281 12.621094 13.851562 13.09375 C 13.972656 12.785156 14.367188 12.617188 14.675781 12.738281 C 14.988281 12.855469 15.160156 13.246094 15.039062 13.554688 C 15.378906 13.320312 15.921875 13.488281 16.066406 13.871094 C 16.210938 14.257812 15.90625 14.734375 15.496094 14.777344 C 15.632812 14.578125 15.613281 14.289062 15.453125 14.113281 C 15.289062 13.933594 15 13.886719 14.785156 14.003906 C 14.886719 13.730469 14.746094 13.390625 14.480469 13.257812 C 14.214844 13.128906 13.859375 13.226562 13.695312 13.472656 C 13.757812 12.980469 13.328125 12.480469 12.824219 12.46875 C 12.324219 12.453125 11.867188 12.925781 11.902344 13.421875 C 11.984375 13.171875 11.832031 12.871094 11.582031 12.789062 C 11.332031 12.703125 11.023438 12.851562 10.9375 13.097656 C 10.851562 13.339844 10.929688 13.683594 10.699219 13.800781 C 10.503906 13.898438 10.289062 13.730469 10.121094 13.59375 C 9.957031 13.453125 9.6875 13.335938 9.546875 13.496094 C 9.308594 13.765625 9.320312 14.210938 9.574219 14.46875 C 9.390625 14.503906 9.210938 14.535156 9.027344 14.570312 C 9.027344 14.667969 9.03125 14.765625 9.03125 14.863281 C 8.648438 14.851562 8.328125 14.449219 8.40625 14.074219 C 8.488281 13.703125 8.945312 13.464844 9.304688 13.609375 " fill-opacity="1" fill-rule="nonzero"/><path fill="#7aba3b" d="M 4.929688 12.1875 C 4.808594 11.980469 4.503906 11.902344 4.292969 12.027344 C 4.082031 12.148438 4.007812 12.449219 4.132812 12.65625 C 3.980469 12.429688 3.660156 12.324219 3.402344 12.421875 C 3.140625 12.515625 2.964844 12.796875 3 13.070312 C 2.753906 13.074219 2.527344 13.289062 2.511719 13.535156 C 2.5 13.777344 2.699219 14.015625 2.941406 14.050781 C 2.703125 14.230469 2.644531 14.605469 2.816406 14.851562 C 2.984375 15.097656 3.359375 15.175781 3.617188 15.019531 C 3.34375 15.140625 3.039062 15.21875 2.75 15.144531 C 2.460938 15.070312 2.207031 14.8125 2.222656 14.519531 C 2.238281 14.226562 2.601562 13.984375 2.855469 14.140625 C 2.566406 13.988281 2.367188 13.683594 2.34375 13.363281 C 2.316406 13.042969 2.46875 12.710938 2.730469 12.519531 C 2.753906 12.222656 3.003906 11.960938 3.300781 11.921875 C 3.597656 11.882812 3.90625 12.070312 4.007812 12.351562 C 3.796875 12.046875 3.933594 11.570312 4.277344 11.425781 C 4.617188 11.28125 5.0625 11.507812 5.140625 11.867188 C 5.082031 11.488281 5.503906 11.125 5.871094 11.234375 C 6.242188 11.34375 6.386719 11.878906 6.125 12.160156 C 6.058594 11.894531 5.792969 11.695312 5.515625 11.699219 C 5.242188 11.707031 4.984375 11.921875 4.929688 12.1875 " fill-opacity="1" fill-rule="nonzero"/><path fill="#7aba3b" d="M 16.902344 4.785156 C 16.726562 4.347656 16.171875 4.097656 15.71875 4.25 C 15.269531 4.40625 14.992188 4.945312 15.128906 5.398438 C 14.832031 5.089844 14.242188 5.152344 14.015625 5.515625 C 13.792969 5.878906 14.007812 6.429688 14.421875 6.546875 C 13.917969 6.492188 13.402344 6.839844 13.269531 7.324219 C 13.136719 7.808594 13.402344 8.367188 13.863281 8.574219 C 13.507812 8.691406 13.339844 9.175781 13.546875 9.484375 C 13.757812 9.792969 14.273438 9.828125 14.519531 9.546875 C 14.289062 9.5625 14.066406 9.363281 14.054688 9.136719 C 14.046875 8.90625 14.25 8.691406 14.480469 8.6875 C 14.042969 8.519531 13.789062 7.984375 13.9375 7.542969 C 14.089844 7.101562 14.625 6.832031 15.074219 6.964844 C 14.835938 6.765625 14.789062 6.375 14.976562 6.125 C 15.160156 5.875 15.550781 5.804688 15.816406 5.972656 C 15.78125 5.578125 16.09375 5.179688 16.492188 5.121094 C 16.886719 5.0625 17.304688 5.351562 17.386719 5.738281 C 17.492188 5.199219 18.3125 4.972656 18.6875 5.378906 C 18.941406 5.210938 19.300781 5.214844 19.554688 5.390625 C 19.847656 5.160156 19.847656 4.652344 19.554688 4.421875 C 19.265625 4.191406 18.765625 4.300781 18.601562 4.632812 C 18.625 4.148438 18.152344 3.699219 17.664062 3.742188 C 17.171875 3.785156 16.789062 4.3125 16.902344 4.785156 " fill-opacity="1" fill-rule="nonzero"/><path fill="#7aba3b" d="M 8.222656 5.085938 C 8.066406 4.777344 7.667969 4.609375 7.332031 4.714844 C 6.996094 4.820312 6.765625 5.183594 6.820312 5.527344 C 6.546875 5.460938 6.242188 5.625 6.148438 5.882812 C 6.050781 6.140625 6.179688 6.460938 6.425781 6.582031 C 6.15625 6.4375 5.78125 6.523438 5.597656 6.769531 C 5.417969 7.015625 5.449219 7.394531 5.671875 7.605469 C 5.535156 7.714844 5.507812 7.941406 5.617188 8.078125 C 5.726562 8.21875 5.957031 8.246094 6.097656 8.136719 C 5.964844 8.492188 5.378906 8.550781 5.179688 8.226562 C 4.980469 7.902344 5.300781 7.414062 5.679688 7.460938 C 5.289062 7.597656 4.820312 7.207031 4.890625 6.804688 C 4.957031 6.402344 5.523438 6.179688 5.851562 6.433594 C 5.476562 6.210938 5.410156 5.621094 5.722656 5.320312 C 6.039062 5.023438 6.632812 5.113281 6.84375 5.492188 C 6.515625 5.167969 6.617188 4.535156 7.03125 4.328125 C 7.441406 4.117188 8.019531 4.410156 8.089844 4.863281 C 8.007812 4.558594 7.933594 4.25 7.949219 3.9375 C 7.96875 3.625 8.089844 3.304688 8.335938 3.109375 C 8.582031 2.910156 8.964844 2.867188 9.214844 3.058594 C 9.464844 3.25 9.496094 3.683594 9.242188 3.871094 C 9.339844 3.535156 9.789062 3.359375 10.09375 3.527344 C 10.402344 3.699219 10.476562 4.167969 10.242188 4.425781 C 10.261719 4.203125 10.117188 3.972656 9.90625 3.894531 C 9.691406 3.816406 9.429688 3.890625 9.296875 4.074219 C 9.015625 3.859375 8.578125 3.882812 8.320312 4.125 C 8.0625 4.367188 8.019531 4.800781 8.222656 5.085938 " fill-opacity="1" fill-rule="nonzero"/><path fill="#7aba3b" d="M 8.472656 2.453125 C 8.515625 2.394531 8.558594 2.335938 8.597656 2.273438 C 8.789062 2.183594 9.023438 2.210938 9.191406 2.335938 C 9.355469 2.460938 9.4375 2.683594 9.398438 2.886719 C 9.164062 2.53125 8.613281 2.4375 8.273438 2.695312 C 8.175781 2.414062 7.820312 2.257812 7.542969 2.375 C 7.269531 2.492188 7.136719 2.855469 7.273438 3.117188 C 6.933594 3.136719 6.652344 3.480469 6.703125 3.8125 C 6.507812 3.671875 6.429688 3.398438 6.523438 3.179688 C 6.613281 2.964844 6.867188 2.828125 7.101562 2.867188 C 7.097656 2.699219 7.09375 2.535156 7.089844 2.367188 C 7.320312 2.167969 7.574219 1.957031 7.882812 1.925781 C 8.191406 1.898438 8.539062 2.15625 8.472656 2.453125 " fill-opacity="1" fill-rule="nonzero"/><path fill="#7aba3b" d="M 22.910156 11.953125 C 22.722656 11.738281 22.710938 11.394531 22.882812 11.171875 C 23.058594 10.949219 23.394531 10.871094 23.652344 10.992188 C 23.519531 10.789062 23.519531 10.511719 23.648438 10.308594 C 23.777344 10.105469 24.027344 9.984375 24.269531 10.015625 C 24.460938 9.867188 24.761719 9.890625 24.925781 10.0625 C 25.089844 10.238281 25.09375 10.535156 24.933594 10.714844 C 25.277344 10.667969 25.523438 10.273438 25.414062 9.949219 C 25.308594 9.625 24.875 9.453125 24.570312 9.617188 C 24.710938 9.371094 24.492188 9.007812 24.203125 9.015625 C 23.917969 9.023438 23.71875 9.398438 23.875 9.636719 C 23.664062 9.347656 23.164062 9.339844 22.945312 9.621094 C 22.726562 9.90625 22.867188 10.382812 23.203125 10.507812 C 22.910156 10.304688 22.457031 10.394531 22.257812 10.6875 C 22.058594 10.980469 22.152344 11.425781 22.453125 11.621094 C 22.167969 11.277344 21.558594 11.277344 21.273438 11.617188 C 20.984375 11.957031 21.097656 12.546875 21.488281 12.761719 C 21.222656 12.890625 21.089844 13.246094 21.214844 13.515625 C 21.335938 13.785156 21.691406 13.925781 21.96875 13.8125 C 21.78125 13.636719 21.722656 13.335938 21.832031 13.105469 C 21.941406 12.875 22.210938 12.726562 22.46875 12.757812 C 22.203125 12.679688 22.058594 12.332031 22.191406 12.089844 C 22.320312 11.847656 22.695312 11.777344 22.910156 11.953125 " fill-opacity="1" fill-rule="nonzero"/><path fill="#7aba3b" d="M 6.183594 20.960938 C 6.335938 20.925781 6.488281 20.886719 6.640625 20.851562 C 6.3125 20.640625 6.289062 20.09375 6.597656 19.855469 C 6.90625 19.621094 7.433594 19.773438 7.5625 20.140625 C 7.417969 19.816406 7.675781 19.390625 8.03125 19.363281 C 8.386719 19.332031 8.710938 19.71875 8.617188 20.058594 C 8.617188 19.785156 8.9375 19.566406 9.199219 19.660156 C 9.457031 19.753906 9.558594 20.125 9.382812 20.335938 C 9.574219 20.1875 9.863281 20.179688 10.0625 20.316406 C 10.261719 20.453125 10.355469 20.722656 10.28125 20.953125 C 10.59375 20.796875 10.753906 20.390625 10.625 20.070312 C 10.496094 19.75 10.101562 19.558594 9.765625 19.65625 C 9.890625 19.363281 9.757812 18.988281 9.476562 18.835938 C 9.195312 18.683594 8.800781 18.777344 8.621094 19.039062 C 8.484375 18.636719 8.046875 18.355469 7.621094 18.390625 C 7.191406 18.425781 6.8125 18.777344 6.746094 19.195312 C 6.378906 19.117188 5.972656 19.304688 5.800781 19.632812 C 5.628906 19.960938 5.707031 20.402344 5.980469 20.652344 C 5.554688 20.546875 5.070312 20.863281 5.007812 21.296875 C 4.941406 21.726562 5.308594 22.171875 5.75 22.191406 C 5.453125 22.0625 5.0625 22.289062 5.03125 22.609375 C 5.003906 22.929688 5.351562 23.21875 5.667969 23.140625 C 5.613281 22.792969 5.953125 22.445312 6.304688 22.480469 C 6.011719 22.394531 5.785156 22.113281 5.769531 21.8125 C 5.753906 21.507812 5.945312 21.207031 6.230469 21.089844 C 6.214844 21.046875 6.199219 21.003906 6.183594 20.960938 " fill-opacity="1" fill-rule="nonzero"/><path fill="#7aba3b" d="M 8.679688 20.964844 C 8.867188 21.027344 9.039062 21.164062 9.113281 21.347656 C 9.1875 21.527344 9.152344 21.757812 9.003906 21.890625 C 8.859375 22.023438 8.601562 22.03125 8.46875 21.886719 C 8.644531 21.988281 8.660156 22.265625 8.515625 22.410156 C 8.375 22.554688 8.128906 22.566406 7.949219 22.464844 C 7.773438 22.367188 7.660156 22.175781 7.617188 21.980469 C 7.710938 22.253906 7.671875 22.566406 7.515625 22.8125 C 7.355469 23.054688 7.085938 23.222656 6.792969 23.257812 C 6.976562 23.558594 7.421875 23.660156 7.71875 23.472656 C 8.015625 23.285156 8.109375 22.84375 7.910156 22.554688 C 8.019531 22.898438 8.503906 23.058594 8.800781 22.847656 C 9.09375 22.636719 9.097656 22.132812 8.800781 21.921875 C 8.878906 22.183594 9.292969 22.226562 9.472656 22.023438 C 9.65625 21.816406 9.609375 21.476562 9.425781 21.273438 C 9.238281 21.070312 8.953125 20.984375 8.679688 20.964844 " fill-opacity="1" fill-rule="nonzero"/><path fill="#61981d" d="M 12.894531 16.464844 C 12.8125 16.292969 12.730469 16.121094 12.652344 15.949219 C 12.671875 16.199219 12.402344 16.40625 12.152344 16.378906 C 11.902344 16.355469 11.699219 16.144531 11.621094 15.90625 C 11.542969 15.667969 11.570312 15.410156 11.628906 15.167969 C 11.558594 15.339844 11.34375 15.4375 11.164062 15.382812 C 10.988281 15.328125 10.871094 15.125 10.910156 14.941406 C 10.539062 15.050781 10.398438 15.597656 10.675781 15.867188 C 10.949219 16.136719 11.5 15.992188 11.605469 15.625 C 11.390625 15.945312 11.53125 16.441406 11.882812 16.605469 C 12.238281 16.769531 12.714844 16.558594 12.824219 16.1875 C 12.734375 16.625 13.183594 17.078125 13.628906 17 C 14.074219 16.917969 14.332031 16.339844 14.09375 15.960938 C 14.359375 16.339844 15.027344 16.328125 15.28125 15.9375 C 15.53125 15.550781 15.269531 14.945312 14.808594 14.863281 C 15 15.144531 14.902344 15.578125 14.609375 15.753906 C 14.3125 15.929688 13.878906 15.8125 13.71875 15.511719 C 13.84375 15.75 13.808594 16.0625 13.632812 16.265625 C 13.457031 16.46875 13.148438 16.550781 12.894531 16.464844 " fill-opacity="1" fill-rule="nonzero"/><path fill="#7aba3b" d="M 21.898438 16.1875 C 21.855469 16.320312 21.8125 16.453125 21.769531 16.582031 C 21.652344 16.320312 21.398438 16.121094 21.113281 16.074219 C 20.828125 16.023438 20.519531 16.125 20.320312 16.335938 C 20.414062 16.152344 20.511719 15.96875 20.664062 15.828125 C 20.8125 15.6875 21.027344 15.597656 21.226562 15.648438 C 21.429688 15.699219 21.582031 15.925781 21.511719 16.117188 C 21.628906 15.824219 21.960938 15.628906 22.277344 15.667969 C 22.59375 15.707031 22.867188 15.976562 22.90625 16.289062 C 23.121094 15.921875 23.734375 15.882812 23.992188 16.21875 C 24.253906 16.554688 24.058594 17.128906 23.644531 17.238281 C 23.757812 17.011719 23.660156 16.707031 23.4375 16.582031 C 23.214844 16.457031 22.898438 16.535156 22.761719 16.746094 C 22.648438 16.398438 22.269531 16.15625 21.898438 16.1875 " fill-opacity="1" fill-rule="nonzero"/><path fill="#7aba3b" d="M 19.855469 18.863281 C 19.511719 18.503906 19.625 17.832031 20.070312 17.605469 C 19.996094 17.449219 20.027344 17.25 20.144531 17.121094 C 20.261719 16.992188 20.457031 16.9375 20.625 16.988281 C 20.433594 16.757812 20.058594 16.703125 19.804688 16.863281 C 19.554688 17.027344 19.453125 17.386719 19.589844 17.65625 C 19.160156 17.582031 18.707031 17.914062 18.648438 18.339844 C 18.589844 18.765625 18.941406 19.203125 19.371094 19.246094 C 19.136719 19.476562 19.167969 19.910156 19.429688 20.105469 C 19.695312 20.296875 20.125 20.203125 20.277344 19.914062 C 20.203125 20.253906 20.398438 20.632812 20.722656 20.773438 C 21.046875 20.910156 21.460938 20.792969 21.660156 20.507812 C 21.871094 20.722656 22.261719 20.722656 22.476562 20.511719 C 22.691406 20.300781 22.6875 19.914062 22.472656 19.707031 C 22.527344 19.976562 22.328125 20.273438 22.054688 20.328125 C 21.78125 20.386719 21.480469 20.195312 21.421875 19.925781 C 21.542969 20.132812 21.359375 20.429688 21.121094 20.460938 C 20.878906 20.492188 20.644531 20.316406 20.554688 20.089844 C 20.464844 19.867188 20.492188 19.613281 20.566406 19.382812 C 20.449219 19.636719 20.097656 19.75 19.847656 19.621094 C 19.597656 19.488281 19.496094 19.136719 19.640625 18.898438 C 19.710938 18.886719 19.78125 18.875 19.855469 18.863281 " fill-opacity="1" fill-rule="nonzero"/><path fill="#7aba3b" d="M 14.609375 22.320312 C 14.640625 22.40625 14.675781 22.488281 14.707031 22.574219 C 14.59375 22.242188 14.832031 21.839844 15.183594 21.78125 C 15.53125 21.722656 15.894531 22.023438 15.898438 22.371094 C 15.859375 22.046875 16.117188 21.71875 16.445312 21.675781 C 16.773438 21.636719 17.109375 21.890625 17.152344 22.214844 C 17.34375 21.929688 17.777344 21.839844 18.070312 22.023438 C 18.363281 22.207031 18.460938 22.636719 18.28125 22.929688 C 18.5 22.789062 18.820312 22.933594 18.917969 23.171875 C 19.011719 23.40625 18.925781 23.6875 18.757812 23.882812 C 18.59375 24.082031 18.359375 24.207031 18.128906 24.324219 C 18.316406 24.191406 18.402344 23.9375 18.339844 23.71875 C 18.277344 23.5 18.066406 23.328125 17.835938 23.3125 C 17.902344 23.058594 17.738281 22.769531 17.484375 22.691406 C 17.234375 22.609375 16.933594 22.75 16.835938 22.992188 C 16.890625 22.691406 16.585938 22.378906 16.277344 22.425781 C 15.96875 22.472656 15.773438 22.863281 15.917969 23.132812 C 15.847656 22.796875 15.449219 22.570312 15.117188 22.675781 C 14.789062 22.78125 14.597656 23.191406 14.738281 23.507812 C 14.636719 23.546875 14.621094 23.707031 14.710938 23.765625 C 14.628906 23.664062 14.546875 23.5625 14.464844 23.464844 C 14.117188 23.425781 13.796875 23.8125 13.902344 24.144531 C 13.820312 23.894531 13.890625 23.605469 14.070312 23.414062 C 13.902344 23.21875 13.863281 22.921875 13.976562 22.691406 C 14.089844 22.460938 14.351562 22.308594 14.609375 22.320312 " fill-opacity="1" fill-rule="nonzero"/><path fill="#7aba3b" d="M 17.304688 24.796875 C 17.304688 24.625 17.203125 24.457031 17.046875 24.378906 C 16.890625 24.300781 16.695312 24.316406 16.554688 24.421875 C 16.570312 24.230469 16.433594 24.039062 16.25 23.988281 C 16.0625 23.9375 15.847656 24.027344 15.757812 24.195312 C 15.714844 24.019531 15.523438 23.894531 15.34375 23.917969 C 15.332031 23.988281 15.320312 24.058594 15.308594 24.125 C 15.246094 23.953125 15.007812 23.867188 14.851562 23.960938 C 14.691406 24.054688 14.652344 24.300781 14.777344 24.4375 C 14.621094 24.328125 14.554688 24.109375 14.625 23.933594 C 14.699219 23.757812 14.898438 23.648438 15.089844 23.679688 C 15.203125 23.546875 15.40625 23.496094 15.570312 23.554688 C 15.738281 23.613281 15.859375 23.78125 15.863281 23.957031 C 15.941406 23.757812 16.1875 23.640625 16.394531 23.703125 C 16.601562 23.761719 16.742188 23.992188 16.703125 24.203125 C 16.8125 24.03125 17.050781 23.953125 17.242188 24.03125 C 17.4375 24.230469 17.464844 24.566406 17.304688 24.796875 " fill-opacity="1" fill-rule="nonzero"/><path fill="#7aba3b" d="M 23.285156 4.9375 C 23.019531 4.765625 22.625 4.8125 22.410156 5.050781 C 22.195312 5.285156 22.1875 5.675781 22.390625 5.921875 C 22.503906 6.148438 22.730469 6.316406 22.984375 6.359375 C 22.984375 5.730469 23.574219 5.164062 24.210938 5.179688 C 24.351562 4.921875 24.191406 4.554688 23.90625 4.476562 C 23.617188 4.402344 23.292969 4.644531 23.285156 4.9375 " fill-opacity="1" fill-rule="nonzero"/><path fill="#7aba3b" d="M 13.898438 1.402344 C 14.144531 1.238281 14.527344 1.335938 14.660156 1.597656 C 14.835938 1.496094 14.878906 1.222656 14.734375 1.074219 C 14.59375 0.929688 14.3125 0.957031 14.203125 1.132812 C 14.199219 0.941406 13.992188 0.78125 13.804688 0.824219 C 13.617188 0.867188 13.5 1.097656 13.582031 1.273438 C 13.507812 0.957031 13.164062 0.730469 12.839844 0.785156 C 12.519531 0.839844 12.269531 1.167969 12.304688 1.488281 C 12.339844 1.8125 12.65625 2.074219 12.984375 2.058594 C 12.8125 2.027344 12.625 2.027344 12.46875 2.113281 C 12.316406 2.199219 12.214844 2.390625 12.277344 2.554688 C 12.339844 2.714844 12.597656 2.777344 12.703125 2.640625 C 12.695312 2.285156 12.957031 1.945312 13.300781 1.855469 C 13.445312 1.820312 13.601562 1.824219 13.734375 1.757812 C 13.871094 1.695312 13.972656 1.527344 13.898438 1.402344 " fill-opacity="1" fill-rule="nonzero"/><g clip-path="url(#dc59b35b5f)"><path fill="#7aba3b" d="M 2.050781 18.960938 C 1.746094 19.078125 1.566406 19.445312 1.664062 19.753906 C 1.761719 20.0625 2.121094 20.265625 2.4375 20.191406 C 2.175781 20.128906 1.976562 19.863281 1.988281 19.59375 C 1.996094 19.324219 2.21875 19.078125 2.484375 19.035156 C 2.191406 19.03125 1.929688 18.75 1.949219 18.457031 C 1.96875 18.167969 2.269531 17.925781 2.5625 17.960938 C 2.429688 17.921875 2.453125 17.707031 2.570312 17.632812 C 2.683594 17.554688 2.835938 17.5625 2.972656 17.535156 C 3.105469 17.511719 3.257812 17.417969 3.25 17.28125 C 3.238281 17.15625 3.109375 17.082031 2.992188 17.042969 C 2.796875 16.976562 2.5625 16.949219 2.394531 17.066406 C 2.226562 17.1875 2.214844 17.496094 2.40625 17.566406 C 2.011719 17.375 1.464844 17.625 1.359375 18.046875 C 1.25 18.46875 1.609375 18.945312 2.050781 18.960938 " fill-opacity="1" fill-rule="nonzero"/></g><path fill="#61981d" d="M 18.925781 6.101562 C 19.195312 6.246094 19.367188 6.554688 19.347656 6.859375 C 19.097656 7.035156 18.742188 7.042969 18.488281 6.875 C 18.730469 7.089844 18.617188 7.5625 18.300781 7.648438 C 17.988281 7.734375 17.644531 7.386719 17.738281 7.078125 C 17.714844 7.308594 17.691406 7.539062 17.667969 7.769531 C 17.636719 8.035156 17.609375 8.304688 17.488281 8.542969 C 17.367188 8.777344 17.132812 8.980469 16.863281 8.984375 C 16.59375 8.988281 16.328125 8.734375 16.386719 8.476562 C 16.402344 8.742188 16.222656 9.011719 15.96875 9.101562 C 15.710938 9.195312 15.402344 9.097656 15.242188 8.882812 C 15.132812 9.296875 15.546875 9.757812 15.976562 9.699219 C 16.410156 9.640625 16.683594 9.089844 16.464844 8.71875 C 16.691406 9.128906 17.320312 9.25 17.683594 8.949219 C 18.042969 8.648438 18.035156 8.015625 17.667969 7.726562 C 17.941406 8.027344 18.40625 8.195312 18.78125 8.027344 C 19.15625 7.855469 19.3125 7.289062 19.003906 7.019531 C 19.121094 7.292969 19.550781 7.347656 19.769531 7.136719 C 19.984375 6.925781 19.964844 6.542969 19.761719 6.320312 C 19.5625 6.097656 19.21875 6.027344 18.925781 6.101562 " fill-opacity="1" fill-rule="nonzero"/><path fill="#61981d" d="M 26.195312 17.183594 C 26.078125 16.835938 25.671875 16.660156 25.316406 16.714844 C 25.695312 16.367188 25.792969 15.679688 25.394531 15.316406 C 25.230469 15.164062 25.015625 15.101562 24.796875 15.109375 C 25.109375 15.121094 25.425781 15.292969 25.527344 15.589844 C 25.695312 16.089844 25.175781 16.671875 24.65625 16.570312 C 25.207031 16.789062 25.472656 17.53125 25.179688 18.042969 C 24.929688 18.488281 24.3125 18.671875 23.839844 18.480469 C 24.195312 18.746094 24.324219 19.3125 24.054688 19.675781 C 23.804688 20.011719 23.292969 20.082031 22.925781 19.890625 C 23.246094 20.257812 23.289062 20.875 22.945312 21.238281 C 22.523438 21.6875 21.675781 21.601562 21.351562 21.082031 L 21.355469 21.089844 C 21.484375 21.738281 20.875 22.308594 20.253906 22.136719 C 20.035156 22.597656 20.152344 23.210938 20.554688 23.539062 C 20.640625 23.605469 20.734375 23.660156 20.835938 23.699219 C 21.484375 23.960938 22.164062 23.363281 22.023438 22.683594 L 22.023438 22.675781 C 22.347656 23.195312 23.195312 23.28125 23.617188 22.832031 C 23.957031 22.46875 23.917969 21.851562 23.597656 21.484375 C 23.960938 21.675781 24.476562 21.605469 24.726562 21.269531 C 24.996094 20.902344 24.867188 20.339844 24.511719 20.074219 C 24.984375 20.265625 25.597656 20.082031 25.851562 19.636719 C 26.144531 19.125 25.878906 18.382812 25.324219 18.164062 C 25.847656 18.265625 26.367188 17.683594 26.195312 17.183594 " fill-opacity="1" fill-rule="nonzero"/><path fill="#528221" d="M 24.796875 15.109375 C 24.84375 15.113281 24.890625 15.117188 24.933594 15.125 C 24.933594 15.125 24.929688 15.121094 24.929688 15.117188 C 24.886719 15.113281 24.84375 15.109375 24.796875 15.109375 " fill-opacity="1" fill-rule="nonzero"/><path fill="#528221" d="M 21.46875 22.296875 L 21.472656 22.304688 C 21.601562 22.949219 21.003906 23.515625 20.386719 23.355469 C 20.433594 23.421875 20.492188 23.484375 20.554688 23.539062 C 20.640625 23.605469 20.734375 23.660156 20.835938 23.699219 C 21.480469 23.957031 22.152344 23.371094 22.027344 22.699219 C 21.800781 22.632812 21.59375 22.5 21.46875 22.296875 " fill-opacity="1" fill-rule="nonzero"/><path fill="#528221" d="M 26.195312 17.183594 C 26.109375 16.929688 25.867188 16.769531 25.605469 16.71875 C 25.617188 16.75 25.632812 16.777344 25.644531 16.804688 C 25.753906 17.128906 25.574219 17.484375 25.292969 17.667969 C 25.28125 17.800781 25.246094 17.929688 25.179688 18.042969 C 25.175781 18.054688 25.164062 18.066406 25.15625 18.074219 C 25.425781 18.402344 25.507812 18.886719 25.300781 19.261719 C 25.054688 19.6875 24.480469 19.867188 24.019531 19.714844 C 24.011719 19.722656 24.003906 19.726562 24 19.734375 C 24.324219 20.011719 24.429688 20.542969 24.171875 20.890625 C 23.921875 21.226562 23.410156 21.296875 23.042969 21.105469 C 23.367188 21.476562 23.40625 22.089844 23.0625 22.453125 C 22.808594 22.722656 22.402344 22.796875 22.046875 22.703125 C 22.378906 23.195312 23.203125 23.273438 23.617188 22.832031 C 23.957031 22.46875 23.917969 21.851562 23.597656 21.484375 C 23.960938 21.675781 24.476562 21.605469 24.726562 21.269531 C 24.996094 20.902344 24.867188 20.339844 24.511719 20.074219 C 24.984375 20.265625 25.597656 20.082031 25.851562 19.636719 C 26.144531 19.125 25.878906 18.382812 25.324219 18.164062 C 25.847656 18.265625 26.367188 17.683594 26.195312 17.183594 " fill-opacity="1" fill-rule="nonzero"/><path fill="#528221" d="M 21.355469 21.105469 C 21.363281 21.105469 21.367188 21.105469 21.375 21.109375 C 21.367188 21.097656 21.359375 21.089844 21.351562 21.082031 L 21.355469 21.089844 C 21.355469 21.09375 21.355469 21.097656 21.355469 21.105469 " fill-opacity="1" fill-rule="nonzero"/></svg>