<svg xmlns="http://www.w3.org/2000/svg" xmlns:xlink="http://www.w3.org/1999/xlink" width="40" zoomAndPan="magnify" viewBox="0 0 30 30.000001" height="40" preserveAspectRatio="xMidYMid meet" version="1.0"><defs><clipPath id="fb035c42a4"><path d="M 21.207031 11.960938 L 29.515625 11.960938 L 29.515625 18.402344 L 21.207031 18.402344 Z M 21.207031 11.960938 " clip-rule="nonzero"/></clipPath><clipPath id="ce1d3cac9c"><path d="M 21.234375 16.035156 L 29.042969 16.035156 L 29.042969 18.402344 L 21.234375 18.402344 Z M 21.234375 16.035156 " clip-rule="nonzero"/></clipPath><clipPath id="3dce048132"><path d="M 27 13 L 29.515625 13 L 29.515625 14 L 27 14 Z M 27 13 " clip-rule="nonzero"/></clipPath><clipPath id="f535b8874d"><path d="M 27 15 L 29.515625 15 L 29.515625 16 L 27 16 Z M 27 15 " clip-rule="nonzero"/></clipPath><clipPath id="548bb137b6"><path d="M 0.484375 12 L 10 12 L 10 18.410156 L 0.484375 18.410156 Z M 0.484375 12 " clip-rule="nonzero"/></clipPath><clipPath id="a8c7131c46"><path d="M 0.484375 17 L 10 17 L 10 18.410156 L 0.484375 18.410156 Z M 0.484375 17 " clip-rule="nonzero"/></clipPath><clipPath id="5c63b1f675"><path d="M 0.484375 12 L 3 12 L 3 16 L 0.484375 16 Z M 0.484375 12 " clip-rule="nonzero"/></clipPath><clipPath id="7f4a5504ab"><path d="M 21 11 L 29.515625 11 L 29.515625 18 L 21 18 Z M 21 11 " clip-rule="nonzero"/></clipPath><clipPath id="be43614e8c"><path d="M 28 15 L 29.515625 15 L 29.515625 16 L 28 16 Z M 28 15 " clip-rule="nonzero"/></clipPath><clipPath id="ce30735875"><path d="M 28 13 L 29.515625 13 L 29.515625 15 L 28 15 Z M 28 13 " clip-rule="nonzero"/></clipPath><clipPath id="1166574f45"><path d="M 24 11 L 29.515625 11 L 29.515625 13 L 24 13 Z M 24 11 " clip-rule="nonzero"/></clipPath><clipPath id="233ed618fb"><path d="M 25 13 L 29.515625 13 L 29.515625 14 L 25 14 Z M 25 13 " clip-rule="nonzero"/></clipPath><clipPath id="9defdaf249"><path d="M 25 15 L 29.515625 15 L 29.515625 17 L 25 17 Z M 25 15 " clip-rule="nonzero"/></clipPath><clipPath id="d3da8db000"><path d="M 25 14 L 29.515625 14 L 29.515625 16 L 25 16 Z M 25 14 " clip-rule="nonzero"/></clipPath><clipPath id="11fe40a32a"><path d="M 23.789062 17.808594 L 26.136719 17.808594 L 26.136719 17.917969 L 23.789062 17.917969 Z M 23.789062 17.808594 " clip-rule="nonzero"/></clipPath><clipPath id="fe33d0c95a"><path d="M 23.800781 17.914062 C 24.578125 17.882812 25.351562 17.847656 26.128906 17.8125 C 25.351562 17.847656 24.578125 17.882812 23.800781 17.914062 " clip-rule="nonzero"/></clipPath><clipPath id="44e12ce1ae"><path d="M 0.484375 11 L 10 11 L 10 18 L 0.484375 18 Z M 0.484375 11 " clip-rule="nonzero"/></clipPath><clipPath id="22e77e5758"><path d="M 0.484375 14 L 5 14 L 5 15 L 0.484375 15 Z M 0.484375 14 " clip-rule="nonzero"/></clipPath><clipPath id="85f6a4cae3"><path d="M 0.484375 13 L 5 13 L 5 15 L 0.484375 15 Z M 0.484375 13 " clip-rule="nonzero"/></clipPath><clipPath id="c2ca2841a5"><path d="M 0.484375 15 L 5 15 L 5 16 L 0.484375 16 Z M 0.484375 15 " clip-rule="nonzero"/></clipPath><clipPath id="c7c280254b"><path d="M 0.484375 15 L 5 15 L 5 17 L 0.484375 17 Z M 0.484375 15 " clip-rule="nonzero"/></clipPath><clipPath id="2031609596"><path d="M 4 10.425781 L 26 10.425781 L 26 18 L 4 18 Z M 4 10.425781 " clip-rule="nonzero"/></clipPath><clipPath id="a35831dc9a"><path d="M 4 10.425781 L 26 10.425781 L 26 18 L 4 18 Z M 4 10.425781 " clip-rule="nonzero"/></clipPath><clipPath id="3754fa72a7"><path d="M 4 10.425781 L 25 10.425781 L 25 13 L 4 13 Z M 4 10.425781 " clip-rule="nonzero"/></clipPath><clipPath id="eccd42fbf7"><path d="M 5 10.425781 L 9 10.425781 L 9 12 L 5 12 Z M 5 10.425781 " clip-rule="nonzero"/></clipPath><clipPath id="e3700cce75"><path d="M 4 10.425781 L 25 10.425781 L 25 13 L 4 13 Z M 4 10.425781 " clip-rule="nonzero"/></clipPath><clipPath id="c6d26c5a31"><path d="M 0.484375 14 L 3 14 L 3 18 L 0.484375 18 Z M 0.484375 14 " clip-rule="nonzero"/></clipPath><clipPath id="12f8cf1b51"><path d="M 0.484375 12 L 5 12 L 5 15 L 0.484375 15 Z M 0.484375 12 " clip-rule="nonzero"/></clipPath><clipPath id="14124da3a0"><path d="M 25 11 L 29.515625 11 L 29.515625 14 L 25 14 Z M 25 11 " clip-rule="nonzero"/></clipPath><clipPath id="1fee1b2a2e"><path d="M 27 15 L 29.515625 15 L 29.515625 18 L 27 18 Z M 27 15 " clip-rule="nonzero"/></clipPath><clipPath id="6139dea7f6"><path d="M 27 13 L 29.515625 13 L 29.515625 16 L 27 16 Z M 27 13 " clip-rule="nonzero"/></clipPath></defs><g clip-path="url(#fb035c42a4)"><path fill="#a55100" d="M 21.207031 12.378906 C 23.804688 12.203125 26.691406 11.824219 29.300781 12.011719 C 29.300781 12.011719 29.421875 12.367188 29.515625 12.371094 C 29.429688 12.828125 29.296875 13.179688 29.300781 13.640625 C 28.707031 13.761719 27.835938 13.984375 27.246094 14.105469 C 27.753906 14.21875 28.574219 13.894531 29.160156 13.863281 C 29.230469 13.859375 29.261719 13.933594 29.292969 14.003906 C 29.324219 14.074219 29.355469 14.144531 29.414062 14.140625 C 29.410156 14.625 29.304688 15.15625 29.300781 15.636719 C 28.878906 15.773438 28.261719 15.957031 27.820312 16.007812 C 28.234375 16.019531 28.648438 16.03125 29.0625 16.039062 C 28.8125 16.605469 28.851562 17.121094 28.945312 17.726562 C 28.960938 17.828125 28.632812 18.046875 28.65625 18.144531 C 26.070312 18.179688 23.828125 18.367188 21.242188 18.402344 C 21.242188 18.316406 21.242188 18.078125 21.242188 17.988281 C 21.269531 16.15625 21.378906 14.175781 21.207031 12.378906 " fill-opacity="1" fill-rule="nonzero"/></g><g clip-path="url(#ce1d3cac9c)"><path fill="#914000" d="M 28.65625 18.144531 C 28.632812 18.046875 28.960938 17.828125 28.945312 17.726562 C 28.855469 17.144531 28.820312 16.644531 29.035156 16.109375 C 29.035156 16.097656 29.035156 16.089844 29.035156 16.078125 C 29.03125 16.0625 29.023438 16.046875 29.015625 16.039062 C 28.992188 16.039062 28.96875 16.039062 28.941406 16.039062 C 28.929688 16.046875 28.921875 16.058594 28.917969 16.078125 C 28.847656 16.636719 28.824219 17.160156 28.917969 17.699219 C 28.691406 17.628906 28.4375 17.664062 28.183594 17.671875 C 27.492188 17.699219 26.800781 17.695312 26.105469 17.730469 C 25.832031 17.742188 25.53125 17.734375 25.226562 17.726562 C 24.578125 17.710938 23.898438 17.695312 23.308594 17.882812 C 22.613281 17.871094 21.921875 17.878906 21.242188 17.949219 C 21.242188 17.960938 21.242188 17.976562 21.242188 17.988281 C 21.242188 18.078125 21.242188 18.316406 21.242188 18.402344 C 23.828125 18.367188 26.070312 18.179688 28.65625 18.144531 " fill-opacity="1" fill-rule="nonzero"/></g><g clip-path="url(#3dce048132)"><path fill="#914000" d="M 29.023438 13.351562 C 29.011719 13.34375 29.003906 13.335938 28.996094 13.328125 C 28.933594 13.28125 28.859375 13.335938 28.871094 13.394531 C 28.40625 13.339844 27.980469 13.550781 27.515625 13.578125 C 27.472656 13.582031 27.4375 13.613281 27.421875 13.652344 C 27.402344 13.644531 27.378906 13.640625 27.359375 13.632812 C 27.292969 13.609375 27.246094 13.714844 27.308594 13.742188 C 27.410156 13.789062 27.503906 13.8125 27.597656 13.820312 C 27.78125 13.882812 27.972656 13.902344 28.164062 13.898438 C 28.566406 13.804688 28.976562 13.707031 29.300781 13.640625 C 29.300781 13.625 29.300781 13.613281 29.300781 13.597656 C 29.28125 13.574219 29.261719 13.554688 29.25 13.539062 C 29.183594 13.460938 29.113281 13.390625 29.023438 13.351562 " fill-opacity="1" fill-rule="nonzero"/></g><g clip-path="url(#f535b8874d)"><path fill="#914000" d="M 29.007812 15.246094 C 28.988281 15.230469 28.953125 15.253906 28.964844 15.28125 C 28.976562 15.3125 28.992188 15.34375 29.011719 15.375 C 29.003906 15.378906 29 15.382812 28.996094 15.390625 C 28.992188 15.390625 28.984375 15.386719 28.976562 15.390625 C 28.824219 15.4375 28.660156 15.464844 28.503906 15.492188 C 28.480469 15.492188 28.460938 15.492188 28.441406 15.492188 C 28.410156 15.492188 28.386719 15.503906 28.371094 15.519531 C 28.222656 15.550781 27.992188 15.597656 27.9375 15.53125 C 27.90625 15.496094 27.859375 15.519531 27.84375 15.554688 C 27.785156 15.691406 28.078125 15.695312 28.386719 15.664062 C 28.394531 15.671875 28.402344 15.675781 28.414062 15.679688 C 28.566406 15.738281 28.757812 15.75 28.941406 15.75 C 29.070312 15.710938 29.191406 15.671875 29.300781 15.636719 C 29.300781 15.625 29.300781 15.609375 29.300781 15.59375 C 29.273438 15.558594 29.246094 15.523438 29.222656 15.492188 C 29.164062 15.40625 29.105469 15.300781 29.007812 15.246094 " fill-opacity="1" fill-rule="nonzero"/></g><g clip-path="url(#548bb137b6)"><path fill="#a55100" d="M 8.980469 17.421875 C 8.914062 17.617188 8.945312 17.839844 9.058594 18.011719 C 6.335938 18.269531 3.472656 18.410156 0.734375 18.390625 C 0.664062 17.917969 0.613281 17.441406 0.566406 16.96875 C 0.515625 16.484375 0.589844 15.738281 0.539062 15.253906 C 0.613281 15.277344 0.710938 15.207031 0.804688 15.136719 C 0.894531 15.066406 0.984375 15 1.050781 15.015625 C 1.484375 15.128906 1.800781 15.699219 2.261719 15.527344 C 1.726562 15.292969 1.136719 15.140625 0.554688 15.027344 C 0.484375 14.28125 0.671875 13.292969 0.8125 12.554688 C 0.8125 12.554688 1.089844 12.339844 1.203125 12.324219 C 2.429688 12.148438 3.601562 12.464844 4.839844 12.519531 C 5.980469 12.570312 7.125 12.421875 8.269531 12.421875 C 8.484375 14.042969 9.503906 15.859375 8.980469 17.421875 " fill-opacity="1" fill-rule="nonzero"/></g><g clip-path="url(#a8c7131c46)"><path fill="#914000" d="M 8.863281 17.957031 C 8.890625 17.957031 8.917969 17.953125 8.945312 17.953125 C 8.972656 17.953125 8.996094 17.941406 9.011719 17.929688 C 8.964844 17.824219 8.941406 17.710938 8.949219 17.597656 C 8.4375 17.523438 7.863281 17.574219 7.359375 17.609375 C 7 17.636719 6.625 17.675781 6.300781 17.832031 C 6.238281 17.835938 6.175781 17.835938 6.113281 17.835938 C 5.636719 17.835938 5.164062 17.890625 4.6875 17.933594 C 4.671875 17.917969 4.644531 17.90625 4.613281 17.90625 C 4.449219 17.902344 4.28125 17.90625 4.109375 17.917969 C 3.964844 17.921875 3.820312 17.914062 3.679688 17.910156 C 3.46875 17.902344 3.253906 17.890625 3.035156 17.921875 C 2.902344 17.929688 2.714844 17.949219 2.582031 17.957031 C 2.148438 17.953125 1.734375 17.9375 1.304688 17.945312 C 1.324219 17.925781 1.34375 17.90625 1.359375 17.882812 C 1.386719 17.847656 1.351562 17.804688 1.3125 17.804688 C 1.1875 17.9375 1.050781 18.0625 0.910156 18.183594 C 0.851562 18.238281 0.792969 18.292969 0.730469 18.347656 C 0.730469 18.359375 0.734375 18.375 0.734375 18.390625 C 2.746094 18.402344 4.820312 18.332031 6.863281 18.191406 C 7.070312 18.148438 7.28125 18.113281 7.492188 18.085938 C 7.578125 18.078125 7.660156 18.066406 7.746094 18.058594 C 7.839844 18.046875 7.9375 18.039062 8.03125 18.03125 C 8.148438 18.039062 8.265625 18.054688 8.382812 18.074219 C 8.585938 18.054688 8.792969 18.039062 8.996094 18.019531 C 8.980469 18.007812 8.96875 17.996094 8.949219 17.988281 C 8.921875 17.976562 8.890625 17.96875 8.863281 17.957031 " fill-opacity="1" fill-rule="nonzero"/></g><g clip-path="url(#5c63b1f675)"><path fill="#914000" d="M 2.15625 14.929688 C 1.851562 14.828125 1.570312 14.664062 1.246094 14.628906 C 1.152344 14.621094 1.09375 14.5625 1.070312 14.496094 C 1.042969 14.511719 1.027344 14.523438 1.011719 14.535156 C 1.019531 14.199219 1.046875 13.855469 1.070312 13.519531 C 1.101562 13.117188 1.238281 12.730469 1.207031 12.324219 C 1.171875 12.332031 1.125 12.351562 1.074219 12.378906 C 1.046875 12.765625 0.933594 13.132812 0.914062 13.519531 C 0.890625 13.910156 0.855469 14.300781 0.839844 14.695312 C 0.816406 14.71875 0.792969 14.75 0.769531 14.777344 C 0.726562 14.828125 0.6875 14.878906 0.644531 14.925781 C 0.613281 14.960938 0.582031 14.988281 0.574219 15.03125 C 0.605469 15.035156 0.640625 15.042969 0.671875 15.050781 C 0.679688 15.046875 0.683594 15.046875 0.6875 15.042969 C 0.691406 15.046875 0.695312 15.050781 0.699219 15.054688 C 0.753906 15.066406 0.808594 15.078125 0.863281 15.089844 C 0.859375 15.09375 0.855469 15.097656 0.847656 15.101562 C 1.015625 15.128906 1.179688 15.117188 1.347656 15.109375 C 1.351562 15.109375 1.351562 15.113281 1.355469 15.113281 C 1.367188 15.117188 1.375 15.117188 1.382812 15.117188 C 1.402344 15.132812 1.421875 15.144531 1.449219 15.148438 C 1.453125 15.148438 1.460938 15.148438 1.464844 15.148438 C 1.480469 15.167969 1.5 15.179688 1.53125 15.179688 C 1.863281 15.207031 2.199219 15.253906 2.527344 15.210938 C 2.53125 15.207031 2.535156 15.210938 2.542969 15.207031 C 2.554688 15.207031 2.5625 15.203125 2.574219 15.203125 C 2.652344 15.1875 2.726562 15.171875 2.804688 15.144531 C 2.808594 15.144531 2.8125 15.140625 2.820312 15.136719 C 2.601562 15.058594 2.378906 15.007812 2.15625 14.929688 " fill-opacity="1" fill-rule="nonzero"/></g><g clip-path="url(#7f4a5504ab)"><path fill="#d58952" d="M 21.207031 11.964844 C 23.902344 11.785156 26.609375 11.800781 29.300781 12.011719 C 29.214844 12.46875 29.0625 12.914062 29.066406 13.378906 C 28.472656 13.5 27.835938 13.574219 27.246094 13.691406 C 27.871094 13.832031 28.519531 13.890625 29.160156 13.863281 C 29.15625 14.347656 29.128906 14.835938 29.121094 15.316406 C 28.699219 15.453125 28.261719 15.546875 27.820312 15.59375 C 28.234375 15.605469 28.648438 15.617188 29.0625 15.628906 C 28.773438 16.28125 28.792969 17.03125 28.945312 17.726562 C 26.363281 17.761719 23.828125 17.953125 21.242188 17.988281 C 21.257812 16.097656 21.386719 13.847656 21.207031 11.964844 " fill-opacity="1" fill-rule="nonzero"/></g><g clip-path="url(#be43614e8c)"><path fill="#cd7433" d="M 28.585938 15.628906 C 28.738281 15.652344 28.890625 15.660156 29.046875 15.664062 C 29.050781 15.652344 29.054688 15.640625 29.0625 15.628906 C 28.867188 15.621094 28.675781 15.617188 28.484375 15.613281 C 28.519531 15.617188 28.554688 15.625 28.585938 15.628906 " fill-opacity="1" fill-rule="nonzero"/></g><g clip-path="url(#ce30735875)"><path fill="#cd7433" d="M 29.15625 14.152344 C 29.15625 14.117188 29.15625 14.078125 29.15625 14.042969 C 29.039062 13.980469 28.914062 13.921875 28.789062 13.867188 C 28.628906 13.867188 28.464844 13.859375 28.304688 13.847656 C 28.597656 13.929688 28.957031 14.042969 29.15625 14.152344 " fill-opacity="1" fill-rule="nonzero"/></g><path fill="#cd7433" d="M 27.714844 15.328125 C 27.386719 15.324219 27.082031 15.40625 26.777344 15.488281 C 26.371094 15.601562 25.964844 15.710938 25.511719 15.613281 C 25.449219 15.601562 25.421875 15.691406 25.484375 15.710938 C 26.179688 15.894531 26.730469 15.574219 27.410156 15.5 C 27.671875 15.46875 27.910156 15.503906 28.152344 15.550781 C 28.296875 15.527344 28.441406 15.496094 28.585938 15.460938 C 28.292969 15.421875 28.011719 15.332031 27.714844 15.328125 " fill-opacity="1" fill-rule="nonzero"/><g clip-path="url(#1166574f45)"><path fill="#cd7433" d="M 25.046875 12.75 C 25.402344 12.734375 25.734375 12.597656 26.085938 12.558594 C 26.359375 12.527344 26.632812 12.535156 26.902344 12.542969 C 27.152344 12.546875 27.398438 12.554688 27.648438 12.53125 C 28.21875 12.480469 28.742188 12.273438 29.28125 12.113281 C 29.289062 12.082031 29.292969 12.046875 29.300781 12.011719 C 29.226562 12.007812 29.152344 12.003906 29.078125 11.996094 C 28.609375 12.148438 28.144531 12.320312 27.648438 12.367188 C 27.398438 12.390625 27.148438 12.382812 26.902344 12.375 C 26.6875 12.371094 26.472656 12.363281 26.261719 12.378906 C 25.847656 12.402344 25.460938 12.554688 25.046875 12.605469 C 24.957031 12.617188 24.953125 12.753906 25.046875 12.75 " fill-opacity="1" fill-rule="nonzero"/></g><path fill="#cd7433" d="M 25.597656 11.863281 C 25.898438 12.363281 26.59375 12.3125 27.109375 12.253906 C 27.472656 12.214844 27.839844 12.179688 28.199219 12.117188 C 28.359375 12.085938 28.507812 12.03125 28.65625 11.96875 C 28.480469 11.957031 28.304688 11.945312 28.128906 11.933594 C 27.953125 11.976562 27.769531 12.007812 27.574219 12.035156 C 26.972656 12.117188 26.1875 12.3125 25.699219 11.847656 C 25.664062 11.847656 25.628906 11.847656 25.59375 11.847656 C 25.59375 11.851562 25.59375 11.859375 25.597656 11.863281 " fill-opacity="1" fill-rule="nonzero"/><path fill="#cd7433" d="M 27.894531 14.433594 C 27.636719 14.527344 27.367188 14.546875 27.105469 14.609375 C 27.066406 14.621094 27.0625 14.6875 27.105469 14.695312 C 27.53125 14.765625 28.078125 14.597656 28.394531 14.308594 C 28.429688 14.273438 28.417969 14.21875 28.378906 14.195312 C 28.050781 14 27.621094 14.085938 27.257812 14.128906 C 26.640625 14.203125 26.027344 14.335938 25.410156 14.390625 C 25.351562 14.394531 25.351562 14.476562 25.410156 14.476562 C 26.097656 14.488281 26.78125 14.3125 27.46875 14.242188 C 27.679688 14.222656 28.539062 14.199219 27.894531 14.433594 " fill-opacity="1" fill-rule="nonzero"/><g clip-path="url(#233ed618fb)"><path fill="#cd7433" d="M 25.09375 13.136719 C 25.007812 13.140625 25.007812 13.265625 25.09375 13.269531 C 25.429688 13.277344 25.757812 13.203125 26.09375 13.195312 C 26.621094 13.183594 27.152344 13.261719 27.664062 13.367188 C 27.929688 13.421875 28.191406 13.460938 28.453125 13.488281 C 28.660156 13.453125 28.867188 13.417969 29.066406 13.378906 C 29.066406 13.363281 29.066406 13.347656 29.066406 13.332031 C 28.457031 13.285156 27.855469 13.210938 27.222656 13.117188 C 26.484375 13.007812 25.824219 13.113281 25.09375 13.136719 " fill-opacity="1" fill-rule="nonzero"/></g><g clip-path="url(#9defdaf249)"><path fill="#cd7433" d="M 25.65625 16.386719 C 25.835938 16.308594 26.035156 16.285156 26.230469 16.269531 C 26.777344 16.21875 27.324219 16.238281 27.871094 16.183594 C 28.257812 16.144531 28.609375 16.023438 28.960938 15.902344 C 28.980469 15.835938 29.007812 15.769531 29.03125 15.703125 C 28.695312 15.820312 28.359375 15.949219 27.988281 15.996094 C 27.566406 16.046875 27.144531 16.066406 26.722656 16.074219 C 26.15625 16.089844 25.484375 16.089844 25.121094 16.578125 C 25.082031 16.628906 25.132812 16.710938 25.195312 16.707031 C 25.5 16.679688 25.804688 16.695312 26.109375 16.710938 C 26.457031 16.726562 26.804688 16.742188 27.152344 16.699219 C 27.363281 16.671875 27.558594 16.605469 27.765625 16.558594 C 28.058594 16.488281 28.332031 16.492188 28.621094 16.492188 C 28.695312 16.492188 28.773438 16.492188 28.851562 16.492188 C 28.855469 16.4375 28.863281 16.378906 28.871094 16.324219 C 28.773438 16.324219 28.675781 16.320312 28.578125 16.316406 C 28.390625 16.308594 28.203125 16.300781 28.019531 16.328125 C 27.605469 16.382812 27.238281 16.535156 26.816406 16.554688 C 26.460938 16.566406 26.007812 16.574219 25.65625 16.511719 C 25.417969 16.472656 25.375 16.507812 25.65625 16.386719 " fill-opacity="1" fill-rule="nonzero"/></g><g clip-path="url(#d3da8db000)"><path fill="#cd7433" d="M 25.09375 15.078125 C 26.003906 15.082031 26.925781 15.015625 27.824219 14.898438 C 28.089844 14.863281 28.734375 14.828125 29.140625 14.640625 C 29.144531 14.578125 29.144531 14.515625 29.148438 14.453125 C 28.964844 14.535156 28.691406 14.589844 28.625 14.605469 C 27.484375 14.878906 26.261719 14.898438 25.09375 14.925781 C 24.992188 14.929688 24.992188 15.078125 25.09375 15.078125 " fill-opacity="1" fill-rule="nonzero"/></g><path fill="#cd7433" d="M 25.226562 14.117188 C 25.171875 14.117188 25.15625 14.210938 25.214844 14.21875 C 25.542969 14.265625 25.800781 14.1875 26.109375 14.0625 C 26.535156 13.890625 26.886719 13.734375 27.285156 13.699219 C 27.273438 13.699219 27.257812 13.695312 27.246094 13.691406 C 27.445312 13.652344 27.65625 13.617188 27.863281 13.582031 C 27.722656 13.554688 27.574219 13.535156 27.429688 13.53125 C 27.023438 13.511719 26.667969 13.667969 26.308594 13.824219 C 25.960938 13.972656 25.617188 14.121094 25.226562 14.117188 " fill-opacity="1" fill-rule="nonzero"/><path fill="#cd7433" d="M 28.882812 17.367188 C 28.5 17.296875 28.117188 17.230469 27.726562 17.253906 C 27.5 17.269531 27.273438 17.308594 27.042969 17.320312 C 26.820312 17.332031 26.28125 17.285156 26.5625 17.019531 C 26.746094 16.847656 27.421875 16.90625 27.691406 16.90625 C 28.078125 16.910156 28.464844 16.945312 28.839844 16.90625 C 28.839844 16.867188 28.839844 16.824219 28.839844 16.78125 C 28.199219 16.839844 27.554688 16.75 26.910156 16.835938 C 26.714844 16.859375 26.148438 16.890625 26.136719 17.179688 C 26.121094 17.53125 26.855469 17.484375 27.042969 17.480469 C 27.328125 17.472656 27.613281 17.417969 27.902344 17.417969 C 28.25 17.414062 28.582031 17.507812 28.914062 17.570312 C 28.902344 17.503906 28.890625 17.4375 28.882812 17.367188 " fill-opacity="1" fill-rule="nonzero"/><g clip-path="url(#11fe40a32a)"><g clip-path="url(#fe33d0c95a)"><path fill="#893500" d="M 23.800781 17.8125 L 26.128906 17.8125 L 26.128906 17.914062 L 23.800781 17.914062 " fill-opacity="1" fill-rule="nonzero"/></g></g><path fill="#c8723e" d="M 21.273438 17.988281 C 21.292969 16.09375 21.414062 13.867188 21.246094 11.96875 C 22.46875 11.882812 23.695312 11.84375 24.917969 11.84375 C 25.113281 11.84375 25.3125 11.84375 25.507812 11.847656 C 25.492188 12.019531 25.492188 12.199219 25.527344 12.402344 C 25.535156 12.4375 25.539062 12.472656 25.546875 12.507812 C 25.382812 12.546875 25.21875 12.585938 25.046875 12.605469 C 24.957031 12.617188 24.953125 12.75 25.042969 12.75 C 25.046875 12.75 25.046875 12.75 25.046875 12.75 C 25.226562 12.742188 25.398438 12.703125 25.570312 12.664062 C 25.597656 12.808594 25.621094 12.957031 25.644531 13.105469 C 25.464844 13.117188 25.28125 13.132812 25.09375 13.136719 C 25.007812 13.140625 25.007812 13.265625 25.09375 13.269531 C 25.113281 13.269531 25.128906 13.269531 25.148438 13.269531 C 25.320312 13.269531 25.492188 13.25 25.664062 13.230469 C 25.707031 13.496094 25.75 13.761719 25.785156 14.027344 C 25.613281 14.082031 25.433594 14.117188 25.246094 14.117188 C 25.242188 14.117188 25.234375 14.117188 25.230469 14.117188 C 25.226562 14.117188 25.226562 14.117188 25.226562 14.117188 C 25.171875 14.117188 25.15625 14.210938 25.214844 14.21875 C 25.28125 14.226562 25.34375 14.230469 25.402344 14.230469 C 25.542969 14.230469 25.675781 14.207031 25.804688 14.171875 C 25.8125 14.226562 25.820312 14.285156 25.828125 14.339844 C 25.6875 14.359375 25.550781 14.375 25.410156 14.390625 C 25.351562 14.394531 25.347656 14.476562 25.410156 14.476562 C 25.429688 14.476562 25.449219 14.476562 25.472656 14.476562 C 25.59375 14.476562 25.71875 14.472656 25.84375 14.460938 C 25.851562 14.566406 25.867188 14.71875 25.886719 14.90625 C 25.621094 14.914062 25.355469 14.921875 25.09375 14.925781 C 24.992188 14.929688 24.992188 15.078125 25.09375 15.078125 C 25.121094 15.078125 25.148438 15.078125 25.175781 15.078125 C 25.414062 15.078125 25.65625 15.074219 25.898438 15.066406 C 25.917969 15.242188 25.933594 15.441406 25.953125 15.648438 C 25.925781 15.652344 25.898438 15.652344 25.871094 15.652344 C 25.753906 15.652344 25.632812 15.640625 25.511719 15.613281 C 25.507812 15.613281 25.503906 15.613281 25.5 15.613281 C 25.445312 15.613281 25.425781 15.695312 25.484375 15.710938 C 25.636719 15.75 25.78125 15.765625 25.921875 15.765625 C 25.9375 15.765625 25.949219 15.765625 25.964844 15.765625 C 25.972656 15.882812 25.984375 16 25.996094 16.121094 C 25.652344 16.171875 25.332031 16.292969 25.121094 16.578125 C 25.082031 16.628906 25.128906 16.707031 25.1875 16.707031 C 25.191406 16.707031 25.191406 16.707031 25.195312 16.707031 C 25.316406 16.695312 25.441406 16.691406 25.5625 16.691406 C 25.722656 16.691406 25.882812 16.699219 26.046875 16.707031 C 26.082031 17.152344 26.113281 17.5625 26.128906 17.8125 C 25.351562 17.847656 24.578125 17.882812 23.800781 17.914062 C 22.960938 17.949219 22.117188 17.976562 21.273438 17.988281 " fill-opacity="1" fill-rule="nonzero"/><path fill="#c16026" d="M 25.921875 15.765625 C 25.78125 15.765625 25.636719 15.75 25.484375 15.710938 C 25.425781 15.695312 25.445312 15.613281 25.5 15.613281 C 25.503906 15.613281 25.507812 15.613281 25.511719 15.613281 C 25.632812 15.640625 25.753906 15.652344 25.871094 15.652344 C 25.898438 15.652344 25.925781 15.652344 25.953125 15.648438 C 25.957031 15.6875 25.960938 15.726562 25.964844 15.765625 C 25.949219 15.765625 25.9375 15.765625 25.921875 15.765625 " fill-opacity="1" fill-rule="nonzero"/><path fill="#c16026" d="M 25.042969 12.75 C 24.953125 12.75 24.957031 12.617188 25.046875 12.605469 C 25.21875 12.585938 25.382812 12.546875 25.546875 12.507812 C 25.554688 12.558594 25.5625 12.609375 25.570312 12.664062 C 25.398438 12.703125 25.226562 12.742188 25.046875 12.75 C 25.046875 12.75 25.046875 12.75 25.042969 12.75 " fill-opacity="1" fill-rule="nonzero"/><path fill="#c16026" d="M 25.472656 14.476562 C 25.449219 14.476562 25.429688 14.476562 25.410156 14.476562 C 25.351562 14.476562 25.351562 14.394531 25.410156 14.390625 C 25.550781 14.375 25.6875 14.359375 25.828125 14.339844 C 25.828125 14.34375 25.828125 14.34375 25.828125 14.34375 C 25.832031 14.367188 25.835938 14.40625 25.84375 14.460938 C 25.71875 14.472656 25.59375 14.476562 25.472656 14.476562 " fill-opacity="1" fill-rule="nonzero"/><path fill="#c8723e" d="M 26.03125 16.554688 C 25.898438 16.546875 25.773438 16.53125 25.65625 16.511719 C 25.417969 16.472656 25.375 16.507812 25.65625 16.386719 C 25.765625 16.339844 25.886719 16.3125 26.011719 16.292969 C 26.015625 16.378906 26.023438 16.46875 26.03125 16.554688 " fill-opacity="1" fill-rule="nonzero"/><path fill="#c16026" d="M 25.148438 13.269531 C 25.128906 13.269531 25.113281 13.269531 25.09375 13.269531 C 25.007812 13.265625 25.007812 13.140625 25.09375 13.136719 C 25.28125 13.132812 25.464844 13.117188 25.644531 13.105469 C 25.652344 13.148438 25.660156 13.1875 25.664062 13.230469 C 25.492188 13.25 25.320312 13.269531 25.148438 13.269531 " fill-opacity="1" fill-rule="nonzero"/><path fill="#c16026" d="M 25.1875 16.707031 C 25.128906 16.707031 25.082031 16.628906 25.121094 16.578125 C 25.332031 16.292969 25.652344 16.171875 25.996094 16.121094 C 26 16.179688 26.003906 16.234375 26.011719 16.292969 C 25.886719 16.3125 25.765625 16.339844 25.65625 16.386719 C 25.375 16.507812 25.417969 16.472656 25.65625 16.511719 C 25.773438 16.53125 25.898438 16.546875 26.03125 16.554688 C 26.035156 16.605469 26.039062 16.65625 26.046875 16.707031 C 25.882812 16.699219 25.722656 16.691406 25.5625 16.691406 C 25.441406 16.691406 25.316406 16.695312 25.195312 16.707031 C 25.191406 16.707031 25.191406 16.707031 25.1875 16.707031 " fill-opacity="1" fill-rule="nonzero"/><path fill="#c16026" d="M 25.175781 15.078125 C 25.148438 15.078125 25.121094 15.078125 25.09375 15.078125 C 24.992188 15.078125 24.992188 14.929688 25.09375 14.925781 C 25.355469 14.921875 25.621094 14.914062 25.886719 14.90625 C 25.890625 14.957031 25.894531 15.011719 25.902344 15.066406 C 25.65625 15.074219 25.414062 15.078125 25.175781 15.078125 " fill-opacity="1" fill-rule="nonzero"/><path fill="#c16026" d="M 25.402344 14.230469 C 25.34375 14.230469 25.28125 14.226562 25.214844 14.21875 C 25.15625 14.210938 25.171875 14.117188 25.226562 14.117188 C 25.234375 14.117188 25.242188 14.117188 25.246094 14.117188 C 25.433594 14.117188 25.613281 14.082031 25.785156 14.027344 C 25.792969 14.074219 25.800781 14.121094 25.804688 14.171875 C 25.671875 14.207031 25.542969 14.230469 25.402344 14.230469 " fill-opacity="1" fill-rule="nonzero"/><g clip-path="url(#44e12ce1ae)"><path fill="#d58952" d="M 8.988281 16.996094 C 8.925781 17.191406 8.953125 17.414062 9.0625 17.585938 C 6.472656 17.84375 3.753906 17.980469 1.152344 17.964844 C 1.085938 17.492188 1.039062 17.015625 0.992188 16.539062 C 0.945312 16.054688 1.023438 15.476562 0.972656 14.992188 C 1.566406 15.179688 2.027344 15.328125 2.605469 15.101562 C 2.09375 14.867188 1.53125 14.714844 0.980469 14.597656 C 0.914062 13.851562 1.070312 13.0625 1.203125 12.324219 C 2.472656 12.109375 3.765625 12.03125 5.054688 12.09375 C 6.136719 12.144531 7.226562 11.996094 8.3125 11.996094 C 8.515625 13.617188 9.484375 15.433594 8.988281 16.996094 " fill-opacity="1" fill-rule="nonzero"/></g><g clip-path="url(#22e77e5758)"><path fill="#cd7433" d="M 4.484375 14.890625 C 4.566406 14.925781 4.601562 14.796875 4.523438 14.761719 C 3.726562 14.445312 2.875 14.460938 2.019531 14.476562 C 1.671875 14.484375 1.320312 14.492188 0.972656 14.472656 C 0.976562 14.511719 0.976562 14.550781 0.980469 14.589844 C 1.417969 14.648438 1.859375 14.640625 2.300781 14.632812 C 3.039062 14.617188 3.773438 14.605469 4.484375 14.890625 " fill-opacity="1" fill-rule="nonzero"/></g><g clip-path="url(#85f6a4cae3)"><path fill="#cd7433" d="M 3.292969 14.0625 C 2.511719 14.085938 1.746094 13.917969 0.980469 13.875 C 0.976562 13.929688 0.972656 13.984375 0.96875 14.039062 C 1.613281 14.070312 2.257812 14.191406 2.910156 14.21875 C 3.527344 14.246094 4.3125 14.222656 4.613281 13.597656 C 4.628906 13.558594 4.617188 13.5 4.566406 13.488281 C 3.960938 13.371094 3.375 13.292969 2.757812 13.359375 C 2.164062 13.425781 1.609375 13.417969 1.023438 13.414062 C 1.019531 13.453125 1.015625 13.496094 1.007812 13.535156 C 1.328125 13.558594 1.644531 13.589844 1.960938 13.585938 C 2.382812 13.582031 2.789062 13.476562 3.210938 13.46875 C 3.492188 13.464844 3.800781 13.488281 4.074219 13.542969 C 4.3125 13.59375 4.441406 13.527344 4.3125 13.75 C 4.144531 14.039062 3.582031 14.054688 3.292969 14.0625 " fill-opacity="1" fill-rule="nonzero"/></g><path fill="#cd7433" d="M 4.148438 12.074219 C 4.042969 12.074219 3.933594 12.078125 3.828125 12.078125 C 3.675781 12.152344 3.523438 12.222656 3.367188 12.277344 C 2.816406 12.476562 2.257812 12.386719 1.710938 12.246094 C 1.652344 12.253906 1.59375 12.265625 1.539062 12.273438 C 2.523438 12.671875 3.320312 12.496094 4.148438 12.074219 " fill-opacity="1" fill-rule="nonzero"/><g clip-path="url(#c2ca2841a5)"><path fill="#cd7433" d="M 2.363281 15.476562 C 3.019531 15.300781 4.203125 15.511719 4.808594 15.175781 C 4.898438 15.125 4.824219 14.976562 4.730469 15.027344 C 4.183594 15.308594 3.136719 15.148438 2.554688 15.269531 C 1.996094 15.386719 1.507812 15.539062 0.988281 15.515625 C 0.988281 15.5625 0.988281 15.609375 0.984375 15.65625 C 1.441406 15.695312 1.898438 15.601562 2.363281 15.476562 " fill-opacity="1" fill-rule="nonzero"/></g><path fill="#cd7433" d="M 2.648438 17.511719 C 2.925781 17.46875 3.175781 17.339844 3.449219 17.289062 C 3.820312 17.222656 4.179688 17.316406 4.546875 17.316406 C 4.644531 17.316406 4.644531 17.167969 4.546875 17.167969 C 4.03125 17.167969 3.707031 17.066406 3.210938 17.207031 C 2.832031 17.316406 2.476562 17.390625 2.082031 17.40625 C 1.808594 17.417969 1.445312 17.476562 1.089844 17.492188 C 1.09375 17.527344 1.097656 17.566406 1.105469 17.601562 C 1.355469 17.589844 1.597656 17.554688 1.75 17.550781 C 2.046875 17.539062 2.355469 17.550781 2.648438 17.511719 " fill-opacity="1" fill-rule="nonzero"/><path fill="#cd7433" d="M 3.511719 17.796875 C 4.027344 17.699219 5.957031 17.628906 6.464844 17.503906 C 6.523438 17.488281 6.511719 17.394531 6.453125 17.402344 C 5.929688 17.449219 3.988281 17.558594 3.476562 17.671875 C 3.171875 17.742188 2.875 17.839844 2.582031 17.957031 C 2.699219 17.953125 2.816406 17.953125 2.933594 17.953125 C 3.125 17.890625 3.316406 17.835938 3.511719 17.796875 " fill-opacity="1" fill-rule="nonzero"/><g clip-path="url(#c7c280254b)"><path fill="#cd7433" d="M 4.664062 16.996094 C 4.75 17.011719 4.785156 16.890625 4.703125 16.871094 C 3.902344 16.695312 3.085938 16.640625 2.273438 16.582031 C 2.050781 16.5625 1.828125 16.558594 1.613281 16.519531 C 1.378906 16.484375 1.335938 16.527344 1.335938 16.261719 C 1.335938 15.816406 2.300781 15.695312 2.660156 15.65625 C 2.710938 15.652344 2.710938 15.582031 2.660156 15.578125 C 2.367188 15.566406 1.183594 15.746094 0.976562 16.15625 C 0.976562 16.25 0.980469 16.34375 0.984375 16.433594 C 1.109375 16.65625 1.605469 16.667969 1.808594 16.691406 C 2.765625 16.792969 3.714844 16.851562 4.664062 16.996094 " fill-opacity="1" fill-rule="nonzero"/></g><path fill="#cd7433" d="M 3.207031 15.964844 C 3.496094 15.859375 3.816406 15.808594 4.121094 15.785156 C 4.28125 15.773438 4.589844 15.722656 4.738281 15.808594 C 4.769531 15.824219 4.816406 15.796875 4.800781 15.761719 C 4.695312 15.511719 4.015625 15.652344 3.824219 15.679688 C 3.5 15.722656 2.8125 15.796875 2.710938 16.183594 C 2.703125 16.21875 2.71875 16.25 2.746094 16.269531 C 3.125 16.511719 3.550781 16.496094 3.984375 16.476562 C 4.253906 16.464844 4.523438 16.457031 4.785156 16.507812 C 4.886719 16.53125 4.933594 16.375 4.828125 16.351562 C 4.433594 16.273438 4.042969 16.328125 3.644531 16.328125 C 3.523438 16.332031 2.929688 16.335938 2.898438 16.183594 C 2.878906 16.089844 3.121094 16 3.207031 15.964844 " fill-opacity="1" fill-rule="nonzero"/><path fill="#f0d4c0" d="M 8.945312 17.597656 C 8.980469 17.59375 9.015625 17.589844 9.050781 17.589844 C 9.015625 17.589844 8.980469 17.59375 8.945312 17.597656 M 5.527344 12.105469 C 5.371094 12.105469 5.210938 12.101562 5.054688 12.09375 C 5.019531 12.089844 4.988281 12.089844 4.957031 12.089844 C 5.117188 12.070312 5.273438 12.0625 5.421875 12.0625 C 5.597656 12.0625 5.769531 12.074219 5.929688 12.097656 C 5.796875 12.101562 5.664062 12.105469 5.527344 12.105469 " fill-opacity="1" fill-rule="nonzero"/><path fill="#9b4300" d="M 8.941406 17.597656 C 8.941406 17.597656 8.945312 17.597656 8.945312 17.597656 C 8.945312 17.597656 8.945312 17.597656 8.941406 17.597656 M 8.953125 17.207031 C 8.953125 17.136719 8.964844 17.0625 8.988281 16.996094 C 8.992188 16.980469 8.996094 16.960938 9.003906 16.945312 C 8.996094 16.960938 8.992188 16.980469 8.988281 16.996094 C 8.964844 17.0625 8.953125 17.136719 8.953125 17.207031 " fill-opacity="1" fill-rule="nonzero"/><path fill="#893500" d="M 7.507812 17.726562 C 7.511719 17.722656 7.515625 17.722656 7.519531 17.722656 C 7.515625 17.722656 7.511719 17.722656 7.507812 17.726562 M 7.523438 17.722656 C 8 17.6875 8.472656 17.644531 8.941406 17.597656 C 8.472656 17.644531 8 17.6875 7.523438 17.722656 " fill-opacity="1" fill-rule="nonzero"/><path fill="#c8723e" d="M 4.105469 17.921875 C 4.101562 17.855469 4.101562 17.792969 4.097656 17.730469 C 4.882812 17.660156 6.082031 17.597656 6.464844 17.503906 C 6.519531 17.488281 6.511719 17.402344 6.457031 17.402344 C 6.453125 17.402344 6.453125 17.402344 6.453125 17.402344 C 6.0625 17.4375 4.882812 17.507812 4.09375 17.589844 C 4.089844 17.488281 4.089844 17.386719 4.085938 17.285156 C 4.242188 17.296875 4.394531 17.316406 4.546875 17.316406 C 4.644531 17.316406 4.644531 17.167969 4.546875 17.167969 C 4.378906 17.167969 4.226562 17.15625 4.085938 17.148438 C 4.082031 17.070312 4.082031 16.996094 4.082031 16.917969 C 4.277344 16.941406 4.472656 16.96875 4.664062 16.996094 C 4.667969 17 4.675781 17 4.679688 17 C 4.753906 17 4.78125 16.890625 4.703125 16.871094 C 4.496094 16.828125 4.289062 16.789062 4.082031 16.757812 C 4.082031 16.664062 4.078125 16.570312 4.082031 16.472656 C 4.160156 16.46875 4.238281 16.46875 4.320312 16.46875 C 4.476562 16.46875 4.632812 16.476562 4.785156 16.507812 C 4.789062 16.511719 4.796875 16.511719 4.804688 16.511719 C 4.894531 16.511719 4.925781 16.371094 4.828125 16.351562 C 4.664062 16.320312 4.496094 16.308594 4.332031 16.308594 C 4.25 16.308594 4.164062 16.3125 4.082031 16.3125 C 4.082031 16.140625 4.082031 15.964844 4.085938 15.789062 C 4.097656 15.789062 4.109375 15.785156 4.121094 15.785156 C 4.210938 15.777344 4.351562 15.757812 4.480469 15.757812 C 4.582031 15.757812 4.675781 15.769531 4.738281 15.808594 C 4.746094 15.808594 4.753906 15.8125 4.757812 15.8125 C 4.785156 15.8125 4.8125 15.789062 4.800781 15.761719 C 4.753906 15.648438 4.589844 15.617188 4.40625 15.617188 C 4.300781 15.617188 4.1875 15.625 4.089844 15.640625 C 4.089844 15.546875 4.09375 15.453125 4.097656 15.359375 C 4.367188 15.332031 4.617188 15.28125 4.808594 15.175781 C 4.886719 15.132812 4.839844 15.015625 4.765625 15.015625 C 4.753906 15.015625 4.742188 15.019531 4.730469 15.027344 C 4.558594 15.113281 4.339844 15.160156 4.101562 15.183594 C 4.105469 15.042969 4.109375 14.90625 4.117188 14.769531 C 4.242188 14.800781 4.363281 14.84375 4.484375 14.890625 C 4.496094 14.894531 4.503906 14.898438 4.511719 14.898438 C 4.574219 14.898438 4.59375 14.792969 4.523438 14.761719 C 4.390625 14.710938 4.257812 14.667969 4.121094 14.628906 C 4.132812 14.4375 4.140625 14.246094 4.152344 14.054688 C 4.34375 13.957031 4.507812 13.8125 4.613281 13.597656 C 4.628906 13.558594 4.617188 13.5 4.566406 13.488281 C 4.441406 13.464844 4.3125 13.441406 4.1875 13.421875 C 4.207031 13.050781 4.226562 12.492188 4.371094 12.074219 C 4.5625 12.078125 4.753906 12.082031 4.949219 12.089844 C 4.949219 12.089844 4.953125 12.089844 4.957031 12.089844 C 4.988281 12.089844 5.019531 12.089844 5.054688 12.09375 C 5.210938 12.101562 5.371094 12.105469 5.527344 12.105469 C 5.664062 12.105469 5.796875 12.101562 5.929688 12.097656 C 8.964844 12.53125 8.855469 16.84375 9.03125 16.847656 C 9.019531 16.878906 9.011719 16.914062 9.003906 16.945312 C 8.996094 16.960938 8.992188 16.980469 8.988281 16.996094 C 8.964844 17.0625 8.953125 17.136719 8.953125 17.207031 C 8.953125 17.339844 8.992188 17.472656 9.0625 17.585938 C 9.058594 17.585938 9.054688 17.585938 9.050781 17.589844 C 9.015625 17.589844 8.980469 17.59375 8.945312 17.597656 C 8.945312 17.597656 8.941406 17.597656 8.941406 17.597656 C 8.472656 17.644531 8 17.6875 7.523438 17.722656 C 7.523438 17.722656 7.519531 17.722656 7.519531 17.722656 C 7.515625 17.722656 7.511719 17.722656 7.507812 17.726562 C 6.382812 17.8125 5.242188 17.878906 4.105469 17.921875 M 4.160156 13.898438 C 4.167969 13.800781 4.171875 13.703125 4.179688 13.605469 C 4.179688 13.589844 4.179688 13.574219 4.183594 13.558594 C 4.347656 13.578125 4.417969 13.5625 4.3125 13.75 C 4.277344 13.808594 4.222656 13.859375 4.160156 13.898438 " fill-opacity="1" fill-rule="nonzero"/><path fill="#c16026" d="M 4.511719 14.898438 C 4.503906 14.898438 4.496094 14.894531 4.484375 14.890625 C 4.363281 14.84375 4.242188 14.800781 4.117188 14.769531 C 4.117188 14.722656 4.121094 14.675781 4.121094 14.628906 C 4.257812 14.667969 4.390625 14.710938 4.523438 14.761719 C 4.59375 14.792969 4.574219 14.898438 4.511719 14.898438 " fill-opacity="1" fill-rule="nonzero"/><path fill="#c16026" d="M 4.152344 14.054688 C 4.15625 14 4.15625 13.949219 4.160156 13.898438 C 4.222656 13.859375 4.277344 13.808594 4.3125 13.75 C 4.417969 13.5625 4.347656 13.578125 4.183594 13.558594 C 4.183594 13.519531 4.1875 13.472656 4.1875 13.421875 C 4.3125 13.441406 4.441406 13.464844 4.566406 13.488281 C 4.617188 13.5 4.628906 13.558594 4.613281 13.597656 C 4.507812 13.8125 4.34375 13.957031 4.152344 14.054688 " fill-opacity="1" fill-rule="nonzero"/><path fill="#c16026" d="M 4.097656 15.359375 C 4.097656 15.300781 4.101562 15.242188 4.101562 15.183594 C 4.339844 15.160156 4.558594 15.113281 4.730469 15.027344 C 4.742188 15.019531 4.753906 15.015625 4.765625 15.015625 C 4.839844 15.015625 4.886719 15.132812 4.808594 15.175781 C 4.617188 15.28125 4.367188 15.332031 4.097656 15.359375 " fill-opacity="1" fill-rule="nonzero"/><path fill="#c16026" d="M 4.546875 17.316406 C 4.394531 17.316406 4.242188 17.296875 4.085938 17.285156 C 4.085938 17.238281 4.085938 17.195312 4.085938 17.148438 C 4.226562 17.15625 4.378906 17.167969 4.546875 17.167969 C 4.644531 17.167969 4.644531 17.316406 4.546875 17.316406 " fill-opacity="1" fill-rule="nonzero"/><path fill="#c16026" d="M 4.097656 17.730469 C 4.097656 17.683594 4.097656 17.636719 4.09375 17.589844 C 4.882812 17.507812 6.0625 17.4375 6.453125 17.402344 C 6.453125 17.402344 6.453125 17.402344 6.457031 17.402344 C 6.511719 17.402344 6.519531 17.488281 6.464844 17.503906 C 6.082031 17.597656 4.882812 17.660156 4.097656 17.730469 " fill-opacity="1" fill-rule="nonzero"/><path fill="#c16026" d="M 4.679688 17 C 4.675781 17 4.667969 17 4.664062 16.996094 C 4.472656 16.96875 4.277344 16.941406 4.082031 16.917969 C 4.082031 16.863281 4.082031 16.8125 4.082031 16.757812 C 4.289062 16.789062 4.496094 16.828125 4.703125 16.871094 C 4.78125 16.890625 4.753906 17 4.679688 17 " fill-opacity="1" fill-rule="nonzero"/><path fill="#c16026" d="M 4.804688 16.511719 C 4.796875 16.511719 4.789062 16.511719 4.785156 16.507812 C 4.632812 16.476562 4.476562 16.46875 4.320312 16.46875 C 4.238281 16.46875 4.160156 16.46875 4.082031 16.472656 C 4.082031 16.421875 4.082031 16.367188 4.082031 16.3125 C 4.164062 16.3125 4.25 16.308594 4.332031 16.308594 C 4.496094 16.308594 4.664062 16.320312 4.828125 16.351562 C 4.925781 16.371094 4.894531 16.511719 4.804688 16.511719 M 4.757812 15.8125 C 4.753906 15.8125 4.746094 15.808594 4.738281 15.808594 C 4.675781 15.769531 4.582031 15.757812 4.480469 15.757812 C 4.351562 15.757812 4.210938 15.777344 4.121094 15.785156 C 4.109375 15.785156 4.097656 15.789062 4.085938 15.789062 C 4.085938 15.738281 4.089844 15.6875 4.089844 15.640625 C 4.1875 15.625 4.300781 15.617188 4.40625 15.617188 C 4.589844 15.617188 4.753906 15.648438 4.800781 15.761719 C 4.8125 15.789062 4.785156 15.8125 4.757812 15.8125 " fill-opacity="1" fill-rule="nonzero"/><g clip-path="url(#2031609596)"><path fill="#d58952" d="M 15.539062 16.976562 C 12.023438 17.128906 8.46875 17.050781 4.957031 16.867188 C 4.820312 16.605469 4.882812 16.289062 4.964844 16.007812 C 5.046875 15.726562 5.152344 15.433594 5.089844 15.148438 C 5.0625 15.023438 5.007812 14.882812 5.074219 14.773438 C 5.109375 14.714844 5.171875 14.675781 5.234375 14.640625 C 5.523438 14.476562 5.839844 14.257812 6.132812 14.089844 C 5.679688 14.167969 5.234375 14.191406 4.785156 14.269531 C 4.785156 13.839844 4.808594 13.351562 4.808594 12.925781 C 5.125 12.796875 5.441406 12.667969 5.761719 12.539062 C 5.390625 12.53125 5.113281 12.460938 4.742188 12.457031 C 4.878906 11.996094 5.011719 11.535156 5.148438 11.074219 C 8.214844 10.917969 11.457031 10.765625 14.523438 10.609375 C 18.046875 10.429688 21.25 10.660156 24.75 11.105469 C 24.773438 11.089844 24.917969 11.132812 24.941406 11.117188 C 24.925781 11.65625 24.863281 12.199219 24.753906 12.730469 C 24.210938 12.738281 23.660156 12.859375 23.136719 12.992188 C 23.707031 13.054688 24.273438 13.117188 24.84375 13.179688 C 24.878906 13.972656 24.925781 14.792969 24.960938 15.585938 C 24.539062 15.628906 24.097656 15.640625 23.675781 15.6875 C 24.085938 15.746094 24.5 15.804688 24.910156 15.863281 C 24.972656 16.113281 25.046875 16.324219 25.109375 16.574219 C 21.777344 16.453125 18.871094 16.828125 15.539062 16.976562 " fill-opacity="1" fill-rule="nonzero"/></g><path fill="#a55100" d="M 25.3125 16.007812 C 24.886719 15.949219 24.414062 16.265625 23.984375 16.207031 C 24.425781 16.160156 24.878906 16.148438 25.320312 16.101562 C 25.28125 15.296875 25.214844 14.167969 25.175781 13.363281 C 25.066406 13.351562 24.953125 13.191406 24.84375 13.179688 C 24.367188 13.128906 23.90625 13.519531 23.425781 13.464844 C 23.972656 13.332031 24.542969 13.203125 25.105469 13.195312 C 25.195312 12.757812 25.335938 11.738281 25.363281 11.289062 C 25.363281 11.289062 25.175781 11.140625 24.941406 11.117188 L 24.578125 11.996094 L 6.871094 11.996094 C 6.839844 12.03125 6.796875 12.054688 6.738281 12.0625 C 6.21875 12.121094 5.613281 11.324219 5.148438 11.074219 L 4.800781 11.253906 L 4.359375 12.917969 C 4.746094 12.921875 5.03125 12.996094 5.414062 13.003906 C 5.210938 13.082031 5.011719 12.84375 4.808594 12.925781 C 4.683594 12.972656 4.550781 13.347656 4.425781 13.394531 C 4.425781 13.832031 4.402344 14.328125 4.402344 14.761719 C 4.871094 14.683594 5.332031 14.660156 5.800781 14.582031 C 5.5 14.753906 5.375 14.601562 5.074219 14.773438 C 5.011719 14.808594 4.777344 14.957031 4.742188 15.015625 C 4.675781 15.128906 4.695312 15.53125 4.722656 15.65625 C 4.78125 15.949219 4.675781 16.246094 4.589844 16.535156 C 4.503906 16.820312 4.441406 17.140625 4.582031 17.410156 C 8.222656 17.59375 11.910156 17.675781 15.550781 17.519531 C 19.003906 17.367188 22.015625 16.988281 25.472656 17.109375 C 25.410156 16.855469 25.375 16.261719 25.3125 16.007812 " fill-opacity="1" fill-rule="nonzero"/><path fill="#cd7433" d="M 1.113281 12.835938 C 1.292969 12.828125 1.476562 12.835938 1.660156 12.882812 C 2.027344 12.976562 2.351562 13.136719 2.738281 13.113281 C 3.1875 13.082031 3.574219 12.835938 4.003906 12.726562 C 4.054688 12.714844 4.449219 12.699219 4.5 12.6875 C 4.507812 12.640625 4.519531 12.597656 4.527344 12.550781 C 4.097656 12.628906 3.371094 12.875 2.9375 12.957031 C 2.398438 13.0625 1.996094 12.816406 1.492188 12.734375 C 1.371094 12.714844 1.253906 12.710938 1.132812 12.71875 C 1.125 12.757812 1.121094 12.796875 1.113281 12.835938 " fill-opacity="1" fill-rule="nonzero"/><path fill="#914000" d="M 5.300781 14.59375 C 5.3125 14.617188 5.335938 14.636719 5.359375 14.644531 C 5.378906 14.640625 5.394531 14.640625 5.414062 14.636719 C 5.421875 14.632812 5.429688 14.632812 5.4375 14.625 C 5.640625 14.476562 5.835938 14.316406 6.035156 14.160156 C 6.0625 14.140625 6.070312 14.113281 6.066406 14.085938 C 6.117188 14.042969 6.164062 14 6.207031 13.945312 C 6.28125 13.859375 6.171875 13.746094 6.082031 13.820312 C 6.039062 13.855469 5.996094 13.886719 5.953125 13.917969 C 5.921875 13.871094 5.851562 13.84375 5.792969 13.894531 C 5.730469 13.949219 5.664062 14.003906 5.597656 14.0625 C 5.597656 14.027344 5.574219 13.988281 5.535156 13.992188 C 5.511719 13.996094 5.484375 14 5.460938 14.007812 C 5.46875 13.992188 5.476562 13.980469 5.484375 13.964844 C 5.519531 13.886719 5.441406 13.785156 5.355469 13.835938 C 5.3125 13.863281 5.273438 13.886719 5.234375 13.914062 C 5.214844 13.886719 5.183594 13.871094 5.140625 13.886719 C 5.132812 13.886719 5.125 13.894531 5.117188 13.898438 C 5.144531 13.855469 5.171875 13.816406 5.195312 13.773438 C 5.222656 13.722656 5.144531 13.679688 5.117188 13.730469 C 5.050781 13.839844 4.96875 13.941406 4.882812 14.039062 C 4.851562 14.066406 4.820312 14.09375 4.792969 14.125 C 4.789062 13.75 4.789062 13.367188 4.773438 12.992188 C 5.113281 12.882812 5.46875 12.773438 5.71875 12.535156 C 5.761719 12.496094 5.738281 12.429688 5.695312 12.410156 C 5.695312 12.410156 5.699219 12.410156 5.699219 12.40625 C 5.765625 12.363281 5.707031 12.265625 5.636719 12.300781 C 5.605469 12.316406 5.574219 12.332031 5.542969 12.347656 C 5.519531 12.324219 5.484375 12.3125 5.449219 12.328125 C 5.429688 12.339844 5.40625 12.34375 5.382812 12.355469 C 5.398438 12.292969 5.335938 12.21875 5.265625 12.261719 C 5.210938 12.300781 5.148438 12.328125 5.085938 12.351562 C 5.082031 12.339844 5.074219 12.332031 5.066406 12.324219 C 5.074219 12.3125 5.082031 12.304688 5.089844 12.292969 C 5.121094 12.261719 5.152344 12.230469 5.175781 12.199219 C 5.210938 12.15625 5.148438 12.101562 5.105469 12.128906 C 5.070312 12.152344 5.03125 12.183594 4.996094 12.210938 C 4.980469 12.203125 4.957031 12.203125 4.9375 12.222656 C 4.90625 12.246094 4.878906 12.28125 4.855469 12.316406 C 4.875 12.203125 4.894531 12.089844 4.910156 11.976562 C 4.996094 11.679688 5.097656 11.382812 5.148438 11.074219 L 4.972656 11.164062 C 4.929688 11.253906 4.902344 11.351562 4.882812 11.449219 C 4.757812 11.800781 4.671875 12.171875 4.644531 12.535156 C 4.640625 12.539062 4.640625 12.539062 4.636719 12.542969 C 4.539062 12.652344 4.445312 12.769531 4.367188 12.894531 L 4.359375 12.917969 C 4.507812 12.921875 4.640625 12.933594 4.773438 12.945312 C 4.730469 12.980469 4.691406 13.039062 4.648438 13.105469 C 4.65625 13.464844 4.660156 13.828125 4.664062 14.1875 C 4.664062 14.210938 4.679688 14.226562 4.695312 14.238281 C 4.664062 14.273438 4.632812 14.316406 4.605469 14.355469 C 4.523438 14.460938 4.453125 14.570312 4.40625 14.6875 C 4.402344 14.710938 4.402344 14.738281 4.402344 14.761719 C 4.65625 14.71875 4.90625 14.695312 5.15625 14.667969 C 5.203125 14.644531 5.253906 14.621094 5.300781 14.59375 " fill-opacity="1" fill-rule="nonzero"/><path fill="#914000" d="M 19.949219 16.761719 C 19.789062 16.78125 19.628906 16.800781 19.46875 16.816406 C 19.464844 16.816406 19.457031 16.816406 19.453125 16.816406 C 19.390625 16.820312 19.324219 16.824219 19.261719 16.828125 C 19.53125 16.796875 19.804688 16.765625 20.078125 16.734375 C 20.035156 16.746094 19.992188 16.753906 19.949219 16.761719 Z M 16.957031 16.78125 C 16.910156 16.769531 16.859375 16.757812 16.8125 16.742188 C 17.1875 16.710938 17.585938 16.734375 17.976562 16.753906 C 17.636719 16.773438 17.296875 16.785156 16.957031 16.78125 Z M 25.433594 16.90625 C 25.394531 16.84375 25.355469 16.78125 25.316406 16.714844 C 25.273438 16.636719 25.226562 16.5625 25.167969 16.5 C 25.164062 16.488281 25.15625 16.476562 25.148438 16.464844 C 25.1875 16.464844 25.230469 16.433594 25.21875 16.386719 C 25.183594 16.1875 25.109375 15.996094 25.121094 15.792969 C 25.121094 15.765625 25.105469 15.753906 25.082031 15.75 C 25.121094 15.398438 25.101562 15.042969 25.058594 14.691406 C 25.003906 14.199219 24.984375 13.707031 24.929688 13.214844 C 24.925781 13.210938 24.917969 13.207031 24.910156 13.203125 C 24.917969 13.203125 24.921875 13.203125 24.929688 13.203125 C 24.929688 13.1875 24.925781 13.175781 24.925781 13.160156 C 24.949219 13.140625 24.960938 13.109375 24.945312 13.074219 C 24.945312 13.070312 24.941406 13.0625 24.9375 13.054688 C 24.9375 13.050781 24.933594 13.046875 24.929688 13.042969 C 24.910156 13 24.890625 12.960938 24.867188 12.921875 C 24.84375 12.878906 24.820312 12.835938 24.796875 12.792969 C 24.789062 12.777344 24.773438 12.765625 24.757812 12.761719 C 24.742188 12.746094 24.71875 12.734375 24.6875 12.738281 C 24.355469 12.777344 23.949219 12.734375 23.621094 12.851562 C 23.574219 12.847656 23.527344 12.847656 23.480469 12.851562 C 23.398438 12.855469 23.355469 12.949219 23.414062 13.007812 C 23.433594 13.027344 23.457031 13.046875 23.480469 13.066406 C 23.480469 13.085938 23.496094 13.109375 23.519531 13.113281 C 23.535156 13.113281 23.550781 13.117188 23.566406 13.117188 C 23.738281 13.210938 23.96875 13.261719 24.179688 13.265625 C 24.351562 13.300781 24.535156 13.316406 24.710938 13.320312 C 24.75 13.324219 24.773438 13.296875 24.78125 13.265625 C 24.867188 14.042969 24.894531 14.828125 24.992188 15.605469 C 24.980469 15.617188 24.972656 15.632812 24.964844 15.648438 C 24.953125 15.636719 24.9375 15.628906 24.917969 15.628906 C 24.621094 15.613281 24.21875 15.5 23.953125 15.679688 C 23.925781 15.695312 23.9375 15.738281 23.96875 15.738281 C 24.011719 15.738281 24.054688 15.738281 24.097656 15.742188 C 24.101562 15.746094 24.109375 15.75 24.113281 15.75 C 24.382812 15.855469 24.671875 15.902344 24.957031 15.910156 C 25.019531 16.0625 25.019531 16.234375 25.046875 16.398438 C 25.03125 16.390625 25.019531 16.394531 25.011719 16.402344 C 24.148438 16.519531 23.230469 16.460938 22.359375 16.535156 C 22.28125 16.542969 22.207031 16.550781 22.128906 16.558594 C 22.167969 16.496094 22.132812 16.386719 22.039062 16.386719 C 21.746094 16.394531 21.453125 16.410156 21.160156 16.433594 C 20.269531 16.441406 19.378906 16.542969 18.484375 16.5625 C 17.855469 16.578125 17.039062 16.414062 16.433594 16.601562 C 16.351562 16.628906 16.347656 16.714844 16.394531 16.761719 C 16.296875 16.753906 16.199219 16.746094 16.101562 16.738281 C 15.992188 16.726562 15.992188 16.875 16.078125 16.910156 C 16.089844 16.914062 16.105469 16.917969 16.117188 16.921875 C 15.636719 16.929688 15.152344 16.9375 14.671875 16.949219 C 13.476562 16.984375 12.28125 17.042969 11.085938 17.078125 C 11.332031 17.042969 11.574219 16.992188 11.808594 16.921875 C 11.890625 16.894531 11.878906 16.765625 11.785156 16.769531 C 10.882812 16.800781 9.988281 16.867188 9.085938 16.882812 C 8.640625 16.886719 8.195312 16.886719 7.753906 16.871094 C 7.316406 16.859375 6.753906 16.933594 6.339844 16.796875 C 6.300781 16.785156 6.277344 16.808594 6.273438 16.839844 C 5.886719 16.832031 5.46875 16.761719 5.085938 16.8125 C 5.117188 16.765625 5.070312 16.71875 5.027344 16.726562 C 4.902344 16.335938 5.03125 15.972656 5.113281 15.582031 C 5.171875 15.3125 5.113281 15.117188 5.082031 14.851562 C 5.078125 14.820312 5.0625 14.800781 5.039062 14.792969 C 5.019531 14.808594 4.988281 14.824219 4.960938 14.84375 C 4.933594 15.03125 4.984375 15.21875 4.957031 15.402344 C 4.925781 15.601562 4.84375 15.789062 4.804688 15.988281 C 4.75 16.296875 4.742188 16.582031 4.855469 16.875 C 4.726562 17.007812 4.597656 17.167969 4.550781 17.335938 C 4.558594 17.359375 4.570312 17.382812 4.582031 17.410156 C 4.609375 17.410156 4.640625 17.410156 4.667969 17.414062 C 4.671875 17.410156 4.671875 17.410156 4.671875 17.40625 C 4.738281 17.277344 4.820312 17.164062 4.90625 17.050781 C 4.921875 17.058594 4.9375 17.066406 4.960938 17.066406 C 6.515625 17.140625 8.070312 17.386719 9.632812 17.375 C 11.398438 17.359375 13.164062 17.265625 14.929688 17.214844 C 16.648438 17.164062 18.433594 17.226562 20.136719 17.019531 C 21.007812 16.914062 21.878906 16.84375 22.753906 16.769531 C 23.382812 16.71875 24.035156 16.742188 24.667969 16.683594 C 24.800781 16.730469 24.925781 16.796875 25.046875 16.894531 C 25.121094 16.960938 25.207031 17.054688 25.300781 17.105469 C 25.359375 17.105469 25.414062 17.109375 25.472656 17.109375 C 25.457031 17.054688 25.445312 16.984375 25.433594 16.90625 " fill-opacity="1" fill-rule="nonzero"/><g clip-path="url(#a35831dc9a)"><path fill="#d58952" d="M 15.539062 16.976562 C 12.023438 17.128906 8.46875 17.050781 4.957031 16.867188 C 4.820312 16.605469 4.882812 16.289062 4.964844 16.007812 C 5.046875 15.726562 5.152344 15.433594 5.089844 15.148438 C 5.0625 15.023438 5.007812 14.882812 5.074219 14.773438 C 5.109375 14.714844 5.171875 14.675781 5.234375 14.640625 C 5.523438 14.476562 5.839844 14.257812 6.132812 14.089844 C 5.679688 14.167969 5.234375 14.191406 4.785156 14.269531 C 4.785156 13.839844 4.808594 13.351562 4.808594 12.925781 C 5.125 12.796875 5.441406 12.667969 5.761719 12.539062 C 5.390625 12.53125 5.113281 12.460938 4.742188 12.457031 C 4.878906 11.996094 5.011719 11.535156 5.148438 11.074219 C 8.214844 10.917969 11.457031 10.765625 14.523438 10.609375 C 18.046875 10.429688 21.25 10.660156 24.75 11.105469 C 24.773438 11.089844 24.917969 11.132812 24.941406 11.117188 C 24.925781 11.65625 24.863281 12.199219 24.753906 12.730469 C 24.210938 12.738281 23.660156 12.859375 23.136719 12.992188 C 23.707031 13.054688 24.273438 13.117188 24.84375 13.179688 C 24.878906 13.972656 24.925781 14.792969 24.960938 15.585938 C 24.539062 15.628906 24.097656 15.640625 23.675781 15.6875 C 24.085938 15.746094 24.5 15.804688 24.910156 15.863281 C 24.972656 16.113281 25.046875 16.324219 25.109375 16.574219 C 21.777344 16.453125 18.871094 16.828125 15.539062 16.976562 " fill-opacity="1" fill-rule="nonzero"/></g><path fill="#cd7433" d="M 6.746094 14.109375 C 7.214844 14.023438 7.695312 14.039062 8.167969 13.960938 C 9.347656 13.769531 10.523438 13.75 11.714844 13.667969 C 12.945312 13.585938 14.175781 13.554688 15.40625 13.546875 C 16.597656 13.542969 17.890625 13.390625 19.054688 13.683594 C 19.988281 13.917969 20.800781 14.382812 21.773438 14.496094 C 22.8125 14.617188 23.867188 14.566406 24.910156 14.574219 C 24.910156 14.519531 24.90625 14.46875 24.902344 14.414062 C 23.929688 14.425781 22.957031 14.417969 21.992188 14.332031 C 20.910156 14.230469 20.035156 13.714844 18.996094 13.492188 C 18 13.277344 16.953125 13.378906 15.941406 13.386719 C 14.792969 13.394531 13.648438 13.40625 12.503906 13.464844 C 11.753906 13.507812 10.992188 13.527344 10.234375 13.574219 C 10.777344 13.496094 11.304688 13.335938 11.851562 13.25 C 12.90625 13.082031 13.976562 13.082031 15.042969 13.09375 C 15.980469 13.101562 16.917969 13.09375 17.855469 13.125 C 18.910156 13.160156 19.917969 13.351562 20.953125 13.507812 C 22.230469 13.703125 23.554688 13.644531 24.863281 13.597656 C 24.859375 13.539062 24.855469 13.476562 24.855469 13.417969 C 23.332031 13.460938 21.804688 13.484375 20.3125 13.214844 C 18.40625 12.875 16.457031 12.929688 14.527344 12.933594 C 13.578125 12.933594 12.617188 12.960938 11.679688 13.128906 C 11.242188 13.207031 10.8125 13.339844 10.375 13.417969 C 9.742188 13.527344 9.113281 13.46875 8.488281 13.347656 C 7.246094 13.109375 6.007812 12.804688 4.804688 13.25 C 4.804688 13.285156 4.800781 13.320312 4.800781 13.351562 C 5.507812 13.121094 6.292969 13.09375 7.027344 13.179688 C 7.855469 13.277344 8.640625 13.578125 9.484375 13.617188 C 9.527344 13.621094 9.574219 13.621094 9.617188 13.621094 C 9.4375 13.636719 9.257812 13.652344 9.078125 13.675781 C 8.679688 13.71875 8.292969 13.8125 7.902344 13.871094 C 7.445312 13.933594 6.988281 13.917969 6.539062 14.019531 C 6.363281 14.058594 6.183594 14.113281 6.003906 14.167969 C 5.871094 14.246094 5.734375 14.332031 5.597656 14.417969 C 5.980469 14.3125 6.355469 14.179688 6.746094 14.109375 " fill-opacity="1" fill-rule="nonzero"/><path fill="#cd7433" d="M 10.761719 15.503906 C 11.414062 15.292969 12.265625 14.972656 12.960938 15.117188 C 13.253906 15.179688 13.441406 15.292969 13.339844 15.601562 C 13.246094 15.898438 12.9375 15.996094 12.65625 16.105469 C 12.371094 16.214844 12.0625 16.285156 11.796875 16.4375 C 11.714844 16.480469 11.785156 16.589844 11.867188 16.554688 C 12.332031 16.351562 13.609375 16.183594 13.578125 15.488281 C 13.550781 14.878906 12.691406 14.925781 12.273438 14.976562 C 11.425781 15.085938 10.617188 15.394531 9.816406 15.679688 C 8.230469 16.242188 6.625 16.40625 4.953125 16.511719 C 4.914062 16.511719 4.914062 16.566406 4.953125 16.566406 C 7.007812 16.671875 8.847656 16.117188 10.761719 15.503906 " fill-opacity="1" fill-rule="nonzero"/><path fill="#cd7433" d="M 17.828125 15.972656 C 17.585938 16.015625 17.164062 16.078125 17.046875 16.335938 C 16.933594 16.585938 17.042969 16.757812 17.246094 16.882812 C 17.3125 16.878906 17.382812 16.871094 17.449219 16.867188 C 17.425781 16.851562 17.402344 16.832031 17.386719 16.8125 C 16.65625 15.925781 18.910156 16.125 19.121094 16.164062 C 19.9375 16.3125 20.738281 16.480469 21.550781 16.605469 C 21.957031 16.589844 22.363281 16.574219 22.773438 16.5625 C 21.71875 16.472656 20.671875 16.324219 19.628906 16.109375 C 19.035156 15.984375 18.433594 15.867188 17.828125 15.972656 " fill-opacity="1" fill-rule="nonzero"/><g clip-path="url(#3754fa72a7)"><path fill="#cd7433" d="M 11.0625 11.441406 C 11.507812 11.367188 11.9375 11.257812 12.394531 11.304688 C 13.285156 11.398438 14.046875 11.582031 14.957031 11.453125 C 15.945312 11.3125 16.867188 11.007812 17.878906 11.015625 C 18.832031 11.023438 19.796875 11.152344 20.746094 11.261719 C 21.433594 11.339844 22.105469 11.464844 22.785156 11.539062 C 22.03125 11.511719 21.289062 11.445312 20.523438 11.53125 C 19.425781 11.660156 18.332031 11.949219 17.226562 12 C 16.234375 12.046875 14.808594 11.386719 14.019531 12.207031 C 13.730469 12.140625 13.441406 12.078125 13.148438 12.023438 C 12.644531 11.933594 12.242188 11.949219 11.746094 12.066406 C 11.132812 12.214844 10.390625 12.523438 9.789062 12.191406 C 10.253906 11.984375 10.605469 11.644531 11.0625 11.441406 Z M 5.09375 12.808594 C 5.40625 12.777344 5.734375 12.796875 6.046875 12.796875 C 6.792969 12.800781 7.535156 12.582031 8.273438 12.507812 C 8.753906 12.457031 9.261719 12.402344 9.714844 12.222656 C 9.707031 12.242188 9.710938 12.265625 9.738281 12.28125 C 10.625 12.882812 11.90625 11.992188 12.882812 12.128906 C 13.675781 12.242188 14.339844 12.480469 15.144531 12.578125 C 15.9375 12.675781 16.734375 12.609375 17.519531 12.523438 C 19.285156 12.324219 20.992188 12.3125 22.765625 12.351562 C 23.449219 12.367188 24.132812 12.375 24.8125 12.398438 C 24.824219 12.34375 24.832031 12.289062 24.839844 12.234375 C 24.234375 12.21875 23.628906 12.207031 23.027344 12.199219 C 21.34375 12.171875 19.695312 12.109375 18.015625 12.308594 C 17.230469 12.402344 16.433594 12.511719 15.636719 12.46875 C 15.132812 12.445312 14.640625 12.34375 14.152344 12.234375 C 14.703125 11.789062 15.457031 11.921875 16.140625 12.027344 C 16.789062 12.125 17.34375 12.128906 18 12.046875 C 18.972656 11.921875 19.933594 11.71875 20.910156 11.636719 C 21.847656 11.554688 22.765625 11.734375 23.699219 11.699219 C 23.757812 11.695312 23.78125 11.648438 23.773438 11.605469 C 24.15625 11.617188 24.542969 11.628906 24.914062 11.570312 C 24.921875 11.496094 24.925781 11.421875 24.929688 11.347656 C 24.296875 11.484375 23.554688 11.410156 22.949219 11.363281 C 22.042969 11.296875 21.152344 11.089844 20.246094 11.003906 C 19.382812 10.917969 18.515625 10.789062 17.644531 10.808594 C 17.128906 10.816406 16.636719 10.910156 16.144531 11.011719 C 16.550781 10.890625 16.945312 10.730469 17.292969 10.550781 C 17.09375 10.546875 16.894531 10.546875 16.695312 10.550781 C 16.152344 10.765625 15.609375 10.960938 15.007812 11.03125 C 14.386719 11.101562 13.949219 10.890625 13.417969 10.664062 C 13.28125 10.671875 13.144531 10.679688 13.007812 10.683594 C 13.453125 10.875 13.910156 11.136719 14.390625 11.207031 C 14.59375 11.238281 14.8125 11.242188 15.039062 11.226562 C 15.003906 11.234375 14.964844 11.238281 14.929688 11.246094 C 14.007812 11.375 13.210938 11.152344 12.308594 11.085938 C 12.015625 11.0625 11.761719 11.105469 11.492188 11.15625 C 11.480469 11.152344 11.464844 11.148438 11.449219 11.152344 C 11.382812 11.164062 11.316406 11.183594 11.253906 11.199219 C 10.730469 11.296875 10.203125 11.324219 9.671875 11.332031 C 8.84375 11.347656 8.003906 11.316406 7.191406 11.488281 C 6.734375 11.585938 6.277344 11.765625 5.808594 11.796875 C 5.515625 11.816406 5.238281 11.773438 4.960938 11.707031 C 4.949219 11.753906 4.9375 11.796875 4.921875 11.839844 C 5.425781 11.96875 5.910156 11.996094 6.480469 11.871094 C 7.519531 11.636719 8.484375 11.554688 9.546875 11.542969 C 9.902344 11.535156 10.257812 11.527344 10.609375 11.496094 C 10.363281 11.648438 10.132812 11.824219 9.859375 11.980469 C 9.226562 12.339844 8.414062 12.308594 7.710938 12.40625 C 7.226562 12.472656 6.753906 12.609375 6.265625 12.636719 C 6.175781 12.644531 6.085938 12.644531 5.996094 12.644531 C 5.984375 12.628906 5.96875 12.613281 5.941406 12.613281 C 5.839844 12.609375 5.734375 12.601562 5.632812 12.589844 C 5.542969 12.628906 5.453125 12.664062 5.363281 12.699219 C 5.273438 12.734375 5.183594 12.773438 5.09375 12.808594 " fill-opacity="1" fill-rule="nonzero"/></g><path fill="#cd7433" d="M 25.050781 16.351562 C 25.03125 16.292969 25.015625 16.234375 25 16.175781 C 24.875 16.171875 24.753906 16.164062 24.632812 16.15625 C 23.726562 16.109375 22.871094 15.90625 21.996094 15.679688 C 20.34375 15.253906 18.601562 15.230469 16.941406 15.65625 C 16.601562 15.742188 14.601562 16.351562 15.59375 16.910156 C 15.628906 16.933594 15.667969 16.949219 15.707031 16.96875 C 16.019531 16.953125 16.332031 16.9375 16.640625 16.917969 C 16.503906 16.914062 16.367188 16.90625 16.230469 16.890625 C 15.996094 16.859375 15.371094 16.832031 15.738281 16.300781 C 15.78125 16.234375 15.941406 16.179688 16.007812 16.148438 C 16.382812 15.96875 16.804688 15.855469 17.207031 15.761719 C 18.03125 15.574219 18.882812 15.503906 19.722656 15.511719 C 21.203125 15.519531 22.539062 16.113281 23.992188 16.265625 C 24.320312 16.300781 24.679688 16.335938 25.050781 16.351562 " fill-opacity="1" fill-rule="nonzero"/><path fill="#cd7433" d="M 11.9375 15.730469 C 11.929688 15.6875 11.875 15.667969 11.839844 15.675781 C 10.519531 15.953125 9.324219 16.585938 8.046875 16.992188 C 8.074219 16.996094 8.101562 17 8.132812 17 C 8.175781 17 8.214844 17.003906 8.257812 17.003906 C 8.878906 16.84375 9.46875 16.605469 10.070312 16.378906 C 10.441406 16.242188 10.8125 16.101562 11.191406 15.992188 C 11.53125 15.894531 12.078125 15.808594 11.511719 16.253906 C 11.164062 16.527344 10.65625 16.632812 10.230469 16.75 C 9.957031 16.824219 9.757812 16.917969 9.582031 17.035156 C 9.640625 17.035156 9.703125 17.039062 9.761719 17.039062 C 9.800781 17.039062 9.839844 17.039062 9.878906 17.042969 C 10.03125 16.976562 10.1875 16.933594 10.367188 16.882812 C 10.65625 16.800781 10.949219 16.714844 11.222656 16.59375 C 11.605469 16.421875 12.003906 16.1875 11.9375 15.730469 " fill-opacity="1" fill-rule="nonzero"/><path fill="#cd7433" d="M 10.074219 12.925781 C 9.890625 13.039062 9.542969 13.003906 9.335938 13.007812 C 9.320312 13.007812 9.304688 13.007812 9.285156 13.007812 C 9.28125 13.007812 9.273438 13.003906 9.269531 13.003906 C 9.175781 13.003906 9.027344 13.023438 8.941406 12.984375 C 8.796875 12.917969 8.910156 12.824219 9.015625 12.785156 C 9.160156 12.730469 9.332031 12.722656 9.488281 12.714844 C 9.589844 12.710938 10.351562 12.75 10.074219 12.925781 Z M 8.945312 12.664062 C 8.820312 12.710938 8.59375 12.847656 8.6875 13.007812 C 8.691406 13.011719 8.695312 13.011719 8.699219 13.015625 C 8.695312 13.035156 8.699219 13.054688 8.71875 13.0625 C 8.730469 13.0625 8.738281 13.066406 8.746094 13.066406 C 8.882812 13.167969 9.152344 13.15625 9.289062 13.136719 C 9.488281 13.140625 9.6875 13.121094 9.871094 13.097656 C 10.0625 13.070312 10.4375 12.964844 10.203125 12.722656 C 10.070312 12.589844 9.855469 12.585938 9.679688 12.582031 C 9.445312 12.574219 9.164062 12.578125 8.945312 12.664062 " fill-opacity="1" fill-rule="nonzero"/><path fill="#cd7433" d="M 8.773438 15.605469 C 8.757812 15.59375 8.734375 15.585938 8.710938 15.59375 C 8.589844 15.613281 8.488281 15.632812 8.386719 15.609375 C 8.8125 15.382812 9.210938 15.207031 9.707031 15.179688 C 9.613281 15.441406 9.152344 15.542969 8.773438 15.605469 Z M 8.136719 15.539062 C 8.070312 15.574219 8.082031 15.65625 8.136719 15.695312 C 8.328125 15.832031 8.535156 15.816406 8.75 15.730469 C 8.765625 15.726562 8.773438 15.714844 8.78125 15.707031 C 9.257812 15.660156 9.832031 15.550781 9.882812 15.097656 C 9.890625 15.054688 9.84375 15.019531 9.804688 15.019531 C 9.175781 14.996094 8.671875 15.253906 8.136719 15.539062 " fill-opacity="1" fill-rule="nonzero"/><path fill="#cd7433" d="M 13.261719 16.652344 C 13.820312 16.308594 14.269531 16.074219 14.9375 15.992188 C 15.605469 15.910156 16.09375 15.605469 16.726562 15.429688 C 18.328125 14.984375 20.101562 15.03125 21.695312 15.433594 C 22.570312 15.652344 23.417969 15.742188 24.28125 15.773438 C 24.078125 15.742188 23.875 15.714844 23.675781 15.6875 C 24.089844 15.640625 24.519531 15.628906 24.933594 15.585938 C 24.605469 15.597656 24.273438 15.605469 23.941406 15.597656 C 23.136719 15.574219 22.402344 15.402344 21.628906 15.210938 C 20.210938 14.859375 18.90625 14.921875 17.46875 15.144531 C 16.835938 15.238281 16.34375 15.433594 15.757812 15.660156 C 15.195312 15.875 14.574219 15.804688 14.019531 16.042969 C 13.546875 16.25 12.96875 16.75 12.382812 17.054688 C 12.429688 17.050781 12.472656 17.050781 12.519531 17.050781 C 12.554688 17.050781 12.59375 17.050781 12.628906 17.050781 C 12.863281 16.914062 13.082031 16.765625 13.261719 16.652344 " fill-opacity="1" fill-rule="nonzero"/><path fill="#cd7433" d="M 5.164062 14.214844 C 5.394531 14.183594 5.621094 14.164062 5.847656 14.132812 C 6.066406 14.066406 6.296875 13.957031 6.3125 13.78125 C 6.339844 13.4375 5.792969 13.421875 5.574219 13.4375 C 5.3125 13.457031 5.054688 13.492188 4.796875 13.539062 C 4.796875 13.566406 4.796875 13.597656 4.796875 13.625 C 4.792969 13.660156 4.792969 13.699219 4.792969 13.734375 C 4.96875 13.699219 5.140625 13.652344 5.316406 13.625 C 5.453125 13.601562 6.308594 13.5 6.003906 13.886719 C 5.839844 14.097656 5.210938 14.097656 4.980469 14.128906 C 4.914062 14.140625 4.851562 14.148438 4.785156 14.160156 C 4.785156 14.195312 4.785156 14.234375 4.785156 14.269531 C 4.890625 14.25 5 14.234375 5.109375 14.21875 C 5.128906 14.21875 5.144531 14.214844 5.164062 14.214844 " fill-opacity="1" fill-rule="nonzero"/><path fill="#cd7433" d="M 6.300781 16.101562 C 6.894531 15.925781 7.492188 15.5625 8.054688 15.304688 C 8.828125 14.949219 9.457031 14.714844 10.320312 14.628906 C 11.105469 14.546875 11.882812 14.542969 12.667969 14.511719 C 12.890625 14.503906 13.109375 14.472656 13.332031 14.46875 C 13.515625 14.46875 13.742188 14.433594 13.867188 14.589844 C 14.105469 14.882812 13.855469 14.574219 13.890625 14.753906 C 13.914062 14.902344 13.796875 14.960938 13.992188 15.089844 C 14.269531 15.28125 14.910156 15.121094 15.203125 15.058594 C 15.988281 14.898438 16.707031 14.597656 17.519531 14.574219 C 18.15625 14.867188 19.078125 14.699219 19.734375 14.707031 C 20.886719 14.726562 21.960938 15.105469 23.101562 15.183594 C 23.710938 15.226562 24.328125 15.230469 24.945312 15.21875 C 24.941406 15.15625 24.9375 15.09375 24.933594 15.03125 C 24.410156 15.035156 23.882812 15.03125 23.363281 15.007812 C 22.132812 14.957031 20.972656 14.542969 19.734375 14.523438 C 19.15625 14.515625 18.570312 14.5625 17.992188 14.503906 C 17.503906 14.457031 17.441406 14.109375 17.070312 13.945312 C 16.71875 13.792969 16.238281 13.898438 15.867188 13.902344 C 15.296875 13.90625 14.722656 13.902344 14.148438 13.902344 C 12.914062 13.90625 11.679688 13.925781 10.453125 14.085938 C 9.304688 14.230469 8.265625 14.625 7.144531 14.871094 C 6.453125 15.027344 5.742188 14.890625 5.046875 14.886719 C 5.042969 14.925781 5.046875 14.964844 5.058594 15.003906 C 5.761719 15.019531 6.480469 15.167969 7.1875 15.019531 C 8.375 14.761719 9.480469 14.367188 10.699219 14.226562 C 11.84375 14.097656 12.996094 14.082031 14.148438 14.082031 C 14.722656 14.085938 15.296875 14.085938 15.867188 14.085938 C 16.117188 14.082031 16.375 14.054688 16.625 14.0625 C 17.007812 14.070312 17.027344 14.21875 17.25 14.40625 C 16.679688 14.46875 16.140625 14.644531 15.582031 14.792969 C 15.238281 14.882812 14.882812 14.972656 14.523438 14.984375 C 14.363281 14.988281 14.191406 15.039062 14.113281 14.886719 C 14.046875 14.75 14.160156 14.816406 14.152344 14.734375 C 14.078125 14.078125 13.101562 14.332031 12.617188 14.351562 C 11.316406 14.402344 9.859375 14.308594 8.644531 14.847656 C 7.980469 15.140625 7.308594 15.441406 6.664062 15.78125 C 6.175781 16.035156 5.863281 16.019531 5.34375 15.960938 C 5.21875 15.949219 5.105469 15.933594 4.984375 15.941406 C 4.980469 15.964844 4.972656 15.984375 4.964844 16.007812 C 4.960938 16.019531 4.957031 16.035156 4.953125 16.046875 C 5.410156 16.035156 5.835938 16.242188 6.300781 16.101562 " fill-opacity="1" fill-rule="nonzero"/><g clip-path="url(#eccd42fbf7)"><path fill="#cd7433" d="M 5.089844 11.277344 C 5.082031 11.300781 5.074219 11.324219 5.066406 11.347656 C 5.78125 11.40625 6.519531 11.464844 7.199219 11.339844 C 7.660156 11.253906 8.117188 11.082031 8.566406 10.902344 C 8.375 10.914062 8.179688 10.921875 7.984375 10.929688 C 7.808594 11.007812 7.628906 11.078125 7.453125 11.128906 C 6.714844 11.34375 5.890625 11.277344 5.097656 11.25 C 5.09375 11.257812 5.089844 11.269531 5.089844 11.277344 " fill-opacity="1" fill-rule="nonzero"/></g><path fill="#cd7433" d="M 21.992188 13.089844 C 21.84375 13.078125 21.679688 13.0625 21.542969 13.011719 C 21.28125 12.910156 21.292969 12.945312 21.46875 12.855469 C 21.796875 12.6875 22.429688 12.785156 22.800781 12.792969 C 23.203125 12.800781 23.609375 12.800781 24.015625 12.800781 C 24.074219 12.792969 24.132812 12.78125 24.195312 12.773438 C 24.203125 12.773438 24.207031 12.773438 24.214844 12.773438 C 24.269531 12.765625 24.324219 12.757812 24.375 12.753906 C 24.398438 12.75 24.421875 12.75 24.445312 12.746094 C 24.484375 12.742188 24.523438 12.738281 24.5625 12.738281 C 24.625 12.734375 24.691406 12.730469 24.753906 12.730469 C 24.761719 12.703125 24.765625 12.675781 24.769531 12.648438 C 24.179688 12.644531 23.589844 12.652344 23 12.640625 C 22.378906 12.628906 21.753906 12.582031 21.160156 12.785156 C 21.097656 12.804688 21.085938 12.867188 21.125 12.914062 C 21.5 13.371094 22.335938 13.277344 22.855469 13.25 C 23.515625 13.214844 24.179688 13.230469 24.84375 13.222656 C 24.84375 13.210938 24.84375 13.195312 24.84375 13.179688 C 24.539062 13.148438 24.234375 13.113281 23.933594 13.082031 C 23.28125 13.117188 22.632812 13.148438 21.992188 13.089844 " fill-opacity="1" fill-rule="nonzero"/><path fill="#e3af8a" d="M 24.972656 16.09375 C 24.953125 16.046875 24.933594 16 24.910156 15.957031 C 24.921875 15.933594 24.921875 15.898438 24.894531 15.882812 C 24.878906 15.871094 24.863281 15.859375 24.84375 15.851562 C 24.476562 15.800781 24.105469 15.746094 23.738281 15.695312 C 23.742188 15.699219 23.746094 15.707031 23.75 15.710938 C 23.921875 15.796875 24.140625 15.859375 24.332031 15.886719 C 24.472656 15.90625 24.613281 15.910156 24.75 15.945312 C 24.757812 15.96875 24.769531 15.996094 24.777344 16.019531 C 24.824219 16.203125 24.894531 16.382812 24.941406 16.570312 C 24.996094 16.570312 25.054688 16.570312 25.109375 16.574219 C 25.066406 16.402344 25.019531 16.253906 24.972656 16.09375 " fill-opacity="1" fill-rule="nonzero"/><path fill="#e3af8a" d="M 5.066406 16.871094 C 5.105469 16.59375 5.054688 16.324219 5.113281 16.039062 C 5.171875 15.777344 5.199219 15.566406 5.175781 15.292969 C 5.136719 14.890625 5.28125 14.757812 5.601562 14.542969 C 5.769531 14.429688 5.917969 14.320312 6.023438 14.15625 C 5.765625 14.3125 5.488281 14.496094 5.234375 14.640625 C 5.171875 14.675781 5.109375 14.714844 5.074219 14.773438 C 5.007812 14.882812 5.066406 15.023438 5.089844 15.148438 C 5.152344 15.433594 5.046875 15.726562 4.964844 16.007812 C 4.933594 16.113281 4.910156 16.21875 4.890625 16.328125 C 4.886719 16.472656 4.894531 16.621094 4.914062 16.769531 C 4.925781 16.800781 4.941406 16.835938 4.957031 16.867188 C 4.992188 16.867188 5.027344 16.871094 5.066406 16.871094 " fill-opacity="1" fill-rule="nonzero"/><path fill="#e3af8a" d="M 4.84375 13.058594 C 5.128906 12.890625 5.476562 12.84375 5.699219 12.574219 C 5.703125 12.570312 5.703125 12.566406 5.707031 12.558594 C 5.40625 12.683594 5.105469 12.804688 4.808594 12.925781 C 4.808594 13.351562 4.785156 13.839844 4.785156 14.269531 C 4.804688 14.265625 4.824219 14.261719 4.839844 14.257812 C 4.867188 13.859375 4.851562 13.460938 4.84375 13.058594 " fill-opacity="1" fill-rule="nonzero"/><g clip-path="url(#e3700cce75)"><path fill="#e3af8a" d="M 15.941406 10.726562 C 16.308594 10.761719 16.65625 10.8125 17.027344 10.816406 C 17.941406 10.824219 18.851562 10.777344 19.765625 10.800781 C 20.589844 10.820312 21.410156 10.925781 22.226562 11.035156 C 23.082031 11.148438 23.953125 11.144531 24.8125 11.242188 C 24.828125 11.480469 24.835938 11.707031 24.824219 11.9375 C 24.777344 12.195312 24.734375 12.453125 24.746094 12.714844 C 24.746094 12.71875 24.75 12.722656 24.75 12.730469 C 24.863281 12.199219 24.925781 11.65625 24.941406 11.117188 C 24.917969 11.132812 24.773438 11.089844 24.75 11.105469 C 21.25 10.660156 18.046875 10.429688 14.523438 10.609375 C 11.457031 10.765625 8.214844 10.917969 5.148438 11.074219 C 5.011719 11.535156 4.878906 11.996094 4.742188 12.453125 C 4.789062 12.457031 4.832031 12.457031 4.875 12.460938 C 4.882812 12.453125 4.886719 12.441406 4.890625 12.433594 C 4.90625 12.363281 4.917969 12.292969 4.933594 12.222656 C 4.992188 12.121094 5.058594 12.019531 5.109375 11.910156 C 5.210938 11.6875 5.285156 11.445312 5.308594 11.203125 C 5.625 11.183594 5.964844 11.246094 6.28125 11.234375 C 6.730469 11.21875 7.175781 11.171875 7.625 11.152344 C 8.355469 11.121094 9.121094 11.167969 9.847656 11.089844 C 10.269531 11.046875 10.667969 10.9375 11.097656 10.925781 C 11.515625 10.910156 11.929688 10.929688 12.347656 10.90625 C 13.1875 10.855469 14.035156 10.863281 14.871094 10.789062 C 15.230469 10.753906 15.585938 10.695312 15.941406 10.726562 " fill-opacity="1" fill-rule="nonzero"/></g><path fill="#e3af8a" d="M 5.980469 14.074219 C 5.960938 14.089844 5.941406 14.105469 5.921875 14.121094 C 5.964844 14.117188 6.007812 14.109375 6.050781 14.101562 C 6.046875 14.070312 6.007812 14.046875 5.980469 14.074219 " fill-opacity="1" fill-rule="nonzero"/><path fill="#e3af8a" d="M 5.660156 12.507812 C 5.632812 12.511719 5.609375 12.519531 5.582031 12.53125 C 5.621094 12.53125 5.664062 12.535156 5.707031 12.535156 C 5.703125 12.519531 5.6875 12.503906 5.660156 12.507812 " fill-opacity="1" fill-rule="nonzero"/><path fill="#e3af8a" d="M 23.207031 12.976562 C 23.21875 12.972656 23.226562 12.972656 23.238281 12.96875 C 23.226562 12.964844 23.214844 12.96875 23.207031 12.976562 " fill-opacity="1" fill-rule="nonzero"/><path fill="#e3af8a" d="M 23.738281 15.679688 C 23.804688 15.675781 23.875 15.667969 23.941406 15.664062 C 23.882812 15.652344 23.824219 15.648438 23.765625 15.652344 C 23.753906 15.65625 23.742188 15.667969 23.738281 15.679688 " fill-opacity="1" fill-rule="nonzero"/><path fill="#e3af8a" d="M 24.84375 13.179688 C 24.292969 13.121094 23.742188 13.058594 23.191406 13 C 23.1875 13.015625 23.191406 13.035156 23.21875 13.042969 C 23.480469 13.121094 23.71875 13.136719 23.992188 13.164062 C 24.53125 13.214844 24.625 13.234375 24.667969 13.761719 C 24.714844 14.359375 24.65625 15.015625 24.847656 15.59375 C 24.886719 15.589844 24.925781 15.589844 24.960938 15.585938 C 24.925781 14.792969 24.878906 13.972656 24.84375 13.179688 " fill-opacity="1" fill-rule="nonzero"/><g clip-path="url(#c6d26c5a31)"><path fill="#e3af8a" d="M 1.203125 16.746094 C 1.15625 16.199219 1.121094 15.652344 1.078125 15.109375 C 1.296875 15.246094 1.5625 15.320312 1.820312 15.328125 C 2.09375 15.332031 2.488281 15.355469 2.695312 15.148438 C 2.742188 15.105469 2.6875 15.046875 2.632812 15.070312 C 2.617188 15.078125 2.597656 15.082031 2.578125 15.089844 C 2.585938 15.09375 2.597656 15.097656 2.605469 15.101562 C 2.347656 15.203125 2.113281 15.230469 1.878906 15.210938 C 1.824219 15.210938 1.773438 15.207031 1.722656 15.207031 C 1.628906 15.199219 1.542969 15.171875 1.457031 15.136719 C 1.300781 15.09375 1.144531 15.046875 0.972656 14.992188 C 1.007812 15.328125 0.980469 15.710938 0.976562 16.074219 C 1.003906 16.464844 1.046875 16.855469 1.066406 17.246094 C 1.066406 17.253906 1.066406 17.265625 1.066406 17.273438 C 1.089844 17.503906 1.117188 17.734375 1.152344 17.964844 C 1.195312 17.964844 1.238281 17.964844 1.285156 17.964844 C 1.164062 17.605469 1.230469 17.089844 1.203125 16.746094 " fill-opacity="1" fill-rule="nonzero"/></g><g clip-path="url(#12f8cf1b51)"><path fill="#e3af8a" d="M 1.085938 14.621094 C 1.148438 14.269531 1.109375 13.90625 1.128906 13.550781 C 1.148438 13.171875 1.222656 12.804688 1.265625 12.429688 C 1.558594 12.511719 1.964844 12.367188 2.246094 12.328125 C 3 12.214844 3.75 12.207031 4.503906 12.125 C 4.539062 12.121094 4.5625 12.101562 4.578125 12.078125 C 3.453125 12.054688 2.328125 12.136719 1.222656 12.324219 C 1.214844 12.324219 1.210938 12.328125 1.203125 12.328125 C 1.199219 12.351562 1.195312 12.375 1.191406 12.398438 C 1.191406 12.410156 1.191406 12.417969 1.1875 12.425781 C 1.066406 13.085938 0.9375 13.785156 0.972656 14.453125 C 0.980469 14.503906 0.988281 14.554688 0.996094 14.601562 C 1.023438 14.609375 1.054688 14.617188 1.085938 14.621094 " fill-opacity="1" fill-rule="nonzero"/></g><g clip-path="url(#14124da3a0)"><path fill="#e3af8a" d="M 25.320312 11.945312 C 26.117188 12.003906 26.902344 11.929688 27.695312 12.046875 C 28.132812 12.109375 28.644531 12.265625 29.085938 12.171875 C 29.082031 12.234375 29.082031 12.296875 29.078125 12.347656 C 29.058594 12.695312 29.011719 13.035156 28.9375 13.375 C 28.9375 13.386719 28.9375 13.394531 28.9375 13.402344 C 28.980469 13.394531 29.023438 13.386719 29.066406 13.378906 C 29.0625 12.914062 29.214844 12.46875 29.300781 12.011719 C 29.027344 11.992188 28.753906 11.972656 28.484375 11.957031 C 28.484375 11.957031 28.484375 11.960938 28.488281 11.964844 C 28.457031 11.957031 28.425781 11.953125 28.398438 11.949219 C 27.359375 11.886719 26.320312 11.847656 25.28125 11.84375 C 25.246094 11.871094 25.257812 11.941406 25.320312 11.945312 " fill-opacity="1" fill-rule="nonzero"/></g><g clip-path="url(#1fee1b2a2e)"><path fill="#e3af8a" d="M 29.003906 15.625 C 28.65625 15.617188 28.308594 15.609375 27.960938 15.597656 C 28.09375 15.652344 28.238281 15.667969 28.382812 15.664062 C 28.578125 15.660156 28.746094 15.675781 28.925781 15.710938 C 28.636719 16.285156 28.726562 17.117188 28.796875 17.726562 C 28.832031 17.730469 28.863281 17.730469 28.898438 17.730469 C 28.90625 17.683594 28.914062 17.636719 28.917969 17.585938 C 28.808594 17.007812 28.796875 16.40625 28.976562 15.851562 C 28.984375 15.808594 28.992188 15.765625 29 15.726562 C 29.007812 15.726562 29.015625 15.726562 29.023438 15.730469 C 29.03125 15.703125 29.042969 15.675781 29.050781 15.648438 C 29.035156 15.640625 29.019531 15.632812 29.003906 15.625 " fill-opacity="1" fill-rule="nonzero"/></g><g clip-path="url(#6139dea7f6)"><path fill="#e3af8a" d="M 29.160156 13.863281 C 29.15625 13.871094 29.15625 13.875 29.152344 13.878906 C 29.148438 13.871094 29.144531 13.867188 29.140625 13.863281 C 29.109375 13.867188 29.082031 13.867188 29.050781 13.867188 C 29.042969 13.867188 29.035156 13.867188 29.027344 13.867188 C 28.902344 13.871094 28.785156 13.871094 28.664062 13.867188 C 28.617188 13.871094 28.570312 13.878906 28.527344 13.878906 C 28.359375 13.878906 28.15625 13.886719 27.996094 13.820312 C 27.945312 13.8125 27.898438 13.808594 27.851562 13.800781 C 27.851562 13.804688 27.851562 13.8125 27.855469 13.816406 C 27.804688 13.804688 27.753906 13.792969 27.703125 13.78125 C 27.558594 13.757812 27.410156 13.730469 27.265625 13.695312 C 27.253906 13.695312 27.246094 13.695312 27.234375 13.695312 C 27.238281 13.699219 27.242188 13.703125 27.246094 13.707031 C 27.488281 13.882812 27.792969 13.910156 28.082031 13.945312 C 28.402344 13.984375 28.777344 14.054688 29.097656 13.957031 C 29.097656 13.972656 29.101562 13.988281 29.105469 14.003906 C 29.070312 14.160156 29.089844 14.332031 29.097656 14.492188 C 29.097656 14.53125 29.097656 14.570312 29.097656 14.609375 C 29.078125 14.796875 29.0625 14.988281 29.050781 15.179688 C 29.050781 15.203125 29.0625 15.214844 29.082031 15.21875 C 29.085938 15.253906 29.089844 15.289062 29.097656 15.324219 C 29.105469 15.324219 29.113281 15.320312 29.121094 15.316406 C 29.128906 14.835938 29.15625 14.347656 29.160156 13.863281 " fill-opacity="1" fill-rule="nonzero"/></g></svg>